<svg width="925" height="59" viewBox="0 0 925 59" fill="none" xmlns="http://www.w3.org/2000/svg">
<path d="M1.51773 46.9924L4.4308 54.2629L7.34387 46.9924H8.86772V55.903H7.6927V52.433L7.80286 48.6876L4.87755 55.903H3.97793L1.05874 48.706L1.17502 52.433V55.903H0V46.9924H1.51773Z" fill="#7F7F7F"/>
<path d="M13.5127 56.0254C12.6151 56.0254 11.8848 55.7316 11.3218 55.1441C10.7588 54.5525 10.4772 53.7631 10.4772 52.7757V52.5677C10.4772 51.9108 10.6017 51.3253 10.8506 50.8112C11.1035 50.2931 11.4544 49.8892 11.9032 49.5995C12.3561 49.3057 12.8456 49.1589 13.372 49.1589C14.2328 49.1589 14.9019 49.4424 15.3793 50.0095C15.8566 50.5766 16.0953 51.3886 16.0953 52.4453V52.9165H11.6094C11.6257 53.5693 11.8155 54.0976 12.1786 54.5015C12.5458 54.9014 13.0109 55.1013 13.5739 55.1013C13.9737 55.1013 14.3124 55.0197 14.5898 54.8565C14.8672 54.6933 15.11 54.4771 15.3181 54.2078L16.0096 54.7463C15.4548 55.599 14.6225 56.0254 13.5127 56.0254ZM13.372 50.0891C12.915 50.0891 12.5315 50.2564 12.2214 50.5909C11.9113 50.9214 11.7196 51.3865 11.6461 51.9863H14.9631V51.9006C14.9305 51.3253 14.7755 50.8806 14.498 50.5664C14.2206 50.2482 13.8452 50.0891 13.372 50.0891Z" fill="#7F7F7F"/>
<path d="M21.2666 54.1466C21.2666 53.8406 21.1503 53.604 20.9178 53.4367C20.6893 53.2653 20.2874 53.1184 19.7122 52.996C19.141 52.8736 18.6861 52.7268 18.3474 52.5554C18.0129 52.3841 17.764 52.1801 17.6008 51.9434C17.4417 51.7068 17.3621 51.4253 17.3621 51.0989C17.3621 50.5562 17.5906 50.0973 18.0476 49.7219C18.5086 49.3465 19.0961 49.1589 19.8101 49.1589C20.5608 49.1589 21.1687 49.3527 21.6338 49.7403C22.103 50.1279 22.3376 50.6236 22.3376 51.2274H21.1993C21.1993 50.9173 21.0667 50.6501 20.8015 50.4257C20.5404 50.2013 20.2099 50.0891 19.8101 50.0891C19.398 50.0891 19.0757 50.1789 18.8431 50.3584C18.6106 50.5379 18.4943 50.7725 18.4943 51.0622C18.4943 51.3355 18.6024 51.5415 18.8187 51.6803C19.0349 51.819 19.4245 51.9516 19.9876 52.0781C20.5547 52.2045 21.0137 52.3555 21.3645 52.5309C21.7154 52.7064 21.9745 52.9185 22.1418 53.1674C22.3131 53.4122 22.3988 53.7121 22.3988 54.067C22.3988 54.6586 22.1622 55.1339 21.6889 55.493C21.2156 55.8479 20.6016 56.0254 19.8468 56.0254C19.3164 56.0254 18.8472 55.9315 18.4392 55.7439C18.0312 55.5562 17.711 55.2951 17.4784 54.9605C17.2499 54.6219 17.1357 54.2567 17.1357 53.8651H18.2679C18.2883 54.2445 18.4392 54.5464 18.7207 54.7708C19.0063 54.9911 19.3817 55.1013 19.8468 55.1013C20.2752 55.1013 20.6179 55.0156 20.8749 54.8442C21.1361 54.6688 21.2666 54.4363 21.2666 54.1466Z" fill="#7F7F7F"/>
<path d="M27.7292 54.1466C27.7292 53.8406 27.6129 53.604 27.3804 53.4367C27.1519 53.2653 26.75 53.1184 26.1748 52.996C25.6036 52.8736 25.1487 52.7268 24.81 52.5554C24.4755 52.3841 24.2266 52.1801 24.0634 51.9434C23.9043 51.7068 23.8247 51.4253 23.8247 51.0989C23.8247 50.5562 24.0532 50.0973 24.5102 49.7219C24.9712 49.3465 25.5587 49.1589 26.2727 49.1589C27.0234 49.1589 27.6313 49.3527 28.0964 49.7403C28.5656 50.1279 28.8002 50.6236 28.8002 51.2274H27.6619C27.6619 50.9173 27.5293 50.6501 27.2641 50.4257C27.003 50.2013 26.6725 50.0891 26.2727 50.0891C25.8606 50.0891 25.5383 50.1789 25.3057 50.3584C25.0732 50.5379 24.9569 50.7725 24.9569 51.0622C24.9569 51.3355 25.065 51.5415 25.2813 51.6803C25.4975 51.819 25.8871 51.9516 26.4502 52.0781C27.0173 52.2045 27.4763 52.3555 27.8271 52.5309C28.178 52.7064 28.4371 52.9185 28.6044 53.1674C28.7757 53.4122 28.8614 53.7121 28.8614 54.067C28.8614 54.6586 28.6248 55.1339 28.1515 55.493C27.6782 55.8479 27.0642 56.0254 26.3094 56.0254C25.779 56.0254 25.3098 55.9315 24.9018 55.7439C24.4938 55.5562 24.1736 55.2951 23.941 54.9605C23.7125 54.6219 23.5983 54.2567 23.5983 53.8651H24.7305C24.7509 54.2445 24.9018 54.5464 25.1833 54.7708C25.4689 54.9911 25.8443 55.1013 26.3094 55.1013C26.7378 55.1013 27.0805 55.0156 27.3375 54.8442C27.5987 54.6688 27.7292 54.4363 27.7292 54.1466Z" fill="#7F7F7F"/>
<path d="M34.4244 55.903C34.3591 55.7724 34.3061 55.5399 34.2653 55.2053C33.7389 55.752 33.1106 56.0254 32.3803 56.0254C31.7275 56.0254 31.191 55.8418 30.7708 55.4746C30.3546 55.1033 30.1466 54.6341 30.1466 54.067C30.1466 53.3775 30.4077 52.843 30.9299 52.4636C31.4562 52.0801 32.1947 51.8883 33.1453 51.8883H34.2469V51.3682C34.2469 50.9724 34.1286 50.6582 33.8919 50.4257C33.6553 50.1891 33.3065 50.0707 32.8454 50.0707C32.4415 50.0707 32.1029 50.1727 31.8295 50.3767C31.5562 50.5807 31.4195 50.8276 31.4195 51.1172H30.2812C30.2812 50.7868 30.3975 50.4685 30.63 50.1625C30.8667 49.8525 31.1849 49.6077 31.5847 49.4281C31.9887 49.2486 32.4313 49.1589 32.9128 49.1589C33.6757 49.1589 34.2734 49.3506 34.7059 49.7341C35.1384 50.1136 35.3628 50.6378 35.3791 51.307V54.3547C35.3791 54.9626 35.4566 55.446 35.6116 55.8051V55.903H34.4244ZM32.5456 55.0401C32.9005 55.0401 33.2371 54.9483 33.5553 54.7647C33.8736 54.5811 34.1041 54.3424 34.2469 54.0487V52.69H33.3595C31.9723 52.69 31.2787 53.096 31.2787 53.9079C31.2787 54.2629 31.3971 54.5403 31.6337 54.7402C31.8703 54.9401 32.1743 55.0401 32.5456 55.0401Z" fill="#7F7F7F"/>
<path d="M36.8846 52.5371C36.8846 51.5048 37.1232 50.6848 37.6006 50.0769C38.0779 49.4649 38.7103 49.1589 39.4978 49.1589C40.3056 49.1589 40.9359 49.4445 41.3888 50.0157L41.4439 49.2813H42.4781V55.7439C42.4781 56.6007 42.2232 57.2759 41.7132 57.7696C41.2072 58.2632 40.5259 58.5101 39.6691 58.5101C39.1918 58.5101 38.7246 58.4081 38.2677 58.2041C37.8107 58.0001 37.4619 57.7206 37.2212 57.3656L37.8087 56.6863C38.2942 57.2861 38.8878 57.586 39.5896 57.586C40.1403 57.586 40.5687 57.4309 40.8747 57.1208C41.1848 56.8108 41.3398 56.3742 41.3398 55.8112V55.242C40.887 55.7643 40.2689 56.0254 39.4855 56.0254C38.7103 56.0254 38.082 55.7133 37.6006 55.089C37.1232 54.4648 36.8846 53.6142 36.8846 52.5371ZM38.0229 52.6656C38.0229 53.4122 38.1759 53.9997 38.4819 54.4281C38.7879 54.8524 39.2162 55.0646 39.767 55.0646C40.481 55.0646 41.0053 54.7402 41.3398 54.0915V51.0683C40.9931 50.4359 40.4729 50.1197 39.7793 50.1197C39.2285 50.1197 38.7981 50.3339 38.488 50.7623C38.1779 51.1907 38.0229 51.8251 38.0229 52.6656Z" fill="#7F7F7F"/>
<path d="M46.9396 56.0254C46.042 56.0254 45.3117 55.7316 44.7486 55.1441C44.1856 54.5525 43.9041 53.7631 43.9041 52.7757V52.5677C43.9041 51.9108 44.0285 51.3253 44.2774 50.8112C44.5304 50.2931 44.8812 49.8892 45.33 49.5995C45.7829 49.3057 46.2725 49.1589 46.7988 49.1589C47.6597 49.1589 48.3288 49.4424 48.8061 50.0095C49.2835 50.5766 49.5221 51.3886 49.5221 52.4453V52.9165H45.0363C45.0526 53.5693 45.2423 54.0976 45.6054 54.5015C45.9726 54.9014 46.4377 55.1013 47.0007 55.1013C47.4006 55.1013 47.7392 55.0197 48.0166 54.8565C48.2941 54.6933 48.5368 54.4771 48.7449 54.2078L49.4365 54.7463C48.8816 55.599 48.0493 56.0254 46.9396 56.0254ZM46.7988 50.0891C46.3418 50.0891 45.9583 50.2564 45.6483 50.5909C45.3382 50.9214 45.1464 51.3865 45.073 51.9863H48.39V51.9006C48.3573 51.3253 48.2023 50.8806 47.9249 50.5664C47.6474 50.2482 47.2721 50.0891 46.7988 50.0891Z" fill="#7F7F7F"/>
<path d="M54.6934 54.1466C54.6934 53.8406 54.5772 53.604 54.3446 53.4367C54.1161 53.2653 53.7143 53.1184 53.139 52.996C52.5678 52.8736 52.1129 52.7268 51.7743 52.5554C51.4397 52.3841 51.1908 52.1801 51.0276 51.9434C50.8685 51.7068 50.789 51.4253 50.789 51.0989C50.789 50.5562 51.0174 50.0973 51.4744 49.7219C51.9354 49.3465 52.5229 49.1589 53.2369 49.1589C53.9876 49.1589 54.5955 49.3527 55.0606 49.7403C55.5298 50.1279 55.7644 50.6236 55.7644 51.2274H54.6261C54.6261 50.9173 54.4935 50.6501 54.2283 50.4257C53.9672 50.2013 53.6367 50.0891 53.2369 50.0891C52.8248 50.0891 52.5025 50.1789 52.27 50.3584C52.0374 50.5379 51.9211 50.7725 51.9211 51.0622C51.9211 51.3355 52.0293 51.5415 52.2455 51.6803C52.4617 51.819 52.8514 51.9516 53.4144 52.0781C53.9815 52.2045 54.4405 52.3555 54.7914 52.5309C55.1422 52.7064 55.4013 52.9185 55.5686 53.1674C55.7399 53.4122 55.8256 53.7121 55.8256 54.067C55.8256 54.6586 55.589 55.1339 55.1157 55.493C54.6425 55.8479 54.0284 56.0254 53.2736 56.0254C52.7432 56.0254 52.2741 55.9315 51.8661 55.7439C51.4581 55.5562 51.1378 55.2951 50.9052 54.9605C50.6768 54.6219 50.5625 54.2567 50.5625 53.8651H51.6947C51.7151 54.2445 51.8661 54.5464 52.1476 54.7708C52.4332 54.9911 52.8085 55.1013 53.2736 55.1013C53.702 55.1013 54.0447 55.0156 54.3018 54.8442C54.5629 54.6688 54.6934 54.4363 54.6934 54.1466Z" fill="#7F7F7F"/>
<circle opacity="0.1" cx="27.8406" cy="18.0912" r="17.0912" fill="#F47920"/>
<rect x="13.0286" y="7.83618" width="29.6247" height="20.5094" rx="2.27882" stroke="#F47920" stroke-width="1.13941"/>
<path d="M13.0283 8.86182L25.8949 17.7695C27.0655 18.5799 28.6158 18.5799 29.7863 17.7695L42.653 8.86182" stroke="#F47920" stroke-width="1.13941"/>
<path d="M107.316 53.0757C107.206 54.0182 106.857 54.7464 106.27 55.2605C105.686 55.7705 104.909 56.0255 103.938 56.0255C102.885 56.0255 102.041 55.6481 101.404 54.8933C100.772 54.1385 100.456 53.1287 100.456 51.864V51.0072C100.456 50.1789 100.603 49.4507 100.896 48.8224C101.194 48.1941 101.614 47.7126 102.157 47.3781C102.7 47.0394 103.328 46.8701 104.042 46.8701C104.988 46.8701 105.747 47.1353 106.318 47.6657C106.89 48.192 107.222 48.9223 107.316 49.8566H106.135C106.033 49.1467 105.811 48.6327 105.468 48.3144C105.129 47.9962 104.654 47.8371 104.042 47.8371C103.291 47.8371 102.702 48.1145 102.273 48.6694C101.849 49.2242 101.637 50.0137 101.637 51.0378V51.9007C101.637 52.8676 101.839 53.6367 102.243 54.2079C102.647 54.7791 103.212 55.0647 103.938 55.0647C104.591 55.0647 105.09 54.9178 105.437 54.624C105.788 54.3262 106.021 53.8101 106.135 53.0757H107.316Z" fill="#7F7F7F"/>
<path d="M112.836 55.9031C112.771 55.7725 112.718 55.54 112.677 55.2054C112.151 55.7521 111.522 56.0255 110.792 56.0255C110.139 56.0255 109.603 55.8419 109.183 55.4747C108.766 55.1034 108.558 54.6342 108.558 54.0671C108.558 53.3776 108.819 52.8431 109.342 52.4637C109.868 52.0802 110.606 51.8884 111.557 51.8884H112.659V51.3682C112.659 50.9725 112.54 50.6583 112.304 50.4258C112.067 50.1891 111.718 50.0708 111.257 50.0708C110.853 50.0708 110.515 50.1728 110.241 50.3768C109.968 50.5808 109.831 50.8277 109.831 51.1173H108.693C108.693 50.7869 108.809 50.4686 109.042 50.1626C109.278 49.8525 109.597 49.6078 109.997 49.4282C110.4 49.2487 110.843 49.159 111.325 49.159C112.087 49.159 112.685 49.3507 113.118 49.7342C113.55 50.1137 113.775 50.6379 113.791 51.307V54.3547C113.791 54.9627 113.868 55.4461 114.023 55.8052V55.9031H112.836ZM110.957 55.0402C111.312 55.0402 111.649 54.9484 111.967 54.7648C112.285 54.5812 112.516 54.3425 112.659 54.0488V52.6901H111.771C110.384 52.6901 109.691 53.0961 109.691 53.908C109.691 54.2629 109.809 54.5404 110.045 54.7403C110.282 54.9402 110.586 55.0402 110.957 55.0402Z" fill="#7F7F7F"/>
<path d="M116.796 55.9031H115.664V46.5029H116.796V55.9031Z" fill="#7F7F7F"/>
<path d="M121.361 56.0255C120.464 56.0255 119.733 55.7317 119.17 55.1442C118.607 54.5526 118.326 53.7632 118.326 52.7758V52.5677C118.326 51.9109 118.45 51.3254 118.699 50.8113C118.952 50.2932 119.303 49.8893 119.752 49.5996C120.205 49.3058 120.694 49.159 121.22 49.159C122.081 49.159 122.75 49.4425 123.228 50.0096C123.705 50.5767 123.944 51.3886 123.944 52.4453V52.9166H119.458C119.474 53.5694 119.664 54.0977 120.027 54.5016C120.394 54.9015 120.859 55.1014 121.422 55.1014C121.822 55.1014 122.161 55.0198 122.438 54.8566C122.716 54.6934 122.958 54.4771 123.167 54.2079L123.858 54.7464C123.303 55.5991 122.471 56.0255 121.361 56.0255ZM121.22 50.0892C120.763 50.0892 120.38 50.2565 120.07 50.591C119.76 50.9215 119.568 51.3866 119.495 51.9863H122.812V51.9007C122.779 51.3254 122.624 50.8807 122.346 50.5665C122.069 50.2483 121.694 50.0892 121.22 50.0892Z" fill="#7F7F7F"/>
<path d="M126.331 49.2814L126.367 50.1137C126.873 49.4772 127.534 49.159 128.35 49.159C129.749 49.159 130.455 49.9484 130.468 51.5274V55.9031H129.335V51.5212C129.331 51.0439 129.221 50.691 129.005 50.4625C128.793 50.234 128.46 50.1198 128.007 50.1198C127.64 50.1198 127.318 50.2177 127.04 50.4135C126.763 50.6094 126.547 50.8664 126.392 51.1846V55.9031H125.26V49.2814H126.331Z" fill="#7F7F7F"/>
<path d="M131.9 52.5371C131.9 51.5212 132.14 50.7053 132.622 50.0892C133.103 49.469 133.734 49.159 134.513 49.159C135.288 49.159 135.902 49.4242 136.355 49.9545V46.5029H137.487V55.9031H136.447L136.392 55.1932C135.939 55.748 135.308 56.0255 134.501 56.0255C133.734 56.0255 133.107 55.7113 132.622 55.083C132.14 54.4547 131.9 53.6346 131.9 52.6228V52.5371ZM133.032 52.6657C133.032 53.4164 133.187 54.0039 133.497 54.4282C133.807 54.8525 134.235 55.0647 134.782 55.0647C135.5 55.0647 136.024 54.7423 136.355 54.0977V51.0561C136.016 50.4319 135.496 50.1198 134.794 50.1198C134.239 50.1198 133.807 50.334 133.497 50.7624C133.187 51.1908 133.032 51.8252 133.032 52.6657Z" fill="#7F7F7F"/>
<path d="M143.338 55.9031C143.272 55.7725 143.219 55.54 143.179 55.2054C142.652 55.7521 142.024 56.0255 141.294 56.0255C140.641 56.0255 140.104 55.8419 139.684 55.4747C139.268 55.1034 139.06 54.6342 139.06 54.0671C139.06 53.3776 139.321 52.8431 139.843 52.4637C140.37 52.0802 141.108 51.8884 142.059 51.8884H143.16V51.3682C143.16 50.9725 143.042 50.6583 142.805 50.4258C142.569 50.1891 142.22 50.0708 141.759 50.0708C141.355 50.0708 141.016 50.1728 140.743 50.3768C140.469 50.5808 140.333 50.8277 140.333 51.1173H139.195C139.195 50.7869 139.311 50.4686 139.543 50.1626C139.78 49.8525 140.098 49.6078 140.498 49.4282C140.902 49.2487 141.345 49.159 141.826 49.159C142.589 49.159 143.187 49.3507 143.619 49.7342C144.052 50.1137 144.276 50.6379 144.292 51.307V54.3547C144.292 54.9627 144.37 55.4461 144.525 55.8052V55.9031H143.338ZM141.459 55.0402C141.814 55.0402 142.15 54.9484 142.469 54.7648C142.787 54.5812 143.017 54.3425 143.16 54.0488V52.6901H142.273C140.886 52.6901 140.192 53.0961 140.192 53.908C140.192 54.2629 140.31 54.5404 140.547 54.7403C140.784 54.9402 141.088 55.0402 141.459 55.0402Z" fill="#7F7F7F"/>
<path d="M149.268 50.2973C149.096 50.2687 148.911 50.2544 148.711 50.2544C147.968 50.2544 147.465 50.5706 147.199 51.203V55.9031H146.067V49.2814H147.169L147.187 50.0463C147.558 49.4548 148.085 49.159 148.766 49.159C148.986 49.159 149.154 49.1875 149.268 49.2446V50.2973Z" fill="#7F7F7F"/>
<circle opacity="0.1" cx="124.728" cy="18.0912" r="17.0912" fill="#F47920"/>
<mask id="mask0" mask-type="alpha" maskUnits="userSpaceOnUse" x="109" y="4" width="32" height="25">
<path fill-rule="evenodd" clip-rule="evenodd" d="M131.759 5.45534C131.711 5.18957 131.478 4.98804 131.199 4.98804C130.884 4.98804 130.629 5.2431 130.629 5.55774V7.26673H119.137V5.55774L119.128 5.45534C119.079 5.18957 118.847 4.98804 118.567 4.98804C118.252 4.98804 117.997 5.2431 117.997 5.55774V7.26673H112.195C110.622 7.26673 109.346 8.54206 109.346 10.1153V26.067C109.346 27.6402 110.622 28.9156 112.195 28.9156H137.262C138.835 28.9156 140.11 27.6402 140.11 26.067V10.1153C140.11 8.54206 138.835 7.26673 137.262 7.26673H131.768V5.55774L131.759 5.45534ZM117.997 10.1154V8.40642H112.195C111.251 8.40642 110.486 9.17161 110.486 10.1155V12.394H138.971V10.1155C138.971 9.17161 138.206 8.40642 137.262 8.40642H131.768V10.1154C131.768 10.43 131.513 10.6851 131.199 10.6851C130.919 10.6851 130.686 10.4836 130.638 10.2178L130.629 10.1154V8.40642H119.137V10.1154C119.137 10.43 118.882 10.6851 118.567 10.6851C118.287 10.6851 118.055 10.4836 118.007 10.2178L117.997 10.1154ZM138.971 13.5334H110.486V26.0673C110.486 27.0112 111.251 27.7764 112.195 27.7764H137.262C138.206 27.7764 138.971 27.0112 138.971 26.0673V13.5334Z" fill="white"/>
</mask>
<g mask="url(#mask0)">
<rect x="107.637" y="1" width="34.1824" height="34.1824" fill="#F47920"/>
</g>
<path d="M203.934 53.0757C203.824 54.0181 203.475 54.7464 202.888 55.2605C202.305 55.7705 201.527 56.0255 200.556 56.0255C199.504 56.0255 198.659 55.6481 198.023 54.8933C197.39 54.1385 197.074 53.1287 197.074 51.8639V51.0072C197.074 50.1789 197.221 49.4507 197.515 48.8224C197.813 48.1941 198.233 47.7126 198.775 47.3781C199.318 47.0394 199.946 46.8701 200.66 46.8701C201.607 46.8701 202.366 47.1353 202.937 47.6657C203.508 48.192 203.841 48.9223 203.934 49.8566H202.753C202.651 49.1467 202.429 48.6326 202.086 48.3144C201.748 47.9962 201.272 47.8371 200.66 47.8371C199.91 47.8371 199.32 48.1145 198.892 48.6694C198.467 49.2242 198.255 50.0137 198.255 51.0378V51.9007C198.255 52.8676 198.457 53.6367 198.861 54.2079C199.265 54.7791 199.83 55.0646 200.556 55.0646C201.209 55.0646 201.709 54.9178 202.056 54.624C202.407 54.3262 202.639 53.8101 202.753 53.0757H203.934Z" fill="#7F7F7F"/>
<path d="M205.067 52.531C205.067 51.8823 205.193 51.2989 205.446 50.7807C205.703 50.2626 206.058 49.8627 206.511 49.5812C206.968 49.2997 207.488 49.159 208.072 49.159C208.973 49.159 209.701 49.4711 210.256 50.0953C210.815 50.7195 211.095 51.5498 211.095 52.5861V52.6657C211.095 53.3103 210.97 53.8896 210.721 54.4037C210.477 54.9137 210.124 55.3115 209.663 55.5971C209.206 55.8827 208.679 56.0255 208.084 56.0255C207.186 56.0255 206.458 55.7134 205.899 55.0891C205.344 54.4649 205.067 53.6387 205.067 52.6106V52.531ZM206.205 52.6657C206.205 53.4 206.374 53.9896 206.713 54.4343C207.056 54.879 207.513 55.1014 208.084 55.1014C208.659 55.1014 209.116 54.877 209.455 54.4282C209.793 53.9753 209.963 53.3429 209.963 52.531C209.963 51.8048 209.789 51.2173 209.442 50.7685C209.1 50.3156 208.643 50.0892 208.072 50.0892C207.513 50.0892 207.062 50.3115 206.719 50.7562C206.376 51.201 206.205 51.8374 206.205 52.6657Z" fill="#7F7F7F"/>
<path d="M213.586 49.2814L213.622 50.1137C214.128 49.4772 214.789 49.159 215.605 49.159C217.005 49.159 217.71 49.9484 217.723 51.5274V55.9031H216.59V51.5212C216.586 51.0439 216.476 50.691 216.26 50.4625C216.048 50.234 215.715 50.1198 215.262 50.1198C214.895 50.1198 214.573 50.2177 214.295 50.4135C214.018 50.6094 213.802 50.8664 213.647 51.1846V55.9031H212.515V49.2814H213.586Z" fill="#7F7F7F"/>
<path d="M220.966 47.6779V49.2814H222.202V50.1565H220.966V54.2629C220.966 54.5281 221.021 54.7281 221.131 54.8627C221.242 54.9932 221.429 55.0585 221.694 55.0585C221.825 55.0585 222.004 55.034 222.233 54.9851V55.9031C221.935 55.9847 221.645 56.0255 221.364 56.0255C220.858 56.0255 220.477 55.8725 220.22 55.5665C219.962 55.2605 219.834 54.826 219.834 54.2629V50.1565H218.628V49.2814H219.834V47.6779H220.966Z" fill="#7F7F7F"/>
<path d="M227.618 55.9031C227.553 55.7725 227.5 55.54 227.459 55.2054C226.933 55.7521 226.305 56.0255 225.574 56.0255C224.922 56.0255 224.385 55.8419 223.965 55.4747C223.549 55.1034 223.341 54.6342 223.341 54.0671C223.341 53.3776 223.602 52.8431 224.124 52.4637C224.65 52.0802 225.389 51.8884 226.339 51.8884H227.441V51.3682C227.441 50.9725 227.323 50.6583 227.086 50.4258C226.849 50.1891 226.501 50.0708 226.04 50.0708C225.636 50.0708 225.297 50.1728 225.024 50.3768C224.75 50.5808 224.614 50.8276 224.614 51.1173H223.475C223.475 50.7868 223.592 50.4686 223.824 50.1626C224.061 49.8525 224.379 49.6077 224.779 49.4282C225.183 49.2487 225.625 49.159 226.107 49.159C226.87 49.159 227.468 49.3507 227.9 49.7342C228.332 50.1137 228.557 50.6379 228.573 51.307V54.3547C228.573 54.9626 228.651 55.4461 228.806 55.8052V55.9031H227.618ZM225.74 55.0402C226.095 55.0402 226.431 54.9484 226.749 54.7648C227.068 54.5812 227.298 54.3425 227.441 54.0487V52.6901H226.554C225.166 52.6901 224.473 53.0961 224.473 53.908C224.473 54.2629 224.591 54.5404 224.828 54.7403C225.064 54.9402 225.368 55.0402 225.74 55.0402Z" fill="#7F7F7F"/>
<path d="M233.004 55.1014C233.408 55.1014 233.761 54.979 234.063 54.7342C234.365 54.4894 234.532 54.1834 234.565 53.8162H235.636C235.615 54.1956 235.485 54.5567 235.244 54.8994C235.003 55.2421 234.681 55.5155 234.277 55.7195C233.877 55.9235 233.453 56.0255 233.004 56.0255C232.102 56.0255 231.384 55.7256 230.85 55.1258C230.319 54.522 230.054 53.6979 230.054 52.6534V52.4637C230.054 51.8191 230.172 51.2458 230.409 50.744C230.646 50.2422 230.984 49.8525 231.425 49.5751C231.87 49.2977 232.394 49.159 232.998 49.159C233.74 49.159 234.356 49.3813 234.846 49.826C235.34 50.2707 235.603 50.848 235.636 51.558H234.565C234.532 51.1296 234.369 50.7787 234.075 50.5053C233.785 50.2279 233.426 50.0892 232.998 50.0892C232.423 50.0892 231.976 50.2973 231.658 50.7134C231.343 51.1255 231.186 51.7232 231.186 52.5065V52.7207C231.186 53.4837 231.343 54.0712 231.658 54.4833C231.972 54.8953 232.421 55.1014 233.004 55.1014Z" fill="#7F7F7F"/>
<path d="M238.445 47.6779V49.2814H239.681V50.1565H238.445V54.2629C238.445 54.5281 238.5 54.7281 238.61 54.8627C238.72 54.9932 238.908 55.0585 239.173 55.0585C239.303 55.0585 239.483 55.034 239.711 54.9851V55.9031C239.414 55.9847 239.124 56.0255 238.842 56.0255C238.336 56.0255 237.955 55.8725 237.698 55.5665C237.441 55.2605 237.312 54.826 237.312 54.2629V50.1565H236.107V49.2814H237.312V47.6779H238.445Z" fill="#7F7F7F"/>
<path d="M244.864 54.1467C244.864 53.8407 244.748 53.604 244.515 53.4368C244.287 53.2654 243.885 53.1185 243.31 52.9961C242.739 52.8737 242.284 52.7269 241.945 52.5555C241.611 52.3841 241.362 52.1801 241.198 51.9435C241.039 51.7069 240.96 51.4254 240.96 51.099C240.96 50.5563 241.188 50.0973 241.645 49.722C242.106 49.3466 242.694 49.159 243.408 49.159C244.158 49.159 244.766 49.3528 245.231 49.7403C245.701 50.1279 245.935 50.6236 245.935 51.2275H244.797C244.797 50.9174 244.664 50.6502 244.399 50.4258C244.138 50.2014 243.808 50.0892 243.408 50.0892C242.996 50.0892 242.673 50.1789 242.441 50.3585C242.208 50.538 242.092 50.7726 242.092 51.0622C242.092 51.3356 242.2 51.5416 242.416 51.6803C242.633 51.8191 243.022 51.9517 243.585 52.0781C244.152 52.2046 244.611 52.3556 244.962 52.531C245.313 52.7065 245.572 52.9186 245.739 53.1675C245.911 53.4123 245.996 53.7122 245.996 54.0671C245.996 54.6587 245.76 55.134 245.287 55.493C244.813 55.848 244.199 56.0255 243.444 56.0255C242.914 56.0255 242.445 55.9316 242.037 55.744C241.629 55.5563 241.309 55.2952 241.076 54.9606C240.848 54.622 240.733 54.2568 240.733 53.8651H241.866C241.886 54.2446 242.037 54.5465 242.318 54.7709C242.604 54.9912 242.979 55.1014 243.444 55.1014C243.873 55.1014 244.216 55.0157 244.473 54.8443C244.734 54.6689 244.864 54.4363 244.864 54.1467Z" fill="#7F7F7F"/>
<circle opacity="0.1" cx="221.616" cy="18.0912" r="17.0912" fill="#F47920"/>
<rect x="206.803" y="6.69702" width="29.6247" height="23.9276" rx="2.27882" stroke="#F47920" stroke-width="1.13941"/>
<path d="M223.958 16.051C223.958 17.1349 223.094 17.999 222.047 17.999C221 17.999 220.136 17.1349 220.136 16.051C220.136 14.967 221 14.1029 222.047 14.1029C223.094 14.1029 223.958 14.967 223.958 16.051Z" stroke="#F47920" stroke-width="1.13941"/>
<path d="M226.41 20.877C226.41 21.3263 226.072 21.8561 225.252 22.3065C224.454 22.7456 223.312 23.0349 222.019 23.0349C220.726 23.0349 219.584 22.7456 218.786 22.3065C217.966 21.8561 217.628 21.3263 217.628 20.877C217.628 20.4277 217.966 19.8979 218.786 19.4475C219.584 19.0084 220.726 18.7191 222.019 18.7191C223.312 18.7191 224.454 19.0084 225.252 19.4475C226.072 19.8979 226.41 20.4277 226.41 20.877Z" stroke="#F47920" stroke-width="1.13941"/>
<path d="M209.082 11.8243H204.524" stroke="#F47920" stroke-width="1.13941" stroke-linecap="round"/>
<path d="M209.082 16.1923H204.524" stroke="#F47920" stroke-width="1.13941" stroke-linecap="round"/>
<path d="M209.082 20.7501H204.524" stroke="#F47920" stroke-width="1.13941" stroke-linecap="round"/>
<path d="M209.082 25.3073H204.524" stroke="#F47920" stroke-width="1.13941" stroke-linecap="round"/>
<path d="M305.094 51.9313C304.086 51.6416 303.352 51.2866 302.891 50.8664C302.434 50.4421 302.205 49.9199 302.205 49.2997C302.205 48.598 302.485 48.0186 303.044 47.5617C303.607 47.1006 304.337 46.8701 305.235 46.8701C305.847 46.8701 306.391 46.9884 306.869 47.2251C307.35 47.4617 307.721 47.7881 307.982 48.2043C308.248 48.6204 308.38 49.0753 308.38 49.569H307.199C307.199 49.0304 307.028 48.6082 306.685 48.3022C306.342 47.9921 305.859 47.8371 305.235 47.8371C304.655 47.8371 304.202 47.9656 303.876 48.2226C303.554 48.4756 303.393 48.8285 303.393 49.2814C303.393 49.6445 303.546 49.9525 303.852 50.2055C304.162 50.4543 304.686 50.6828 305.424 50.8909C306.167 51.099 306.746 51.3295 307.162 51.5824C307.583 51.8313 307.893 52.123 308.093 52.4576C308.297 52.7921 308.399 53.1858 308.399 53.6387C308.399 54.3609 308.117 54.9402 307.554 55.3768C306.991 55.8092 306.238 56.0255 305.296 56.0255C304.684 56.0255 304.113 55.9092 303.582 55.6766C303.052 55.44 302.642 55.1177 302.352 54.7097C302.067 54.3017 301.924 53.8386 301.924 53.3205H303.105C303.105 53.859 303.303 54.2854 303.699 54.5995C304.098 54.9096 304.631 55.0647 305.296 55.0647C305.916 55.0647 306.391 54.9382 306.722 54.6852C307.052 54.4323 307.217 54.0875 307.217 53.651C307.217 53.2144 307.064 52.8778 306.758 52.6412C306.452 52.4005 305.898 52.1638 305.094 51.9313Z" fill="#7F7F7F"/>
<path d="M313.821 55.9031C313.756 55.7725 313.703 55.54 313.662 55.2054C313.135 55.7521 312.507 56.0255 311.777 56.0255C311.124 56.0255 310.587 55.8419 310.167 55.4747C309.751 55.1034 309.543 54.6342 309.543 54.0671C309.543 53.3776 309.804 52.8431 310.326 52.4637C310.853 52.0802 311.591 51.8884 312.542 51.8884H313.643V51.3682C313.643 50.9725 313.525 50.6583 313.288 50.4258C313.052 50.1891 312.703 50.0708 312.242 50.0708C311.838 50.0708 311.499 50.1728 311.226 50.3768C310.953 50.5808 310.816 50.8277 310.816 51.1173H309.678C309.678 50.7869 309.794 50.4686 310.026 50.1626C310.263 49.8525 310.581 49.6078 310.981 49.4282C311.385 49.2487 311.828 49.159 312.309 49.159C313.072 49.159 313.67 49.3507 314.102 49.7342C314.535 50.1137 314.759 50.6379 314.776 51.307V54.3547C314.776 54.9627 314.853 55.4461 315.008 55.8052V55.9031H313.821ZM311.942 55.0402C312.297 55.0402 312.634 54.9484 312.952 54.7648C313.27 54.5812 313.501 54.3425 313.643 54.0488V52.6901H312.756C311.369 52.6901 310.675 53.0961 310.675 53.908C310.675 54.2629 310.794 54.5404 311.03 54.7403C311.267 54.9402 311.571 55.0402 311.942 55.0402Z" fill="#7F7F7F"/>
<path d="M318.637 54.367L320.277 49.2814H321.434L319.059 55.9031H318.197L315.798 49.2814H316.954L318.637 54.367Z" fill="#7F7F7F"/>
<path d="M325.185 56.0255C324.288 56.0255 323.558 55.7317 322.995 55.1442C322.432 54.5526 322.15 53.7632 322.15 52.7758V52.5677C322.15 51.9109 322.274 51.3254 322.523 50.8113C322.776 50.2932 323.127 49.8893 323.576 49.5996C324.029 49.3058 324.518 49.159 325.045 49.159C325.906 49.159 326.575 49.4425 327.052 50.0096C327.529 50.5767 327.768 51.3886 327.768 52.4453V52.9166H323.282C323.298 53.5694 323.488 54.0977 323.851 54.5016C324.219 54.9015 324.684 55.1014 325.247 55.1014C325.646 55.1014 325.985 55.0198 326.263 54.8566C326.54 54.6934 326.783 54.4771 326.991 54.2079L327.682 54.7464C327.128 55.5991 326.295 56.0255 325.185 56.0255ZM325.045 50.0892C324.588 50.0892 324.204 50.2565 323.894 50.591C323.584 50.9215 323.392 51.3866 323.319 51.9863H326.636V51.9007C326.603 51.3254 326.448 50.8807 326.171 50.5665C325.893 50.2483 325.518 50.0892 325.045 50.0892Z" fill="#7F7F7F"/>
<path d="M328.808 52.5371C328.808 51.5212 329.049 50.7053 329.531 50.0892C330.012 49.469 330.642 49.159 331.422 49.159C332.197 49.159 332.811 49.4242 333.264 49.9545V46.5029H334.396V55.9031H333.356L333.3 55.1932C332.848 55.748 332.217 56.0255 331.409 56.0255C330.642 56.0255 330.016 55.7113 329.531 55.083C329.049 54.4547 328.808 53.6346 328.808 52.6228V52.5371ZM329.941 52.6657C329.941 53.4164 330.096 54.0039 330.406 54.4282C330.716 54.8525 331.144 55.0647 331.691 55.0647C332.409 55.0647 332.933 54.7423 333.264 54.0977V51.0561C332.925 50.4319 332.405 50.1198 331.703 50.1198C331.148 50.1198 330.716 50.334 330.406 50.7624C330.096 51.1908 329.941 51.8252 329.941 52.6657Z" fill="#7F7F7F"/>
<circle opacity="0.1" cx="318.783" cy="18.0912" r="17.0912" fill="#F47920"/>
<path fill-rule="evenodd" clip-rule="evenodd" d="M313.095 5.56703C311.833 5.56197 310.807 6.58371 310.807 7.84584V29.4855L319.353 24.8544L327.898 29.4855V7.89608C327.898 6.64108 326.884 5.6223 325.629 5.61727L313.095 5.56703Z" stroke="#F47920" stroke-width="1.13941"/>
<path d="M395.219 46.9924L398.132 54.2629L401.045 46.9924H402.569V55.903H401.394V52.433L401.504 48.6876L398.579 55.903H397.679L394.76 48.706L394.876 52.433V55.903H393.701V46.9924H395.219Z" fill="#7F7F7F"/>
<path d="M408.554 55.903C408.489 55.7724 408.436 55.5399 408.395 55.2053C407.869 55.752 407.241 56.0254 406.51 56.0254C405.857 56.0254 405.321 55.8418 404.901 55.4746C404.485 55.1033 404.277 54.6341 404.277 54.067C404.277 53.3775 404.538 52.843 405.06 52.4636C405.586 52.0801 406.325 51.8883 407.275 51.8883H408.377V51.3682C408.377 50.9724 408.259 50.6582 408.022 50.4257C407.785 50.1891 407.436 50.0707 406.975 50.0707C406.571 50.0707 406.233 50.1727 405.959 50.3767C405.686 50.5807 405.549 50.8276 405.549 51.1172H404.411C404.411 50.7868 404.527 50.4685 404.76 50.1625C404.997 49.8525 405.315 49.6077 405.715 49.4281C406.119 49.2486 406.561 49.1589 407.043 49.1589C407.806 49.1589 408.403 49.3506 408.836 49.7341C409.268 50.1136 409.493 50.6378 409.509 51.307V54.3547C409.509 54.9626 409.587 55.446 409.742 55.8051V55.903H408.554ZM406.676 55.0401C407.03 55.0401 407.367 54.9483 407.685 54.7647C408.004 54.5811 408.234 54.3424 408.377 54.0487V52.69H407.489C406.102 52.69 405.409 53.096 405.409 53.9079C405.409 54.2629 405.527 54.5403 405.764 54.7402C406 54.9401 406.304 55.0401 406.676 55.0401Z" fill="#7F7F7F"/>
<path d="M412.355 49.2813L412.391 50.1136C412.897 49.4771 413.558 49.1589 414.374 49.1589C415.774 49.1589 416.48 49.9483 416.492 51.5273V55.903H415.36V51.5211C415.356 51.0438 415.245 50.6909 415.029 50.4624C414.817 50.2339 414.484 50.1197 414.032 50.1197C413.664 50.1197 413.342 50.2176 413.065 50.4134C412.787 50.6093 412.571 50.8663 412.416 51.1846V55.903H411.284V49.2813H412.355Z" fill="#7F7F7F"/>
<path d="M422.287 55.903C422.222 55.7724 422.169 55.5399 422.128 55.2053C421.602 55.752 420.974 56.0254 420.243 56.0254C419.591 56.0254 419.054 55.8418 418.634 55.4746C418.218 55.1033 418.01 54.6341 418.01 54.067C418.01 53.3775 418.271 52.843 418.793 52.4636C419.319 52.0801 420.058 51.8883 421.008 51.8883H422.11V51.3682C422.11 50.9724 421.992 50.6582 421.755 50.4257C421.518 50.1891 421.169 50.0707 420.708 50.0707C420.305 50.0707 419.966 50.1727 419.693 50.3767C419.419 50.5807 419.282 50.8276 419.282 51.1172H418.144C418.144 50.7868 418.26 50.4685 418.493 50.1625C418.73 49.8525 419.048 49.6077 419.448 49.4281C419.852 49.2486 420.294 49.1589 420.776 49.1589C421.539 49.1589 422.136 49.3506 422.569 49.7341C423.001 50.1136 423.226 50.6378 423.242 51.307V54.3547C423.242 54.9626 423.32 55.446 423.475 55.8051V55.903H422.287ZM420.409 55.0401C420.764 55.0401 421.1 54.9483 421.418 54.7647C421.737 54.5811 421.967 54.3424 422.11 54.0487V52.69H421.222C419.835 52.69 419.142 53.096 419.142 53.9079C419.142 54.2629 419.26 54.5403 419.497 54.7402C419.733 54.9401 420.037 55.0401 420.409 55.0401Z" fill="#7F7F7F"/>
<path d="M424.748 52.5371C424.748 51.5048 424.986 50.6848 425.464 50.0769C425.941 49.4649 426.573 49.1589 427.361 49.1589C428.169 49.1589 428.799 49.4445 429.252 50.0157L429.307 49.2813H430.341V55.7439C430.341 56.6007 430.086 57.2759 429.576 57.7696C429.07 58.2632 428.389 58.5101 427.532 58.5101C427.055 58.5101 426.588 58.4081 426.131 58.2041C425.674 58.0001 425.325 57.7206 425.084 57.3656L425.672 56.6863C426.157 57.2861 426.751 57.586 427.453 57.586C428.003 57.586 428.432 57.4309 428.738 57.1208C429.048 56.8108 429.203 56.3742 429.203 55.8112V55.242C428.75 55.7643 428.132 56.0254 427.349 56.0254C426.573 56.0254 425.945 55.7133 425.464 55.089C424.986 54.4648 424.748 53.6142 424.748 52.5371ZM425.886 52.6656C425.886 53.4122 426.039 53.9997 426.345 54.4281C426.651 54.8524 427.079 55.0646 427.63 55.0646C428.344 55.0646 428.868 54.7402 429.203 54.0915V51.0683C428.856 50.4359 428.336 50.1197 427.642 50.1197C427.091 50.1197 426.661 50.3339 426.351 50.7623C426.041 51.1907 425.886 51.8251 425.886 52.6656Z" fill="#7F7F7F"/>
<path d="M434.803 56.0254C433.905 56.0254 433.175 55.7316 432.612 55.1441C432.049 54.5525 431.767 53.7631 431.767 52.7757V52.5677C431.767 51.9108 431.891 51.3253 432.14 50.8112C432.393 50.2931 432.744 49.8892 433.193 49.5995C433.646 49.3057 434.135 49.1589 434.662 49.1589C435.523 49.1589 436.192 49.4424 436.669 50.0095C437.146 50.5766 437.385 51.3886 437.385 52.4453V52.9165H432.899C432.916 53.5693 433.105 54.0976 433.468 54.5015C433.836 54.9014 434.301 55.1013 434.864 55.1013C435.264 55.1013 435.602 55.0197 435.88 54.8565C436.157 54.6933 436.4 54.4771 436.608 54.2078L437.299 54.7463C436.745 55.599 435.912 56.0254 434.803 56.0254ZM434.662 50.0891C434.205 50.0891 433.821 50.2564 433.511 50.5909C433.201 50.9214 433.009 51.3865 432.936 51.9863H436.253V51.9006C436.22 51.3253 436.065 50.8806 435.788 50.5664C435.51 50.2482 435.135 50.0891 434.662 50.0891Z" fill="#7F7F7F"/>
<circle opacity="0.1" cx="415.671" cy="18.0912" r="17.0912" fill="#F47920"/>
<path d="M402.544 23.788C403.658 23.788 404.035 23.1909 404.49 22.7374C405.416 21.8077 406.555 22.2031 406.555 23.7025V29.485C406.555 30.1143 407.066 30.6244 407.695 30.6244H413.477C414.976 30.6244 415.372 29.485 414.443 28.5587C413.989 28.1041 413.392 27.7269 413.392 26.6126C413.392 25.374 414.654 23.788 416.81 23.788C418.966 23.788 420.228 25.374 420.228 26.6126C420.228 27.7269 419.631 28.1041 419.178 28.5587C418.248 29.485 418.644 30.6244 420.143 30.6244H425.925C426.555 30.6244 427.065 30.1143 427.065 29.485V23.7025C427.065 22.2042 425.925 21.8077 424.999 22.7374C424.545 23.1909 424.167 23.788 423.053 23.788C421.814 23.788 420.228 22.5255 420.228 20.3697C420.228 18.214 421.814 16.9515 423.053 16.9515C424.167 16.9515 424.545 17.5486 424.999 18.002C425.925 18.9318 427.065 18.5364 427.065 17.037V11.2544C427.065 10.6252 426.555 10.115 425.925 10.115H420.143C418.645 10.115 418.248 8.97562 419.178 8.04928C419.631 7.59466 420.228 7.21751 420.228 6.10317C420.228 4.86463 418.966 3.27856 416.81 3.27856C414.654 3.27856 413.392 4.86463 413.392 6.10317C413.392 7.21751 413.989 7.59466 414.443 8.04928C415.372 8.97562 414.977 10.115 413.477 10.115H407.695C407.066 10.115 406.555 10.6252 406.555 11.2544V17.037C406.555 18.5353 405.416 18.9318 404.49 18.002C404.035 17.5486 403.658 16.9515 402.544 16.9515C401.305 16.9515 399.719 18.214 399.719 20.3697C399.719 22.5255 401.305 23.788 402.544 23.788Z" stroke="#F47920" stroke-width="1.13941"/>
<path d="M494.732 56.0255C493.835 56.0255 493.104 55.7317 492.541 55.1442C491.978 54.5526 491.697 53.7632 491.697 52.7758V52.5677C491.697 51.9109 491.821 51.3254 492.07 50.8113C492.323 50.2932 492.674 49.8893 493.123 49.5996C493.576 49.3058 494.065 49.159 494.592 49.159C495.452 49.159 496.121 49.4425 496.599 50.0096C497.076 50.5767 497.315 51.3886 497.315 52.4453V52.9166H492.829C492.845 53.5694 493.035 54.0977 493.398 54.5016C493.765 54.9015 494.23 55.1014 494.793 55.1014C495.193 55.1014 495.532 55.0198 495.809 54.8566C496.087 54.6934 496.33 54.4771 496.538 54.2079L497.229 54.7464C496.674 55.5991 495.842 56.0255 494.732 56.0255ZM494.592 50.0892C494.135 50.0892 493.751 50.2565 493.441 50.591C493.131 50.9215 492.939 51.3866 492.866 51.9863H496.183V51.9007C496.15 51.3254 495.995 50.8807 495.718 50.5665C495.44 50.2483 495.065 50.0892 494.592 50.0892Z" fill="#7F7F7F"/>
<path d="M498.808 55.9031V46.9925H501.721C502.688 46.9925 503.414 47.1924 503.9 47.5923C504.389 47.9921 504.634 48.5837 504.634 49.367C504.634 49.7832 504.516 50.1524 504.279 50.4747C504.043 50.793 503.72 51.0398 503.312 51.2152C503.794 51.3499 504.173 51.6069 504.451 51.9863C504.732 52.3617 504.873 52.8105 504.873 53.3327C504.873 54.1324 504.614 54.7607 504.096 55.2177C503.578 55.6746 502.845 55.9031 501.899 55.9031H498.808ZM499.983 51.7354V54.9423H501.923C502.47 54.9423 502.9 54.8015 503.214 54.52C503.533 54.2344 503.692 53.8427 503.692 53.345C503.692 52.2719 503.108 51.7354 501.942 51.7354H499.983ZM499.983 50.793H501.758C502.272 50.793 502.682 50.6645 502.988 50.4074C503.298 50.1504 503.453 49.8015 503.453 49.3609C503.453 48.8713 503.31 48.5164 503.025 48.2961C502.739 48.0717 502.305 47.9595 501.721 47.9595H499.983V50.793Z" fill="#7F7F7F"/>
<path d="M510.528 55.9031C510.462 55.7725 510.409 55.54 510.369 55.2054C509.842 55.7521 509.214 56.0255 508.484 56.0255C507.831 56.0255 507.294 55.8419 506.874 55.4747C506.458 55.1034 506.25 54.6342 506.25 54.0671C506.25 53.3776 506.511 52.8431 507.033 52.4637C507.56 52.0802 508.298 51.8884 509.249 51.8884H510.35V51.3682C510.35 50.9725 510.232 50.6583 509.995 50.4258C509.759 50.1891 509.41 50.0708 508.949 50.0708C508.545 50.0708 508.206 50.1728 507.933 50.3768C507.66 50.5808 507.523 50.8277 507.523 51.1173H506.385C506.385 50.7869 506.501 50.4686 506.733 50.1626C506.97 49.8525 507.288 49.6078 507.688 49.4282C508.092 49.2487 508.535 49.159 509.016 49.159C509.779 49.159 510.377 49.3507 510.809 49.7342C511.242 50.1137 511.466 50.6379 511.482 51.307V54.3547C511.482 54.9627 511.56 55.4461 511.715 55.8052V55.9031H510.528ZM508.649 55.0402C509.004 55.0402 509.34 54.9484 509.659 54.7648C509.977 54.5812 510.207 54.3425 510.35 54.0488V52.6901H509.463C508.076 52.6901 507.382 53.0961 507.382 53.908C507.382 54.2629 507.5 54.5404 507.737 54.7403C507.974 54.9402 508.278 55.0402 508.649 55.0402Z" fill="#7F7F7F"/>
<path d="M512.982 52.5371C512.982 51.5212 513.222 50.7053 513.704 50.0892C514.185 49.469 514.816 49.159 515.595 49.159C516.37 49.159 516.984 49.4242 517.437 49.9545V46.5029H518.569V55.9031H517.529L517.474 55.1932C517.021 55.748 516.391 56.0255 515.583 56.0255C514.816 56.0255 514.189 55.7113 513.704 55.083C513.222 54.4547 512.982 53.6346 512.982 52.6228V52.5371ZM514.114 52.6657C514.114 53.4164 514.269 54.0039 514.579 54.4282C514.889 54.8525 515.318 55.0647 515.864 55.0647C516.582 55.0647 517.107 54.7423 517.437 54.0977V51.0561C517.098 50.4319 516.578 50.1198 515.876 50.1198C515.322 50.1198 514.889 50.334 514.579 50.7624C514.269 51.1908 514.114 51.8252 514.114 52.6657Z" fill="#7F7F7F"/>
<path d="M520.062 52.5371C520.062 51.5049 520.301 50.6849 520.779 50.0769C521.256 49.465 521.888 49.159 522.676 49.159C523.484 49.159 524.114 49.4446 524.567 50.0157L524.622 49.2814H525.656V55.744C525.656 56.6007 525.401 57.276 524.891 57.7696C524.385 58.2633 523.704 58.5101 522.847 58.5101C522.37 58.5101 521.903 58.4082 521.446 58.2042C520.989 58.0002 520.64 57.7207 520.399 57.3657L520.987 56.6864C521.472 57.2862 522.066 57.586 522.767 57.586C523.318 57.586 523.747 57.431 524.053 57.1209C524.363 56.8109 524.518 56.3743 524.518 55.8113V55.2421C524.065 55.7644 523.447 56.0255 522.663 56.0255C521.888 56.0255 521.26 55.7134 520.779 55.0891C520.301 54.4649 520.062 53.6142 520.062 52.5371ZM521.201 52.6657C521.201 53.4123 521.354 53.9998 521.66 54.4282C521.966 54.8525 522.394 55.0647 522.945 55.0647C523.659 55.0647 524.183 54.7403 524.518 54.0916V51.0684C524.171 50.436 523.651 50.1198 522.957 50.1198C522.406 50.1198 521.976 50.334 521.666 50.7624C521.356 51.1908 521.201 51.8252 521.201 52.6657Z" fill="#7F7F7F"/>
<path d="M530.117 56.0255C529.22 56.0255 528.49 55.7317 527.927 55.1442C527.364 54.5526 527.082 53.7632 527.082 52.7758V52.5677C527.082 51.9109 527.206 51.3254 527.455 50.8113C527.708 50.2932 528.059 49.8893 528.508 49.5996C528.961 49.3058 529.45 49.159 529.977 49.159C530.838 49.159 531.507 49.4425 531.984 50.0096C532.461 50.5767 532.7 51.3886 532.7 52.4453V52.9166H528.214C528.23 53.5694 528.42 54.0977 528.783 54.5016C529.151 54.9015 529.616 55.1014 530.179 55.1014C530.578 55.1014 530.917 55.0198 531.195 54.8566C531.472 54.6934 531.715 54.4771 531.923 54.2079L532.614 54.7464C532.06 55.5991 531.227 56.0255 530.117 56.0255ZM529.977 50.0892C529.52 50.0892 529.136 50.2565 528.826 50.591C528.516 50.9215 528.324 51.3866 528.251 51.9863H531.568V51.9007C531.535 51.3254 531.38 50.8807 531.103 50.5665C530.825 50.2483 530.45 50.0892 529.977 50.0892Z" fill="#7F7F7F"/>
<circle opacity="0.1" cx="512.279" cy="18.0912" r="17.0912" fill="#F47920"/>
<path fill-rule="evenodd" clip-rule="evenodd" d="M526.173 6.69702C527.309 6.69702 528.231 7.69918 528.231 8.93541V15.6506C526.526 15.6506 525.143 17.1538 525.143 19.0082C525.143 20.8625 526.526 22.3658 528.231 22.3658V28.3863C528.231 29.6225 527.309 30.6247 526.173 30.6247H498.386C497.249 30.6247 496.327 29.6225 496.327 28.3863V22.3658C498.033 22.3658 499.415 20.8625 499.415 19.0082C499.415 17.1538 498.033 15.6506 496.327 15.6506V8.93541C496.327 7.69918 497.249 6.69702 498.386 6.69702H526.173Z" stroke="#F47920" stroke-width="1.13941"/>
<rect x="506.582" y="12.394" width="3.85647" height="3.85647" rx="1.13941" stroke="#F47920" stroke-width="1.13941"/>
<rect x="506.582" y="21.071" width="3.85647" height="3.85647" rx="1.13941" stroke="#F47920" stroke-width="1.13941"/>
<rect x="515.259" y="12.3943" width="3.85647" height="3.85647" rx="1.13941" stroke="#F47920" stroke-width="1.13941"/>
<rect x="515.259" y="21.071" width="3.85647" height="3.85647" rx="1.13941" stroke="#F47920" stroke-width="1.13941"/>
<path d="M507.063 18.4675H512.848V20.086" stroke="#F47920" stroke-width="1.13941" stroke-linecap="round"/>
<path d="M512.849 12.8759V16.2503" stroke="#F47920" stroke-width="1.13941" stroke-linecap="round"/>
<path d="M514.891 18.4669H518.252" stroke="#F47920" stroke-width="1.13941" stroke-linecap="round"/>
<path d="M512.849 21.5291V23.4768" stroke="#F47920" stroke-width="1.13941" stroke-linecap="round"/>
<path d="M587.648 56.0255C586.751 56.0255 586.02 55.7317 585.457 55.1442C584.894 54.5526 584.613 53.7632 584.613 52.7758V52.5677C584.613 51.9109 584.737 51.3254 584.986 50.8113C585.239 50.2932 585.59 49.8893 586.039 49.5996C586.492 49.3058 586.981 49.159 587.507 49.159C588.368 49.159 589.037 49.4425 589.515 50.0096C589.992 50.5767 590.231 51.3886 590.231 52.4453V52.9166H585.745C585.761 53.5694 585.951 54.0977 586.314 54.5016C586.681 54.9015 587.146 55.1014 587.709 55.1014C588.109 55.1014 588.448 55.0198 588.725 54.8566C589.003 54.6934 589.246 54.4771 589.454 54.2079L590.145 54.7464C589.59 55.5991 588.758 56.0255 587.648 56.0255ZM587.507 50.0892C587.051 50.0892 586.667 50.2565 586.357 50.591C586.047 50.9215 585.855 51.3866 585.782 51.9863H589.099V51.9007C589.066 51.3254 588.911 50.8807 588.634 50.5665C588.356 50.2483 587.981 50.0892 587.507 50.0892Z" fill="#7F7F7F"/>
<path d="M598.278 53.0757C598.168 54.0181 597.819 54.7464 597.232 55.2605C596.649 55.7705 595.871 56.0255 594.9 56.0255C593.848 56.0255 593.003 55.6481 592.367 54.8933C591.734 54.1385 591.418 53.1287 591.418 51.8639V51.0072C591.418 50.1789 591.565 49.4507 591.859 48.8224C592.157 48.1941 592.577 47.7126 593.119 47.3781C593.662 47.0394 594.29 46.8701 595.004 46.8701C595.951 46.8701 596.71 47.1353 597.281 47.6657C597.852 48.192 598.185 48.9223 598.278 49.8566H597.097C596.995 49.1467 596.773 48.6326 596.43 48.3144C596.092 47.9962 595.616 47.8371 595.004 47.8371C594.254 47.8371 593.664 48.1145 593.236 48.6694C592.811 49.2242 592.599 50.0137 592.599 51.0378V51.9007C592.599 52.8676 592.801 53.6367 593.205 54.2079C593.609 54.7791 594.174 55.0646 594.9 55.0646C595.553 55.0646 596.053 54.9178 596.4 54.624C596.751 54.3262 596.983 53.8101 597.097 53.0757H598.278Z" fill="#7F7F7F"/>
<path d="M599.411 52.531C599.411 51.8823 599.537 51.2989 599.79 50.7807C600.047 50.2626 600.402 49.8627 600.855 49.5812C601.312 49.2997 601.832 49.159 602.416 49.159C603.317 49.159 604.045 49.4711 604.6 50.0953C605.159 50.7195 605.439 51.5498 605.439 52.5861V52.6657C605.439 53.3103 605.314 53.8896 605.065 54.4037C604.821 54.9137 604.468 55.3115 604.007 55.5971C603.55 55.8827 603.023 56.0255 602.428 56.0255C601.53 56.0255 600.802 55.7134 600.243 55.0891C599.688 54.4649 599.411 53.6387 599.411 52.6106V52.531ZM600.549 52.6657C600.549 53.4 600.718 53.9896 601.057 54.4343C601.4 54.879 601.857 55.1014 602.428 55.1014C603.003 55.1014 603.46 54.877 603.799 54.4282C604.137 53.9753 604.307 53.3429 604.307 52.531C604.307 51.8048 604.133 51.2173 603.786 50.7685C603.444 50.3156 602.987 50.0892 602.416 50.0892C601.857 50.0892 601.406 50.3115 601.063 50.7562C600.72 51.201 600.549 51.8374 600.549 52.6657Z" fill="#7F7F7F"/>
<path d="M610.947 55.2482C610.506 55.7664 609.859 56.0255 609.007 56.0255C608.301 56.0255 607.762 55.8215 607.391 55.4135C607.024 55.0014 606.838 54.3935 606.834 53.5898V49.2814H607.966V53.5592C607.966 54.5628 608.374 55.0646 609.19 55.0646C610.055 55.0646 610.63 54.7423 610.916 54.0977V49.2814H612.048V55.9031H610.971L610.947 55.2482Z" fill="#7F7F7F"/>
<path d="M619.368 52.6657C619.368 53.6734 619.137 54.4853 618.676 55.1014C618.215 55.7174 617.591 56.0255 616.803 56.0255C616 56.0255 615.367 55.7705 614.906 55.2605V58.4489H613.774V49.2814H614.808L614.863 50.0157C615.324 49.4446 615.965 49.159 616.785 49.159C617.581 49.159 618.209 49.4588 618.67 50.0586C619.135 50.6583 619.368 51.4927 619.368 52.5616V52.6657ZM618.235 52.5371C618.235 51.7905 618.076 51.201 617.758 50.7685C617.44 50.336 617.003 50.1198 616.448 50.1198C615.763 50.1198 615.249 50.4237 614.906 51.0316V54.1956C615.245 54.7995 615.763 55.1014 616.461 55.1014C617.003 55.1014 617.434 54.8872 617.752 54.4588C618.074 54.0263 618.235 53.3858 618.235 52.5371Z" fill="#7F7F7F"/>
<path d="M620.512 52.531C620.512 51.8823 620.638 51.2989 620.891 50.7807C621.148 50.2626 621.503 49.8627 621.956 49.5812C622.413 49.2997 622.933 49.159 623.517 49.159C624.419 49.159 625.147 49.4711 625.702 50.0953C626.261 50.7195 626.54 51.5498 626.54 52.5861V52.6657C626.54 53.3103 626.416 53.8896 626.167 54.4037C625.922 54.9137 625.569 55.3115 625.108 55.5971C624.651 55.8827 624.125 56.0255 623.529 56.0255C622.632 56.0255 621.903 55.7134 621.344 55.0891C620.789 54.4649 620.512 53.6387 620.512 52.6106V52.531ZM621.65 52.6657C621.65 53.4 621.82 53.9896 622.158 54.4343C622.501 54.879 622.958 55.1014 623.529 55.1014C624.104 55.1014 624.561 54.877 624.9 54.4282C625.239 53.9753 625.408 53.3429 625.408 52.531C625.408 51.8048 625.235 51.2173 624.888 50.7685C624.545 50.3156 624.088 50.0892 623.517 50.0892C622.958 50.0892 622.507 50.3115 622.164 50.7562C621.822 51.201 621.65 51.8374 621.65 52.6657Z" fill="#7F7F7F"/>
<path d="M629.031 49.2814L629.068 50.1137C629.574 49.4772 630.234 49.159 631.05 49.159C632.45 49.159 633.156 49.9484 633.168 51.5274V55.9031H632.036V51.5212C632.032 51.0439 631.922 50.691 631.705 50.4625C631.493 50.234 631.161 50.1198 630.708 50.1198C630.341 50.1198 630.018 50.2177 629.741 50.4135C629.463 50.6094 629.247 50.8664 629.092 51.1846V55.9031H627.96V49.2814H629.031Z" fill="#7F7F7F"/>
<circle opacity="0.1" cx="609.167" cy="18.0912" r="17.0912" fill="#F47920"/>
<circle cx="616.445" cy="25.1658" r="1.97069" transform="rotate(-45 616.445 25.1658)" stroke="#F47920" stroke-width="1.13941"/>
<path fill-rule="evenodd" clip-rule="evenodd" d="M592.637 14.02C591.71 13.1243 591.71 11.6389 592.637 10.7431L601.638 2.04219C602.521 1.18836 603.922 1.18836 604.805 2.04219L623.058 19.6865L623.53 32.0135L610.778 31.5569L592.637 14.02Z" stroke="#F47920" stroke-width="1.13941"/>
<path d="M690.98 51.9313C689.972 51.6416 689.238 51.2866 688.777 50.8664C688.32 50.4421 688.092 49.9199 688.092 49.2997C688.092 48.598 688.371 48.0186 688.93 47.5617C689.493 47.1006 690.223 46.8701 691.121 46.8701C691.733 46.8701 692.278 46.9884 692.755 47.2251C693.236 47.4617 693.608 47.7881 693.869 48.2043C694.134 48.6204 694.267 49.0753 694.267 49.569H693.085C693.085 49.0304 692.914 48.6082 692.571 48.3022C692.229 47.9921 691.745 47.8371 691.121 47.8371C690.542 47.8371 690.089 47.9656 689.762 48.2226C689.44 48.4756 689.279 48.8285 689.279 49.2814C689.279 49.6445 689.432 49.9525 689.738 50.2055C690.048 50.4543 690.572 50.6828 691.311 50.8909C692.053 51.099 692.633 51.3295 693.049 51.5824C693.469 51.8313 693.779 52.123 693.979 52.4576C694.183 52.7921 694.285 53.1858 694.285 53.6387C694.285 54.3609 694.003 54.9402 693.44 55.3768C692.877 55.8092 692.125 56.0255 691.182 56.0255C690.57 56.0255 689.999 55.9092 689.469 55.6766C688.938 55.44 688.528 55.1177 688.238 54.7097C687.953 54.3017 687.81 53.8386 687.81 53.3205H688.991C688.991 53.859 689.189 54.2854 689.585 54.5995C689.985 54.9096 690.517 55.0646 691.182 55.0646C691.802 55.0646 692.278 54.9382 692.608 54.6852C692.939 54.4323 693.104 54.0875 693.104 53.651C693.104 53.2144 692.951 52.8778 692.645 52.6412C692.339 52.4005 691.784 52.1638 690.98 51.9313Z" fill="#7F7F7F"/>
<path d="M699.707 55.2482C699.267 55.7664 698.62 56.0255 697.767 56.0255C697.061 56.0255 696.523 55.8215 696.152 55.4135C695.784 55.0014 695.599 54.3935 695.595 53.5898V49.2814H696.727V53.5592C696.727 54.5628 697.135 55.0646 697.951 55.0646C698.816 55.0646 699.391 54.7423 699.677 54.0977V49.2814H700.809V55.9031H699.732L699.707 55.2482Z" fill="#7F7F7F"/>
<path d="M705.735 50.2973C705.564 50.2687 705.378 50.2544 705.178 50.2544C704.436 50.2544 703.932 50.5706 703.667 51.203V55.9031H702.535V49.2814H703.636L703.654 50.0463C704.026 49.4548 704.552 49.159 705.233 49.159C705.454 49.159 705.621 49.1875 705.735 49.2446V50.2973Z" fill="#7F7F7F"/>
<path d="M709.077 54.367L710.717 49.2814H711.874L709.499 55.9031H708.636L706.237 49.2814H707.394L709.077 54.367Z" fill="#7F7F7F"/>
<path d="M715.625 56.0255C714.727 56.0255 713.997 55.7317 713.434 55.1442C712.871 54.5526 712.59 53.7632 712.59 52.7758V52.5677C712.59 51.9109 712.714 51.3254 712.963 50.8113C713.216 50.2932 713.567 49.8893 714.015 49.5996C714.468 49.3058 714.958 49.159 715.484 49.159C716.345 49.159 717.014 49.4425 717.492 50.0096C717.969 50.5767 718.208 51.3886 718.208 52.4453V52.9166H713.722C713.738 53.5694 713.928 54.0977 714.291 54.5016C714.658 54.9015 715.123 55.1014 715.686 55.1014C716.086 55.1014 716.425 55.0198 716.702 54.8566C716.98 54.6934 717.222 54.4771 717.43 54.2079L718.122 54.7464C717.567 55.5991 716.735 56.0255 715.625 56.0255ZM715.484 50.0892C715.027 50.0892 714.644 50.2565 714.334 50.591C714.024 50.9215 713.832 51.3866 713.758 51.9863H717.075V51.9007C717.043 51.3254 716.888 50.8807 716.61 50.5665C716.333 50.2483 715.958 50.0892 715.484 50.0892Z" fill="#7F7F7F"/>
<path d="M721.604 54.2446L723.146 49.2814H724.358L721.696 56.9251C721.284 58.0267 720.629 58.5775 719.731 58.5775L719.517 58.5591L719.095 58.4795V57.5616L719.401 57.586C719.784 57.586 720.082 57.5085 720.294 57.3535C720.511 57.1984 720.688 56.9149 720.827 56.5028L721.078 55.8296L718.716 49.2814H719.952L721.604 54.2446Z" fill="#7F7F7F"/>
<circle opacity="0.1" cx="705.247" cy="18.0912" r="17.0912" fill="#F47920"/>
<path d="M710.709 6.10229H713.223C713.852 6.10229 714.362 6.61243 714.362 7.24171V29.3859C714.362 30.0152 713.852 30.5253 713.223 30.5253H697.271C696.642 30.5253 696.132 30.0152 696.132 29.3859V7.24171C696.132 6.61243 696.642 6.10229 697.271 6.10229H700.267V6.10229" stroke="#F47920" stroke-width="1.13941"/>
<rect x="700.343" y="4.41797" width="10.2547" height="4.21087" rx="1.13941" stroke="#F47920" stroke-width="1.13941"/>
<path d="M702.027 18.8997L704.248 21.121L708.863 16.5059" stroke="#F47920" stroke-width="1.13941" stroke-linecap="round"/>
<path d="M876.084 46.9925L878.997 54.2629L881.91 46.9925H883.434V55.9031H882.259V52.4331L882.369 48.6877L879.444 55.9031H878.544L875.625 48.7061L875.741 52.4331V55.9031H874.566V46.9925H876.084Z" fill="#7F7F7F"/>
<path d="M889.419 55.9031C889.354 55.7725 889.301 55.54 889.26 55.2054C888.734 55.7521 888.105 56.0255 887.375 56.0255C886.722 56.0255 886.186 55.8419 885.765 55.4747C885.349 55.1034 885.141 54.6342 885.141 54.0671C885.141 53.3776 885.402 52.8431 885.925 52.4637C886.451 52.0802 887.189 51.8884 888.14 51.8884H889.242V51.3682C889.242 50.9725 889.123 50.6583 888.887 50.4258C888.65 50.1891 888.301 50.0708 887.84 50.0708C887.436 50.0708 887.098 50.1728 886.824 50.3768C886.551 50.5808 886.414 50.8277 886.414 51.1173H885.276C885.276 50.7869 885.392 50.4686 885.625 50.1626C885.861 49.8525 886.18 49.6078 886.579 49.4282C886.983 49.2487 887.426 49.159 887.907 49.159C888.67 49.159 889.268 49.3507 889.701 49.7342C890.133 50.1137 890.357 50.6379 890.374 51.307V54.3547C890.374 54.9627 890.451 55.4461 890.606 55.8052V55.9031H889.419ZM887.54 55.0402C887.895 55.0402 888.232 54.9484 888.55 54.7648C888.868 54.5812 889.099 54.3425 889.242 54.0488V52.6901H888.354C886.967 52.6901 886.273 53.0961 886.273 53.908C886.273 54.2629 886.392 54.5404 886.628 54.7403C886.865 54.9402 887.169 55.0402 887.54 55.0402Z" fill="#7F7F7F"/>
<path d="M893.685 47.6779V49.2814H894.921V50.1565H893.685V54.2629C893.685 54.5281 893.74 54.7281 893.85 54.8627C893.96 54.9933 894.148 55.0585 894.413 55.0585C894.543 55.0585 894.723 55.0341 894.951 54.9851V55.9031C894.654 55.9847 894.364 56.0255 894.082 56.0255C893.576 56.0255 893.195 55.8725 892.938 55.5665C892.681 55.2605 892.552 54.826 892.552 54.2629V50.1565H891.347V49.2814H892.552V47.6779H893.685Z" fill="#7F7F7F"/>
<path d="M898.905 55.1014C899.309 55.1014 899.662 54.979 899.964 54.7342C900.265 54.4894 900.433 54.1834 900.465 53.8162H901.536C901.516 54.1956 901.385 54.5567 901.145 54.8994C900.904 55.2421 900.582 55.5155 900.178 55.7195C899.778 55.9235 899.354 56.0255 898.905 56.0255C898.003 56.0255 897.285 55.7256 896.751 55.1259C896.22 54.522 895.955 53.6979 895.955 52.6534V52.4637C895.955 51.8191 896.073 51.2458 896.31 50.744C896.547 50.2422 896.885 49.8525 897.326 49.5751C897.771 49.2977 898.295 49.159 898.899 49.159C899.641 49.159 900.257 49.3813 900.747 49.826C901.241 50.2707 901.504 50.8481 901.536 51.558H900.465C900.433 51.1296 900.27 50.7787 899.976 50.5053C899.686 50.2279 899.327 50.0892 898.899 50.0892C898.323 50.0892 897.877 50.2973 897.558 50.7134C897.244 51.1255 897.087 51.7232 897.087 52.5065V52.7207C897.087 53.4837 897.244 54.0712 897.558 54.4833C897.873 54.8953 898.321 55.1014 898.905 55.1014Z" fill="#7F7F7F"/>
<path d="M903.941 50.0831C904.443 49.467 905.096 49.159 905.9 49.159C907.299 49.159 908.005 49.9484 908.017 51.5274V55.9031H906.885V51.5212C906.881 51.0439 906.771 50.691 906.555 50.4625C906.343 50.234 906.01 50.1198 905.557 50.1198C905.19 50.1198 904.868 50.2177 904.59 50.4135C904.313 50.6094 904.097 50.8664 903.941 51.1846V55.9031H902.809V46.5029H903.941V50.0831Z" fill="#7F7F7F"/>
<path d="M910.943 55.9031H909.81V49.2814H910.943V55.9031ZM909.719 47.525C909.719 47.3414 909.774 47.1863 909.884 47.0598C909.998 46.9334 910.165 46.8701 910.386 46.8701C910.606 46.8701 910.773 46.9334 910.888 47.0598C911.002 47.1863 911.059 47.3414 911.059 47.525C911.059 47.7085 911.002 47.8615 910.888 47.9839C910.773 48.1063 910.606 48.1675 910.386 48.1675C910.165 48.1675 909.998 48.1063 909.884 47.9839C909.774 47.8615 909.719 47.7085 909.719 47.525Z" fill="#7F7F7F"/>
<path d="M913.831 49.2814L913.868 50.1137C914.374 49.4772 915.035 49.159 915.851 49.159C917.25 49.159 917.956 49.9484 917.968 51.5274V55.9031H916.836V51.5212C916.832 51.0439 916.722 50.691 916.506 50.4625C916.293 50.234 915.961 50.1198 915.508 50.1198C915.141 50.1198 914.819 50.2177 914.541 50.4135C914.264 50.6094 914.047 50.8664 913.892 51.1846V55.9031H912.76V49.2814H913.831Z" fill="#7F7F7F"/>
<path d="M919.406 52.5371C919.406 51.5049 919.645 50.6849 920.122 50.0769C920.6 49.465 921.232 49.159 922.02 49.159C922.827 49.159 923.458 49.4446 923.911 50.0157L923.966 49.2814H925V55.744C925 56.6007 924.745 57.276 924.235 57.7696C923.729 58.2633 923.048 58.5101 922.191 58.5101C921.714 58.5101 921.246 58.4082 920.79 58.2042C920.333 58.0002 919.984 57.7207 919.743 57.3657L920.331 56.6864C920.816 57.2862 921.41 57.586 922.111 57.586C922.662 57.586 923.091 57.431 923.397 57.1209C923.707 56.8109 923.862 56.3743 923.862 55.8113V55.2421C923.409 55.7644 922.791 56.0255 922.007 56.0255C921.232 56.0255 920.604 55.7134 920.122 55.0891C919.645 54.4649 919.406 53.6142 919.406 52.5371ZM920.545 52.6657C920.545 53.4123 920.698 53.9998 921.004 54.4282C921.31 54.8525 921.738 55.0647 922.289 55.0647C923.003 55.0647 923.527 54.7403 923.862 54.0916V51.0684C923.515 50.436 922.995 50.1198 922.301 50.1198C921.75 50.1198 921.32 50.334 921.01 50.7624C920.7 51.1908 920.545 51.8252 920.545 52.6657Z" fill="#7F7F7F"/>
<circle opacity="0.1" cx="899.023" cy="18.0912" r="17.0912" fill="#F47920"/>
<circle cx="899.023" cy="18.0909" r="13.6729" stroke="#F47920" stroke-width="1.13941"/>
<path d="M893.325 16.2784H905.428L901.544 12.394" stroke="#F47920" stroke-width="1.13941"/>
<path d="M904.289 20.37H892.186L896.07 24.2544" stroke="#F47920" stroke-width="1.13941"/>
<path d="M786.981 46.9925V53.0512C786.976 53.8917 786.711 54.5791 786.185 55.1136C785.663 55.6481 784.953 55.948 784.055 56.0132L783.743 56.0255C782.768 56.0255 781.991 55.7623 781.411 55.236C780.832 54.7097 780.538 53.9855 780.53 53.0634V46.9925H781.693V53.0267C781.693 53.6714 781.87 54.1732 782.225 54.5322C782.58 54.8872 783.086 55.0647 783.743 55.0647C784.408 55.0647 784.916 54.8872 785.267 54.5322C785.622 54.1773 785.799 53.6775 785.799 53.0329V46.9925H786.981Z" fill="#7F7F7F"/>
<path d="M794.251 52.6657C794.251 53.6734 794.02 54.4853 793.559 55.1014C793.098 55.7174 792.474 56.0255 791.687 56.0255C790.883 56.0255 790.251 55.7705 789.79 55.2605V58.449H788.657V49.2814H789.692L789.747 50.0157C790.208 49.4446 790.848 49.159 791.668 49.159C792.464 49.159 793.092 49.4588 793.553 50.0586C794.018 50.6583 794.251 51.4927 794.251 52.5616V52.6657ZM793.119 52.5371C793.119 51.7905 792.96 51.201 792.641 50.7685C792.323 50.336 791.887 50.1198 791.332 50.1198C790.646 50.1198 790.132 50.4237 789.79 51.0316V54.1956C790.128 54.7995 790.646 55.1014 791.344 55.1014C791.887 55.1014 792.317 54.8872 792.635 54.4588C792.958 54.0263 793.119 53.3858 793.119 52.5371Z" fill="#7F7F7F"/>
<path d="M795.42 52.5371C795.42 51.5212 795.661 50.7053 796.142 50.0892C796.623 49.469 797.254 49.159 798.033 49.159C798.808 49.159 799.422 49.4242 799.875 49.9545V46.5029H801.007V55.9031H799.967L799.912 55.1932C799.459 55.748 798.829 56.0255 798.021 56.0255C797.254 56.0255 796.628 55.7113 796.142 55.083C795.661 54.4547 795.42 53.6346 795.42 52.6228V52.5371ZM796.552 52.6657C796.552 53.4164 796.707 54.0039 797.017 54.4282C797.327 54.8525 797.756 55.0647 798.302 55.0647C799.02 55.0647 799.545 54.7423 799.875 54.0977V51.0561C799.537 50.4319 799.016 50.1198 798.315 50.1198C797.76 50.1198 797.327 50.334 797.017 50.7624C796.707 51.1908 796.552 51.8252 796.552 52.6657Z" fill="#7F7F7F"/>
<path d="M806.858 55.9031C806.793 55.7725 806.74 55.54 806.699 55.2054C806.173 55.7521 805.544 56.0255 804.814 56.0255C804.161 56.0255 803.625 55.8419 803.204 55.4747C802.788 55.1034 802.58 54.6342 802.58 54.0671C802.58 53.3776 802.841 52.8431 803.364 52.4637C803.89 52.0802 804.628 51.8884 805.579 51.8884H806.68V51.3682C806.68 50.9725 806.562 50.6583 806.326 50.4258C806.089 50.1891 805.74 50.0708 805.279 50.0708C804.875 50.0708 804.536 50.1728 804.263 50.3768C803.99 50.5808 803.853 50.8277 803.853 51.1173H802.715C802.715 50.7869 802.831 50.4686 803.064 50.1626C803.3 49.8525 803.619 49.6078 804.018 49.4282C804.422 49.2487 804.865 49.159 805.346 49.159C806.109 49.159 806.707 49.3507 807.139 49.7342C807.572 50.1137 807.796 50.6379 807.813 51.307V54.3547C807.813 54.9627 807.89 55.4461 808.045 55.8052V55.9031H806.858ZM804.979 55.0402C805.334 55.0402 805.671 54.9484 805.989 54.7648C806.307 54.5812 806.538 54.3425 806.68 54.0488V52.6901H805.793C804.406 52.6901 803.712 53.0961 803.712 53.908C803.712 54.2629 803.831 54.5404 804.067 54.7403C804.304 54.9402 804.608 55.0402 804.979 55.0402Z" fill="#7F7F7F"/>
<path d="M811.124 47.6779V49.2814H812.36V50.1565H811.124V54.2629C811.124 54.5281 811.179 54.7281 811.289 54.8627C811.399 54.9933 811.587 55.0585 811.852 55.0585C811.982 55.0585 812.162 55.0341 812.39 54.9851V55.9031C812.093 55.9847 811.803 56.0255 811.521 56.0255C811.015 56.0255 810.634 55.8725 810.377 55.5665C810.12 55.2605 809.991 54.826 809.991 54.2629V50.1565H808.786V49.2814H809.991V47.6779H811.124Z" fill="#7F7F7F"/>
<path d="M816.436 56.0255C815.538 56.0255 814.808 55.7317 814.245 55.1442C813.682 54.5526 813.4 53.7632 813.4 52.7758V52.5677C813.4 51.9109 813.525 51.3254 813.773 50.8113C814.026 50.2932 814.377 49.8893 814.826 49.5996C815.279 49.3058 815.769 49.159 816.295 49.159C817.156 49.159 817.825 49.4425 818.302 50.0096C818.78 50.5767 819.018 51.3886 819.018 52.4453V52.9166H814.532C814.549 53.5694 814.738 54.0977 815.101 54.5016C815.469 54.9015 815.934 55.1014 816.497 55.1014C816.897 55.1014 817.235 55.0198 817.513 54.8566C817.79 54.6934 818.033 54.4771 818.241 54.2079L818.933 54.7464C818.378 55.5991 817.545 56.0255 816.436 56.0255ZM816.295 50.0892C815.838 50.0892 815.454 50.2565 815.144 50.591C814.834 50.9215 814.642 51.3866 814.569 51.9863H817.886V51.9007C817.853 51.3254 817.698 50.8807 817.421 50.5665C817.143 50.2483 816.768 50.0892 816.295 50.0892Z" fill="#7F7F7F"/>
<path d="M824.189 54.1467C824.189 53.8407 824.073 53.604 823.841 53.4368C823.612 53.2654 823.21 53.1185 822.635 52.9961C822.064 52.8737 821.609 52.7269 821.27 52.5555C820.936 52.3841 820.687 52.1801 820.524 51.9435C820.365 51.7069 820.285 51.4254 820.285 51.099C820.285 50.5563 820.513 50.0973 820.97 49.722C821.431 49.3466 822.019 49.159 822.733 49.159C823.484 49.159 824.092 49.3528 824.557 49.7404C825.026 50.1279 825.26 50.6237 825.26 51.2275H824.122C824.122 50.9174 823.99 50.6502 823.724 50.4258C823.463 50.2014 823.133 50.0892 822.733 50.0892C822.321 50.0892 821.999 50.1789 821.766 50.3585C821.533 50.538 821.417 50.7726 821.417 51.0622C821.417 51.3356 821.525 51.5416 821.742 51.6804C821.958 51.8191 822.347 51.9517 822.91 52.0781C823.478 52.2046 823.937 52.3556 824.287 52.531C824.638 52.7065 824.897 52.9186 825.065 53.1675C825.236 53.4123 825.322 53.7122 825.322 54.0671C825.322 54.6587 825.085 55.134 824.612 55.493C824.138 55.848 823.524 56.0255 822.77 56.0255C822.239 56.0255 821.77 55.9316 821.362 55.744C820.954 55.5563 820.634 55.2952 820.401 54.9606C820.173 54.622 820.059 54.2568 820.059 53.8652H821.191C821.211 54.2446 821.362 54.5465 821.644 54.7709C821.929 54.9912 822.305 55.1014 822.77 55.1014C823.198 55.1014 823.541 55.0157 823.798 54.8443C824.059 54.6689 824.189 54.4363 824.189 54.1467Z" fill="#7F7F7F"/>
<circle opacity="0.1" cx="802.942" cy="18.0912" r="17.0912" fill="#F47920"/>
<path fill-rule="evenodd" clip-rule="evenodd" d="M802.942 7.51074C806.607 7.51074 808.719 10.1766 809.578 13.4826L810.785 19.4931C812.331 20.95 813.197 21.3406 813.197 23.2547C813.197 25.3536 810.605 28.1408 803.264 28.1408C794.679 28.1408 792.687 25.3536 792.687 23.2547C792.687 21.3402 793.569 21.0512 795.1 19.4929L796.307 13.4826C796.848 10.8257 799.278 7.51074 802.942 7.51074Z" stroke="#F47920" stroke-width="1.13941"/>
<path d="M802.942 6.72716V5.55737" stroke="#F47920" stroke-width="1.13941" stroke-linecap="round"/>
<path d="M800.228 27.7673C800.228 28.8461 801.443 29.7206 802.942 29.7206C804.442 29.7206 805.657 28.8461 805.657 27.7673" stroke="#F47920" stroke-width="1.13941"/>
</svg>
