<svg width="1132" height="100" viewBox="0 0 1132 100" fill="none" xmlns="http://www.w3.org/2000/svg">
<path d="M285.939 81.8382C285.939 83.0101 285.586 83.9111 284.881 84.5412C284.175 85.1713 283.261 85.4863 282.14 85.4863H278.567C278.504 85.4863 278.448 85.4674 278.397 85.4296C278.359 85.3792 278.34 85.3225 278.34 85.2595V72.4815C278.34 72.4185 278.359 72.3681 278.397 72.3303C278.448 72.2799 278.504 72.2547 278.567 72.2547H281.724C282.984 72.2547 283.967 72.5571 284.673 73.162C285.391 73.7669 285.75 74.6679 285.75 75.865C285.75 77.1126 285.322 78.0199 284.465 78.587C284.414 78.6248 284.408 78.6626 284.446 78.7004C285.441 79.4061 285.939 80.452 285.939 81.8382ZM281.1 74.5419C281.037 74.5419 281.006 74.5734 281.006 74.6364V77.604C281.006 77.667 281.037 77.6985 281.1 77.6985H281.781C282.209 77.6985 282.543 77.5662 282.782 77.3016C283.022 77.0244 283.142 76.64 283.142 76.1486C283.142 75.6319 283.022 75.2349 282.782 74.9577C282.556 74.6805 282.222 74.5419 281.781 74.5419H281.1ZM281.932 83.1802C282.348 83.1802 282.675 83.029 282.915 82.7266C283.154 82.4241 283.274 81.9957 283.274 81.4412C283.274 80.8867 283.154 80.4457 282.915 80.1181C282.675 79.7904 282.354 79.6266 281.951 79.6266H281.1C281.037 79.6266 281.006 79.6581 281.006 79.7211V83.0857C281.006 83.1487 281.037 83.1802 281.1 83.1802H281.932ZM294.101 74.315C294.101 74.378 294.076 74.4347 294.026 74.4851C293.988 74.5229 293.937 74.5419 293.874 74.5419H289.924C289.861 74.5419 289.829 74.5734 289.829 74.6364V77.6229C289.829 77.6859 289.861 77.7175 289.924 77.7175H292.192C292.255 77.7175 292.305 77.7427 292.343 77.7931C292.394 77.8309 292.419 77.8813 292.419 77.9443V79.7778C292.419 79.8408 292.394 79.8975 292.343 79.9479C292.305 79.9857 292.255 80.0046 292.192 80.0046H289.924C289.861 80.0046 289.829 80.0361 289.829 80.0992V83.1046C289.829 83.1676 289.861 83.1991 289.924 83.1991H293.874C293.937 83.1991 293.988 83.2243 294.026 83.2747C294.076 83.3126 294.101 83.363 294.101 83.426V85.2595C294.101 85.3225 294.076 85.3792 294.026 85.4296C293.988 85.4674 293.937 85.4863 293.874 85.4863H287.391C287.328 85.4863 287.271 85.4674 287.221 85.4296C287.183 85.3792 287.164 85.3225 287.164 85.2595V72.4815C287.164 72.4185 287.183 72.3681 287.221 72.3303C287.271 72.2799 287.328 72.2547 287.391 72.2547H293.874C293.937 72.2547 293.988 72.2799 294.026 72.3303C294.076 72.3681 294.101 72.4185 294.101 72.4815V74.315ZM300.858 72.4815C300.858 72.4185 300.877 72.3681 300.915 72.3303C300.965 72.2799 301.022 72.2547 301.085 72.2547H303.278C303.341 72.2547 303.391 72.2799 303.429 72.3303C303.479 72.3681 303.505 72.4185 303.505 72.4815V85.2595C303.505 85.3225 303.479 85.3792 303.429 85.4296C303.391 85.4674 303.341 85.4863 303.278 85.4863H300.783C300.657 85.4863 300.575 85.4233 300.537 85.2973L298.193 77.9821C298.18 77.9443 298.155 77.9317 298.117 77.9443C298.092 77.9443 298.08 77.9632 298.08 78.001L298.099 85.2595C298.099 85.3225 298.073 85.3792 298.023 85.4296C297.985 85.4674 297.935 85.4863 297.872 85.4863H295.679C295.616 85.4863 295.559 85.4674 295.509 85.4296C295.471 85.3792 295.452 85.3225 295.452 85.2595V72.4815C295.452 72.4185 295.471 72.3681 295.509 72.3303C295.559 72.2799 295.616 72.2547 295.679 72.2547H298.155C298.281 72.2547 298.363 72.3177 298.401 72.4437L300.764 79.7589C300.776 79.7967 300.795 79.8156 300.821 79.8156C300.858 79.803 300.877 79.7778 300.877 79.74L300.858 72.4815ZM305.389 85.4863C305.326 85.4863 305.269 85.4674 305.219 85.4296C305.181 85.3792 305.162 85.3225 305.162 85.2595V72.4815C305.162 72.4185 305.181 72.3681 305.219 72.3303C305.269 72.2799 305.326 72.2547 305.389 72.2547H308.81C309.957 72.2547 310.877 72.5886 311.57 73.2565C312.263 73.9244 312.609 74.8128 312.609 75.9217V81.8193C312.609 82.9282 312.263 83.8166 311.57 84.4845C310.877 85.1524 309.957 85.4863 308.81 85.4863H305.389ZM307.827 83.1046C307.827 83.1676 307.859 83.1991 307.922 83.1991L308.772 83.1802C309.112 83.1676 309.39 83.0227 309.604 82.7455C309.818 82.4682 309.932 82.1028 309.944 81.6491V76.0918C309.944 75.613 309.837 75.2349 309.623 74.9577C309.409 74.6805 309.119 74.5419 308.753 74.5419H307.922C307.859 74.5419 307.827 74.5734 307.827 74.6364V83.1046ZM320.469 85.4674C320.406 85.4674 320.349 85.4485 320.299 85.4107C320.261 85.3603 320.242 85.3036 320.242 85.2406V80.326L320.223 80.2126L317.577 72.5193C317.564 72.4941 317.558 72.4626 317.558 72.4248C317.558 72.3114 317.627 72.2547 317.766 72.2547H320.091C320.229 72.2547 320.317 72.3177 320.355 72.4437L321.527 76.9614C321.54 76.9992 321.559 77.0181 321.584 77.0181C321.609 77.0181 321.628 76.9992 321.641 76.9614L322.813 72.4437C322.85 72.3177 322.939 72.2547 323.077 72.2547H325.402C325.478 72.2547 325.534 72.2799 325.572 72.3303C325.61 72.3681 325.616 72.4311 325.591 72.5193L322.926 80.2126L322.907 80.326V85.2406C322.907 85.3036 322.882 85.3603 322.831 85.4107C322.794 85.4485 322.743 85.4674 322.68 85.4674H320.469ZM330.075 85.6375C328.915 85.6375 327.989 85.2973 327.296 84.6168C326.603 83.9363 326.256 83.029 326.256 81.8949V75.8461C326.256 74.712 326.603 73.8047 327.296 73.1242C327.989 72.4437 328.915 72.1034 330.075 72.1034C331.234 72.1034 332.16 72.4437 332.853 73.1242C333.559 73.8047 333.912 74.712 333.912 75.8461V81.8949C333.912 83.029 333.559 83.9363 332.853 84.6168C332.16 85.2973 331.234 85.6375 330.075 85.6375ZM330.075 83.3504C330.428 83.3504 330.711 83.2306 330.925 82.9912C331.14 82.7392 331.247 82.4115 331.247 82.0083V75.7327C331.247 75.3295 331.14 75.0081 330.925 74.7687C330.711 74.5166 330.428 74.3906 330.075 74.3906C329.722 74.3906 329.438 74.5166 329.224 74.7687C329.022 75.0081 328.922 75.3295 328.922 75.7327V82.0083C328.922 82.4115 329.022 82.7392 329.224 82.9912C329.438 83.2306 329.722 83.3504 330.075 83.3504ZM339.085 85.6375C337.951 85.6375 337.037 85.2847 336.344 84.579C335.663 83.8607 335.323 82.9093 335.323 81.7248V72.4815C335.323 72.4185 335.342 72.3681 335.38 72.3303C335.43 72.2799 335.487 72.2547 335.55 72.2547H337.761C337.825 72.2547 337.875 72.2799 337.913 72.3303C337.963 72.3681 337.988 72.4185 337.988 72.4815V81.9894C337.988 82.3926 338.089 82.7203 338.291 82.9723C338.492 83.2243 338.757 83.3504 339.085 83.3504C339.412 83.3504 339.671 83.2243 339.86 82.9723C340.061 82.7203 340.162 82.3926 340.162 81.9894V72.4815C340.162 72.4185 340.181 72.3681 340.219 72.3303C340.269 72.2799 340.326 72.2547 340.389 72.2547H342.601C342.664 72.2547 342.714 72.2799 342.752 72.3303C342.802 72.3681 342.827 72.4185 342.827 72.4815V81.7248C342.827 82.9093 342.481 83.8607 341.788 84.579C341.107 85.2847 340.206 85.6375 339.085 85.6375ZM349.642 85.4863C349.503 85.4863 349.415 85.4233 349.377 85.2973L347.922 80.0802C347.897 80.0298 347.865 80.0046 347.827 80.0046H347.185C347.122 80.0046 347.09 80.0361 347.09 80.0992V85.2595C347.09 85.3225 347.065 85.3792 347.015 85.4296C346.977 85.4674 346.926 85.4863 346.863 85.4863H344.652C344.589 85.4863 344.532 85.4674 344.482 85.4296C344.444 85.3792 344.425 85.3225 344.425 85.2595V72.4815C344.425 72.4185 344.444 72.3681 344.482 72.3303C344.532 72.2799 344.589 72.2547 344.652 72.2547H348.47C349.163 72.2547 349.781 72.4248 350.322 72.765C350.864 73.0927 351.28 73.5589 351.57 74.1638C351.872 74.7687 352.024 75.4618 352.024 76.2431C352.024 76.9866 351.879 77.6418 351.589 78.2089C351.312 78.776 350.921 79.217 350.417 79.5321C350.392 79.5447 350.373 79.5636 350.36 79.5888C350.348 79.6014 350.348 79.6203 350.36 79.6455L352.099 85.2217L352.118 85.2973C352.118 85.4233 352.049 85.4863 351.91 85.4863H349.642ZM347.185 74.5419C347.122 74.5419 347.09 74.5734 347.09 74.6364V77.8687C347.09 77.9317 347.122 77.9632 347.185 77.9632H348.035C348.426 77.9632 348.741 77.812 348.98 77.5095C349.232 77.1945 349.358 76.7786 349.358 76.262C349.358 75.7327 349.232 75.3168 348.98 75.0144C348.741 74.6994 348.426 74.5419 348.035 74.5419H347.185ZM359.469 85.4863C359.331 85.4863 359.249 85.417 359.224 85.2784L356.672 72.5004L356.653 72.4248C356.653 72.3114 356.722 72.2547 356.861 72.2547H359.167C359.318 72.2547 359.4 72.324 359.413 72.4626L360.49 79.2674C360.503 79.3179 360.521 79.3431 360.547 79.3431C360.572 79.3431 360.591 79.3179 360.603 79.2674L361.624 72.4626C361.637 72.324 361.719 72.2547 361.87 72.2547H363.779C363.93 72.2547 364.012 72.324 364.025 72.4626L365.14 79.2674C365.153 79.3179 365.171 79.3431 365.197 79.3431C365.222 79.3431 365.241 79.3179 365.253 79.2674L366.217 72.4626C366.23 72.324 366.312 72.2547 366.463 72.2547H368.694C368.857 72.2547 368.927 72.3366 368.902 72.5004L366.501 85.2784C366.488 85.417 366.406 85.4863 366.255 85.4863H364.214C364.063 85.4863 363.981 85.417 363.968 85.2784L362.853 78.2845C362.84 78.2341 362.821 78.2089 362.796 78.2089C362.771 78.2089 362.752 78.2341 362.739 78.2845L361.738 85.2784C361.725 85.417 361.643 85.4863 361.492 85.4863H359.469ZM374.275 85.4863C374.123 85.4863 374.042 85.417 374.029 85.2784L373.727 83.4638C373.727 83.4008 373.689 83.3693 373.613 83.3693H371.212C371.137 83.3693 371.099 83.4008 371.099 83.4638L370.797 85.2784C370.784 85.417 370.702 85.4863 370.551 85.4863H368.339C368.176 85.4863 368.113 85.4044 368.15 85.2406L370.929 72.4626C370.954 72.324 371.036 72.2547 371.175 72.2547H373.727C373.865 72.2547 373.947 72.324 373.972 72.4626L376.732 85.2406L376.751 85.3162C376.751 85.4296 376.682 85.4863 376.543 85.4863H374.275ZM371.477 81.2144C371.477 81.2774 371.502 81.3089 371.553 81.3089H373.254C373.317 81.3089 373.342 81.2774 373.33 81.2144L372.441 76.054C372.429 76.0162 372.41 75.9973 372.384 75.9973C372.359 75.9973 372.34 76.0162 372.328 76.054L371.477 81.2144ZM378.063 85.4863C378 85.4863 377.943 85.4674 377.893 85.4296C377.855 85.3792 377.836 85.3225 377.836 85.2595V72.4815C377.836 72.4185 377.855 72.3681 377.893 72.3303C377.943 72.2799 378 72.2547 378.063 72.2547H380.275C380.338 72.2547 380.388 72.2799 380.426 72.3303C380.476 72.3681 380.502 72.4185 380.502 72.4815V85.2595C380.502 85.3225 380.476 85.3792 380.426 85.4296C380.388 85.4674 380.338 85.4863 380.275 85.4863H378.063ZM385.595 85.6375C384.864 85.6375 384.222 85.4926 383.667 85.2028C383.113 84.913 382.684 84.5097 382.382 83.993C382.079 83.4638 381.928 82.8589 381.928 82.1784V81.6302C381.928 81.5672 381.947 81.5168 381.985 81.479C382.035 81.4286 382.092 81.4034 382.155 81.4034H384.329C384.392 81.4034 384.442 81.4286 384.48 81.479C384.53 81.5168 384.556 81.5672 384.556 81.6302V82.0461C384.556 82.4367 384.656 82.7518 384.858 82.9912C385.06 83.2306 385.312 83.3504 385.614 83.3504C385.916 83.3504 386.169 83.2369 386.37 83.0101C386.572 82.7833 386.673 82.4872 386.673 82.1217C386.673 81.7437 386.547 81.4223 386.295 81.1577C386.043 80.8804 385.551 80.4772 384.82 79.9479C384.19 79.4943 383.68 79.091 383.289 78.7382C382.898 78.3853 382.564 77.9506 382.287 77.4339C382.01 76.9173 381.871 76.3187 381.871 75.6382C381.871 74.5671 382.205 73.7101 382.873 73.0675C383.541 72.4248 384.423 72.1034 385.52 72.1034C386.628 72.1034 387.517 72.4374 388.185 73.1053C388.865 73.7732 389.206 74.649 389.206 75.7327V76.1864C389.206 76.2494 389.18 76.3061 389.13 76.3565C389.092 76.3943 389.042 76.4132 388.979 76.4132H386.805C386.742 76.4132 386.685 76.3943 386.635 76.3565C386.597 76.3061 386.578 76.2494 386.578 76.1864V75.676C386.578 75.2853 386.477 74.9766 386.276 74.7498C386.087 74.5103 385.835 74.3906 385.52 74.3906C385.217 74.3906 384.971 74.504 384.782 74.7309C384.593 74.9451 384.499 75.2475 384.499 75.6382C384.499 76.0162 384.619 76.3502 384.858 76.64C385.097 76.9299 385.57 77.3331 386.276 77.8498C387.057 78.4294 387.643 78.902 388.034 79.2674C388.437 79.6203 388.746 80.0172 388.96 80.4583C389.187 80.8867 389.3 81.4034 389.3 82.0083C389.3 83.1172 388.96 83.9993 388.279 84.6546C387.599 85.3099 386.704 85.6375 385.595 85.6375ZM397.815 72.2547C397.878 72.2547 397.929 72.2799 397.966 72.3303C398.017 72.3681 398.042 72.4185 398.042 72.4815V74.315C398.042 74.378 398.017 74.4347 397.966 74.4851C397.929 74.5229 397.878 74.5419 397.815 74.5419H395.452C395.389 74.5419 395.358 74.5734 395.358 74.6364V85.2595C395.358 85.3225 395.333 85.3792 395.282 85.4296C395.244 85.4674 395.194 85.4863 395.131 85.4863H392.919C392.856 85.4863 392.8 85.4674 392.749 85.4296C392.711 85.3792 392.693 85.3225 392.693 85.2595V74.6364C392.693 74.5734 392.661 74.5419 392.598 74.5419H390.33C390.267 74.5419 390.21 74.5229 390.16 74.4851C390.122 74.4347 390.103 74.378 390.103 74.315V72.4815C390.103 72.4185 390.122 72.3681 390.16 72.3303C390.21 72.2799 390.267 72.2547 390.33 72.2547H397.815Z" fill="#1B1B1B"/>
<path d="M292.379 57.6752C292.152 57.942 291.74 57.942 291.513 57.6752L284.822 49.8096C284.508 49.4405 284.77 48.873 285.255 48.873L298.637 48.873C299.121 48.873 299.383 49.4405 299.069 49.8096L292.379 57.6752Z" fill="#1B1B1B"/>
<path d="M288.881 42.9111C288.881 40.8708 290.535 39.2168 292.575 39.2168H293.996C294.467 39.2168 294.849 39.5985 294.849 40.0693V52.8574H288.881V42.9111Z" fill="#1B1B1B"/>
<path d="M297.406 39.2168C297.877 39.2168 298.259 39.5985 298.259 40.0693L298.259 44.332C298.259 44.8028 297.877 45.1845 297.406 45.1845L292.859 45.1845L292.859 39.2168L297.406 39.2168Z" fill="#1B1B1B"/>
<rect x="300.625" y="39.2168" width="5.95029" height="1.54267" rx="0.568351" transform="rotate(90 300.625 39.2168)" fill="#1B1B1B"/>
<rect x="302.609" y="39.2168" width="5.95029" height="1.10191" rx="0.550953" transform="rotate(90 302.609 39.2168)" fill="#1B1B1B"/>
<rect x="304.151" y="39.2168" width="5.95029" height="0.661143" rx="0.330572" transform="rotate(90 304.151 39.2168)" fill="#1B1B1B"/>
<rect x="305.473" y="39.2168" width="5.95029" height="0.440762" rx="0.220381" transform="rotate(90 305.473 39.2168)" fill="#1B1B1B"/>
<path d="M330.791 28.1308C329.306 29.1438 328.545 30.0994 328.448 30.2925C328.366 30.4552 330.98 35.4745 332.655 39.8645C333.939 43.2292 334.38 46.2551 334.38 46.2551C334.674 47.1167 335.046 47.8643 339.533 48.0139C344.019 48.1634 348.057 47.6401 347.758 46.2551C347.758 46.2551 346.302 39.2666 344.468 35.0795C342.944 31.6007 339.793 25.8441 339.63 25.734C339.404 25.5821 338.347 25.4681 336.782 25.7325C336.775 27.5385 336.157 29.1583 334.911 29.6663C333.655 30.1783 332.064 29.4366 330.791 28.1308Z" fill="#1B1B1B"/>
<path fill-rule="evenodd" clip-rule="evenodd" d="M334.331 47.4922H334.32L329.363 53.8659C329.617 53.6627 329.913 53.4919 330.255 53.3638C332.602 52.4852 334.593 54.7884 334.844 58.2909L334.87 58.3102C335.603 58.4324 337.51 58.0535 339.27 55.5598H342.937C343.915 56.66 346.054 58.7502 346.788 58.3102C346.818 58.2921 346.852 58.2706 346.891 58.2457C347.156 54.7686 349.141 52.489 351.477 53.3638C351.946 53.5396 352.329 53.7958 352.638 54.106L352.655 54.093L347.888 47.4922H347.878C347.746 47.8858 346.817 48.7755 341.105 48.7755C335.393 48.7755 334.463 47.8858 334.331 47.4922Z" fill="#1B1B1B"/>
<path d="M329.819 54.0316C327.34 54.966 327.328 58.1844 327.632 59.6768H334.375C334.375 55.7835 332.297 53.0972 329.819 54.0316Z" fill="#1B1B1B"/>
<path d="M351.94 54.0316C354.419 54.966 354.431 58.1844 354.127 59.6768H347.384C347.384 55.7835 349.462 53.0972 351.94 54.0316Z" fill="#1B1B1B"/>
<path d="M335.691 22.1651C336.706 24.6538 336.349 27.9454 334.552 28.6781C332.755 29.4107 330.198 27.3069 329.184 24.8182C328.169 22.3295 328.016 20.0389 330.6 18.9855C333.184 17.932 334.677 19.6764 335.691 22.1651Z" fill="#1B1B1B"/>
<path d="M330.144 35.6028L327.976 30.8179C327.402 31.2166 325.927 32.7019 324.91 34.8552C323.639 37.5467 320.723 40.313 322.892 41.5092C325.06 42.7054 333.42 45.4086 334.3 45.9951C335.197 46.5932 336.468 45.3222 335.646 44.4998C334.823 43.6774 329.845 40.9859 328.499 40.3877C327.422 39.9092 326.854 40.1385 326.555 40.0887L328.2 38.7429C329.576 37.3672 330.094 35.9766 330.144 35.6028Z" fill="#1B1B1B"/>
<path fill-rule="evenodd" clip-rule="evenodd" d="M346.03 7.24463C345.824 7.46948 345.535 7.63177 345.14 7.71805C344.613 7.83336 344.132 7.7559 343.712 7.53006C343.951 11.2728 343.632 13.6894 343.389 15.5331C343.207 16.9159 343.067 17.9764 343.237 19.0323C343.097 19.2245 342.962 19.4046 342.831 19.5783C341.814 20.9344 341.085 21.9064 340.356 25.2925L343.649 31.4165C343.685 30.3416 344.684 27.0656 345.656 23.8781C346.161 22.2228 346.659 20.5914 347.01 19.3045C347.534 17.9944 346.738 10.7735 346.03 7.24463Z" fill="#1B1B1B"/>
<path d="M346.16 3.19143C346.604 5.22265 346.785 6.90854 345.139 7.2688C343.643 7.59597 342.519 6.37139 342.092 4.60933C342.048 4.43108 341.698 3.5459 342.508 3.99048C342.063 1.95926 341.539 0.858288 342.548 0.637637C344.723 0.597579 345.714 1.42863 346.16 3.19143Z" fill="#1B1B1B"/>
<path d="M504.472 85.0874C504.409 85.0874 504.352 85.0685 504.302 85.0307C504.264 84.9803 504.245 84.9236 504.245 84.8606V72.0826C504.245 72.0196 504.264 71.9692 504.302 71.9313C504.352 71.8809 504.409 71.8557 504.472 71.8557H506.684C506.747 71.8557 506.797 71.8809 506.835 71.9313C506.885 71.9692 506.911 72.0196 506.911 72.0826V82.7057C506.911 82.7687 506.942 82.8002 507.005 82.8002H510.975C511.038 82.8002 511.088 82.8254 511.126 82.8758C511.176 82.9136 511.201 82.964 511.201 83.027V84.8606C511.201 84.9236 511.176 84.9803 511.126 85.0307C511.088 85.0685 511.038 85.0874 510.975 85.0874H504.472ZM515.849 85.2386C514.69 85.2386 513.763 84.8984 513.07 84.2179C512.377 83.5374 512.031 82.6301 512.031 81.496V75.4472C512.031 74.313 512.377 73.4057 513.07 72.7252C513.763 72.0448 514.69 71.7045 515.849 71.7045C517.008 71.7045 517.935 72.0448 518.628 72.7252C519.333 73.4057 519.686 74.313 519.686 75.4472V81.496C519.686 82.6301 519.333 83.5374 518.628 84.2179C517.935 84.8984 517.008 85.2386 515.849 85.2386ZM515.849 82.9514C516.202 82.9514 516.485 82.8317 516.7 82.5923C516.914 82.3403 517.021 82.0126 517.021 81.6094V75.3338C517.021 74.9305 516.914 74.6092 516.7 74.3698C516.485 74.1177 516.202 73.9917 515.849 73.9917C515.496 73.9917 515.213 74.1177 514.998 74.3698C514.797 74.6092 514.696 74.9305 514.696 75.3338V81.6094C514.696 82.0126 514.797 82.3403 514.998 82.5923C515.213 82.8317 515.496 82.9514 515.849 82.9514ZM523.498 85.0874C523.36 85.0874 523.278 85.0181 523.253 84.8795L520.701 72.1015L520.682 72.0259C520.682 71.9124 520.751 71.8557 520.89 71.8557H523.196C523.347 71.8557 523.429 71.925 523.442 72.0637L524.519 78.8685C524.532 78.9189 524.551 78.9441 524.576 78.9441C524.601 78.9441 524.62 78.9189 524.633 78.8685L525.653 72.0637C525.666 71.925 525.748 71.8557 525.899 71.8557H527.808C527.959 71.8557 528.041 71.925 528.054 72.0637L529.169 78.8685C529.182 78.9189 529.201 78.9441 529.226 78.9441C529.251 78.9441 529.27 78.9189 529.283 78.8685L530.247 72.0637C530.259 71.925 530.341 71.8557 530.492 71.8557H532.723C532.887 71.8557 532.956 71.9376 532.931 72.1015L530.53 84.8795C530.517 85.0181 530.436 85.0874 530.284 85.0874H528.243C528.092 85.0874 528.01 85.0181 527.997 84.8795L526.882 77.8856C526.869 77.8352 526.85 77.81 526.825 77.81C526.8 77.81 526.781 77.8352 526.768 77.8856L525.767 84.8795C525.754 85.0181 525.672 85.0874 525.521 85.0874H523.498ZM541.105 73.9161C541.105 73.9791 541.08 74.0358 541.029 74.0862C540.992 74.124 540.941 74.1429 540.878 74.1429H536.928C536.865 74.1429 536.833 74.1744 536.833 74.2374V77.224C536.833 77.287 536.865 77.3185 536.928 77.3185H539.196C539.259 77.3185 539.309 77.3437 539.347 77.3941C539.398 77.4319 539.423 77.4823 539.423 77.5454V79.3789C539.423 79.4419 539.398 79.4986 539.347 79.549C539.309 79.5868 539.259 79.6057 539.196 79.6057H536.928C536.865 79.6057 536.833 79.6372 536.833 79.7002V82.7057C536.833 82.7687 536.865 82.8002 536.928 82.8002H540.878C540.941 82.8002 540.992 82.8254 541.029 82.8758C541.08 82.9136 541.105 82.964 541.105 83.027V84.8606C541.105 84.9236 541.08 84.9803 541.029 85.0307C540.992 85.0685 540.941 85.0874 540.878 85.0874H534.395C534.332 85.0874 534.275 85.0685 534.225 85.0307C534.187 84.9803 534.168 84.9236 534.168 84.8606V72.0826C534.168 72.0196 534.187 71.9692 534.225 71.9313C534.275 71.8809 534.332 71.8557 534.395 71.8557H540.878C540.941 71.8557 540.992 71.8809 541.029 71.9313C541.08 71.9692 541.105 72.0196 541.105 72.0826V73.9161ZM547.673 85.0874C547.535 85.0874 547.446 85.0244 547.409 84.8984L545.953 79.6813C545.928 79.6309 545.896 79.6057 545.859 79.6057H545.216C545.153 79.6057 545.121 79.6372 545.121 79.7002V84.8606C545.121 84.9236 545.096 84.9803 545.046 85.0307C545.008 85.0685 544.958 85.0874 544.895 85.0874H542.683C542.62 85.0874 542.563 85.0685 542.513 85.0307C542.475 84.9803 542.456 84.9236 542.456 84.8606V72.0826C542.456 72.0196 542.475 71.9692 542.513 71.9313C542.563 71.8809 542.62 71.8557 542.683 71.8557H546.501C547.194 71.8557 547.812 72.0259 548.354 72.3661C548.896 72.6937 549.311 73.16 549.601 73.7649C549.904 74.3698 550.055 75.0628 550.055 75.8441C550.055 76.5876 549.91 77.2429 549.62 77.81C549.343 78.3771 548.952 78.8181 548.448 79.1332C548.423 79.1458 548.404 79.1647 548.391 79.1899C548.379 79.2025 548.379 79.2214 548.391 79.2466L550.13 84.8228L550.149 84.8984C550.149 85.0244 550.08 85.0874 549.941 85.0874H547.673ZM545.216 74.1429C545.153 74.1429 545.121 74.1744 545.121 74.2374V77.4697C545.121 77.5328 545.153 77.5643 545.216 77.5643H546.066C546.457 77.5643 546.772 77.413 547.012 77.1106C547.264 76.7956 547.39 76.3797 547.39 75.863C547.39 75.3338 547.264 74.9179 547.012 74.6155C546.772 74.3004 546.457 74.1429 546.066 74.1429H545.216ZM557.671 85.0685C557.608 85.0685 557.551 85.0496 557.501 85.0118C557.463 84.9614 557.444 84.9047 557.444 84.8417V79.9271L557.425 79.8136L554.779 72.1204C554.766 72.0952 554.76 72.0637 554.76 72.0259C554.76 71.9124 554.829 71.8557 554.968 71.8557H557.293C557.431 71.8557 557.519 71.9187 557.557 72.0448L558.729 76.5624C558.742 76.6002 558.761 76.6191 558.786 76.6191C558.811 76.6191 558.83 76.6002 558.843 76.5624L560.015 72.0448C560.052 71.9187 560.141 71.8557 560.279 71.8557H562.604C562.68 71.8557 562.736 71.8809 562.774 71.9313C562.812 71.9692 562.818 72.0322 562.793 72.1204L560.128 79.8136L560.109 79.9271V84.8417C560.109 84.9047 560.084 84.9614 560.033 85.0118C559.996 85.0496 559.945 85.0685 559.882 85.0685H557.671ZM567.277 85.2386C566.117 85.2386 565.191 84.8984 564.498 84.2179C563.805 83.5374 563.458 82.6301 563.458 81.496V75.4472C563.458 74.313 563.805 73.4057 564.498 72.7252C565.191 72.0448 566.117 71.7045 567.277 71.7045C568.436 71.7045 569.362 72.0448 570.055 72.7252C570.761 73.4057 571.114 74.313 571.114 75.4472V81.496C571.114 82.6301 570.761 83.5374 570.055 84.2179C569.362 84.8984 568.436 85.2386 567.277 85.2386ZM567.277 82.9514C567.63 82.9514 567.913 82.8317 568.127 82.5923C568.342 82.3403 568.449 82.0126 568.449 81.6094V75.3338C568.449 74.9305 568.342 74.6092 568.127 74.3698C567.913 74.1177 567.63 73.9917 567.277 73.9917C566.924 73.9917 566.64 74.1177 566.426 74.3698C566.224 74.6092 566.124 74.9305 566.124 75.3338V81.6094C566.124 82.0126 566.224 82.3403 566.426 82.5923C566.64 82.8317 566.924 82.9514 567.277 82.9514ZM576.287 85.2386C575.153 85.2386 574.239 84.8858 573.546 84.1801C572.865 83.4618 572.525 82.5104 572.525 81.3258V72.0826C572.525 72.0196 572.544 71.9692 572.582 71.9313C572.632 71.8809 572.689 71.8557 572.752 71.8557H574.963C575.026 71.8557 575.077 71.8809 575.115 71.9313C575.165 71.9692 575.19 72.0196 575.19 72.0826V81.5905C575.19 81.9937 575.291 82.3214 575.493 82.5734C575.694 82.8254 575.959 82.9514 576.287 82.9514C576.614 82.9514 576.873 82.8254 577.062 82.5734C577.263 82.3214 577.364 81.9937 577.364 81.5905V72.0826C577.364 72.0196 577.383 71.9692 577.421 71.9313C577.471 71.8809 577.528 71.8557 577.591 71.8557H579.802C579.866 71.8557 579.916 71.8809 579.954 71.9313C580.004 71.9692 580.029 72.0196 580.029 72.0826V81.3258C580.029 82.5104 579.683 83.4618 578.99 84.1801C578.309 84.8858 577.408 85.2386 576.287 85.2386ZM586.844 85.0874C586.705 85.0874 586.617 85.0244 586.579 84.8984L585.124 79.6813C585.099 79.6309 585.067 79.6057 585.029 79.6057H584.387C584.324 79.6057 584.292 79.6372 584.292 79.7002V84.8606C584.292 84.9236 584.267 84.9803 584.216 85.0307C584.179 85.0685 584.128 85.0874 584.065 85.0874H581.854C581.791 85.0874 581.734 85.0685 581.684 85.0307C581.646 84.9803 581.627 84.9236 581.627 84.8606V72.0826C581.627 72.0196 581.646 71.9692 581.684 71.9313C581.734 71.8809 581.791 71.8557 581.854 71.8557H585.672C586.365 71.8557 586.983 72.0259 587.524 72.3661C588.066 72.6937 588.482 73.16 588.772 73.7649C589.074 74.3698 589.226 75.0628 589.226 75.8441C589.226 76.5876 589.081 77.2429 588.791 77.81C588.514 78.3771 588.123 78.8181 587.619 79.1332C587.594 79.1458 587.575 79.1647 587.562 79.1899C587.55 79.2025 587.55 79.2214 587.562 79.2466L589.301 84.8228L589.32 84.8984C589.32 85.0244 589.251 85.0874 589.112 85.0874H586.844ZM584.387 74.1429C584.324 74.1429 584.292 74.1744 584.292 74.2374V77.4697C584.292 77.5328 584.324 77.5643 584.387 77.5643H585.237C585.628 77.5643 585.943 77.413 586.182 77.1106C586.434 76.7956 586.56 76.3797 586.56 75.863C586.56 75.3338 586.434 74.9179 586.182 74.6155C585.943 74.3004 585.628 74.1429 585.237 74.1429H584.387ZM601.907 81.4392C601.907 82.6112 601.554 83.5122 600.849 84.1423C600.143 84.7724 599.229 85.0874 598.108 85.0874H594.535C594.472 85.0874 594.416 85.0685 594.365 85.0307C594.327 84.9803 594.308 84.9236 594.308 84.8606V72.0826C594.308 72.0196 594.327 71.9692 594.365 71.9313C594.416 71.8809 594.472 71.8557 594.535 71.8557H597.692C598.952 71.8557 599.935 72.1582 600.641 72.7631C601.359 73.3679 601.718 74.2689 601.718 75.4661C601.718 76.7136 601.29 77.621 600.433 78.188C600.382 78.2258 600.376 78.2636 600.414 78.3014C601.409 79.0071 601.907 80.0531 601.907 81.4392ZM597.068 74.1429C597.005 74.1429 596.974 74.1744 596.974 74.2374V77.2051C596.974 77.2681 597.005 77.2996 597.068 77.2996H597.749C598.177 77.2996 598.511 77.1673 598.751 76.9027C598.99 76.6254 599.11 76.2411 599.11 75.7496C599.11 75.233 598.99 74.836 598.751 74.5588C598.524 74.2815 598.19 74.1429 597.749 74.1429H597.068ZM597.9 82.7813C598.316 82.7813 598.643 82.6301 598.883 82.3277C599.122 82.0252 599.242 81.5968 599.242 81.0423C599.242 80.4878 599.122 80.0468 598.883 79.7191C598.643 79.3915 598.322 79.2277 597.919 79.2277H597.068C597.005 79.2277 596.974 79.2592 596.974 79.3222V82.6868C596.974 82.7498 597.005 82.7813 597.068 82.7813H597.9ZM606.817 85.2386C605.657 85.2386 604.731 84.8984 604.038 84.2179C603.345 83.5374 602.998 82.6301 602.998 81.496V75.4472C602.998 74.313 603.345 73.4057 604.038 72.7252C604.731 72.0448 605.657 71.7045 606.817 71.7045C607.976 71.7045 608.902 72.0448 609.595 72.7252C610.301 73.4057 610.654 74.313 610.654 75.4472V81.496C610.654 82.6301 610.301 83.5374 609.595 84.2179C608.902 84.8984 607.976 85.2386 606.817 85.2386ZM606.817 82.9514C607.169 82.9514 607.453 82.8317 607.667 82.5923C607.881 82.3403 607.989 82.0126 607.989 81.6094V75.3338C607.989 74.9305 607.881 74.6092 607.667 74.3698C607.453 74.1177 607.169 73.9917 606.817 73.9917C606.464 73.9917 606.18 74.1177 605.966 74.3698C605.764 74.6092 605.664 74.9305 605.664 75.3338V81.6094C605.664 82.0126 605.764 82.3403 605.966 82.5923C606.18 82.8317 606.464 82.9514 606.817 82.9514ZM612.349 85.0874C612.286 85.0874 612.229 85.0685 612.178 85.0307C612.141 84.9803 612.122 84.9236 612.122 84.8606V72.0826C612.122 72.0196 612.141 71.9692 612.178 71.9313C612.229 71.8809 612.286 71.8557 612.349 71.8557H615.77C616.917 71.8557 617.837 72.1897 618.53 72.8576C619.223 73.5254 619.569 74.4139 619.569 75.5228V81.4203C619.569 82.5293 619.223 83.4177 618.53 84.0856C617.837 84.7535 616.917 85.0874 615.77 85.0874H612.349ZM614.787 82.7057C614.787 82.7687 614.818 82.8002 614.881 82.8002L615.732 82.7813C616.072 82.7687 616.35 82.6238 616.564 82.3466C616.778 82.0693 616.891 81.7039 616.904 81.2502V75.6929C616.904 75.2141 616.797 74.836 616.583 74.5588C616.368 74.2815 616.079 74.1429 615.713 74.1429H614.881C614.818 74.1429 614.787 74.1744 614.787 74.2374V82.7057ZM622.998 85.0685C622.935 85.0685 622.879 85.0496 622.828 85.0118C622.79 84.9614 622.771 84.9047 622.771 84.8417V79.9271L622.753 79.8136L620.106 72.1204C620.094 72.0952 620.087 72.0637 620.087 72.0259C620.087 71.9124 620.157 71.8557 620.295 71.8557H622.62C622.759 71.8557 622.847 71.9187 622.885 72.0448L624.057 76.5624C624.069 76.6002 624.088 76.6191 624.113 76.6191C624.139 76.6191 624.158 76.6002 624.17 76.5624L625.342 72.0448C625.38 71.9187 625.468 71.8557 625.607 71.8557H627.932C628.007 71.8557 628.064 71.8809 628.102 71.9313C628.14 71.9692 628.146 72.0322 628.121 72.1204L625.456 79.8136L625.437 79.9271V84.8417C625.437 84.9047 625.411 84.9614 625.361 85.0118C625.323 85.0496 625.273 85.0685 625.21 85.0685H622.998Z" fill="#1B1B1B"/>
<path d="M612.013 58.2001C611.786 58.4669 611.374 58.4669 611.147 58.2001L604.456 50.3345C604.142 49.9654 604.405 49.3979 604.889 49.3979L618.271 49.3979C618.755 49.3979 619.018 49.9654 618.704 50.3345L612.013 58.2001Z" fill="#1B1B1B"/>
<path d="M608.605 45.2368C608.605 44.766 608.987 44.3843 609.458 44.3843H613.703C614.174 44.3843 614.555 44.766 614.555 45.2368V53.4199H608.605V45.2368Z" fill="#1B1B1B"/>
<rect x="608.605" y="41.96" width="5.95032" height="1.54248" rx="0.568351" fill="#1B1B1B"/>
<rect x="608.605" y="39.9771" width="5.95032" height="1.10205" rx="0.551025" fill="#1B1B1B"/>
<rect x="608.605" y="38.4341" width="5.95029" height="0.661143" rx="0.330572" fill="#1B1B1B"/>
<rect x="608.605" y="37.1118" width="5.95032" height="0.440918" rx="0.220459" fill="#1B1B1B"/>
<path d="M521.702 58.2003C521.475 58.4671 521.063 58.4671 520.836 58.2003L514.145 50.3347C513.831 49.9656 514.094 49.3981 514.578 49.3981L527.96 49.3981C528.444 49.3981 528.707 49.9656 528.393 50.3347L521.702 58.2003Z" fill="#1B1B1B"/>
<path d="M518.294 45.237C518.294 44.7662 518.676 44.3845 519.146 44.3845H523.392C523.863 44.3845 524.244 44.7662 524.244 45.237V53.4201H518.294V45.237Z" fill="#1B1B1B"/>
<rect x="518.294" y="41.96" width="5.95032" height="1.54297" rx="0.568351" fill="#1B1B1B"/>
<rect x="518.294" y="39.9771" width="5.95032" height="1.10205" rx="0.551025" fill="#1B1B1B"/>
<rect x="518.294" y="38.4343" width="5.95029" height="0.661143" rx="0.330572" fill="#1B1B1B"/>
<rect x="518.294" y="37.1118" width="5.95026" height="0.440918" rx="0.220459" fill="#1B1B1B"/>
<path d="M587.212 37.4862C587.212 39.2262 586.402 39.399 584.436 39.8491C582.903 39.8491 582.123 38.4386 582.123 36.6986C581.082 34.7857 582.47 33.4355 584.436 34.3356C587.674 34.3357 587.212 35.7462 587.212 37.4862Z" fill="#1B1B1B"/>
<path d="M544.347 37.4862C544.347 39.2262 545.157 39.399 547.123 39.8491C548.656 39.8491 549.436 38.4386 549.436 36.6986C550.477 34.7857 549.089 33.4355 547.123 34.3356C543.885 34.3357 544.347 35.7462 544.347 37.4862Z" fill="#1B1B1B"/>
<path fill-rule="evenodd" clip-rule="evenodd" d="M562.315 24.2944C560.367 24.7125 559.187 25.3747 559.006 25.532C558.737 25.7664 558.416 44.3909 558.416 44.3909C558.416 44.3909 557.826 45.979 565.696 45.979C573.566 45.979 572.976 44.3909 572.976 44.3909C572.976 44.3909 572.654 25.932 572.385 25.532C572.217 25.2817 571.181 24.7228 569.464 24.3395C568.702 26.1895 567.39 27.5928 565.899 27.5928C564.396 27.5928 563.075 26.1667 562.315 24.2944Z" fill="#1B1B1B"/>
<path fill-rule="evenodd" clip-rule="evenodd" d="M558.191 45.4009H558.178L552.685 52.4634C552.967 52.238 553.295 52.0486 553.674 51.9065C556.274 50.9331 558.481 53.4848 558.759 57.3655L558.787 57.3867C559.6 57.5221 561.713 57.1023 563.663 54.3395H567.726C568.809 55.5584 571.179 57.8743 571.992 57.3867C572.026 57.3665 572.065 57.3424 572.108 57.3145C572.402 53.4625 574.6 50.9374 577.189 51.9065C577.709 52.1012 578.132 52.3848 578.474 52.7282L578.493 52.7143L573.211 45.4009H573.201C573.055 45.8367 572.027 46.8232 565.696 46.8232C559.365 46.8232 558.336 45.8367 558.191 45.4009Z" fill="#1B1B1B"/>
<path d="M553.193 52.647C550.446 53.6823 550.433 57.2483 550.77 58.9019H558.241C558.241 54.5881 555.939 51.6117 553.193 52.647Z" fill="#1B1B1B"/>
<path d="M577.704 52.647C580.451 53.6823 580.464 57.2483 580.127 58.9019H572.656C572.656 54.5881 574.958 51.6117 577.704 52.647Z" fill="#1B1B1B"/>
<path d="M569.839 20.2234C569.839 23.2013 568.096 26.4292 565.945 26.4292C563.795 26.4292 562.052 23.2013 562.052 20.2234C562.052 17.2456 562.854 14.8315 565.945 14.8315C569.037 14.8315 569.839 17.2456 569.839 20.2234Z" fill="#1B1B1B"/>
<path fill-rule="evenodd" clip-rule="evenodd" d="M573.221 25.9315L573.539 36.1047C574.297 41.775 575.503 47.9092 577.088 47.2299C579.047 46.3904 581.776 42.2511 583.079 40.2752L583.079 40.2752C583.161 40.1498 583.238 40.0331 583.309 39.9266C582.321 39.6305 581.763 38.6227 581.647 37.3671C581.552 37.3983 581.454 37.4354 581.354 37.4786C580.529 37.8358 579.597 38.4572 578.755 39.1199C578.934 37.2353 579.011 33.3917 578.104 30.3683C577.129 27.1178 574.583 26.0344 573.431 25.8989C573.355 25.8989 573.285 25.9104 573.221 25.9315Z" fill="#1B1B1B"/>
<path fill-rule="evenodd" clip-rule="evenodd" d="M558.171 25.9311L557.853 36.1174C557.095 41.7842 555.889 47.9087 554.305 47.2299C552.346 46.3904 549.617 42.2511 548.315 40.2752L548.315 40.2752C548.232 40.1497 548.155 40.0329 548.084 39.9262C549.072 39.6297 549.63 38.622 549.745 37.3666C549.841 37.398 549.939 37.4352 550.039 37.4786C550.864 37.8358 551.796 38.4572 552.639 39.1199C552.46 37.2353 552.383 33.3917 553.29 30.3683C554.265 27.1178 556.811 26.0344 557.962 25.8989C558.038 25.8989 558.108 25.9103 558.171 25.9311Z" fill="#1B1B1B"/>
<path d="M963.791 85.2665C962.632 85.2665 961.706 84.9262 961.013 84.2457C960.32 83.5652 959.973 82.6579 959.973 81.5238V75.475C959.973 74.3409 960.32 73.4336 961.013 72.7531C961.706 72.0726 962.632 71.7324 963.791 71.7324C964.951 71.7324 965.877 72.0726 966.57 72.7531C967.276 73.4336 967.629 74.3409 967.629 75.475V81.5238C967.629 82.6579 967.276 83.5652 966.57 84.2457C965.877 84.9262 964.951 85.2665 963.791 85.2665ZM963.791 82.9793C964.144 82.9793 964.428 82.8596 964.642 82.6201C964.856 82.3681 964.963 82.0404 964.963 81.6372V75.3616C964.963 74.9584 964.856 74.637 964.642 74.3976C964.428 74.1456 964.144 74.0195 963.791 74.0195C963.439 74.0195 963.155 74.1456 962.941 74.3976C962.739 74.637 962.638 74.9584 962.638 75.3616V81.6372C962.638 82.0404 962.739 82.3681 962.941 82.6201C963.155 82.8596 963.439 82.9793 963.791 82.9793ZM973.123 71.8647C973.816 71.8647 974.433 72.0348 974.975 72.375C975.517 72.7153 975.933 73.1941 976.223 73.8116C976.525 74.4165 976.676 75.1096 976.676 75.8909C976.676 77.0628 976.361 78.0016 975.731 78.7073C975.101 79.413 974.276 79.7659 973.255 79.7659H971.837C971.774 79.7659 971.743 79.7974 971.743 79.8604V84.8884C971.743 84.9514 971.718 85.0081 971.667 85.0585C971.629 85.0963 971.579 85.1152 971.516 85.1152H969.304C969.241 85.1152 969.185 85.0963 969.134 85.0585C969.097 85.0081 969.078 84.9514 969.078 84.8884V72.0915C969.078 72.0285 969.097 71.9781 969.134 71.9403C969.185 71.8899 969.241 71.8647 969.304 71.8647H973.123ZM972.669 77.6866C973.072 77.6866 973.394 77.5354 973.633 77.2329C973.885 76.9179 974.011 76.4894 974.011 75.9476C974.011 75.3931 973.885 74.9584 973.633 74.6433C973.394 74.3283 973.072 74.1708 972.669 74.1708H971.837C971.774 74.1708 971.743 74.2023 971.743 74.2653V77.5921C971.743 77.6551 971.774 77.6866 971.837 77.6866H972.669ZM984.82 73.9439C984.82 74.0069 984.795 74.0636 984.745 74.1141C984.707 74.1519 984.657 74.1708 984.594 74.1708H980.643C980.58 74.1708 980.548 74.2023 980.548 74.2653V77.2518C980.548 77.3149 980.58 77.3464 980.643 77.3464H982.911C982.974 77.3464 983.025 77.3716 983.062 77.422C983.113 77.4598 983.138 77.5102 983.138 77.5732V79.4067C983.138 79.4697 983.113 79.5264 983.062 79.5768C983.025 79.6146 982.974 79.6335 982.911 79.6335H980.643C980.58 79.6335 980.548 79.665 980.548 79.7281V82.7335C980.548 82.7965 980.58 82.828 980.643 82.828H984.594C984.657 82.828 984.707 82.8532 984.745 82.9037C984.795 82.9415 984.82 82.9919 984.82 83.0549V84.8884C984.82 84.9514 984.795 85.0081 984.745 85.0585C984.707 85.0963 984.657 85.1152 984.594 85.1152H978.11C978.047 85.1152 977.99 85.0963 977.94 85.0585C977.902 85.0081 977.883 84.9514 977.883 84.8884V72.1104C977.883 72.0474 977.902 71.997 977.94 71.9592C977.99 71.9088 978.047 71.8836 978.11 71.8836H984.594C984.657 71.8836 984.707 71.9088 984.745 71.9592C984.795 71.997 984.82 72.0474 984.82 72.1104V73.9439ZM991.578 72.1104C991.578 72.0474 991.596 71.997 991.634 71.9592C991.685 71.9088 991.741 71.8836 991.804 71.8836H993.997C994.06 71.8836 994.11 71.9088 994.148 71.9592C994.199 71.997 994.224 72.0474 994.224 72.1104V84.8884C994.224 84.9514 994.199 85.0081 994.148 85.0585C994.11 85.0963 994.06 85.1152 993.997 85.1152H991.502C991.376 85.1152 991.294 85.0522 991.256 84.9262L988.912 77.611C988.9 77.5732 988.874 77.5606 988.837 77.5732C988.811 77.5732 988.799 77.5921 988.799 77.6299L988.818 84.8884C988.818 84.9514 988.793 85.0081 988.742 85.0585C988.704 85.0963 988.654 85.1152 988.591 85.1152H986.398C986.335 85.1152 986.279 85.0963 986.228 85.0585C986.19 85.0081 986.171 84.9514 986.171 84.8884V72.1104C986.171 72.0474 986.19 71.997 986.228 71.9592C986.279 71.9088 986.335 71.8836 986.398 71.8836H988.874C989 71.8836 989.082 71.9466 989.12 72.0726L991.483 79.3878C991.496 79.4256 991.515 79.4445 991.54 79.4445C991.578 79.4319 991.596 79.4067 991.596 79.3689L991.578 72.1104ZM1003.37 85.2665C1002.24 85.2665 1001.32 84.9136 1000.63 84.2079C999.949 83.4896 999.609 82.5382 999.609 81.3537V72.1104C999.609 72.0474 999.627 71.997 999.665 71.9592C999.716 71.9088 999.772 71.8836 999.835 71.8836H1002.05C1002.11 71.8836 1002.16 71.9088 1002.2 71.9592C1002.25 71.997 1002.27 72.0474 1002.27 72.1104V81.6183C1002.27 82.0215 1002.37 82.3492 1002.58 82.6012C1002.78 82.8532 1003.04 82.9793 1003.37 82.9793C1003.7 82.9793 1003.96 82.8532 1004.15 82.6012C1004.35 82.3492 1004.45 82.0215 1004.45 81.6183V72.1104C1004.45 72.0474 1004.47 71.997 1004.5 71.9592C1004.55 71.9088 1004.61 71.8836 1004.67 71.8836H1006.89C1006.95 71.8836 1007 71.9088 1007.04 71.9592C1007.09 71.997 1007.11 72.0474 1007.11 72.1104V81.3537C1007.11 82.5382 1006.77 83.4896 1006.07 84.2079C1005.39 84.9136 1004.49 85.2665 1003.37 85.2665ZM1012.63 71.8647C1013.32 71.8647 1013.94 72.0348 1014.48 72.375C1015.02 72.7153 1015.44 73.1941 1015.73 73.8116C1016.03 74.4165 1016.18 75.1096 1016.18 75.8909C1016.18 77.0628 1015.86 78.0016 1015.23 78.7073C1014.6 79.413 1013.78 79.7659 1012.76 79.7659H1011.34C1011.28 79.7659 1011.25 79.7974 1011.25 79.8604V84.8884C1011.25 84.9514 1011.22 85.0081 1011.17 85.0585C1011.13 85.0963 1011.08 85.1152 1011.02 85.1152H1008.81C1008.74 85.1152 1008.69 85.0963 1008.64 85.0585C1008.6 85.0081 1008.58 84.9514 1008.58 84.8884V72.0915C1008.58 72.0285 1008.6 71.9781 1008.64 71.9403C1008.69 71.8899 1008.74 71.8647 1008.81 71.8647H1012.63ZM1012.17 77.6866C1012.58 77.6866 1012.9 77.5354 1013.14 77.2329C1013.39 76.9179 1013.51 76.4894 1013.51 75.9476C1013.51 75.3931 1013.39 74.9584 1013.14 74.6433C1012.9 74.3283 1012.58 74.1708 1012.17 74.1708H1011.34C1011.28 74.1708 1011.25 74.2023 1011.25 74.2653V77.5921C1011.25 77.6551 1011.28 77.6866 1011.34 77.6866H1012.17ZM1023.7 85.0963C1023.64 85.0963 1023.58 85.0774 1023.53 85.0396C1023.5 84.9892 1023.48 84.9325 1023.48 84.8695V79.9549L1023.46 79.8415L1020.81 72.1482C1020.8 72.123 1020.79 72.0915 1020.79 72.0537C1020.79 71.9403 1020.86 71.8836 1021 71.8836H1023.33C1023.46 71.8836 1023.55 71.9466 1023.59 72.0726L1024.76 76.5903C1024.77 76.6281 1024.79 76.647 1024.82 76.647C1024.84 76.647 1024.86 76.6281 1024.88 76.5903L1026.05 72.0726C1026.08 71.9466 1026.17 71.8836 1026.31 71.8836H1028.64C1028.71 71.8836 1028.77 71.9088 1028.81 71.9592C1028.84 71.997 1028.85 72.06 1028.83 72.1482L1026.16 79.8415L1026.14 79.9549V84.8695C1026.14 84.9325 1026.12 84.9892 1026.07 85.0396C1026.03 85.0774 1025.98 85.0963 1025.91 85.0963H1023.7ZM1033.31 85.2665C1032.15 85.2665 1031.22 84.9262 1030.53 84.2457C1029.84 83.5652 1029.49 82.6579 1029.49 81.5238V75.475C1029.49 74.3409 1029.84 73.4336 1030.53 72.7531C1031.22 72.0726 1032.15 71.7324 1033.31 71.7324C1034.47 71.7324 1035.39 72.0726 1036.09 72.7531C1036.79 73.4336 1037.15 74.3409 1037.15 75.475V81.5238C1037.15 82.6579 1036.79 83.5652 1036.09 84.2457C1035.39 84.9262 1034.47 85.2665 1033.31 85.2665ZM1033.31 82.9793C1033.66 82.9793 1033.95 82.8596 1034.16 82.6201C1034.37 82.3681 1034.48 82.0404 1034.48 81.6372V75.3616C1034.48 74.9584 1034.37 74.637 1034.16 74.3976C1033.95 74.1456 1033.66 74.0195 1033.31 74.0195C1032.96 74.0195 1032.67 74.1456 1032.46 74.3976C1032.26 74.637 1032.16 74.9584 1032.16 75.3616V81.6372C1032.16 82.0404 1032.26 82.3681 1032.46 82.6201C1032.67 82.8596 1032.96 82.9793 1033.31 82.9793ZM1042.32 85.2665C1041.19 85.2665 1040.27 84.9136 1039.58 84.2079C1038.9 83.4896 1038.56 82.5382 1038.56 81.3537V72.1104C1038.56 72.0474 1038.58 71.997 1038.61 71.9592C1038.66 71.9088 1038.72 71.8836 1038.78 71.8836H1041C1041.06 71.8836 1041.11 71.9088 1041.15 71.9592C1041.2 71.997 1041.22 72.0474 1041.22 72.1104V81.6183C1041.22 82.0215 1041.32 82.3492 1041.53 82.6012C1041.73 82.8532 1041.99 82.9793 1042.32 82.9793C1042.65 82.9793 1042.91 82.8532 1043.09 82.6012C1043.3 82.3492 1043.4 82.0215 1043.4 81.6183V72.1104C1043.4 72.0474 1043.42 71.997 1043.45 71.9592C1043.5 71.9088 1043.56 71.8836 1043.62 71.8836H1045.84C1045.9 71.8836 1045.95 71.9088 1045.99 71.9592C1046.04 71.997 1046.06 72.0474 1046.06 72.1104V81.3537C1046.06 82.5382 1045.72 83.4896 1045.02 84.2079C1044.34 84.9136 1043.44 85.2665 1042.32 85.2665ZM1052.88 85.1152C1052.74 85.1152 1052.65 85.0522 1052.61 84.9262L1051.16 79.7092C1051.13 79.6587 1051.1 79.6335 1051.06 79.6335H1050.42C1050.36 79.6335 1050.32 79.665 1050.32 79.7281V84.8884C1050.32 84.9514 1050.3 85.0081 1050.25 85.0585C1050.21 85.0963 1050.16 85.1152 1050.1 85.1152H1047.89C1047.82 85.1152 1047.77 85.0963 1047.72 85.0585C1047.68 85.0081 1047.66 84.9514 1047.66 84.8884V72.1104C1047.66 72.0474 1047.68 71.997 1047.72 71.9592C1047.77 71.9088 1047.82 71.8836 1047.89 71.8836H1051.7C1052.4 71.8836 1053.02 72.0537 1053.56 72.3939C1054.1 72.7216 1054.51 73.1878 1054.8 73.7927C1055.11 74.3976 1055.26 75.0907 1055.26 75.872C1055.26 76.6155 1055.11 77.2707 1054.82 77.8378C1054.55 78.4049 1054.16 78.8459 1053.65 79.161C1053.63 79.1736 1053.61 79.1925 1053.59 79.2177C1053.58 79.2303 1053.58 79.2492 1053.59 79.2744L1055.33 84.8506L1055.35 84.9262C1055.35 85.0522 1055.28 85.1152 1055.14 85.1152H1052.88ZM1050.42 74.1708C1050.36 74.1708 1050.32 74.2023 1050.32 74.2653V77.4976C1050.32 77.5606 1050.36 77.5921 1050.42 77.5921H1051.27C1051.66 77.5921 1051.98 77.4409 1052.22 77.1384C1052.47 76.8234 1052.59 76.4075 1052.59 75.8909C1052.59 75.3616 1052.47 74.9458 1052.22 74.6433C1051.98 74.3283 1051.66 74.1708 1051.27 74.1708H1050.42ZM1060.57 85.1152C1060.5 85.1152 1060.45 85.0963 1060.4 85.0585C1060.36 85.0081 1060.34 84.9514 1060.34 84.8884V72.1104C1060.34 72.0474 1060.36 71.997 1060.4 71.9592C1060.45 71.9088 1060.5 71.8836 1060.57 71.8836H1062.78C1062.84 71.8836 1062.89 71.9088 1062.93 71.9592C1062.98 71.997 1063.01 72.0474 1063.01 72.1104V82.7335C1063.01 82.7965 1063.04 82.828 1063.1 82.828H1067.07C1067.13 82.828 1067.18 82.8532 1067.22 82.9037C1067.27 82.9415 1067.3 82.9919 1067.3 83.0549V84.8884C1067.3 84.9514 1067.27 85.0081 1067.22 85.0585C1067.18 85.0963 1067.13 85.1152 1067.07 85.1152H1060.57ZM1075.33 73.9439C1075.33 74.0069 1075.3 74.0636 1075.25 74.1141C1075.21 74.1519 1075.16 74.1708 1075.1 74.1708H1071.15C1071.09 74.1708 1071.05 74.2023 1071.05 74.2653V77.2518C1071.05 77.3149 1071.09 77.3464 1071.15 77.3464H1073.42C1073.48 77.3464 1073.53 77.3716 1073.57 77.422C1073.62 77.4598 1073.64 77.5102 1073.64 77.5732V79.4067C1073.64 79.4697 1073.62 79.5264 1073.57 79.5768C1073.53 79.6146 1073.48 79.6335 1073.42 79.6335H1071.15C1071.09 79.6335 1071.05 79.665 1071.05 79.7281V82.7335C1071.05 82.7965 1071.09 82.828 1071.15 82.828H1075.1C1075.16 82.828 1075.21 82.8532 1075.25 82.9037C1075.3 82.9415 1075.33 82.9919 1075.33 83.0549V84.8884C1075.33 84.9514 1075.3 85.0081 1075.25 85.0585C1075.21 85.0963 1075.16 85.1152 1075.1 85.1152H1068.62C1068.55 85.1152 1068.5 85.0963 1068.45 85.0585C1068.41 85.0081 1068.39 84.9514 1068.39 84.8884V72.1104C1068.39 72.0474 1068.41 71.997 1068.45 71.9592C1068.5 71.9088 1068.55 71.8836 1068.62 71.8836H1075.1C1075.16 71.8836 1075.21 71.9088 1075.25 71.9592C1075.3 71.997 1075.33 72.0474 1075.33 72.1104V73.9439ZM1080.25 85.2665C1079.12 85.2665 1078.2 84.9451 1077.51 84.3024C1076.83 83.6471 1076.49 82.7776 1076.49 81.6939V75.3049C1076.49 74.2212 1076.83 73.358 1077.51 72.7153C1078.2 72.06 1079.12 71.7324 1080.25 71.7324C1081.38 71.7324 1082.3 72.06 1082.99 72.7153C1083.68 73.3706 1084.03 74.2401 1084.03 75.3238V76.0421C1084.03 76.1051 1084.01 76.1618 1083.96 76.2122C1083.92 76.25 1083.87 76.2689 1083.8 76.2689H1081.59C1081.53 76.2689 1081.47 76.25 1081.42 76.2122C1081.38 76.1618 1081.37 76.1051 1081.37 76.0421V75.286C1081.37 74.908 1081.26 74.6055 1081.06 74.3787C1080.86 74.1393 1080.59 74.0195 1080.25 74.0195C1079.92 74.0195 1079.66 74.1393 1079.46 74.3787C1079.25 74.6055 1079.15 74.908 1079.15 75.286V81.7128C1079.15 82.0909 1079.25 82.3996 1079.46 82.639C1079.66 82.8659 1079.92 82.9793 1080.25 82.9793C1080.59 82.9793 1080.86 82.8659 1081.06 82.639C1081.26 82.3996 1081.37 82.0909 1081.37 81.7128V80.2006C1081.37 80.1376 1081.33 80.1061 1081.27 80.1061H1080.44C1080.38 80.1061 1080.32 80.0872 1080.27 80.0494C1080.23 79.999 1080.21 79.9423 1080.21 79.8793V78.197C1080.21 78.134 1080.23 78.0836 1080.27 78.0457C1080.32 77.9953 1080.38 77.9701 1080.44 77.9701H1083.8C1083.87 77.9701 1083.92 77.9953 1083.96 78.0457C1084.01 78.0836 1084.03 78.134 1084.03 78.197V81.6939C1084.03 82.7776 1083.68 83.6471 1082.99 84.3024C1082.3 84.9451 1081.38 85.2665 1080.25 85.2665Z" fill="#1B1B1B"/>
<path d="M1079.24 47.5061C1079.51 47.733 1079.51 48.1449 1079.24 48.3719L1071.38 55.0627C1071.01 55.3766 1070.44 55.1143 1070.44 54.6298L1070.44 41.2482C1070.44 40.7636 1071.01 40.5013 1071.38 40.8153L1079.24 47.5061Z" fill="#1B1B1B"/>
<path d="M1066.28 50.9128C1065.81 50.9128 1065.42 50.5312 1065.42 50.0603L1065.42 45.8151C1065.42 45.3442 1065.81 44.9626 1066.28 44.9626L1074.46 44.9626L1074.46 50.9128L1066.28 50.9128Z" fill="#1B1B1B"/>
<rect x="1063" y="50.9128" width="5.95029" height="1.54267" rx="0.568351" transform="rotate(-90 1063 50.9128)" fill="#1B1B1B"/>
<rect x="1061.02" y="50.9128" width="5.95029" height="1.10191" rx="0.550953" transform="rotate(-90 1061.02 50.9128)" fill="#1B1B1B"/>
<rect x="1059.47" y="50.9128" width="5.95029" height="0.661143" rx="0.330572" transform="rotate(-90 1059.47 50.9128)" fill="#1B1B1B"/>
<rect x="1058.15" y="50.9128" width="5.95029" height="0.440762" rx="0.220381" transform="rotate(-90 1058.15 50.9128)" fill="#1B1B1B"/>
<path d="M965.509 48.3714C965.242 48.1444 965.242 47.7325 965.509 47.5056L973.375 40.8148C973.744 40.5008 974.311 40.7631 974.311 41.2477L974.311 54.6293C974.311 55.1138 973.744 55.3761 973.375 55.0622L965.509 48.3714Z" fill="#1B1B1B"/>
<path d="M978.473 44.9646C978.944 44.9646 979.325 45.3463 979.325 45.8171L979.325 50.0624C979.325 50.5332 978.944 50.9149 978.473 50.9149L970.29 50.9149L970.29 44.9646L978.473 44.9646Z" fill="#1B1B1B"/>
<rect x="981.749" y="44.9646" width="5.95029" height="1.54267" rx="0.568351" transform="rotate(90 981.749 44.9646)" fill="#1B1B1B"/>
<rect x="983.732" y="44.9646" width="5.95029" height="1.10191" rx="0.550953" transform="rotate(90 983.732 44.9646)" fill="#1B1B1B"/>
<rect x="985.275" y="44.9646" width="5.95029" height="0.661143" rx="0.330572" transform="rotate(90 985.275 44.9646)" fill="#1B1B1B"/>
<rect x="986.598" y="44.9646" width="5.95029" height="0.440762" rx="0.220381" transform="rotate(90 986.598 44.9646)" fill="#1B1B1B"/>
<path d="M1039.28 23.9225C1042.74 25.2277 1042.76 29.7234 1042.33 31.8081C1041.31 35.9507 1039.28 44.7372 1039.28 46.7423C1039.28 49.2488 1036.05 48.831 1035.52 48.6221C1034.96 48.396 1034.17 47.9955 1034.17 46.7423C1034.17 45.1758 1034.17 44.5492 1033.75 40.2673C1033.44 37.1491 1033.23 34.5234 1032.91 31.8081C1032.91 26.3697 1035.81 22.6173 1039.28 23.9225Z" fill="#1B1B1B"/>
<path d="M1033.95 48.1784C1034.59 49.2466 1035.27 49.4033 1035.95 49.603C1036.62 49.7972 1038.78 49.9718 1039.39 48.3682C1039.92 49.3205 1040.74 50.3975 1041.58 51.3374C1042.41 52.2765 1044.76 54.9208 1044.97 55.5562C1045.19 56.2475 1045.09 56.3939 1044.98 56.7151C1044.43 58.2864 1042.47 59.8086 1040.54 58.2951C1037.74 56.3344 1035.75 53.987 1034.26 52.3581C1033.43 51.4591 1033.93 50.293 1033.93 48.5315C1033.94 48.4061 1033.94 48.2893 1033.95 48.1784Z" fill="#1B1B1B"/>
<path d="M1024.14 15.5156C1014.22 15.5156 1014.96 13.5136 1014.96 13.5136V10.7119H1033.32V13.5136C1033.32 13.5136 1034.06 15.5156 1024.14 15.5156Z" fill="#1B1B1B"/>
<path fill-rule="evenodd" clip-rule="evenodd" d="M1014.68 14.7876H1014.66L1007.74 23.6881C1008.1 23.4052 1008.51 23.1675 1008.98 22.989C1012.26 21.7618 1015.04 24.9785 1015.39 29.8705L1015.43 29.8982C1016.46 30.0689 1019.12 29.5396 1021.58 26.0565H1026.7C1028.07 27.5932 1031.05 30.5129 1032.08 29.8982C1032.12 29.8731 1032.17 29.8431 1032.22 29.8085C1032.59 24.9514 1035.36 21.767 1038.63 22.989C1039.28 23.2347 1039.82 23.5926 1040.25 24.026L1040.27 24.0076L1033.61 14.7876H1033.6C1033.42 15.3374 1032.12 16.5802 1024.14 16.5802C1016.16 16.5802 1014.86 15.3374 1014.68 14.7876Z" fill="#1B1B1B"/>
<path d="M1008.38 23.9225C1004.91 25.2277 1004.9 29.7234 1005.32 31.8081C1006.34 35.9507 1008.38 44.7372 1008.38 46.7423C1008.38 49.2488 1011.61 48.831 1012.13 48.6221C1012.69 48.396 1013.49 47.9955 1013.49 46.7423C1013.49 45.1758 1013.49 44.5492 1013.9 40.2673C1014.21 37.1491 1014.43 34.5234 1014.74 31.8081C1014.74 26.3697 1011.84 22.6173 1008.38 23.9225Z" fill="#1B1B1B"/>
<path d="M1013.7 48.1784C1013.06 49.2466 1012.38 49.4033 1011.7 49.603C1011.03 49.7972 1008.88 49.9718 1008.26 48.3682C1007.73 49.3205 1006.91 50.3975 1006.07 51.3374C1005.24 52.2765 1002.89 54.9208 1002.68 55.5562C1002.46 56.2475 1002.56 56.3939 1002.68 56.7151C1003.23 58.2864 1005.18 59.8086 1007.11 58.2951C1009.91 56.3344 1011.9 53.987 1013.39 52.3581C1014.22 51.4591 1013.72 50.293 1013.72 48.5315C1013.71 48.4061 1013.71 48.2893 1013.7 48.1784Z" fill="#1B1B1B"/>
<path d="M51.6902 85.7407C51.5516 85.7407 51.4634 85.6777 51.4256 85.5517L49.9701 80.3346C49.9449 80.2842 49.9134 80.259 49.8756 80.259H49.2329C49.1699 80.259 49.1384 80.2905 49.1384 80.3535V85.5139C49.1384 85.5769 49.1132 85.6336 49.0628 85.684C49.025 85.7218 48.9746 85.7407 48.9116 85.7407H46.7C46.637 85.7407 46.5803 85.7218 46.5299 85.684C46.4921 85.6336 46.4732 85.5769 46.4732 85.5139V72.7359C46.4732 72.6729 46.4921 72.6225 46.5299 72.5847C46.5803 72.5343 46.637 72.5091 46.7 72.5091H50.5183C51.2114 72.5091 51.8288 72.6792 52.3707 73.0194C52.9126 73.3471 53.3284 73.8133 53.6183 74.4182C53.9207 75.0231 54.0719 75.7162 54.0719 76.4975C54.0719 77.241 53.927 77.8962 53.6372 78.4633C53.3599 79.0304 52.9693 79.4714 52.4652 79.7865C52.44 79.7991 52.4211 79.818 52.4085 79.8432C52.3959 79.8558 52.3959 79.8747 52.4085 79.8999L54.1475 85.4761L54.1664 85.5517C54.1664 85.6777 54.0971 85.7407 53.9585 85.7407H51.6902ZM49.2329 74.7962C49.1699 74.7962 49.1384 74.8278 49.1384 74.8908V78.1231C49.1384 78.1861 49.1699 78.2176 49.2329 78.2176H50.0835C50.4742 78.2176 50.7892 78.0664 51.0286 77.7639C51.2807 77.4489 51.4067 77.033 51.4067 76.5164C51.4067 75.9871 51.2807 75.5712 51.0286 75.2688C50.7892 74.9538 50.4742 74.7962 50.0835 74.7962H49.2329ZM61.0202 85.7407C60.869 85.7407 60.7871 85.6714 60.7744 85.5328L60.472 83.7182C60.472 83.6552 60.4342 83.6237 60.3586 83.6237H57.958C57.8824 83.6237 57.8446 83.6552 57.8446 83.7182L57.5421 85.5328C57.5295 85.6714 57.4476 85.7407 57.2964 85.7407H55.0848C54.921 85.7407 54.858 85.6588 54.8958 85.495L57.6745 72.717C57.6997 72.5784 57.7816 72.5091 57.9202 72.5091H60.472C60.6106 72.5091 60.6925 72.5784 60.7177 72.717L63.4775 85.495L63.4964 85.5706C63.4964 85.684 63.4271 85.7407 63.2885 85.7407H61.0202ZM58.2226 81.4688C58.2226 81.5318 58.2478 81.5633 58.2982 81.5633H59.9995C60.0625 81.5633 60.0877 81.5318 60.0751 81.4688L59.1866 76.3084C59.174 76.2706 59.1551 76.2517 59.1299 76.2517C59.1047 76.2517 59.0858 76.2706 59.0732 76.3084L58.2226 81.4688ZM64.8086 85.7407C64.7456 85.7407 64.6889 85.7218 64.6385 85.684C64.6007 85.6336 64.5818 85.5769 64.5818 85.5139V72.7359C64.5818 72.6729 64.6007 72.6225 64.6385 72.5847C64.6889 72.5343 64.7456 72.5091 64.8086 72.5091H67.0202C67.0832 72.5091 67.1336 72.5343 67.1714 72.5847C67.2218 72.6225 67.247 72.6729 67.247 72.7359V85.5139C67.247 85.5769 67.2218 85.6336 67.1714 85.684C67.1336 85.7218 67.0832 85.7407 67.0202 85.7407H64.8086ZM72.3406 85.8919C71.6097 85.8919 70.9671 85.747 70.4126 85.4572C69.8581 85.1674 69.4297 84.7641 69.1272 84.2474C68.8248 83.7182 68.6736 83.1133 68.6736 82.4328V81.8846C68.6736 81.8216 68.6925 81.7712 68.7303 81.7334C68.7807 81.683 68.8374 81.6578 68.9004 81.6578H71.0742C71.1372 81.6578 71.1876 81.683 71.2254 81.7334C71.2758 81.7712 71.301 81.8216 71.301 81.8846V82.3005C71.301 82.6911 71.4018 83.0062 71.6034 83.2456C71.8051 83.485 72.0571 83.6048 72.3595 83.6048C72.662 83.6048 72.914 83.4913 73.1156 83.2645C73.3173 83.0377 73.4181 82.7415 73.4181 82.3761C73.4181 81.9981 73.2921 81.6767 73.04 81.4121C72.788 81.1348 72.2965 80.7316 71.5656 80.2023C70.9356 79.7487 70.4252 79.3454 70.0345 78.9926C69.6439 78.6397 69.31 78.205 69.0327 77.6883C68.7555 77.1716 68.6169 76.5731 68.6169 75.8926C68.6169 74.8214 68.9508 73.9645 69.6187 73.3219C70.2866 72.6792 71.1687 72.3578 72.265 72.3578C73.374 72.3578 74.2624 72.6918 74.9303 73.3597C75.6108 74.0275 75.951 74.9034 75.951 75.9871V76.4408C75.951 76.5038 75.9258 76.5605 75.8754 76.6109C75.8376 76.6487 75.7872 76.6676 75.7242 76.6676H73.5504C73.4874 76.6676 73.4307 76.6487 73.3803 76.6109C73.3425 76.5605 73.3236 76.5038 73.3236 76.4408V75.9304C73.3236 75.5397 73.2227 75.231 73.0211 75.0042C72.8321 74.7647 72.5801 74.645 72.265 74.645C71.9626 74.645 71.7169 74.7584 71.5278 74.9853C71.3388 75.1995 71.2443 75.5019 71.2443 75.8926C71.2443 76.2706 71.364 76.6046 71.6034 76.8944C71.8429 77.1842 72.3154 77.5875 73.0211 78.1042C73.8024 78.6838 74.3884 79.1564 74.779 79.5218C75.1823 79.8747 75.491 80.2716 75.7053 80.7127C75.9321 81.1411 76.0455 81.6578 76.0455 82.2627C76.0455 83.3716 75.7053 84.2537 75.0248 84.909C74.3443 85.5643 73.4496 85.8919 72.3406 85.8919ZM84.219 74.5694C84.219 74.6324 84.1938 74.6891 84.1434 74.7395C84.1056 74.7773 84.0552 74.7962 83.9922 74.7962H80.0416C79.9786 74.7962 79.9471 74.8278 79.9471 74.8908V77.8773C79.9471 77.9403 79.9786 77.9718 80.0416 77.9718H82.3099C82.3729 77.9718 82.4233 77.997 82.4611 78.0475C82.5115 78.0853 82.5367 78.1357 82.5367 78.1987V80.0322C82.5367 80.0952 82.5115 80.1519 82.4611 80.2023C82.4233 80.2401 82.3729 80.259 82.3099 80.259H80.0416C79.9786 80.259 79.9471 80.2905 79.9471 80.3535V83.359C79.9471 83.422 79.9786 83.4535 80.0416 83.4535H83.9922C84.0552 83.4535 84.1056 83.4787 84.1434 83.5291C84.1938 83.5669 84.219 83.6174 84.219 83.6804V85.5139C84.219 85.5769 84.1938 85.6336 84.1434 85.684C84.1056 85.7218 84.0552 85.7407 83.9922 85.7407H77.5087C77.4457 85.7407 77.389 85.7218 77.3385 85.684C77.3007 85.6336 77.2818 85.5769 77.2818 85.5139V72.7359C77.2818 72.6729 77.3007 72.6225 77.3385 72.5847C77.389 72.5343 77.4457 72.5091 77.5087 72.5091H83.9922C84.0552 72.5091 84.1056 72.5343 84.1434 72.5847C84.1938 72.6225 84.219 72.6729 84.219 72.7359V74.5694ZM93.0591 85.8919C91.925 85.8919 91.0114 85.5391 90.3183 84.8334C89.6378 84.1151 89.2975 83.1637 89.2975 81.9791V72.7359C89.2975 72.6729 89.3164 72.6225 89.3542 72.5847C89.4047 72.5343 89.4614 72.5091 89.5244 72.5091H91.7359C91.799 72.5091 91.8494 72.5343 91.8872 72.5847C91.9376 72.6225 91.9628 72.6729 91.9628 72.7359V82.2438C91.9628 82.647 92.0636 82.9747 92.2652 83.2267C92.4668 83.4787 92.7315 83.6048 93.0591 83.6048C93.3868 83.6048 93.6451 83.4787 93.8341 83.2267C94.0357 82.9747 94.1366 82.647 94.1366 82.2438V72.7359C94.1366 72.6729 94.1555 72.6225 94.1933 72.5847C94.2437 72.5343 94.3004 72.5091 94.3634 72.5091H96.575C96.638 72.5091 96.6884 72.5343 96.7262 72.5847C96.7766 72.6225 96.8018 72.6729 96.8018 72.7359V81.9791C96.8018 83.1637 96.4552 84.1151 95.7622 84.8334C95.0817 85.5391 94.1807 85.8919 93.0591 85.8919ZM102.315 72.4902C103.008 72.4902 103.625 72.6603 104.167 73.0005C104.709 73.3408 105.125 73.8196 105.415 74.4371C105.717 75.042 105.868 75.7351 105.868 76.5164C105.868 77.6883 105.553 78.6271 104.923 79.3328C104.293 80.0385 103.468 80.3913 102.447 80.3913H101.029C100.966 80.3913 100.935 80.4229 100.935 80.4859V85.5139C100.935 85.5769 100.91 85.6336 100.859 85.684C100.821 85.7218 100.771 85.7407 100.708 85.7407H98.4965C98.4335 85.7407 98.3768 85.7218 98.3264 85.684C98.2886 85.6336 98.2697 85.5769 98.2697 85.5139V72.717C98.2697 72.654 98.2886 72.6036 98.3264 72.5658C98.3768 72.5154 98.4335 72.4902 98.4965 72.4902H102.315ZM101.861 78.3121C102.264 78.3121 102.586 78.1609 102.825 77.8584C103.077 77.5434 103.203 77.1149 103.203 76.5731C103.203 76.0186 103.077 75.5838 102.825 75.2688C102.586 74.9538 102.264 74.7962 101.861 74.7962H101.029C100.966 74.7962 100.935 74.8278 100.935 74.8908V78.2176C100.935 78.2806 100.966 78.3121 101.029 78.3121H101.861ZM113.392 85.7218C113.329 85.7218 113.273 85.7029 113.222 85.6651C113.184 85.6147 113.165 85.558 113.165 85.495V80.5804L113.147 80.467L110.5 72.7737C110.488 72.7485 110.481 72.717 110.481 72.6792C110.481 72.5658 110.551 72.5091 110.689 72.5091H113.014C113.153 72.5091 113.241 72.5721 113.279 72.6981L114.451 77.2158C114.463 77.2536 114.482 77.2725 114.508 77.2725C114.533 77.2725 114.552 77.2536 114.564 77.2158L115.736 72.6981C115.774 72.5721 115.862 72.5091 116.001 72.5091H118.326C118.401 72.5091 118.458 72.5343 118.496 72.5847C118.534 72.6225 118.54 72.6855 118.515 72.7737L115.85 80.467L115.831 80.5804V85.495C115.831 85.558 115.806 85.6147 115.755 85.6651C115.717 85.7029 115.667 85.7218 115.604 85.7218H113.392ZM122.998 85.8919C121.839 85.8919 120.913 85.5517 120.22 84.8712C119.527 84.1907 119.18 83.2834 119.18 82.1493V76.1005C119.18 74.9664 119.527 74.0591 120.22 73.3786C120.913 72.6981 121.839 72.3578 122.998 72.3578C124.158 72.3578 125.084 72.6981 125.777 73.3786C126.483 74.0591 126.836 74.9664 126.836 76.1005V82.1493C126.836 83.2834 126.483 84.1907 125.777 84.8712C125.084 85.5517 124.158 85.8919 122.998 85.8919ZM122.998 83.6048C123.351 83.6048 123.635 83.485 123.849 83.2456C124.063 82.9936 124.17 82.6659 124.17 82.2627V75.9871C124.17 75.5838 124.063 75.2625 123.849 75.0231C123.635 74.771 123.351 74.645 122.998 74.645C122.646 74.645 122.362 74.771 122.148 75.0231C121.946 75.2625 121.845 75.5838 121.845 75.9871V82.2627C121.845 82.6659 121.946 82.9936 122.148 83.2456C122.362 83.485 122.646 83.6048 122.998 83.6048ZM132.008 85.8919C130.874 85.8919 129.961 85.5391 129.268 84.8334C128.587 84.1151 128.247 83.1637 128.247 81.9791V72.7359C128.247 72.6729 128.266 72.6225 128.303 72.5847C128.354 72.5343 128.411 72.5091 128.474 72.5091H130.685C130.748 72.5091 130.799 72.5343 130.836 72.5847C130.887 72.6225 130.912 72.6729 130.912 72.7359V82.2438C130.912 82.647 131.013 82.9747 131.214 83.2267C131.416 83.4787 131.681 83.6048 132.008 83.6048C132.336 83.6048 132.594 83.4787 132.783 83.2267C132.985 82.9747 133.086 82.647 133.086 82.2438V72.7359C133.086 72.6729 133.105 72.6225 133.142 72.5847C133.193 72.5343 133.25 72.5091 133.313 72.5091H135.524C135.587 72.5091 135.638 72.5343 135.675 72.5847C135.726 72.6225 135.751 72.6729 135.751 72.7359V81.9791C135.751 83.1637 135.404 84.1151 134.711 84.8334C134.031 85.5391 133.13 85.8919 132.008 85.8919ZM142.566 85.7407C142.427 85.7407 142.339 85.6777 142.301 85.5517L140.846 80.3346C140.82 80.2842 140.789 80.259 140.751 80.259H140.108C140.045 80.259 140.014 80.2905 140.014 80.3535V85.5139C140.014 85.5769 139.989 85.6336 139.938 85.684C139.9 85.7218 139.85 85.7407 139.787 85.7407H137.575C137.512 85.7407 137.456 85.7218 137.405 85.684C137.367 85.6336 137.349 85.5769 137.349 85.5139V72.7359C137.349 72.6729 137.367 72.6225 137.405 72.5847C137.456 72.5343 137.512 72.5091 137.575 72.5091H141.394C142.087 72.5091 142.704 72.6792 143.246 73.0194C143.788 73.3471 144.204 73.8133 144.494 74.4182C144.796 75.0231 144.947 75.7162 144.947 76.4975C144.947 77.241 144.802 77.8962 144.513 78.4633C144.235 79.0304 143.845 79.4714 143.341 79.7865C143.315 79.7991 143.297 79.818 143.284 79.8432C143.271 79.8558 143.271 79.8747 143.284 79.8999L145.023 85.4761L145.042 85.5517C145.042 85.6777 144.973 85.7407 144.834 85.7407H142.566ZM140.108 74.7962C140.045 74.7962 140.014 74.8278 140.014 74.8908V78.1231C140.014 78.1861 140.045 78.2176 140.108 78.2176H140.959C141.35 78.2176 141.665 78.0664 141.904 77.7639C142.156 77.4489 142.282 77.033 142.282 76.5164C142.282 75.9871 142.156 75.5712 141.904 75.2688C141.665 74.9538 141.35 74.7962 140.959 74.7962H140.108ZM150.257 85.7407C150.194 85.7407 150.137 85.7218 150.087 85.684C150.049 85.6336 150.03 85.5769 150.03 85.5139V72.7359C150.03 72.6729 150.049 72.6225 150.087 72.5847C150.137 72.5343 150.194 72.5091 150.257 72.5091H152.469C152.532 72.5091 152.582 72.5343 152.62 72.5847C152.67 72.6225 152.695 72.6729 152.695 72.7359V83.359C152.695 83.422 152.727 83.4535 152.79 83.4535H156.759C156.822 83.4535 156.873 83.4787 156.911 83.5291C156.961 83.5669 156.986 83.6174 156.986 83.6804V85.5139C156.986 85.5769 156.961 85.6336 156.911 85.684C156.873 85.7218 156.822 85.7407 156.759 85.7407H150.257ZM165.016 74.5694C165.016 74.6324 164.99 74.6891 164.94 74.7395C164.902 74.7773 164.852 74.7962 164.789 74.7962H160.838C160.775 74.7962 160.744 74.8278 160.744 74.8908V77.8773C160.744 77.9403 160.775 77.9718 160.838 77.9718H163.106C163.169 77.9718 163.22 77.997 163.258 78.0475C163.308 78.0853 163.333 78.1357 163.333 78.1987V80.0322C163.333 80.0952 163.308 80.1519 163.258 80.2023C163.22 80.2401 163.169 80.259 163.106 80.259H160.838C160.775 80.259 160.744 80.2905 160.744 80.3535V83.359C160.744 83.422 160.775 83.4535 160.838 83.4535H164.789C164.852 83.4535 164.902 83.4787 164.94 83.5291C164.99 83.5669 165.016 83.6174 165.016 83.6804V85.5139C165.016 85.5769 164.99 85.6336 164.94 85.684C164.902 85.7218 164.852 85.7407 164.789 85.7407H158.305C158.242 85.7407 158.186 85.7218 158.135 85.684C158.097 85.6336 158.078 85.5769 158.078 85.5139V72.7359C158.078 72.6729 158.097 72.6225 158.135 72.5847C158.186 72.5343 158.242 72.5091 158.305 72.5091H164.789C164.852 72.5091 164.902 72.5343 164.94 72.5847C164.99 72.6225 165.016 72.6729 165.016 72.7359V74.5694ZM169.939 85.8919C168.805 85.8919 167.891 85.5706 167.198 84.9279C166.518 84.2726 166.178 83.4031 166.178 82.3194V75.9304C166.178 74.8467 166.518 73.9834 167.198 73.3408C167.891 72.6855 168.805 72.3578 169.939 72.3578C171.073 72.3578 171.987 72.6855 172.68 73.3408C173.373 73.996 173.72 74.8656 173.72 75.9493V76.6676C173.72 76.7306 173.694 76.7873 173.644 76.8377C173.606 76.8755 173.556 76.8944 173.493 76.8944H171.281C171.218 76.8944 171.162 76.8755 171.111 76.8377C171.073 76.7873 171.054 76.7306 171.054 76.6676V75.9115C171.054 75.5334 170.954 75.231 170.752 75.0042C170.55 74.7647 170.279 74.645 169.939 74.645C169.612 74.645 169.347 74.7647 169.145 75.0042C168.944 75.231 168.843 75.5334 168.843 75.9115V82.3383C168.843 82.7163 168.944 83.0251 169.145 83.2645C169.347 83.4913 169.612 83.6048 169.939 83.6048C170.279 83.6048 170.55 83.4913 170.752 83.2645C170.954 83.0251 171.054 82.7163 171.054 82.3383V80.8261C171.054 80.7631 171.023 80.7316 170.96 80.7316H170.128C170.065 80.7316 170.009 80.7127 169.958 80.6749C169.92 80.6245 169.901 80.5678 169.901 80.5048V78.8225C169.901 78.7594 169.92 78.709 169.958 78.6712C170.009 78.6208 170.065 78.5956 170.128 78.5956H173.493C173.556 78.5956 173.606 78.6208 173.644 78.6712C173.694 78.709 173.72 78.7594 173.72 78.8225V82.3194C173.72 83.4031 173.373 84.2726 172.68 84.9279C171.987 85.5706 171.073 85.8919 169.939 85.8919Z" fill="#1B1B1B"/>
<path d="M119.557 14.2418C123.477 13.2564 132.135 13.8167 135.974 14.2199L135.993 28.6766C134.768 28.1882 131.728 27.2121 129.376 27.2152C127.024 27.2184 121.206 25.5926 118.591 24.7793L119.555 14.27L119.557 14.2418Z" fill="#1B1B1B"/>
<path d="M114.579 22.7251C115.56 23.3119 117.218 23.62 117.925 23.7007L118.731 14.907C117.343 14.7361 114.372 14.3945 113.587 14.3955C112.607 14.3968 111.383 14.8885 110.159 15.6252C108.935 16.3619 106.735 20.2853 106.003 23.2266C105.272 26.1678 97.4481 38.6746 95.7368 41.6172C94.0254 44.5598 88.5379 52.2722 87.5594 53.4986C86.581 54.725 83.5048 56.09 84.4865 57.3138C85.4683 58.5377 86.9378 58.0456 88.6523 57.5533C90.3668 57.061 94.7143 53.4986 97.7807 52.0222C101.592 50.1872 101.181 48.5705 100.645 47.2463C100.279 46.3437 100.943 45.1305 101.188 44.6401C101.921 43.169 107.491 35.9659 110.917 33.0211C113.658 30.6652 114.5 25.1755 114.579 22.7251Z" fill="#1B1B1B"/>
<path d="M79.0749 9.57287C79.3019 9.30608 79.7138 9.30608 79.9408 9.57287L86.8908 17.7431C87.2048 18.1122 86.9425 18.6797 86.4579 18.6797L72.5578 18.6797C72.0732 18.6797 71.8109 18.1122 72.1249 17.7431L79.0749 9.57287Z" fill="#1B1B1B"/>
<path d="M82.5801 23.0054C82.5801 23.4762 82.1984 23.8579 81.7276 23.8579L77.2876 23.8579C76.8167 23.8579 76.4351 23.4762 76.4351 23.0054L76.4351 14.5264L82.5801 14.5264L82.5801 23.0054Z" fill="#1B1B1B"/>
<rect x="82.5801" y="26.3608" width="6.14502" height="1.59326" rx="0.568351" transform="rotate(-180 82.5801 26.3608)" fill="#1B1B1B"/>
<rect x="82.5801" y="28.4092" width="6.14502" height="1.13818" rx="0.568351" transform="rotate(-180 82.5801 28.4092)" fill="#1B1B1B"/>
<rect x="82.5801" y="30.0024" width="6.14502" height="0.682617" rx="0.341308" transform="rotate(-180 82.5801 30.0024)" fill="#1B1B1B"/>
<rect x="82.5801" y="31.3682" width="6.14502" height="0.455078" rx="0.227539" transform="rotate(-180 82.5801 31.3682)" fill="#1B1B1B"/>
<path d="M728.42 85.1987C728.357 85.1987 728.301 85.1798 728.25 85.142C728.212 85.0916 728.193 85.0349 728.193 84.9719V72.1939C728.193 72.1309 728.212 72.0805 728.25 72.0427C728.301 71.9923 728.357 71.9671 728.42 71.9671H730.632C730.695 71.9671 730.745 71.9923 730.783 72.0427C730.833 72.0805 730.859 72.1309 730.859 72.1939V82.817C730.859 82.88 730.89 82.9115 730.953 82.9115H734.923C734.986 82.9115 735.036 82.9367 735.074 82.9872C735.124 83.025 735.15 83.0754 735.15 83.1384V84.9719C735.15 85.0349 735.124 85.0916 735.074 85.142C735.036 85.1798 734.986 85.1987 734.923 85.1987H728.42ZM739.797 85.3499C738.638 85.3499 737.712 85.0097 737.018 84.3292C736.325 83.6487 735.979 82.7414 735.979 81.6073V75.5585C735.979 74.4244 736.325 73.5171 737.018 72.8366C737.712 72.1561 738.638 71.8158 739.797 71.8158C740.956 71.8158 741.883 72.1561 742.576 72.8366C743.281 73.5171 743.634 74.4244 743.634 75.5585V81.6073C743.634 82.7414 743.281 83.6487 742.576 84.3292C741.883 85.0097 740.956 85.3499 739.797 85.3499ZM739.797 83.0628C740.15 83.0628 740.434 82.943 740.648 82.7036C740.862 82.4516 740.969 82.1239 740.969 81.7207V75.4451C740.969 75.0419 740.862 74.7205 740.648 74.4811C740.434 74.2291 740.15 74.103 739.797 74.103C739.444 74.103 739.161 74.2291 738.947 74.4811C738.745 74.7205 738.644 75.0419 738.644 75.4451V81.7207C738.644 82.1239 738.745 82.4516 738.947 82.7036C739.161 82.943 739.444 83.0628 739.797 83.0628ZM747.447 85.1987C747.308 85.1987 747.226 85.1294 747.201 84.9908L744.649 72.2128L744.63 72.1372C744.63 72.0238 744.699 71.9671 744.838 71.9671H747.144C747.295 71.9671 747.377 72.0364 747.39 72.175L748.467 78.9798C748.48 79.0303 748.499 79.0555 748.524 79.0555C748.549 79.0555 748.568 79.0303 748.581 78.9798L749.601 72.175C749.614 72.0364 749.696 71.9671 749.847 71.9671H751.756C751.908 71.9671 751.989 72.0364 752.002 72.175L753.117 78.9798C753.13 79.0303 753.149 79.0555 753.174 79.0555C753.199 79.0555 753.218 79.0303 753.231 78.9798L754.195 72.175C754.207 72.0364 754.289 71.9671 754.44 71.9671H756.671C756.835 71.9671 756.904 72.049 756.879 72.2128L754.478 84.9908C754.466 85.1294 754.384 85.1987 754.232 85.1987H752.191C752.04 85.1987 751.958 85.1294 751.945 84.9908L750.83 77.9969C750.817 77.9465 750.799 77.9213 750.773 77.9213C750.748 77.9213 750.729 77.9465 750.717 77.9969L749.715 84.9908C749.702 85.1294 749.62 85.1987 749.469 85.1987H747.447ZM765.053 74.0274C765.053 74.0904 765.028 74.1471 764.978 74.1975C764.94 74.2354 764.889 74.2543 764.826 74.2543H760.876C760.813 74.2543 760.781 74.2858 760.781 74.3488V77.3353C760.781 77.3983 760.813 77.4299 760.876 77.4299H763.144C763.207 77.4299 763.257 77.4551 763.295 77.5055C763.346 77.5433 763.371 77.5937 763.371 77.6567V79.4902C763.371 79.5532 763.346 79.6099 763.295 79.6603C763.257 79.6981 763.207 79.717 763.144 79.717H760.876C760.813 79.717 760.781 79.7485 760.781 79.8116V82.817C760.781 82.88 760.813 82.9115 760.876 82.9115H764.826C764.889 82.9115 764.94 82.9367 764.978 82.9872C765.028 83.025 765.053 83.0754 765.053 83.1384V84.9719C765.053 85.0349 765.028 85.0916 764.978 85.142C764.94 85.1798 764.889 85.1987 764.826 85.1987H758.343C758.28 85.1987 758.223 85.1798 758.173 85.142C758.135 85.0916 758.116 85.0349 758.116 84.9719V72.1939C758.116 72.1309 758.135 72.0805 758.173 72.0427C758.223 71.9923 758.28 71.9671 758.343 71.9671H764.826C764.889 71.9671 764.94 71.9923 764.978 72.0427C765.028 72.0805 765.053 72.1309 765.053 72.1939V74.0274ZM771.621 85.1987C771.483 85.1987 771.395 85.1357 771.357 85.0097L769.901 79.7927C769.876 79.7422 769.845 79.717 769.807 79.717H769.164C769.101 79.717 769.07 79.7485 769.07 79.8116V84.9719C769.07 85.0349 769.044 85.0916 768.994 85.142C768.956 85.1798 768.906 85.1987 768.843 85.1987H766.631C766.568 85.1987 766.511 85.1798 766.461 85.142C766.423 85.0916 766.404 85.0349 766.404 84.9719V72.1939C766.404 72.1309 766.423 72.0805 766.461 72.0427C766.511 71.9923 766.568 71.9671 766.631 71.9671H770.449C771.143 71.9671 771.76 72.1372 772.302 72.4774C772.844 72.8051 773.26 73.2713 773.549 73.8762C773.852 74.4811 774.003 75.1742 774.003 75.9555C774.003 76.699 773.858 77.3542 773.568 77.9213C773.291 78.4884 772.9 78.9294 772.396 79.2445C772.371 79.2571 772.352 79.276 772.34 79.3012C772.327 79.3138 772.327 79.3327 772.34 79.3579L774.079 84.9341L774.098 85.0097C774.098 85.1357 774.028 85.1987 773.89 85.1987H771.621ZM769.164 74.2543C769.101 74.2543 769.07 74.2858 769.07 74.3488V77.5811C769.07 77.6441 769.101 77.6756 769.164 77.6756H770.015C770.405 77.6756 770.72 77.5244 770.96 77.2219C771.212 76.9069 771.338 76.491 771.338 75.9744C771.338 75.4451 771.212 75.0293 770.96 74.7268C770.72 74.4118 770.405 74.2543 770.015 74.2543H769.164ZM781.619 85.1798C781.556 85.1798 781.499 85.1609 781.449 85.1231C781.411 85.0727 781.392 85.016 781.392 84.953V80.0384L781.373 79.925L778.727 72.2317C778.714 72.2065 778.708 72.175 778.708 72.1372C778.708 72.0238 778.777 71.9671 778.916 71.9671H781.241C781.379 71.9671 781.468 72.0301 781.505 72.1561L782.677 76.6738C782.69 76.7116 782.709 76.7305 782.734 76.7305C782.759 76.7305 782.778 76.7116 782.791 76.6738L783.963 72.1561C784 72.0301 784.089 71.9671 784.227 71.9671H786.552C786.628 71.9671 786.685 71.9923 786.722 72.0427C786.76 72.0805 786.767 72.1435 786.741 72.2317L784.076 79.925L784.057 80.0384V84.953C784.057 85.016 784.032 85.0727 783.982 85.1231C783.944 85.1609 783.893 85.1798 783.83 85.1798H781.619ZM791.225 85.3499C790.066 85.3499 789.139 85.0097 788.446 84.3292C787.753 83.6487 787.407 82.7414 787.407 81.6073V75.5585C787.407 74.4244 787.753 73.5171 788.446 72.8366C789.139 72.1561 790.066 71.8158 791.225 71.8158C792.384 71.8158 793.31 72.1561 794.004 72.8366C794.709 73.5171 795.062 74.4244 795.062 75.5585V81.6073C795.062 82.7414 794.709 83.6487 794.004 84.3292C793.31 85.0097 792.384 85.3499 791.225 85.3499ZM791.225 83.0628C791.578 83.0628 791.861 82.943 792.075 82.7036C792.29 82.4516 792.397 82.1239 792.397 81.7207V75.4451C792.397 75.0419 792.29 74.7205 792.075 74.4811C791.861 74.2291 791.578 74.103 791.225 74.103C790.872 74.103 790.589 74.2291 790.374 74.4811C790.173 74.7205 790.072 75.0419 790.072 75.4451V81.7207C790.072 82.1239 790.173 82.4516 790.374 82.7036C790.589 82.943 790.872 83.0628 791.225 83.0628ZM800.235 85.3499C799.101 85.3499 798.187 84.9971 797.494 84.2914C796.813 83.5731 796.473 82.6217 796.473 81.4372V72.1939C796.473 72.1309 796.492 72.0805 796.53 72.0427C796.58 71.9923 796.637 71.9671 796.7 71.9671H798.912C798.975 71.9671 799.025 71.9923 799.063 72.0427C799.113 72.0805 799.138 72.1309 799.138 72.1939V81.7018C799.138 82.105 799.239 82.4327 799.441 82.6847C799.643 82.9367 799.907 83.0628 800.235 83.0628C800.562 83.0628 800.821 82.9367 801.01 82.6847C801.211 82.4327 801.312 82.105 801.312 81.7018V72.1939C801.312 72.1309 801.331 72.0805 801.369 72.0427C801.419 71.9923 801.476 71.9671 801.539 71.9671H803.751C803.814 71.9671 803.864 71.9923 803.902 72.0427C803.952 72.0805 803.977 72.1309 803.977 72.1939V81.4372C803.977 82.6217 803.631 83.5731 802.938 84.2914C802.257 84.9971 801.356 85.3499 800.235 85.3499ZM810.792 85.1987C810.653 85.1987 810.565 85.1357 810.527 85.0097L809.072 79.7927C809.047 79.7422 809.015 79.717 808.977 79.717H808.335C808.272 79.717 808.24 79.7485 808.24 79.8116V84.9719C808.24 85.0349 808.215 85.0916 808.165 85.142C808.127 85.1798 808.076 85.1987 808.013 85.1987H805.802C805.739 85.1987 805.682 85.1798 805.632 85.142C805.594 85.0916 805.575 85.0349 805.575 84.9719V72.1939C805.575 72.1309 805.594 72.0805 805.632 72.0427C805.682 71.9923 805.739 71.9671 805.802 71.9671H809.62C810.313 71.9671 810.931 72.1372 811.473 72.4774C812.014 72.8051 812.43 73.2713 812.72 73.8762C813.023 74.4811 813.174 75.1742 813.174 75.9555C813.174 76.699 813.029 77.3542 812.739 77.9213C812.462 78.4884 812.071 78.9294 811.567 79.2445C811.542 79.2571 811.523 79.276 811.51 79.3012C811.498 79.3138 811.498 79.3327 811.51 79.3579L813.249 84.9341L813.268 85.0097C813.268 85.1357 813.199 85.1987 813.06 85.1987H810.792ZM808.335 74.2543C808.272 74.2543 808.24 74.2858 808.24 74.3488V77.5811C808.24 77.6441 808.272 77.6756 808.335 77.6756H809.185C809.576 77.6756 809.891 77.5244 810.131 77.2219C810.383 76.9069 810.509 76.491 810.509 75.9744C810.509 75.4451 810.383 75.0293 810.131 74.7268C809.891 74.4118 809.576 74.2543 809.185 74.2543H808.335ZM821.829 85.3499C820.695 85.3499 819.781 85.016 819.088 84.3481C818.408 83.6676 818.068 82.7603 818.068 81.6262V75.5018C818.068 74.3803 818.408 73.4856 819.088 72.8177C819.781 72.1498 820.695 71.8158 821.829 71.8158C822.976 71.8158 823.89 72.1498 824.57 72.8177C825.263 73.4856 825.61 74.3803 825.61 75.5018V75.7097C825.61 75.7727 825.584 75.8295 825.534 75.8799C825.496 75.9177 825.446 75.9366 825.383 75.9366L823.171 76.0311C823.02 76.0311 822.944 75.9618 822.944 75.8232V75.3317C822.944 74.9662 822.844 74.6701 822.642 74.4433C822.44 74.2164 822.169 74.103 821.829 74.103C821.502 74.103 821.237 74.2164 821.035 74.4433C820.834 74.6701 820.733 74.9662 820.733 75.3317V81.853C820.733 82.2185 820.834 82.5146 821.035 82.7414C821.237 82.9556 821.502 83.0628 821.829 83.0628C822.169 83.0628 822.44 82.9556 822.642 82.7414C822.844 82.5146 822.944 82.2185 822.944 81.853V81.3426C822.944 81.2796 822.963 81.2292 823.001 81.1914C823.052 81.141 823.108 81.1158 823.171 81.1158L825.383 81.2103C825.446 81.2103 825.496 81.2355 825.534 81.2859C825.584 81.3237 825.61 81.3741 825.61 81.4372V81.6262C825.61 82.7603 825.263 83.6676 824.57 84.3481C823.877 85.016 822.963 85.3499 821.829 85.3499ZM831.769 72.1939C831.769 72.1309 831.788 72.0805 831.826 72.0427C831.876 71.9923 831.933 71.9671 831.996 71.9671H834.208C834.271 71.9671 834.321 71.9923 834.359 72.0427C834.409 72.0805 834.435 72.1309 834.435 72.1939V84.9719C834.435 85.0349 834.409 85.0916 834.359 85.142C834.321 85.1798 834.271 85.1987 834.208 85.1987H831.996C831.933 85.1987 831.876 85.1798 831.826 85.142C831.788 85.0916 831.769 85.0349 831.769 84.9719V79.8116C831.769 79.7485 831.738 79.717 831.675 79.717H829.785C829.722 79.717 829.69 79.7485 829.69 79.8116V84.9719C829.69 85.0349 829.665 85.0916 829.614 85.142C829.577 85.1798 829.526 85.1987 829.463 85.1987H827.252C827.189 85.1987 827.132 85.1798 827.082 85.142C827.044 85.0916 827.025 85.0349 827.025 84.9719V72.1939C827.025 72.1309 827.044 72.0805 827.082 72.0427C827.132 71.9923 827.189 71.9671 827.252 71.9671H829.463C829.526 71.9671 829.577 71.9923 829.614 72.0427C829.665 72.0805 829.69 72.1309 829.69 72.1939V77.3353C829.69 77.3983 829.722 77.4299 829.785 77.4299H831.675C831.738 77.4299 831.769 77.3983 831.769 77.3353V72.1939ZM842.989 74.0274C842.989 74.0904 842.963 74.1471 842.913 74.1975C842.875 74.2354 842.825 74.2543 842.762 74.2543H838.811C838.748 74.2543 838.717 74.2858 838.717 74.3488V77.3353C838.717 77.3983 838.748 77.4299 838.811 77.4299H841.079C841.142 77.4299 841.193 77.4551 841.231 77.5055C841.281 77.5433 841.306 77.5937 841.306 77.6567V79.4902C841.306 79.5532 841.281 79.6099 841.231 79.6603C841.193 79.6981 841.142 79.717 841.079 79.717H838.811C838.748 79.717 838.717 79.7485 838.717 79.8116V82.817C838.717 82.88 838.748 82.9115 838.811 82.9115H842.762C842.825 82.9115 842.875 82.9367 842.913 82.9872C842.963 83.025 842.989 83.0754 842.989 83.1384V84.9719C842.989 85.0349 842.963 85.0916 842.913 85.142C842.875 85.1798 842.825 85.1987 842.762 85.1987H836.278C836.215 85.1987 836.159 85.1798 836.108 85.142C836.07 85.0916 836.051 85.0349 836.051 84.9719V72.1939C836.051 72.1309 836.07 72.0805 836.108 72.0427C836.159 71.9923 836.215 71.9671 836.278 71.9671H842.762C842.825 71.9671 842.875 71.9923 842.913 72.0427C842.963 72.0805 842.989 72.1309 842.989 72.1939V74.0274ZM847.742 85.3499C847.011 85.3499 846.369 85.205 845.814 84.9152C845.26 84.6254 844.831 84.2221 844.529 83.7054C844.226 83.1762 844.075 82.5713 844.075 81.8908V81.3426C844.075 81.2796 844.094 81.2292 844.132 81.1914C844.182 81.141 844.239 81.1158 844.302 81.1158H846.476C846.539 81.1158 846.589 81.141 846.627 81.1914C846.677 81.2292 846.702 81.2796 846.702 81.3426V81.7585C846.702 82.1491 846.803 82.4642 847.005 82.7036C847.207 82.943 847.459 83.0628 847.761 83.0628C848.063 83.0628 848.315 82.9493 848.517 82.7225C848.719 82.4957 848.82 82.1996 848.82 81.8341C848.82 81.4561 848.694 81.1347 848.442 80.8701C848.189 80.5929 847.698 80.1896 846.967 79.6603C846.337 79.2067 845.827 78.8034 845.436 78.4506C845.045 78.0977 844.711 77.663 844.434 77.1463C844.157 76.6297 844.018 76.0311 844.018 75.3506C844.018 74.2795 844.352 73.4226 845.02 72.7799C845.688 72.1372 846.57 71.8158 847.667 71.8158C848.775 71.8158 849.664 72.1498 850.332 72.8177C851.012 73.4856 851.352 74.3614 851.352 75.4451V75.8988C851.352 75.9618 851.327 76.0185 851.277 76.0689C851.239 76.1067 851.189 76.1256 851.126 76.1256H848.952C848.889 76.1256 848.832 76.1067 848.782 76.0689C848.744 76.0185 848.725 75.9618 848.725 75.8988V75.3884C848.725 74.9977 848.624 74.689 848.423 74.4622C848.234 74.2228 847.982 74.103 847.667 74.103C847.364 74.103 847.118 74.2164 846.929 74.4433C846.74 74.6575 846.646 74.9599 846.646 75.3506C846.646 75.7286 846.765 76.0626 847.005 76.3524C847.244 76.6423 847.717 77.0455 848.423 77.5622C849.204 78.1418 849.79 78.6144 850.181 78.9798C850.584 79.3327 850.893 79.7296 851.107 80.1707C851.334 80.5992 851.447 81.1158 851.447 81.7207C851.447 82.8296 851.107 83.7117 850.426 84.367C849.746 85.0223 848.851 85.3499 847.742 85.3499ZM859.962 71.9671C860.025 71.9671 860.075 71.9923 860.113 72.0427C860.164 72.0805 860.189 72.1309 860.189 72.1939V74.0274C860.189 74.0904 860.164 74.1471 860.113 74.1975C860.075 74.2354 860.025 74.2543 859.962 74.2543H857.599C857.536 74.2543 857.505 74.2858 857.505 74.3488V84.9719C857.505 85.0349 857.48 85.0916 857.429 85.142C857.391 85.1798 857.341 85.1987 857.278 85.1987H855.066C855.003 85.1987 854.947 85.1798 854.896 85.142C854.858 85.0916 854.84 85.0349 854.84 84.9719V74.3488C854.84 74.2858 854.808 74.2543 854.745 74.2543H852.477C852.414 74.2543 852.357 74.2354 852.307 74.1975C852.269 74.1471 852.25 74.0904 852.25 74.0274V72.1939C852.25 72.1309 852.269 72.0805 852.307 72.0427C852.357 71.9923 852.414 71.9671 852.477 71.9671H859.962Z" fill="#1B1B1B"/>
<path d="M797.798 30.9561C797.798 34.7085 795.652 38.7759 793.006 38.7759C790.359 38.7759 788.214 34.7085 788.214 30.9561C788.214 27.2038 789.2 24.7197 793.006 24.7197C796.811 24.7197 797.798 27.2038 797.798 30.9561Z" fill="#1B1B1B"/>
<path d="M770.463 35.1405C770.692 33.4902 772.047 33.3167 773.071 33.315C776.131 33.5014 777.818 41.5413 777.425 44.8458C777.315 45.7696 775.593 50.7511 775.935 52.5001C776.276 54.2491 779.172 54.5048 778.075 55.1908C777.143 55.7741 775.873 54.5446 774.47 54.4592C773.067 54.3737 773.048 54.6926 770.543 55.8842C769.741 56.2655 769.235 56.3166 768.661 56.2816C768.151 56.2505 768.526 55.6864 768.661 55.5666C768.503 55.3168 768.796 54.3262 769.048 54.1372C769.746 53.6135 769.854 53.5379 771.519 52.4872C774.387 50.6777 772.999 46.9727 772.452 44.3604C771.918 41.8083 770.235 36.7908 770.463 35.1405Z" fill="#1B1B1B"/>
<path d="M815.385 35.1405C815.157 33.4902 813.802 33.3167 812.778 33.315C809.718 33.5014 808.03 41.5413 808.423 44.8458C808.533 45.7696 810.255 50.7511 809.914 52.5001C809.572 54.2491 806.677 54.5048 807.773 55.1908C808.706 55.7741 809.975 54.5446 811.378 54.4592C812.781 54.3737 812.801 54.6926 815.306 55.8842C816.107 56.2655 816.614 56.3166 817.188 56.2816C817.698 56.2505 817.323 55.6864 817.187 55.5666C817.345 55.3168 817.053 54.3262 816.801 54.1372C816.102 53.6135 815.995 53.5379 814.33 52.4872C811.462 50.6777 812.849 46.9727 813.396 44.3604C813.93 41.8083 815.614 36.7908 815.385 35.1405Z" fill="#1B1B1B"/>
<path fill-rule="evenodd" clip-rule="evenodd" d="M788.215 46.8923C788.214 46.9278 788.214 46.9635 788.214 46.9993C788.214 49.0657 789.324 49.4185 790.288 49.7248C790.467 49.7817 790.641 49.837 790.802 49.9013C791.623 49.9013 791.569 49.0552 791.501 47.9915C791.481 47.6745 791.459 47.3383 791.459 46.9993C791.459 46.902 791.46 46.8058 791.461 46.7112C790.608 46.9139 789.362 47.0692 788.215 46.8923Z" fill="#1B1B1B"/>
<path fill-rule="evenodd" clip-rule="evenodd" d="M794.551 46.728C794.552 46.8188 794.553 46.911 794.553 47.0043C794.553 47.3433 794.531 47.6795 794.511 47.9964C794.443 49.0602 794.388 49.9063 795.21 49.9063C795.371 49.8419 795.545 49.7867 795.724 49.7298C796.687 49.4235 797.798 49.0707 797.798 47.0043C797.798 46.9652 797.798 46.9262 797.797 46.8875C796.659 47.074 795.415 46.9275 794.551 46.728Z" fill="#1B1B1B"/>
<path fill-rule="evenodd" clip-rule="evenodd" d="M793.006 39.9391C796.076 39.9391 798.564 35.2801 798.564 30.9821C798.564 30.9493 798.564 30.9165 798.564 30.8839C801.601 32.2568 805.205 34.6816 806.072 36.5524C806.808 38.1394 806.093 38.898 805.32 39.7189L805.32 39.7189C805.119 39.9318 804.915 40.149 804.731 40.3858C804.385 40.8301 804.297 41.036 804.175 41.3203C803.982 41.7719 803.704 42.4214 802.175 44.5387C800.186 47.2924 795.234 46.7138 792.99 46.0766C790.747 46.7138 785.794 47.2929 783.805 44.5389C782.276 42.4216 781.998 41.7721 781.805 41.3205C781.683 41.0362 781.595 40.8303 781.25 40.386C781.065 40.1492 780.861 39.932 780.66 39.7191L780.66 39.7191C779.887 38.8982 779.172 38.1396 779.908 36.5526C780.778 34.6753 784.404 32.2402 787.448 30.8699C787.447 30.9072 787.447 30.9446 787.447 30.9821C787.447 35.2801 789.936 39.9391 793.006 39.9391Z" fill="#1B1B1B"/>
<path fill-rule="evenodd" clip-rule="evenodd" d="M787.265 30.9025C786.954 30.8345 786.635 30.7606 786.31 30.6852L786.31 30.6852C783.997 30.1487 781.355 29.5362 778.528 30.4135C777.637 30.6902 776.849 30.8974 776.158 31.0789C774.427 31.5337 773.308 31.8279 772.714 32.6498C772.701 32.6682 772.688 32.687 772.677 32.7062C772.864 32.6776 773.05 32.6609 773.226 32.6499C775.032 32.6499 776.528 35.3987 777.413 38.3371C779.828 39.6832 782.892 40.4626 786.451 39.0389C786.461 39.0348 786.471 39.0306 786.481 39.0264C786.405 38.8695 786.351 38.7446 786.303 38.632C786.181 38.3477 786.093 38.1418 785.748 37.6976C785.563 37.4607 785.359 37.2436 785.158 37.0306L785.158 37.0306C784.385 36.2097 783.67 35.4512 784.406 33.8641C784.831 32.947 785.914 31.8967 787.265 30.9025Z" fill="#1B1B1B"/>
<path fill-rule="evenodd" clip-rule="evenodd" d="M798.563 30.9017C798.875 30.8336 799.194 30.7597 799.519 30.6843L799.519 30.6842C801.833 30.1477 804.474 29.5352 807.301 30.4126C808.192 30.6892 808.981 30.8964 809.672 31.078C811.402 31.5328 812.521 31.8269 813.115 32.6488C813.128 32.6672 813.141 32.686 813.152 32.7053C812.965 32.6766 812.779 32.6599 812.603 32.6489C810.797 32.6489 809.301 35.3977 808.416 38.3361C806.001 39.6822 802.938 40.4616 799.378 39.0379C799.368 39.0338 799.358 39.0297 799.348 39.0255C799.425 38.8689 799.478 38.7441 799.526 38.6316C799.648 38.3473 799.736 38.1414 800.081 37.6972C800.266 37.4603 800.47 37.2432 800.671 37.0302L800.671 37.0302C801.444 36.2093 802.159 35.4508 801.423 33.8637C800.998 32.9465 799.915 31.896 798.563 30.9017Z" fill="#1B1B1B"/>
<path d="M839.654 58.3119C839.427 58.5787 839.015 58.5787 838.788 58.3119L832.098 50.4463C831.784 50.0772 832.046 49.5097 832.53 49.5097L845.912 49.5097C846.397 49.5097 846.659 50.0772 846.345 50.4463L839.654 58.3119Z" fill="#1B1B1B"/>
<path d="M836.246 45.3486C836.246 44.8778 836.628 44.4961 837.099 44.4961H841.344C841.815 44.4961 842.197 44.8778 842.197 45.3486V53.5317H836.246V45.3486Z" fill="#1B1B1B"/>
<rect x="836.246" y="42.0718" width="5.95032" height="1.54248" rx="0.568351" fill="#1B1B1B"/>
<rect x="836.246" y="40.0889" width="5.95032" height="1.10205" rx="0.551025" fill="#1B1B1B"/>
<rect x="836.246" y="38.5459" width="5.95029" height="0.661143" rx="0.330572" fill="#1B1B1B"/>
<rect x="836.247" y="37.2236" width="5.95032" height="0.440918" rx="0.220459" fill="#1B1B1B"/>
<path d="M749.343 58.3119C749.117 58.5787 748.705 58.5787 748.478 58.3119L741.787 50.4463C741.473 50.0772 741.735 49.5097 742.22 49.5097L755.601 49.5097C756.086 49.5097 756.348 50.0772 756.034 50.4463L749.343 58.3119Z" fill="#1B1B1B"/>
<path d="M745.936 45.3486C745.936 44.8778 746.317 44.4961 746.788 44.4961H751.033C751.504 44.4961 751.886 44.8778 751.886 45.3486V53.5317H745.936V45.3486Z" fill="#1B1B1B"/>
<rect x="745.936" y="42.0718" width="5.95032" height="1.54248" rx="0.568351" fill="#1B1B1B"/>
<rect x="745.936" y="40.0889" width="5.95032" height="1.10205" rx="0.551025" fill="#1B1B1B"/>
<rect x="745.936" y="38.5459" width="5.95029" height="0.661143" rx="0.330572" fill="#1B1B1B"/>
<rect x="745.936" y="37.2236" width="5.95026" height="0.440918" rx="0.220459" fill="#1B1B1B"/>
</svg>
