<svg width="997" height="72" viewBox="0 0 997 72" fill="none" xmlns="http://www.w3.org/2000/svg">
<path d="M122.618 65.8698H118.253L117.503 67.9998H115.718L119.453 57.5598H121.433L125.168 67.9998H123.368L122.618 65.8698ZM122.138 64.4748L120.443 59.6298L118.733 64.4748H122.138Z" fill="black"/>
<path d="M128.262 56.8999V67.9999H126.552V56.8999H128.262Z" fill="black"/>
<path d="M131.977 60.9499C132.267 60.5699 132.662 60.2499 133.162 59.9899C133.662 59.7299 134.227 59.5999 134.857 59.5999C135.577 59.5999 136.232 59.7799 136.822 60.1399C137.422 60.4899 137.892 60.9849 138.232 61.6249C138.572 62.2649 138.742 62.9999 138.742 63.8299C138.742 64.6599 138.572 65.4049 138.232 66.0649C137.892 66.7149 137.422 67.2249 136.822 67.5949C136.232 67.9549 135.577 68.1349 134.857 68.1349C134.227 68.1349 133.667 68.0099 133.177 67.7599C132.687 67.4999 132.287 67.1799 131.977 66.7999V71.9299H130.267V59.7349H131.977V60.9499ZM137.002 63.8299C137.002 63.2599 136.882 62.7699 136.642 62.3599C136.412 61.9399 136.102 61.6249 135.712 61.4149C135.332 61.1949 134.922 61.0849 134.482 61.0849C134.052 61.0849 133.642 61.1949 133.252 61.4149C132.872 61.6349 132.562 61.9549 132.322 62.3749C132.092 62.7949 131.977 63.2899 131.977 63.8599C131.977 64.4299 132.092 64.9299 132.322 65.3599C132.562 65.7799 132.872 66.0999 133.252 66.3199C133.642 66.5399 134.052 66.6499 134.482 66.6499C134.922 66.6499 135.332 66.5399 135.712 66.3199C136.102 66.0899 136.412 65.7599 136.642 65.3299C136.882 64.8999 137.002 64.3999 137.002 63.8299Z" fill="black"/>
<path d="M144.468 59.5999C145.098 59.5999 145.658 59.7349 146.148 60.0049C146.648 60.2749 147.038 60.6749 147.318 61.2049C147.608 61.7349 147.753 62.3749 147.753 63.1249V67.9999H146.058V63.3799C146.058 62.6399 145.873 62.0749 145.503 61.6849C145.133 61.2849 144.628 61.0849 143.988 61.0849C143.348 61.0849 142.838 61.2849 142.458 61.6849C142.088 62.0749 141.903 62.6399 141.903 63.3799V67.9999H140.193V56.8999H141.903V60.6949C142.193 60.3449 142.558 60.0749 142.998 59.8849C143.448 59.6949 143.938 59.5999 144.468 59.5999Z" fill="black"/>
<path d="M149.124 63.8299C149.124 62.9999 149.294 62.2649 149.634 61.6249C149.984 60.9849 150.454 60.4899 151.044 60.1399C151.644 59.7799 152.304 59.5999 153.024 59.5999C153.674 59.5999 154.239 59.7299 154.719 59.9899C155.209 60.2399 155.599 60.5549 155.889 60.9349V59.7349H157.614V67.9999H155.889V66.7699C155.599 67.1599 155.204 67.4849 154.704 67.7449C154.204 68.0049 153.634 68.1349 152.994 68.1349C152.284 68.1349 151.634 67.9549 151.044 67.5949C150.454 67.2249 149.984 66.7149 149.634 66.0649C149.294 65.4049 149.124 64.6599 149.124 63.8299ZM155.889 63.8599C155.889 63.2899 155.769 62.7949 155.529 62.3749C155.299 61.9549 154.994 61.6349 154.614 61.4149C154.234 61.1949 153.824 61.0849 153.384 61.0849C152.944 61.0849 152.534 61.1949 152.154 61.4149C151.774 61.6249 151.464 61.9399 151.224 62.3599C150.994 62.7699 150.879 63.2599 150.879 63.8299C150.879 64.3999 150.994 64.8999 151.224 65.3299C151.464 65.7599 151.774 66.0899 152.154 66.3199C152.544 66.5399 152.954 66.6499 153.384 66.6499C153.824 66.6499 154.234 66.5399 154.614 66.3199C154.994 66.0999 155.299 65.7799 155.529 65.3599C155.769 64.9299 155.889 64.4299 155.889 63.8599Z" fill="black"/>
<path d="M161.33 60.9649C161.62 60.5649 162.015 60.2399 162.515 59.9899C163.025 59.7299 163.59 59.5999 164.21 59.5999C164.94 59.5999 165.6 59.7749 166.19 60.1249C166.78 60.4749 167.245 60.9749 167.585 61.6249C167.925 62.2649 168.095 62.9999 168.095 63.8299C168.095 64.6599 167.925 65.4049 167.585 66.0649C167.245 66.7149 166.775 67.2249 166.175 67.5949C165.585 67.9549 164.93 68.1349 164.21 68.1349C163.57 68.1349 163 68.0099 162.5 67.7599C162.01 67.5099 161.62 67.1899 161.33 66.7999V67.9999H159.62V56.8999H161.33V60.9649ZM166.355 63.8299C166.355 63.2599 166.235 62.7699 165.995 62.3599C165.765 61.9399 165.455 61.6249 165.065 61.4149C164.685 61.1949 164.275 61.0849 163.835 61.0849C163.405 61.0849 162.995 61.1949 162.605 61.4149C162.225 61.6349 161.915 61.9549 161.675 62.3749C161.445 62.7949 161.33 63.2899 161.33 63.8599C161.33 64.4299 161.445 64.9299 161.675 65.3599C161.915 65.7799 162.225 66.0999 162.605 66.3199C162.995 66.5399 163.405 66.6499 163.835 66.6499C164.275 66.6499 164.685 66.5399 165.065 66.3199C165.455 66.0899 165.765 65.7599 165.995 65.3299C166.235 64.8999 166.355 64.3999 166.355 63.8299Z" fill="black"/>
<path d="M177.121 63.6649C177.121 63.9749 177.101 64.2549 177.061 64.5049H170.746C170.796 65.1649 171.041 65.6949 171.481 66.0949C171.921 66.4949 172.461 66.6949 173.101 66.6949C174.021 66.6949 174.671 66.3099 175.051 65.5399H176.896C176.646 66.2999 176.191 66.9249 175.531 67.4149C174.881 67.8949 174.071 68.1349 173.101 68.1349C172.311 68.1349 171.601 67.9599 170.971 67.6099C170.351 67.2499 169.861 66.7499 169.501 66.1099C169.151 65.4599 168.976 64.7099 168.976 63.8599C168.976 63.0099 169.146 62.2649 169.486 61.6249C169.836 60.9749 170.321 60.4749 170.941 60.1249C171.571 59.7749 172.291 59.5999 173.101 59.5999C173.881 59.5999 174.576 59.7699 175.186 60.1099C175.796 60.4499 176.271 60.9299 176.611 61.5499C176.951 62.1599 177.121 62.8649 177.121 63.6649ZM175.336 63.1249C175.326 62.4949 175.101 61.9899 174.661 61.6099C174.221 61.2299 173.676 61.0399 173.026 61.0399C172.436 61.0399 171.931 61.2299 171.511 61.6099C171.091 61.9799 170.841 62.4849 170.761 63.1249H175.336Z" fill="black"/>
<path d="M180.559 61.1299V65.7049C180.559 66.0149 180.629 66.2399 180.769 66.3799C180.919 66.5099 181.169 66.5749 181.519 66.5749H182.569V67.9999H181.219C180.449 67.9999 179.859 67.8199 179.449 67.4599C179.039 67.0999 178.834 66.5149 178.834 65.7049V61.1299H177.859V59.7349H178.834V57.6799H180.559V59.7349H182.569V61.1299H180.559Z" fill="black"/>
<path d="M186.905 68.1349C186.255 68.1349 185.67 68.0199 185.15 67.7899C184.64 67.5499 184.235 67.2299 183.935 66.8299C183.635 66.4199 183.475 65.9649 183.455 65.4649H185.225C185.255 65.8149 185.42 66.1099 185.72 66.3499C186.03 66.5799 186.415 66.6949 186.875 66.6949C187.355 66.6949 187.725 66.6049 187.985 66.4249C188.255 66.2349 188.39 65.9949 188.39 65.7049C188.39 65.3949 188.24 65.1649 187.94 65.0149C187.65 64.8649 187.185 64.6999 186.545 64.5199C185.925 64.3499 185.42 64.1849 185.03 64.0249C184.64 63.8649 184.3 63.6199 184.01 63.2899C183.73 62.9599 183.59 62.5249 183.59 61.9849C183.59 61.5449 183.72 61.1449 183.98 60.7849C184.24 60.4149 184.61 60.1249 185.09 59.9149C185.58 59.7049 186.14 59.5999 186.77 59.5999C187.71 59.5999 188.465 59.8399 189.035 60.3199C189.615 60.7899 189.925 61.4349 189.965 62.2549H188.255C188.225 61.8849 188.075 61.5899 187.805 61.3699C187.535 61.1499 187.17 61.0399 186.71 61.0399C186.26 61.0399 185.915 61.1249 185.675 61.2949C185.435 61.4649 185.315 61.6899 185.315 61.9699C185.315 62.1899 185.395 62.3749 185.555 62.5249C185.715 62.6749 185.91 62.7949 186.14 62.8849C186.37 62.9649 186.71 63.0699 187.16 63.1999C187.76 63.3599 188.25 63.5249 188.63 63.6949C189.02 63.8549 189.355 64.0949 189.635 64.4149C189.915 64.7349 190.06 65.1599 190.07 65.6899C190.07 66.1599 189.94 66.5799 189.68 66.9499C189.42 67.3199 189.05 67.6099 188.57 67.8199C188.1 68.0299 187.545 68.1349 186.905 68.1349Z" fill="black"/>
<path d="M142.357 16.1025C141.174 16.1025 140.128 15.8512 139.22 15.3485C138.328 14.8459 137.639 14.1325 137.153 13.2083C136.666 12.2841 136.423 11.2059 136.423 9.97365C136.423 8.74145 136.674 7.65504 137.177 6.71464C137.696 5.75804 138.417 5.02034 139.342 4.50144C140.266 3.98264 141.328 3.72314 142.528 3.72314C143.16 3.72314 143.792 3.81234 144.425 3.99074C145.073 4.16904 145.641 4.41225 146.127 4.72035C146.646 5.06085 146.905 5.49055 146.905 6.00935C146.905 6.36605 146.816 6.65794 146.638 6.88494C146.476 7.09564 146.257 7.20105 145.981 7.20105C145.803 7.20105 145.616 7.16054 145.422 7.07944C145.227 6.99844 145.033 6.90114 144.838 6.78764C144.481 6.57684 144.141 6.41475 143.817 6.30125C143.492 6.17155 143.119 6.10664 142.698 6.10664C141.693 6.10664 140.914 6.43904 140.363 7.10384C139.828 7.75234 139.56 8.69274 139.56 9.92504C139.56 11.141 139.828 12.0814 140.363 12.7462C140.914 13.3948 141.693 13.719 142.698 13.719C143.103 13.719 143.46 13.6623 143.768 13.5488C144.092 13.4191 144.449 13.2488 144.838 13.0381C145.081 12.8921 145.292 12.7867 145.47 12.7219C145.649 12.6408 145.827 12.6003 146.006 12.6003C146.265 12.6003 146.484 12.7138 146.662 12.9408C146.841 13.1678 146.93 13.4515 146.93 13.792C146.93 14.0676 146.865 14.3109 146.735 14.5216C146.622 14.7162 146.427 14.8946 146.151 15.0567C145.649 15.381 145.065 15.6404 144.4 15.835C143.736 16.0133 143.055 16.1025 142.357 16.1025Z" fill="#FF8C8C"/>
<path d="M139.91 16.7194L139.913 16.7213C140.905 17.2704 142.036 17.5378 143.293 17.5378C144.033 17.5378 144.758 17.443 145.465 17.2532V17.2533L145.476 17.2501C146.176 17.0452 146.802 16.7691 147.349 16.4176C147.664 16.2313 147.93 16.002 148.099 15.7141C148.281 15.417 148.365 15.0827 148.365 14.7273C148.365 14.2957 148.25 13.8974 147.991 13.5672C147.73 13.235 147.372 13.0356 146.941 13.0356C146.691 13.0356 146.448 13.0914 146.217 13.1939C146.005 13.2727 145.774 13.3906 145.526 13.5388C145.156 13.7388 144.822 13.8976 144.524 14.0172C144.284 14.1047 143.99 14.1543 143.633 14.1543C142.748 14.1543 142.122 13.8757 141.684 13.3628C141.248 12.8178 140.996 12.006 140.996 10.8603C140.996 9.69205 141.25 8.88325 141.684 8.35775C142.124 7.82725 142.75 7.54195 143.633 7.54195C144.004 7.54195 144.312 7.59905 144.566 7.70075L144.576 7.70485L144.587 7.70845C144.874 7.80915 145.185 7.95605 145.519 8.15335V8.15345L145.521 8.15485C145.734 8.27875 145.948 8.38615 146.165 8.47635C146.409 8.57825 146.661 8.63635 146.917 8.63635C147.34 8.63635 147.707 8.46475 147.968 8.12715C148.229 7.79325 148.341 7.38545 148.341 6.94465C148.341 6.22255 147.965 5.64965 147.337 5.23765V5.23755L147.33 5.23325C146.796 4.89495 146.182 4.63365 145.494 4.44435C144.82 4.25435 144.142 4.15845 143.463 4.15845C142.189 4.15845 141.041 4.43465 140.032 5.00075C139.023 5.56705 138.235 6.37435 137.673 7.41155L137.671 7.41425C137.124 8.43775 136.858 9.60735 136.858 10.9089C136.858 12.2077 137.115 13.3686 137.646 14.3765C138.176 15.384 138.932 16.1686 139.91 16.7194Z" stroke="black"/>
<path d="M141.962 22.5182C142.904 21.9546 143.872 21.685 144.866 21.7096C145.86 21.7341 146.806 22.0468 147.706 22.6476C148.62 23.2396 149.411 24.0947 150.081 25.2129C150.75 26.3311 151.138 27.4475 151.246 28.5621C151.36 29.6533 151.19 30.6544 150.736 31.5656C150.297 32.4679 149.614 33.1966 148.687 33.7514C147.907 34.2182 147.107 34.4673 146.286 34.4989C145.481 34.5216 144.735 34.3282 144.051 33.9187L144.381 34.4704C144.619 34.8677 144.683 35.2589 144.574 35.644C144.465 36.0291 144.204 36.345 143.792 36.5916C143.38 36.8382 142.979 36.9187 142.588 36.833C142.211 36.7385 141.904 36.4926 141.666 36.0954L133.766 22.8981C133.537 22.5155 133.477 22.1317 133.587 21.7466C133.71 21.3527 133.978 21.0324 134.39 20.7858C134.802 20.5392 135.199 20.4514 135.582 20.5223C135.964 20.5933 136.269 20.82 136.498 21.2026L139.616 26.4109C139.588 25.6286 139.782 24.9024 140.201 24.2324C140.61 23.5476 141.197 22.9762 141.962 22.5182ZM146.677 32.0467C147.545 31.527 148.037 30.8129 148.153 29.9044C148.268 28.9958 147.991 27.9824 147.322 26.8643C146.661 25.7608 145.912 25.0601 145.074 24.7623C144.251 24.4556 143.398 24.5665 142.516 25.0949C141.633 25.6233 141.129 26.3345 141.005 27.2284C140.886 28.0987 141.162 29.0929 141.831 30.2111C142.5 31.3293 143.251 32.0491 144.083 32.3704C144.93 32.683 145.794 32.5751 146.677 32.0467Z" fill="#FF8C8C"/>
<path d="M145.476 36.1211C145.563 35.8155 145.568 35.512 145.502 35.2161C145.895 35.3101 146.302 35.3512 146.722 35.3393V35.3394L146.727 35.3392C147.64 35.3041 148.521 35.0263 149.365 34.5211C150.368 33.9208 151.121 33.1226 151.606 32.1271C152.104 31.1254 152.287 30.0293 152.165 28.8528C152.049 27.6539 151.632 26.4676 150.931 25.2968C150.231 24.127 149.39 23.2115 148.402 22.5706C147.432 21.9232 146.396 21.5774 145.3 21.5504C144.202 21.5233 143.141 21.8229 142.127 22.4299C141.301 22.9243 140.652 23.5506 140.196 24.3124C140.002 24.624 139.85 24.9477 139.741 25.2826L137.349 21.2864C137.058 20.8008 136.639 20.4725 136.095 20.3714C135.566 20.2733 135.046 20.4036 134.555 20.6974C134.056 20.9961 133.698 21.4078 133.531 21.9372L133.529 21.944L133.527 21.9509C133.376 22.4844 133.468 23.0096 133.759 23.4956L141.659 36.6929C141.951 37.1803 142.358 37.5257 142.887 37.6586L142.895 37.6604L142.902 37.6621C143.442 37.7803 143.972 37.6595 144.47 37.3613C144.969 37.0631 145.326 36.6524 145.476 36.1211ZM145.322 25.5715H145.321L145.329 25.5741C146.017 25.8189 146.688 26.4145 147.315 27.4617C147.95 28.5234 148.175 29.423 148.078 30.1819C147.984 30.921 147.594 31.5081 146.842 31.9583C146.07 32.4205 145.364 32.4942 144.681 32.2434C143.993 31.9762 143.318 31.3583 142.682 30.295C142.044 29.2292 141.825 28.3518 141.922 27.6372C142.022 26.9158 142.421 26.3274 143.194 25.8646C143.972 25.3992 144.666 25.3272 145.322 25.5715Z" stroke="black"/>
<path d="M165.813 6.10219C168.175 7.01539 169.694 8.28169 170.372 9.90089C171.081 11.506 170.975 13.5007 170.053 15.8849L166.776 24.3573C166.535 24.9823 166.157 25.4084 165.643 25.6355C165.139 25.8395 164.562 25.8161 163.914 25.5654C163.312 25.3327 162.886 24.955 162.636 24.4324C162.409 23.9188 162.412 23.3611 162.644 22.7592L162.94 21.9953C162.197 22.7459 161.299 23.2102 160.246 23.3882C159.215 23.5752 158.145 23.4538 157.033 23.0241C155.899 22.5854 154.959 21.9555 154.212 21.1344C153.465 20.3133 152.982 19.3947 152.763 18.3786C152.544 17.3625 152.627 16.3568 153.012 15.3614C153.495 14.1114 154.188 13.2484 155.091 12.7725C156.016 12.3056 157.259 12.1877 158.82 12.4186C160.381 12.6496 162.422 13.2531 164.946 14.2289L165.814 14.5647L166.123 13.766C166.561 12.6318 166.636 11.716 166.347 11.0187C166.067 10.2983 165.383 9.72769 164.295 9.30689C163.623 9.04729 162.9 8.88729 162.125 8.82709C161.359 8.74369 160.43 8.70359 159.337 8.70699C158.619 8.77509 158.121 8.75549 157.843 8.64799C157.427 8.48689 157.138 8.20209 156.976 7.79379C156.838 7.39439 156.863 6.95159 157.051 6.46549C157.203 6.07189 157.426 5.77209 157.718 5.56589C158.043 5.34559 158.486 5.19759 159.047 5.12199C160.028 4.99559 161.123 5.01989 162.332 5.19499C163.565 5.37899 164.725 5.68149 165.813 6.10219ZM159.11 20.2347C160.268 20.6824 161.353 20.663 162.366 20.1767C163.411 19.6761 164.171 18.8124 164.645 17.5855L164.927 16.8563L164.302 16.6146C162.751 16.0148 161.521 15.6187 160.611 15.4263C159.7 15.234 158.993 15.2398 158.488 15.4437C157.984 15.6477 157.615 16.0507 157.382 16.6525C157.096 17.3933 157.113 18.1052 157.434 18.7883C157.788 19.4571 158.346 19.9393 159.11 20.2347Z" fill="#FF8C8C"/>
<path d="M165.54 14.5022L165.412 14.8345L165.01 14.6791C162.473 13.6979 160.391 13.0795 158.777 12.8405C157.165 12.6018 155.804 12.7107 154.75 13.2426L154.749 13.2425L154.742 13.2468C153.702 13.7946 152.942 14.7708 152.429 16.0975C152.01 17.1813 151.918 18.2863 152.158 19.4005C152.397 20.5086 152.924 21.5057 153.726 22.3874C154.53 23.2712 155.538 23.9429 156.737 24.4069C157.921 24.8647 159.084 25.002 160.216 24.7972C160.811 24.6963 161.364 24.511 161.871 24.242C161.817 24.6903 161.876 25.1299 162.063 25.5511L162.066 25.5581L162.069 25.5649C162.381 26.2158 162.912 26.6752 163.618 26.9483C164.35 27.2316 165.062 27.2793 165.715 27.0156L165.722 27.0125L165.73 27.0093C166.388 26.7183 166.847 26.1772 167.127 25.4541L170.403 16.9818C171.351 14.5324 171.496 12.3912 170.715 10.6197C169.964 8.83048 168.307 7.49198 165.878 6.55238C164.753 6.11748 163.557 5.80608 162.29 5.61698L162.288 5.61668C161.044 5.43648 159.902 5.40918 158.868 5.54268L158.865 5.54298C158.258 5.62468 157.732 5.78998 157.321 6.06868L157.314 6.07368C156.927 6.34628 156.65 6.73278 156.469 7.20158C156.248 7.77138 156.203 8.33828 156.388 8.87378L156.391 8.88398L156.395 8.89398C156.609 9.43468 157.003 9.82038 157.547 10.0309C157.76 10.1134 158.017 10.1487 158.29 10.1595C158.563 10.1702 158.883 10.1571 159.246 10.1234C160.316 10.1207 161.218 10.1605 161.955 10.2406L161.963 10.2415L161.97 10.2421C162.701 10.2989 163.376 10.449 163.998 10.6897C165.022 11.0856 165.557 11.5814 165.765 12.1165L165.769 12.1267C165.986 12.6505 165.96 13.418 165.54 14.5022ZM162.034 20.6422V20.6424C161.159 21.0625 160.218 21.0885 159.175 20.6849C158.517 20.4307 158.058 20.0293 157.766 19.4815C157.511 18.9324 157.494 18.3662 157.733 17.7494C157.925 17.2505 158.207 16.9664 158.56 16.8238C158.927 16.6752 159.517 16.6472 160.391 16.832C161.262 17.0161 162.464 17.401 164.006 17.9975L164.165 18.0588L164.063 18.3217C163.628 19.4471 162.948 20.2042 162.034 20.6422Z" stroke="black"/>
<path d="M235.192 65.8701H230.827L230.077 68.0001H228.292L232.027 57.5601H234.007L237.742 68.0001H235.942L235.192 65.8701ZM234.712 64.4751L233.017 59.6301L231.307 64.4751H234.712Z" fill="black"/>
<path d="M243.296 59.6001C243.946 59.6001 244.526 59.7351 245.036 60.0051C245.556 60.2751 245.961 60.6751 246.251 61.2051C246.541 61.7351 246.686 62.3751 246.686 63.1251V68.0001H244.991V63.3801C244.991 62.6401 244.806 62.0751 244.436 61.6851C244.066 61.2851 243.561 61.0851 242.921 61.0851C242.281 61.0851 241.771 61.2851 241.391 61.6851C241.021 62.0751 240.836 62.6401 240.836 63.3801V68.0001H239.126V59.7351H240.836V60.6801C241.116 60.3401 241.471 60.0751 241.901 59.8851C242.341 59.6951 242.806 59.6001 243.296 59.6001Z" fill="black"/>
<path d="M249.498 58.64C249.188 58.64 248.928 58.535 248.718 58.325C248.508 58.115 248.403 57.855 248.403 57.545C248.403 57.235 248.508 56.975 248.718 56.765C248.928 56.555 249.188 56.45 249.498 56.45C249.798 56.45 250.053 56.555 250.263 56.765C250.473 56.975 250.578 57.235 250.578 57.545C250.578 57.855 250.473 58.115 250.263 58.325C250.053 58.535 249.798 58.64 249.498 58.64ZM250.338 59.735V68H248.628V59.735H250.338Z" fill="black"/>
<path d="M262.348 59.6001C262.998 59.6001 263.578 59.7351 264.088 60.0051C264.608 60.2751 265.013 60.6751 265.303 61.2051C265.603 61.7351 265.753 62.3751 265.753 63.1251V68.0001H264.058V63.3801C264.058 62.6401 263.873 62.0751 263.503 61.6851C263.133 61.2851 262.628 61.0851 261.988 61.0851C261.348 61.0851 260.838 61.2851 260.458 61.6851C260.088 62.0751 259.903 62.6401 259.903 63.3801V68.0001H258.208V63.3801C258.208 62.6401 258.023 62.0751 257.653 61.6851C257.283 61.2851 256.778 61.0851 256.138 61.0851C255.498 61.0851 254.988 61.2851 254.608 61.6851C254.238 62.0751 254.053 62.6401 254.053 63.3801V68.0001H252.343V59.7351H254.053V60.6801C254.333 60.3401 254.688 60.0751 255.118 59.8851C255.548 59.6951 256.008 59.6001 256.498 59.6001C257.158 59.6001 257.748 59.7401 258.268 60.0201C258.788 60.3001 259.188 60.7051 259.468 61.2351C259.718 60.7351 260.108 60.3401 260.638 60.0501C261.168 59.7501 261.738 59.6001 262.348 59.6001Z" fill="black"/>
<path d="M267.119 63.8301C267.119 63.0001 267.289 62.2651 267.629 61.6251C267.979 60.9851 268.449 60.4901 269.039 60.1401C269.639 59.7801 270.299 59.6001 271.019 59.6001C271.669 59.6001 272.234 59.7301 272.714 59.9901C273.204 60.2401 273.594 60.5551 273.884 60.9351V59.7351H275.609V68.0001H273.884V66.7701C273.594 67.1601 273.199 67.4851 272.699 67.7451C272.199 68.0051 271.629 68.1351 270.989 68.1351C270.279 68.1351 269.629 67.9551 269.039 67.5951C268.449 67.2251 267.979 66.7151 267.629 66.0651C267.289 65.4051 267.119 64.6601 267.119 63.8301ZM273.884 63.8601C273.884 63.2901 273.764 62.7951 273.524 62.3751C273.294 61.9551 272.989 61.6351 272.609 61.4151C272.229 61.1951 271.819 61.0851 271.379 61.0851C270.939 61.0851 270.529 61.1951 270.149 61.4151C269.769 61.6251 269.459 61.9401 269.219 62.3601C268.989 62.7701 268.874 63.2601 268.874 63.8301C268.874 64.4001 268.989 64.9001 269.219 65.3301C269.459 65.7601 269.769 66.0901 270.149 66.3201C270.539 66.5401 270.949 66.6501 271.379 66.6501C271.819 66.6501 272.229 66.5401 272.609 66.3201C272.989 66.1001 273.294 65.7801 273.524 65.3601C273.764 64.9301 273.884 64.4301 273.884 63.8601Z" fill="black"/>
<path d="M279.325 56.8999V67.9999H277.615V56.8999H279.325Z" fill="black"/>
<path d="M284.33 68.1351C283.68 68.1351 283.095 68.0201 282.575 67.7901C282.065 67.5501 281.66 67.2301 281.36 66.8301C281.06 66.4201 280.9 65.9651 280.88 65.4651H282.65C282.68 65.8151 282.845 66.1101 283.145 66.3501C283.455 66.5801 283.84 66.6951 284.3 66.6951C284.78 66.6951 285.15 66.6051 285.41 66.4251C285.68 66.2351 285.815 65.9951 285.815 65.7051C285.815 65.3951 285.665 65.1651 285.365 65.0151C285.075 64.8651 284.61 64.7001 283.97 64.5201C283.35 64.3501 282.845 64.1851 282.455 64.0251C282.065 63.8651 281.725 63.6201 281.435 63.2901C281.155 62.9601 281.015 62.5251 281.015 61.9851C281.015 61.5451 281.145 61.1451 281.405 60.7851C281.665 60.4151 282.035 60.1251 282.515 59.9151C283.005 59.7051 283.565 59.6001 284.195 59.6001C285.135 59.6001 285.89 59.8401 286.46 60.3201C287.04 60.7901 287.35 61.4351 287.39 62.2551H285.68C285.65 61.8851 285.5 61.5901 285.23 61.3701C284.96 61.1501 284.595 61.0401 284.135 61.0401C283.685 61.0401 283.34 61.1251 283.1 61.2951C282.86 61.4651 282.74 61.6901 282.74 61.9701C282.74 62.1901 282.82 62.3751 282.98 62.5251C283.14 62.6751 283.335 62.7951 283.565 62.8851C283.795 62.9651 284.135 63.0701 284.585 63.2001C285.185 63.3601 285.675 63.5251 286.055 63.6951C286.445 63.8551 286.78 64.0951 287.06 64.4151C287.34 64.7351 287.485 65.1601 287.495 65.6901C287.495 66.1601 287.365 66.5801 287.105 66.9501C286.845 67.3201 286.475 67.6101 285.995 67.8201C285.525 68.0301 284.97 68.1351 284.33 68.1351Z" fill="black"/>
<path d="M252.643 17.9914C255.024 17.9914 256.96 15.3925 256.96 12.1975C256.96 9.00246 255.024 6.40356 252.643 6.40356C250.262 6.40356 248.326 9.00246 248.326 12.1975C248.326 15.3925 250.262 17.9914 252.643 17.9914Z" fill="#FADC5C"/>
<path d="M262.933 17.9914C265.311 17.9914 267.25 15.3925 267.25 12.1975C267.25 9.00246 265.312 6.40356 262.933 6.40356C260.552 6.40356 258.616 9.00246 258.616 12.1975C258.616 15.3925 260.552 17.9914 262.933 17.9914Z" fill="#FADC5C"/>
<path d="M270.992 15.1015C269.12 14.7328 267.273 16.3843 266.784 18.8646C266.296 21.342 267.379 23.571 269.252 23.9395C271.122 24.3076 272.972 22.6561 273.46 20.1786C273.948 17.6986 272.862 15.4696 270.992 15.1015Z" fill="#FADC5C"/>
<path d="M246.324 23.9397C248.197 23.571 249.28 21.342 248.792 18.8648C248.304 16.3846 246.457 14.733 244.584 15.1017C242.714 15.4699 241.628 17.6986 242.117 20.1791C242.605 22.6563 244.454 24.3079 246.324 23.9397Z" fill="#FADC5C"/>
<path d="M264.304 25.2405C263.796 22.1013 261.068 19.6963 257.788 19.6963C254.508 19.6963 251.78 22.1013 251.272 25.2405C248.937 26.259 247.301 28.5886 247.301 31.2942C247.301 34.9346 250.262 37.8961 253.902 37.8961C255.354 37.8961 256.697 37.4241 257.788 36.6269C258.879 37.4241 260.222 37.8961 261.674 37.8961C265.315 37.8961 268.276 34.9346 268.276 31.2942C268.276 28.5886 266.639 26.259 264.304 25.2405Z" fill="#FADC5C"/>
<path d="M257.864 10.7939C257.864 12.2941 257.408 13.6354 256.697 14.5903C255.986 15.5453 255.043 16.0878 254.047 16.0878C253.051 16.0878 252.108 15.5453 251.396 14.5903C250.685 13.6354 250.23 12.2941 250.23 10.7939C250.23 9.2937 250.685 7.9524 251.396 6.9976C252.108 6.0426 253.051 5.5 254.047 5.5C255.043 5.5 255.986 6.0425 256.697 6.9976C257.408 7.9524 257.864 9.2937 257.864 10.7939Z" stroke="black"/>
<path d="M268.154 10.7939C268.154 12.294 267.698 13.6353 266.986 14.5902C266.274 15.5454 265.331 16.0878 264.337 16.0878C263.341 16.0878 262.398 15.5453 261.686 14.5903C260.975 13.6354 260.52 12.2941 260.52 10.7939C260.52 9.2937 260.975 7.9524 261.686 6.9976C262.398 6.0426 263.341 5.5 264.337 5.5C265.331 5.5 266.274 6.0425 266.986 6.9976C267.698 7.9525 268.154 9.2938 268.154 10.7939Z" stroke="black"/>
<path d="M272.299 14.1884C273.78 14.4798 274.834 16.3329 274.373 18.6783V18.6784C273.911 21.0212 272.233 22.3367 270.752 22.0452C269.269 21.7535 268.217 19.9007 268.678 17.5575C269.14 15.2115 270.817 13.8965 272.299 14.1884Z" stroke="black"/>
<path d="M244.011 18.6789C243.549 16.3329 244.604 14.4801 246.084 14.1886C247.567 13.8967 249.243 15.2117 249.705 17.5577C250.166 19.9005 249.114 21.7536 247.631 22.0455C246.151 22.337 244.472 21.0215 244.011 18.6789Z" stroke="black"/>
<path d="M265.214 23.9168L265.258 24.1861L265.508 24.2952C267.668 25.2374 269.179 27.3918 269.18 29.8907C269.18 33.2549 266.442 35.9926 263.078 35.9926C261.736 35.9926 260.496 35.5567 259.487 34.8196L259.192 34.604L258.897 34.8196C257.888 35.5567 256.647 35.9926 255.306 35.9926C251.942 35.9926 249.204 33.2548 249.204 29.8906C249.204 27.3917 250.716 25.2374 252.875 24.2952L253.125 24.1861L253.169 23.9167C253.638 21.0154 256.161 18.7927 259.192 18.7927C262.222 18.7927 264.745 21.0154 265.214 23.9168Z" stroke="black"/>
<path d="M335.697 57.575C336.807 57.575 337.777 57.79 338.607 58.22C339.447 58.64 340.092 59.25 340.542 60.05C341.002 60.84 341.232 61.765 341.232 62.825C341.232 63.885 341.002 64.805 340.542 65.585C340.092 66.365 339.447 66.965 338.607 67.385C337.777 67.795 336.807 68 335.697 68H332.292V57.575H335.697ZM335.697 66.605C336.917 66.605 337.852 66.275 338.502 65.615C339.152 64.955 339.477 64.025 339.477 62.825C339.477 61.615 339.152 60.67 338.502 59.99C337.852 59.31 336.917 58.97 335.697 58.97H334.002V66.605H335.697Z" fill="black"/>
<path d="M343.557 58.64C343.247 58.64 342.987 58.535 342.777 58.325C342.567 58.115 342.462 57.855 342.462 57.545C342.462 57.235 342.567 56.975 342.777 56.765C342.987 56.555 343.247 56.45 343.557 56.45C343.857 56.45 344.112 56.555 344.322 56.765C344.532 56.975 344.637 57.235 344.637 57.545C344.637 57.855 344.532 58.115 344.322 58.325C344.112 58.535 343.857 58.64 343.557 58.64ZM344.397 59.735V68H342.687V59.735H344.397Z" fill="black"/>
<path d="M350.572 59.6001C351.222 59.6001 351.802 59.7351 352.312 60.0051C352.832 60.2751 353.237 60.6751 353.527 61.2051C353.817 61.7351 353.962 62.3751 353.962 63.1251V68.0001H352.267V63.3801C352.267 62.6401 352.082 62.0751 351.712 61.6851C351.342 61.2851 350.837 61.0851 350.197 61.0851C349.557 61.0851 349.047 61.2851 348.667 61.6851C348.297 62.0751 348.112 62.6401 348.112 63.3801V68.0001H346.402V59.7351H348.112V60.6801C348.392 60.3401 348.747 60.0751 349.177 59.8851C349.617 59.6951 350.082 59.6001 350.572 59.6001Z" fill="black"/>
<path d="M359.488 68.1351C358.708 68.1351 358.003 67.9601 357.373 67.6101C356.743 67.2501 356.248 66.7501 355.888 66.1101C355.528 65.4601 355.348 64.7101 355.348 63.8601C355.348 63.0201 355.533 62.2751 355.903 61.6251C356.273 60.9751 356.778 60.4751 357.418 60.1251C358.058 59.7751 358.773 59.6001 359.563 59.6001C360.353 59.6001 361.068 59.7751 361.708 60.1251C362.348 60.4751 362.853 60.9751 363.223 61.6251C363.593 62.2751 363.778 63.0201 363.778 63.8601C363.778 64.7001 363.588 65.4451 363.208 66.0951C362.828 66.7451 362.308 67.2501 361.648 67.6101C360.998 67.9601 360.278 68.1351 359.488 68.1351ZM359.488 66.6501C359.928 66.6501 360.338 66.5451 360.718 66.3351C361.108 66.1251 361.423 65.8101 361.663 65.3901C361.903 64.9701 362.023 64.4601 362.023 63.8601C362.023 63.2601 361.908 62.7551 361.678 62.3451C361.448 61.9251 361.143 61.6101 360.763 61.4001C360.383 61.1901 359.973 61.0851 359.533 61.0851C359.093 61.0851 358.683 61.1901 358.303 61.4001C357.933 61.6101 357.638 61.9251 357.418 62.3451C357.198 62.7551 357.088 63.2601 357.088 63.8601C357.088 64.7501 357.313 65.4401 357.763 65.9301C358.223 66.4101 358.798 66.6501 359.488 66.6501Z" fill="black"/>
<path d="M368.228 68.1351C367.578 68.1351 366.993 68.0201 366.473 67.7901C365.963 67.5501 365.558 67.2301 365.258 66.8301C364.958 66.4201 364.798 65.9651 364.778 65.4651H366.548C366.578 65.8151 366.743 66.1101 367.043 66.3501C367.353 66.5801 367.738 66.6951 368.198 66.6951C368.678 66.6951 369.048 66.6051 369.308 66.4251C369.578 66.2351 369.713 65.9951 369.713 65.7051C369.713 65.3951 369.563 65.1651 369.263 65.0151C368.973 64.8651 368.508 64.7001 367.868 64.5201C367.248 64.3501 366.743 64.1851 366.353 64.0251C365.963 63.8651 365.623 63.6201 365.333 63.2901C365.053 62.9601 364.913 62.5251 364.913 61.9851C364.913 61.5451 365.043 61.1451 365.303 60.7851C365.563 60.4151 365.933 60.1251 366.413 59.9151C366.903 59.7051 367.463 59.6001 368.093 59.6001C369.033 59.6001 369.788 59.8401 370.358 60.3201C370.938 60.7901 371.248 61.4351 371.288 62.2551H369.578C369.548 61.8851 369.398 61.5901 369.128 61.3701C368.858 61.1501 368.493 61.0401 368.033 61.0401C367.583 61.0401 367.238 61.1251 366.998 61.2951C366.758 61.4651 366.638 61.6901 366.638 61.9701C366.638 62.1901 366.718 62.3751 366.878 62.5251C367.038 62.6751 367.233 62.7951 367.463 62.8851C367.693 62.9651 368.033 63.0701 368.483 63.2001C369.083 63.3601 369.573 63.5251 369.953 63.6951C370.343 63.8551 370.678 64.0951 370.958 64.4151C371.238 64.7351 371.383 65.1601 371.393 65.6901C371.393 66.1601 371.263 66.5801 371.003 66.9501C370.743 67.3201 370.373 67.6101 369.893 67.8201C369.423 68.0301 368.868 68.1351 368.228 68.1351Z" fill="black"/>
<path d="M372.431 63.8301C372.431 63.0001 372.601 62.2651 372.941 61.6251C373.291 60.9851 373.761 60.4901 374.351 60.1401C374.951 59.7801 375.611 59.6001 376.331 59.6001C376.981 59.6001 377.546 59.7301 378.026 59.9901C378.516 60.2401 378.906 60.5551 379.196 60.9351V59.7351H380.921V68.0001H379.196V66.7701C378.906 67.1601 378.511 67.4851 378.011 67.7451C377.511 68.0051 376.941 68.1351 376.301 68.1351C375.591 68.1351 374.941 67.9551 374.351 67.5951C373.761 67.2251 373.291 66.7151 372.941 66.0651C372.601 65.4051 372.431 64.6601 372.431 63.8301ZM379.196 63.8601C379.196 63.2901 379.076 62.7951 378.836 62.3751C378.606 61.9551 378.301 61.6351 377.921 61.4151C377.541 61.1951 377.131 61.0851 376.691 61.0851C376.251 61.0851 375.841 61.1951 375.461 61.4151C375.081 61.6251 374.771 61.9401 374.531 62.3601C374.301 62.7701 374.186 63.2601 374.186 63.8301C374.186 64.4001 374.301 64.9001 374.531 65.3301C374.771 65.7601 375.081 66.0901 375.461 66.3201C375.851 66.5401 376.261 66.6501 376.691 66.6501C377.131 66.6501 377.541 66.5401 377.921 66.3201C378.301 66.1001 378.606 65.7801 378.836 65.3601C379.076 64.9301 379.196 64.4301 379.196 63.8601Z" fill="black"/>
<path d="M390.412 59.7351V68.0001H388.702V67.0251C388.432 67.3651 388.077 67.6351 387.637 67.8351C387.207 68.0251 386.747 68.1201 386.257 68.1201C385.607 68.1201 385.022 67.9851 384.502 67.7151C383.992 67.4451 383.587 67.0451 383.287 66.5151C382.997 65.9851 382.852 65.3451 382.852 64.5951V59.7351H384.547V64.3401C384.547 65.0801 384.732 65.6501 385.102 66.0501C385.472 66.4401 385.977 66.6351 386.617 66.6351C387.257 66.6351 387.762 66.4401 388.132 66.0501C388.512 65.6501 388.702 65.0801 388.702 64.3401V59.7351H390.412Z" fill="black"/>
<path d="M394.138 60.9351C394.388 60.5151 394.718 60.1901 395.128 59.9601C395.548 59.7201 396.043 59.6001 396.613 59.6001V61.3701H396.178C395.508 61.3701 394.998 61.5401 394.648 61.8801C394.308 62.2201 394.138 62.8101 394.138 63.6501V68.0001H392.428V59.7351H394.138V60.9351Z" fill="black"/>
<path d="M400.945 68.1351C400.295 68.1351 399.71 68.0201 399.19 67.7901C398.68 67.5501 398.275 67.2301 397.975 66.8301C397.675 66.4201 397.515 65.9651 397.495 65.4651H399.265C399.295 65.8151 399.46 66.1101 399.76 66.3501C400.07 66.5801 400.455 66.6951 400.915 66.6951C401.395 66.6951 401.765 66.6051 402.025 66.4251C402.295 66.2351 402.43 65.9951 402.43 65.7051C402.43 65.3951 402.28 65.1651 401.98 65.0151C401.69 64.8651 401.225 64.7001 400.585 64.5201C399.965 64.3501 399.46 64.1851 399.07 64.0251C398.68 63.8651 398.34 63.6201 398.05 63.2901C397.77 62.9601 397.63 62.5251 397.63 61.9851C397.63 61.5451 397.76 61.1451 398.02 60.7851C398.28 60.4151 398.65 60.1251 399.13 59.9151C399.62 59.7051 400.18 59.6001 400.81 59.6001C401.75 59.6001 402.505 59.8401 403.075 60.3201C403.655 60.7901 403.965 61.4351 404.005 62.2551H402.295C402.265 61.8851 402.115 61.5901 401.845 61.3701C401.575 61.1501 401.21 61.0401 400.75 61.0401C400.3 61.0401 399.955 61.1251 399.715 61.2951C399.475 61.4651 399.355 61.6901 399.355 61.9701C399.355 62.1901 399.435 62.3751 399.595 62.5251C399.755 62.6751 399.95 62.7951 400.18 62.8851C400.41 62.9651 400.75 63.0701 401.2 63.2001C401.8 63.3601 402.29 63.5251 402.67 63.6951C403.06 63.8551 403.395 64.0951 403.675 64.4151C403.955 64.7351 404.1 65.1601 404.11 65.6901C404.11 66.1601 403.98 66.5801 403.72 66.9501C403.46 67.3201 403.09 67.6101 402.61 67.8201C402.14 68.0301 401.585 68.1351 400.945 68.1351Z" fill="black"/>
<path d="M386.473 35.8534C386.356 35.5168 385.99 35.3366 385.652 35.4442C385.445 35.5094 380.554 36.9673 376.295 29.2998C374.4 25.8907 371.698 23.5584 368.263 22.3682C365.898 21.5492 363.286 21.4565 360.705 22.1018L358.073 22.7599C356.581 23.1335 354.979 22.6891 353.891 21.6018C353.449 21.1597 353.141 20.6198 353 20.0406C351.489 13.8012 355.323 9.44721 356.487 8.29961C357.304 8.64541 359.068 9.07201 361.011 7.54011C361.531 7.13061 361.816 6.4917 361.774 5.8315C361.732 5.1754 361.371 4.58181 360.807 4.24391L360.023 3.77351C358.146 2.64711 355.803 2.75891 354.055 4.0567C350.727 6.5284 345.443 12.314 347.438 23.287C348.049 26.65 350.026 29.5315 353.202 31.7545C353.202 31.768 353.197 31.7799 353.198 31.7934L353.88 37.8259C353.918 38.1576 354.198 38.4081 354.532 38.4081H357.295H360.059C360.385 38.4081 360.661 38.1689 360.708 37.8467L361.107 35.1073C361.976 35.252 362.852 35.3274 363.731 35.3274C364.562 35.3274 365.394 35.2515 366.225 35.122L366.787 37.883C366.849 38.1884 367.118 38.4081 367.43 38.4081H370.194C370.519 38.4081 370.796 38.1689 370.843 37.8467L371.36 34.2858C374.976 36.78 378.525 37.429 381.234 37.429C384.029 37.429 385.93 36.74 386.086 36.6819C386.419 36.5565 386.59 36.1896 386.473 35.8534Z" fill="#E7EA4C"/>
<path d="M363.25 5.86341C363.282 6.35971 363.067 6.83971 362.677 7.14741C360.923 8.53041 359.368 8.13991 358.657 7.83921L358.349 7.70881L358.111 7.94371C356.915 9.12371 352.914 13.652 354.49 20.1583C354.653 20.8314 355.009 21.4518 355.513 21.9555C356.725 23.1666 358.507 23.6612 360.169 23.245L360.17 23.2449L362.802 22.5869C365.294 21.9636 367.807 22.0554 370.074 22.8407C373.385 23.9875 375.994 26.2326 377.833 29.5427C380.011 33.4637 382.389 35.1142 384.312 35.7467C386.225 36.3759 387.614 35.9729 387.779 35.9207C387.862 35.8942 387.949 35.9399 387.976 36.0171C388.004 36.0989 387.963 36.1846 387.885 36.214L388.061 36.6813L387.886 36.2135C387.765 36.2586 385.926 36.929 383.209 36.929C380.582 36.929 377.137 36.3007 373.619 33.8742L372.956 33.4169L372.841 34.2138L372.323 37.7745C372.312 37.8512 372.246 37.9081 372.169 37.9081H369.405C369.331 37.9081 369.267 37.8558 369.252 37.7833M363.25 5.86341C363.219 5.37101 362.948 4.92581 362.526 4.67271M363.25 5.86341L362.526 4.67271M369.252 37.7833L368.762 37.883M369.252 37.7833L368.69 35.0223L368.595 34.5545L368.123 34.628C367.313 34.7543 366.507 34.8274 365.707 34.8274C364.856 34.8274 364.008 34.7545 363.164 34.6141L362.661 34.5303L362.587 35.0353L362.189 37.7745C362.178 37.8512 362.112 37.9081 362.035 37.9081H359.271H356.507C356.428 37.9081 356.361 37.8487 356.352 37.7697L355.676 31.7882C355.677 31.7713 355.677 31.7517 355.676 31.7301L355.664 31.4854L355.464 31.3449C352.379 29.1851 350.489 26.4114 349.905 23.1975M349.905 23.1975L349.413 23.287M349.905 23.1975C347.953 12.4615 353.108 6.85001 356.329 4.45811C357.913 3.28181 360.037 3.17931 361.741 4.20231L362.526 4.67271M362.526 4.67271L362.779 4.24941" stroke="black"/>
<path d="M358.353 37.5708V32.6321" stroke="black"/>
<path d="M458.411 57.575V58.97H455.636V68H453.926V58.97H451.136V57.575H458.411Z" fill="black"/>
<path d="M459.333 63.8299C459.333 62.9999 459.503 62.2649 459.843 61.6249C460.193 60.9849 460.663 60.4899 461.253 60.1399C461.853 59.7799 462.513 59.5999 463.233 59.5999C463.883 59.5999 464.448 59.7299 464.928 59.9899C465.418 60.2399 465.808 60.5549 466.098 60.9349V59.7349H467.823V67.9999H466.098V66.7699C465.808 67.1599 465.413 67.4849 464.913 67.7449C464.413 68.0049 463.843 68.1349 463.203 68.1349C462.493 68.1349 461.843 67.9549 461.253 67.5949C460.663 67.2249 460.193 66.7149 459.843 66.0649C459.503 65.4049 459.333 64.6599 459.333 63.8299ZM466.098 63.8599C466.098 63.2899 465.978 62.7949 465.738 62.3749C465.508 61.9549 465.203 61.6349 464.823 61.4149C464.443 61.1949 464.033 61.0849 463.593 61.0849C463.153 61.0849 462.743 61.1949 462.363 61.4149C461.983 61.6249 461.673 61.9399 461.433 62.3599C461.203 62.7699 461.088 63.2599 461.088 63.8299C461.088 64.3999 461.203 64.8999 461.433 65.3299C461.673 65.7599 461.983 66.0899 462.363 66.3199C462.753 66.5399 463.163 66.6499 463.593 66.6499C464.033 66.6499 464.443 66.5399 464.823 66.3199C465.203 66.0999 465.508 65.7799 465.738 65.3599C465.978 64.9299 466.098 64.4299 466.098 63.8599Z" fill="black"/>
<path d="M471.539 56.8999V67.9999H469.829V56.8999H471.539Z" fill="black"/>
<path d="M481.119 63.6649C481.119 63.9749 481.099 64.2549 481.059 64.5049H474.744C474.794 65.1649 475.039 65.6949 475.479 66.0949C475.919 66.4949 476.459 66.6949 477.099 66.6949C478.019 66.6949 478.669 66.3099 479.049 65.5399H480.894C480.644 66.2999 480.189 66.9249 479.529 67.4149C478.879 67.8949 478.069 68.1349 477.099 68.1349C476.309 68.1349 475.599 67.9599 474.969 67.6099C474.349 67.2499 473.859 66.7499 473.499 66.1099C473.149 65.4599 472.974 64.7099 472.974 63.8599C472.974 63.0099 473.144 62.2649 473.484 61.6249C473.834 60.9749 474.319 60.4749 474.939 60.1249C475.569 59.7749 476.289 59.5999 477.099 59.5999C477.879 59.5999 478.574 59.7699 479.184 60.1099C479.794 60.4499 480.269 60.9299 480.609 61.5499C480.949 62.1599 481.119 62.8649 481.119 63.6649ZM479.334 63.1249C479.324 62.4949 479.099 61.9899 478.659 61.6099C478.219 61.2299 477.674 61.0399 477.024 61.0399C476.434 61.0399 475.929 61.2299 475.509 61.6099C475.089 61.9799 474.839 62.4849 474.759 63.1249H479.334Z" fill="black"/>
<path d="M485.561 68.1349C484.911 68.1349 484.326 68.0199 483.806 67.7899C483.296 67.5499 482.891 67.2299 482.591 66.8299C482.291 66.4199 482.131 65.9649 482.111 65.4649H483.881C483.911 65.8149 484.076 66.1099 484.376 66.3499C484.686 66.5799 485.071 66.6949 485.531 66.6949C486.011 66.6949 486.381 66.6049 486.641 66.4249C486.911 66.2349 487.046 65.9949 487.046 65.7049C487.046 65.3949 486.896 65.1649 486.596 65.0149C486.306 64.8649 485.841 64.6999 485.201 64.5199C484.581 64.3499 484.076 64.1849 483.686 64.0249C483.296 63.8649 482.956 63.6199 482.666 63.2899C482.386 62.9599 482.246 62.5249 482.246 61.9849C482.246 61.5449 482.376 61.1449 482.636 60.7849C482.896 60.4149 483.266 60.1249 483.746 59.9149C484.236 59.7049 484.796 59.5999 485.426 59.5999C486.366 59.5999 487.121 59.8399 487.691 60.3199C488.271 60.7899 488.581 61.4349 488.621 62.2549H486.911C486.881 61.8849 486.731 61.5899 486.461 61.3699C486.191 61.1499 485.826 61.0399 485.366 61.0399C484.916 61.0399 484.571 61.1249 484.331 61.2949C484.091 61.4649 483.971 61.6899 483.971 61.9699C483.971 62.1899 484.051 62.3749 484.211 62.5249C484.371 62.6749 484.566 62.7949 484.796 62.8849C485.026 62.9649 485.366 63.0699 485.816 63.1999C486.416 63.3599 486.906 63.5249 487.286 63.6949C487.676 63.8549 488.011 64.0949 488.291 64.4149C488.571 64.7349 488.716 65.1599 488.726 65.6899C488.726 66.1599 488.596 66.5799 488.336 66.9499C488.076 67.3199 487.706 67.6099 487.226 67.8199C486.756 68.0299 486.201 68.1349 485.561 68.1349Z" fill="black"/>
<path d="M481.522 5.55471C482.936 5.25661 484.19 6.51031 483.892 7.92421L482.51 14.4793C482.413 14.9357 482.48 15.4113 482.697 15.824L485.797 21.7076C486.436 22.9224 485.69 24.406 484.333 24.6162L477.438 25.6841C477.001 25.7519 476.599 25.9628 476.294 26.2838L471.472 31.3649C470.496 32.3933 468.789 32.1077 468.201 30.8175L465.515 24.9221C465.315 24.4833 464.963 24.1315 464.524 23.9316L458.629 21.245C457.338 20.657 457.053 18.9504 458.081 17.9743L463.162 13.1523C463.483 12.8477 463.694 12.4451 463.762 12.0078L464.83 5.11301C465.04 3.75611 466.524 3.00971 467.739 3.64961L473.622 6.74901C474.035 6.96641 474.511 7.03271 474.967 6.93651L481.522 5.55471Z" fill="#FFCF54"/>
<path d="M486.762 9.6181L485.412 16.0201C485.292 16.5905 485.375 17.1851 485.647 17.7009L488.675 23.4503C489.155 24.3614 488.595 25.4741 487.578 25.6317L480.837 26.6757C480.29 26.7604 479.787 27.024 479.406 27.4253L474.694 32.3911C473.962 33.1625 472.682 32.9482 472.241 31.9806L469.617 26.2236C469.367 25.675 468.928 25.2353 468.379 24.9854L462.622 22.3618C461.654 21.9209 461.44 20.6409 462.212 19.9089L467.177 15.1962C467.579 14.8154 467.842 14.3122 467.927 13.7655L468.971 7.025C469.129 6.0074 470.241 5.4476 471.152 5.9275L476.902 8.9561C477.418 9.2278 478.012 9.3107 478.583 9.1905L484.985 7.841C486.045 7.6174 486.985 8.5577 486.762 9.6181Z" stroke="black"/>
<path d="M468.518 25.9312L458.036 36.4134" stroke="black" stroke-linecap="round"/>
<path d="M543.654 68.1049C542.954 68.1049 542.324 67.9849 541.764 67.7449C541.204 67.4949 540.764 67.1449 540.444 66.6949C540.124 66.2449 539.964 65.7199 539.964 65.1199H541.794C541.834 65.5699 542.009 65.9399 542.319 66.2299C542.639 66.5199 543.084 66.6649 543.654 66.6649C544.244 66.6649 544.704 66.5249 545.034 66.2449C545.364 65.9549 545.529 65.5849 545.529 65.1349C545.529 64.7849 545.424 64.4999 545.214 64.2799C545.014 64.0599 544.759 63.8899 544.449 63.7699C544.149 63.6499 543.729 63.5199 543.189 63.3799C542.509 63.1999 541.954 63.0199 541.524 62.8399C541.104 62.6499 540.744 62.3599 540.444 61.9699C540.144 61.5799 539.994 61.0599 539.994 60.4099C539.994 59.8099 540.144 59.2849 540.444 58.8349C540.744 58.3849 541.164 58.0399 541.704 57.7999C542.244 57.5599 542.869 57.4399 543.579 57.4399C544.589 57.4399 545.414 57.6949 546.054 58.2049C546.704 58.7049 547.064 59.3949 547.134 60.2749H545.244C545.214 59.8949 545.034 59.5699 544.704 59.2999C544.374 59.0299 543.939 58.8949 543.399 58.8949C542.909 58.8949 542.509 59.0199 542.199 59.2699C541.889 59.5199 541.734 59.8799 541.734 60.3499C541.734 60.6699 541.829 60.9349 542.019 61.1449C542.219 61.3449 542.469 61.5049 542.769 61.6249C543.069 61.7449 543.479 61.8749 543.999 62.0149C544.689 62.2049 545.249 62.3949 545.679 62.5849C546.119 62.7749 546.489 63.0699 546.789 63.4699C547.099 63.8599 547.254 64.3849 547.254 65.0449C547.254 65.5749 547.109 66.0749 546.819 66.5449C546.539 67.0149 546.124 67.3949 545.574 67.6849C545.034 67.9649 544.394 68.1049 543.654 68.1049Z" fill="black"/>
<path d="M548.461 63.8601C548.461 63.0101 548.631 62.2651 548.971 61.6251C549.321 60.9751 549.801 60.4751 550.411 60.1251C551.021 59.7751 551.721 59.6001 552.511 59.6001C553.511 59.6001 554.336 59.8401 554.986 60.3201C555.646 60.7901 556.091 61.4651 556.321 62.3451H554.476C554.326 61.9351 554.086 61.6151 553.756 61.3851C553.426 61.1551 553.011 61.0401 552.511 61.0401C551.811 61.0401 551.251 61.2901 550.831 61.7901C550.421 62.2801 550.216 62.9701 550.216 63.8601C550.216 64.7501 550.421 65.4451 550.831 65.9451C551.251 66.4451 551.811 66.6951 552.511 66.6951C553.501 66.6951 554.156 66.2601 554.476 65.3901H556.321C556.081 66.2301 555.631 66.9001 554.971 67.4001C554.311 67.8901 553.491 68.1351 552.511 68.1351C551.721 68.1351 551.021 67.9601 550.411 67.6101C549.801 67.2501 549.321 66.7501 548.971 66.1101C548.631 65.4601 548.461 64.7101 548.461 63.8601Z" fill="black"/>
<path d="M558.655 58.64C558.345 58.64 558.085 58.535 557.875 58.325C557.665 58.115 557.56 57.855 557.56 57.545C557.56 57.235 557.665 56.975 557.875 56.765C558.085 56.555 558.345 56.45 558.655 56.45C558.955 56.45 559.21 56.555 559.42 56.765C559.63 56.975 559.735 57.235 559.735 57.545C559.735 57.855 559.63 58.115 559.42 58.325C559.21 58.535 558.955 58.64 558.655 58.64ZM559.495 59.735V68H557.785V59.735H559.495Z" fill="black"/>
<path d="M569.076 63.6651C569.076 63.9751 569.056 64.2551 569.016 64.5051H562.701C562.751 65.1651 562.996 65.6951 563.436 66.0951C563.876 66.4951 564.416 66.6951 565.056 66.6951C565.976 66.6951 566.626 66.3101 567.006 65.5401H568.851C568.601 66.3001 568.146 66.9251 567.486 67.4151C566.836 67.8951 566.026 68.1351 565.056 68.1351C564.266 68.1351 563.556 67.9601 562.926 67.6101C562.306 67.2501 561.816 66.7501 561.456 66.1101C561.106 65.4601 560.931 64.7101 560.931 63.8601C560.931 63.0101 561.101 62.2651 561.441 61.6251C561.791 60.9751 562.276 60.4751 562.896 60.1251C563.526 59.7751 564.246 59.6001 565.056 59.6001C565.836 59.6001 566.531 59.7701 567.141 60.1101C567.751 60.4501 568.226 60.9301 568.566 61.5501C568.906 62.1601 569.076 62.8651 569.076 63.6651ZM567.291 63.1251C567.281 62.4951 567.056 61.9901 566.616 61.6101C566.176 61.2301 565.631 61.0401 564.981 61.0401C564.391 61.0401 563.886 61.2301 563.466 61.6101C563.046 61.9801 562.796 62.4851 562.716 63.1251H567.291Z" fill="black"/>
<path d="M574.688 59.6001C575.338 59.6001 575.918 59.7351 576.428 60.0051C576.948 60.2751 577.353 60.6751 577.643 61.2051C577.933 61.7351 578.078 62.3751 578.078 63.1251V68.0001H576.383V63.3801C576.383 62.6401 576.198 62.0751 575.828 61.6851C575.458 61.2851 574.953 61.0851 574.313 61.0851C573.673 61.0851 573.163 61.2851 572.783 61.6851C572.413 62.0751 572.228 62.6401 572.228 63.3801V68.0001H570.518V59.7351H572.228V60.6801C572.508 60.3401 572.863 60.0751 573.293 59.8851C573.733 59.6951 574.198 59.6001 574.688 59.6001Z" fill="black"/>
<path d="M579.45 63.8601C579.45 63.0101 579.62 62.2651 579.96 61.6251C580.31 60.9751 580.79 60.4751 581.4 60.1251C582.01 59.7751 582.71 59.6001 583.5 59.6001C584.5 59.6001 585.325 59.8401 585.975 60.3201C586.635 60.7901 587.08 61.4651 587.31 62.3451H585.465C585.315 61.9351 585.075 61.6151 584.745 61.3851C584.415 61.1551 584 61.0401 583.5 61.0401C582.8 61.0401 582.24 61.2901 581.82 61.7901C581.41 62.2801 581.205 62.9701 581.205 63.8601C581.205 64.7501 581.41 65.4451 581.82 65.9451C582.24 66.4451 582.8 66.6951 583.5 66.6951C584.49 66.6951 585.145 66.2601 585.465 65.3901H587.31C587.07 66.2301 586.62 66.9001 585.96 67.4001C585.3 67.8901 584.48 68.1351 583.5 68.1351C582.71 68.1351 582.01 67.9601 581.4 67.6101C580.79 67.2501 580.31 66.7501 579.96 66.1101C579.62 65.4601 579.45 64.7101 579.45 63.8601Z" fill="black"/>
<path d="M596.349 63.6651C596.349 63.9751 596.329 64.2551 596.289 64.5051H589.974C590.024 65.1651 590.269 65.6951 590.709 66.0951C591.149 66.4951 591.689 66.6951 592.329 66.6951C593.249 66.6951 593.899 66.3101 594.279 65.5401H596.124C595.874 66.3001 595.419 66.9251 594.759 67.4151C594.109 67.8951 593.299 68.1351 592.329 68.1351C591.539 68.1351 590.829 67.9601 590.199 67.6101C589.579 67.2501 589.089 66.7501 588.729 66.1101C588.379 65.4601 588.204 64.7101 588.204 63.8601C588.204 63.0101 588.374 62.2651 588.714 61.6251C589.064 60.9751 589.549 60.4751 590.169 60.1251C590.799 59.7751 591.519 59.6001 592.329 59.6001C593.109 59.6001 593.804 59.7701 594.414 60.1101C595.024 60.4501 595.499 60.9301 595.839 61.5501C596.179 62.1601 596.349 62.8651 596.349 63.6651ZM594.564 63.1251C594.554 62.4951 594.329 61.9901 593.889 61.6101C593.449 61.2301 592.904 61.0401 592.254 61.0401C591.664 61.0401 591.159 61.2301 590.739 61.6101C590.319 61.9801 590.069 62.4851 589.989 63.1251H594.564Z" fill="black"/>
<path d="M580.677 30.4648L572.237 15.4616V7.5035C573.002 7.2323 573.552 6.5015 573.552 5.6446C573.552 4.5575 572.667 3.6731 571.58 3.6731H563.694C562.607 3.6731 561.722 4.5575 561.722 5.6446C561.722 6.5015 562.272 7.2323 563.037 7.5035V15.4616L554.598 30.4648C553.787 31.9051 553.802 33.6166 554.636 35.0429C555.47 36.4691 556.954 37.3206 558.607 37.3206H576.667C578.32 37.3206 579.804 36.4691 580.638 35.0429C581.472 33.6166 581.487 31.9051 580.677 30.4648Z" fill="#6CC2F5"/>
<path d="M573.756 14.7885V14.9195L573.82 15.0337L582.26 30.0368L582.635 29.8255L582.26 30.0369C582.983 31.3223 582.97 32.8444 582.225 34.1174C581.481 35.3903 580.161 36.1475 578.686 36.1475H560.626C559.151 36.1475 557.831 35.3903 557.086 34.1174C556.342 32.8444 556.329 31.3223 557.052 30.0369L556.682 29.8287L557.052 30.0368L565.491 15.0337L565.556 14.9195V14.7885V6.8304V6.4772L565.223 6.3592C564.65 6.1563 564.241 5.6095 564.241 4.9715C564.241 4.1606 564.902 3.5 565.713 3.5H573.599C574.41 3.5 575.07 4.1606 575.07 4.9715C575.07 5.6095 574.661 6.1563 574.089 6.3592L573.756 6.4772V6.8304V14.7885Z" stroke="black"/>
<path d="M554.993 26.4519H576.671" stroke="black" stroke-linecap="round" stroke-linejoin="round"/>
<path d="M648.962 68.1049C648.262 68.1049 647.632 67.9849 647.072 67.7449C646.512 67.4949 646.072 67.1449 645.752 66.6949C645.432 66.2449 645.272 65.7199 645.272 65.1199H647.102C647.142 65.5699 647.317 65.9399 647.627 66.2299C647.947 66.5199 648.392 66.6649 648.962 66.6649C649.552 66.6649 650.012 66.5249 650.342 66.2449C650.672 65.9549 650.837 65.5849 650.837 65.1349C650.837 64.7849 650.732 64.4999 650.522 64.2799C650.322 64.0599 650.067 63.8899 649.757 63.7699C649.457 63.6499 649.037 63.5199 648.497 63.3799C647.817 63.1999 647.262 63.0199 646.832 62.8399C646.412 62.6499 646.052 62.3599 645.752 61.9699C645.452 61.5799 645.302 61.0599 645.302 60.4099C645.302 59.8099 645.452 59.2849 645.752 58.8349C646.052 58.3849 646.472 58.0399 647.012 57.7999C647.552 57.5599 648.177 57.4399 648.887 57.4399C649.897 57.4399 650.722 57.6949 651.362 58.2049C652.012 58.7049 652.372 59.3949 652.442 60.2749H650.552C650.522 59.8949 650.342 59.5699 650.012 59.2999C649.682 59.0299 649.247 58.8949 648.707 58.8949C648.217 58.8949 647.817 59.0199 647.507 59.2699C647.197 59.5199 647.042 59.8799 647.042 60.3499C647.042 60.6699 647.137 60.9349 647.327 61.1449C647.527 61.3449 647.777 61.5049 648.077 61.6249C648.377 61.7449 648.787 61.8749 649.307 62.0149C649.997 62.2049 650.557 62.3949 650.987 62.5849C651.427 62.7749 651.797 63.0699 652.097 63.4699C652.407 63.8599 652.562 64.3849 652.562 65.0449C652.562 65.5749 652.417 66.0749 652.127 66.5449C651.847 67.0149 651.432 67.3949 650.882 67.6849C650.342 67.9649 649.702 68.1049 648.962 68.1049Z" fill="black"/>
<path d="M658.614 59.5999C659.244 59.5999 659.804 59.7349 660.294 60.0049C660.794 60.2749 661.184 60.6749 661.464 61.2049C661.754 61.7349 661.899 62.3749 661.899 63.1249V67.9999H660.204V63.3799C660.204 62.6399 660.019 62.0749 659.649 61.6849C659.279 61.2849 658.774 61.0849 658.134 61.0849C657.494 61.0849 656.984 61.2849 656.604 61.6849C656.234 62.0749 656.049 62.6399 656.049 63.3799V67.9999H654.339V56.8999H656.049V60.6949C656.339 60.3449 656.704 60.0749 657.144 59.8849C657.594 59.6949 658.084 59.5999 658.614 59.5999Z" fill="black"/>
<path d="M663.271 63.8299C663.271 62.9999 663.441 62.2649 663.781 61.6249C664.131 60.9849 664.601 60.4899 665.191 60.1399C665.791 59.7799 666.451 59.5999 667.171 59.5999C667.821 59.5999 668.386 59.7299 668.866 59.9899C669.356 60.2399 669.746 60.5549 670.036 60.9349V59.7349H671.761V67.9999H670.036V66.7699C669.746 67.1599 669.351 67.4849 668.851 67.7449C668.351 68.0049 667.781 68.1349 667.141 68.1349C666.431 68.1349 665.781 67.9549 665.191 67.5949C664.601 67.2249 664.131 66.7149 663.781 66.0649C663.441 65.4049 663.271 64.6599 663.271 63.8299ZM670.036 63.8599C670.036 63.2899 669.916 62.7949 669.676 62.3749C669.446 61.9549 669.141 61.6349 668.761 61.4149C668.381 61.1949 667.971 61.0849 667.531 61.0849C667.091 61.0849 666.681 61.1949 666.301 61.4149C665.921 61.6249 665.611 61.9399 665.371 62.3599C665.141 62.7699 665.026 63.2599 665.026 63.8299C665.026 64.3999 665.141 64.8999 665.371 65.3299C665.611 65.7599 665.921 66.0899 666.301 66.3199C666.691 66.5399 667.101 66.6499 667.531 66.6499C667.971 66.6499 668.381 66.5399 668.761 66.3199C669.141 66.0999 669.446 65.7799 669.676 65.3599C669.916 64.9299 670.036 64.4299 670.036 63.8599Z" fill="black"/>
<path d="M675.477 60.9499C675.767 60.5699 676.162 60.2499 676.662 59.9899C677.162 59.7299 677.727 59.5999 678.357 59.5999C679.077 59.5999 679.732 59.7799 680.322 60.1399C680.922 60.4899 681.392 60.9849 681.732 61.6249C682.072 62.2649 682.242 62.9999 682.242 63.8299C682.242 64.6599 682.072 65.4049 681.732 66.0649C681.392 66.7149 680.922 67.2249 680.322 67.5949C679.732 67.9549 679.077 68.1349 678.357 68.1349C677.727 68.1349 677.167 68.0099 676.677 67.7599C676.187 67.4999 675.787 67.1799 675.477 66.7999V71.9299H673.767V59.7349H675.477V60.9499ZM680.502 63.8299C680.502 63.2599 680.382 62.7699 680.142 62.3599C679.912 61.9399 679.602 61.6249 679.212 61.4149C678.832 61.1949 678.422 61.0849 677.982 61.0849C677.552 61.0849 677.142 61.1949 676.752 61.4149C676.372 61.6349 676.062 61.9549 675.822 62.3749C675.592 62.7949 675.477 63.2899 675.477 63.8599C675.477 64.4299 675.592 64.9299 675.822 65.3599C676.062 65.7799 676.372 66.0999 676.752 66.3199C677.142 66.5399 677.552 66.6499 677.982 66.6499C678.422 66.6499 678.832 66.5399 679.212 66.3199C679.602 66.0899 679.912 65.7599 680.142 65.3299C680.382 64.8999 680.502 64.3999 680.502 63.8299Z" fill="black"/>
<path d="M691.268 63.6649C691.268 63.9749 691.248 64.2549 691.208 64.5049H684.893C684.943 65.1649 685.188 65.6949 685.628 66.0949C686.068 66.4949 686.608 66.6949 687.248 66.6949C688.168 66.6949 688.818 66.3099 689.198 65.5399H691.043C690.793 66.2999 690.338 66.9249 689.678 67.4149C689.028 67.8949 688.218 68.1349 687.248 68.1349C686.458 68.1349 685.748 67.9599 685.118 67.6099C684.498 67.2499 684.008 66.7499 683.648 66.1099C683.298 65.4599 683.123 64.7099 683.123 63.8599C683.123 63.0099 683.293 62.2649 683.633 61.6249C683.983 60.9749 684.468 60.4749 685.088 60.1249C685.718 59.7749 686.438 59.5999 687.248 59.5999C688.028 59.5999 688.723 59.7699 689.333 60.1099C689.943 60.4499 690.418 60.9299 690.758 61.5499C691.098 62.1599 691.268 62.8649 691.268 63.6649ZM689.483 63.1249C689.473 62.4949 689.248 61.9899 688.808 61.6099C688.368 61.2299 687.823 61.0399 687.173 61.0399C686.583 61.0399 686.078 61.2299 685.658 61.6099C685.238 61.9799 684.988 62.4849 684.908 63.1249H689.483Z" fill="black"/>
<path d="M695.711 68.1349C695.061 68.1349 694.476 68.0199 693.956 67.7899C693.446 67.5499 693.041 67.2299 692.741 66.8299C692.441 66.4199 692.281 65.9649 692.261 65.4649H694.031C694.061 65.8149 694.226 66.1099 694.526 66.3499C694.836 66.5799 695.221 66.6949 695.681 66.6949C696.161 66.6949 696.531 66.6049 696.791 66.4249C697.061 66.2349 697.196 65.9949 697.196 65.7049C697.196 65.3949 697.046 65.1649 696.746 65.0149C696.456 64.8649 695.991 64.6999 695.351 64.5199C694.731 64.3499 694.226 64.1849 693.836 64.0249C693.446 63.8649 693.106 63.6199 692.816 63.2899C692.536 62.9599 692.396 62.5249 692.396 61.9849C692.396 61.5449 692.526 61.1449 692.786 60.7849C693.046 60.4149 693.416 60.1249 693.896 59.9149C694.386 59.7049 694.946 59.5999 695.576 59.5999C696.516 59.5999 697.271 59.8399 697.841 60.3199C698.421 60.7899 698.731 61.4349 698.771 62.2549H697.061C697.031 61.8849 696.881 61.5899 696.611 61.3699C696.341 61.1499 695.976 61.0399 695.516 61.0399C695.066 61.0399 694.721 61.1249 694.481 61.2949C694.241 61.4649 694.121 61.6899 694.121 61.9699C694.121 62.1899 694.201 62.3749 694.361 62.5249C694.521 62.6749 694.716 62.7949 694.946 62.8849C695.176 62.9649 695.516 63.0699 695.966 63.1999C696.566 63.3599 697.056 63.5249 697.436 63.6949C697.826 63.8549 698.161 64.0949 698.441 64.4149C698.721 64.7349 698.866 65.1599 698.876 65.6899C698.876 66.1599 698.746 66.5799 698.486 66.9499C698.226 67.3199 697.856 67.6099 697.376 67.8199C696.906 68.0299 696.351 68.1349 695.711 68.1349Z" fill="black"/>
<path fill-rule="evenodd" clip-rule="evenodd" d="M665 10C665 10.338 664.981 10.6717 664.945 11H674C675.105 11 676 11.8954 676 13V19.1962L677.268 17C678.038 15.6667 679.962 15.6667 680.732 17L689.392 32C690.162 33.3333 689.2 35 687.66 35H670.34C668.8 35 667.838 33.3333 668.608 32L670.34 29H660C658.895 29 658 28.1046 658 27V18.777C657.357 18.9229 656.687 19 656 19C651.029 19 647 14.9706 647 10C647 5.0294 651.029 1 656 1C660.971 1 665 5.0294 665 10Z" fill="#A0EBF0"/>
<path d="M658 17.5C662.694 17.5 666.5 13.6944 666.5 9C666.5 4.30558 662.694 0.5 658 0.5C653.306 0.5 649.5 4.30558 649.5 9C649.5 13.6944 653.306 17.5 658 17.5Z" stroke="black"/>
<path d="M676 10.5H662C661.172 10.5 660.5 11.1716 660.5 12V26C660.5 26.8284 661.172 27.5 662 27.5H676C676.828 27.5 677.5 26.8284 677.5 26V12C677.5 11.1716 676.828 10.5 676 10.5Z" stroke="black"/>
<path d="M682.299 16.25L690.959 31.25C691.537 32.25 690.815 33.5 689.66 33.5H672.34C671.185 33.5 670.463 32.25 671.041 31.25L679.701 16.25C680.278 15.25 681.722 15.25 682.299 16.25Z" stroke="black"/>
<path d="M751.316 68.1049C750.616 68.1049 749.986 67.9849 749.426 67.7449C748.866 67.4949 748.426 67.1449 748.106 66.6949C747.786 66.2449 747.626 65.7199 747.626 65.1199H749.456C749.496 65.5699 749.671 65.9399 749.981 66.2299C750.301 66.5199 750.746 66.6649 751.316 66.6649C751.906 66.6649 752.366 66.5249 752.696 66.2449C753.026 65.9549 753.191 65.5849 753.191 65.1349C753.191 64.7849 753.086 64.4999 752.876 64.2799C752.676 64.0599 752.421 63.8899 752.111 63.7699C751.811 63.6499 751.391 63.5199 750.851 63.3799C750.171 63.1999 749.616 63.0199 749.186 62.8399C748.766 62.6499 748.406 62.3599 748.106 61.9699C747.806 61.5799 747.656 61.0599 747.656 60.4099C747.656 59.8099 747.806 59.2849 748.106 58.8349C748.406 58.3849 748.826 58.0399 749.366 57.7999C749.906 57.5599 750.531 57.4399 751.241 57.4399C752.251 57.4399 753.076 57.6949 753.716 58.2049C754.366 58.7049 754.726 59.3949 754.796 60.2749H752.906C752.876 59.8949 752.696 59.5699 752.366 59.2999C752.036 59.0299 751.601 58.8949 751.061 58.8949C750.571 58.8949 750.171 59.0199 749.861 59.2699C749.551 59.5199 749.396 59.8799 749.396 60.3499C749.396 60.6699 749.491 60.9349 749.681 61.1449C749.881 61.3449 750.131 61.5049 750.431 61.6249C750.731 61.7449 751.141 61.8749 751.661 62.0149C752.351 62.2049 752.911 62.3949 753.341 62.5849C753.781 62.7749 754.151 63.0699 754.451 63.4699C754.761 63.8599 754.916 64.3849 754.916 65.0449C754.916 65.5749 754.771 66.0749 754.481 66.5449C754.201 67.0149 753.786 67.3949 753.236 67.6849C752.696 67.9649 752.056 68.1049 751.316 68.1049Z" fill="black"/>
<path d="M760.278 68.1351C759.498 68.1351 758.793 67.9601 758.163 67.6101C757.533 67.2501 757.038 66.7501 756.678 66.1101C756.318 65.4601 756.138 64.7101 756.138 63.8601C756.138 63.0201 756.323 62.2751 756.693 61.6251C757.063 60.9751 757.568 60.4751 758.208 60.1251C758.848 59.7751 759.563 59.6001 760.353 59.6001C761.143 59.6001 761.858 59.7751 762.498 60.1251C763.138 60.4751 763.643 60.9751 764.013 61.6251C764.383 62.2751 764.568 63.0201 764.568 63.8601C764.568 64.7001 764.378 65.4451 763.998 66.0951C763.618 66.7451 763.098 67.2501 762.438 67.6101C761.788 67.9601 761.068 68.1351 760.278 68.1351ZM760.278 66.6501C760.718 66.6501 761.128 66.5451 761.508 66.3351C761.898 66.1251 762.213 65.8101 762.453 65.3901C762.693 64.9701 762.813 64.4601 762.813 63.8601C762.813 63.2601 762.698 62.7551 762.468 62.3451C762.238 61.9251 761.933 61.6101 761.553 61.4001C761.173 61.1901 760.763 61.0851 760.323 61.0851C759.883 61.0851 759.473 61.1901 759.093 61.4001C758.723 61.6101 758.428 61.9251 758.208 62.3451C757.988 62.7551 757.878 63.2601 757.878 63.8601C757.878 64.7501 758.103 65.4401 758.553 65.9301C759.013 66.4101 759.588 66.6501 760.278 66.6501Z" fill="black"/>
<path d="M765.449 63.8601C765.449 63.0101 765.619 62.2651 765.959 61.6251C766.309 60.9751 766.789 60.4751 767.399 60.1251C768.009 59.7751 768.709 59.6001 769.499 59.6001C770.499 59.6001 771.324 59.8401 771.974 60.3201C772.634 60.7901 773.079 61.4651 773.309 62.3451H771.464C771.314 61.9351 771.074 61.6151 770.744 61.3851C770.414 61.1551 769.999 61.0401 769.499 61.0401C768.799 61.0401 768.239 61.2901 767.819 61.7901C767.409 62.2801 767.204 62.9701 767.204 63.8601C767.204 64.7501 767.409 65.4451 767.819 65.9451C768.239 66.4451 768.799 66.6951 769.499 66.6951C770.489 66.6951 771.144 66.2601 771.464 65.3901H773.309C773.069 66.2301 772.619 66.9001 771.959 67.4001C771.299 67.8901 770.479 68.1351 769.499 68.1351C768.709 68.1351 768.009 67.9601 767.399 67.6101C766.789 67.2501 766.309 66.7501 765.959 66.1101C765.619 65.4601 765.449 64.7101 765.449 63.8601Z" fill="black"/>
<path d="M775.643 58.64C775.333 58.64 775.073 58.535 774.863 58.325C774.653 58.115 774.548 57.855 774.548 57.545C774.548 57.235 774.653 56.975 774.863 56.765C775.073 56.555 775.333 56.45 775.643 56.45C775.943 56.45 776.198 56.555 776.408 56.765C776.618 56.975 776.723 57.235 776.723 57.545C776.723 57.855 776.618 58.115 776.408 58.325C776.198 58.535 775.943 58.64 775.643 58.64ZM776.483 59.735V68H774.773V59.735H776.483Z" fill="black"/>
<path d="M777.918 63.8301C777.918 63.0001 778.088 62.2651 778.428 61.6251C778.778 60.9851 779.248 60.4901 779.838 60.1401C780.438 59.7801 781.098 59.6001 781.818 59.6001C782.468 59.6001 783.033 59.7301 783.513 59.9901C784.003 60.2401 784.393 60.5551 784.683 60.9351V59.7351H786.408V68.0001H784.683V66.7701C784.393 67.1601 783.998 67.4851 783.498 67.7451C782.998 68.0051 782.428 68.1351 781.788 68.1351C781.078 68.1351 780.428 67.9551 779.838 67.5951C779.248 67.2251 778.778 66.7151 778.428 66.0651C778.088 65.4051 777.918 64.6601 777.918 63.8301ZM784.683 63.8601C784.683 63.2901 784.563 62.7951 784.323 62.3751C784.093 61.9551 783.788 61.6351 783.408 61.4151C783.028 61.1951 782.618 61.0851 782.178 61.0851C781.738 61.0851 781.328 61.1951 780.948 61.4151C780.568 61.6251 780.258 61.9401 780.018 62.3601C779.788 62.7701 779.673 63.2601 779.673 63.8301C779.673 64.4001 779.788 64.9001 780.018 65.3301C780.258 65.7601 780.568 66.0901 780.948 66.3201C781.338 66.5401 781.748 66.6501 782.178 66.6501C782.618 66.6501 783.028 66.5401 783.408 66.3201C783.788 66.1001 784.093 65.7801 784.323 65.3601C784.563 64.9301 784.683 64.4301 784.683 63.8601Z" fill="black"/>
<path d="M790.124 56.8999V67.9999H788.414V56.8999H790.124Z" fill="black"/>
<path d="M782.671 25.8158C783.294 25.0431 783.593 24.2149 783.555 23.3619C783.517 22.4223 783.084 21.6868 782.728 21.2356C783.142 20.2342 783.301 18.658 781.921 17.4342C780.91 16.5379 779.193 16.1361 776.815 16.2474C775.142 16.3216 773.744 16.6245 773.686 16.6368H773.68C773.362 16.6924 773.025 16.7604 772.682 16.8346C772.656 16.439 772.726 15.4562 773.476 13.2434C774.367 10.6102 774.316 8.59525 773.311 7.24775C772.256 5.83225 770.571 5.72095 770.075 5.72095C769.598 5.72095 769.159 5.91265 768.847 6.26495C768.142 7.06235 768.224 8.53345 768.313 9.21335C767.474 11.4014 765.121 16.7666 763.131 18.2563C763.093 18.281 763.061 18.3119 763.029 18.3428C762.444 18.9424 762.05 19.5914 761.783 20.1601C761.408 19.9623 760.982 19.851 760.524 19.851H756.645C755.183 19.851 754 21.0069 754 22.4223V32.4667C754 33.8883 755.189 35.038 756.645 35.038H760.524C761.09 35.038 761.618 34.865 762.05 34.5683L763.544 34.7413C763.773 34.7722 767.843 35.2729 772.02 35.1926C772.777 35.2482 773.489 35.2791 774.15 35.2791C775.289 35.2791 776.281 35.1926 777.107 35.0195C779.053 34.6177 780.382 33.8142 781.056 32.6336C781.571 31.7311 781.571 30.8349 781.488 30.2662C782.754 29.1536 782.976 27.9235 782.932 27.0582C782.906 26.5575 782.792 26.131 782.671 25.8158Z" fill="#A7BAFF"/>
<path d="M784.113 25.0948L783.724 24.7809L783.543 25.005L783.646 25.2738L784.113 25.0948ZM784.997 22.6409L784.497 22.6612V22.6633L784.997 22.6409ZM784.17 20.5146L783.708 20.3239L783.596 20.5945L783.778 20.8244L784.17 20.5146ZM783.363 16.7132L783.694 16.3392V16.3391L783.363 16.7132ZM778.257 15.5265L778.279 16.026L778.28 16.0259L778.257 15.5265ZM775.128 15.9159V16.4159H775.182L775.234 16.4046L775.128 15.9159ZM775.122 15.9159V15.4159H775.078L775.036 15.4233L775.122 15.9159ZM774.124 16.1137L773.625 16.1457L773.662 16.7249L774.229 16.6024L774.124 16.1137ZM774.918 12.5224L775.392 12.683V12.6826L774.918 12.5224ZM774.753 6.5267L775.154 6.2279V6.2278L774.753 6.5267ZM770.289 5.5439L770.664 5.8753V5.8752L770.289 5.5439ZM769.755 8.4923L770.222 8.6714L770.267 8.5531L770.251 8.4274L769.755 8.4923ZM764.573 17.5353L764.845 17.9549L764.859 17.9457L764.872 17.9356L764.573 17.5353ZM764.471 17.6219L764.123 17.2632L764.113 17.2727L764.471 17.6219ZM763.225 19.4391L762.992 19.8814L763.455 20.1256L763.677 19.6517L763.225 19.4391ZM763.492 33.8473L763.549 33.3506L763.363 33.3291L763.209 33.435L763.492 33.8473ZM764.986 34.0204L765.053 33.5248L765.044 33.5237L764.986 34.0204ZM773.462 34.4716L773.499 33.9729L773.476 33.9713L773.453 33.9717L773.462 34.4716ZM778.549 34.2985L778.448 33.8089L778.447 33.8091L778.549 34.2985ZM782.498 31.9126L782.932 32.1605L782.498 31.9126ZM782.93 29.5452L782.6 29.1698L782.396 29.3488L782.435 29.6172L782.93 29.5452ZM784.374 26.3372L783.874 26.3626V26.3629L784.374 26.3372ZM784.502 25.4087C785.188 24.5578 785.541 23.6131 785.496 22.6186L784.497 22.6633C784.529 23.3747 784.284 24.0866 783.724 24.7809L784.502 25.4087ZM785.496 22.6206C785.452 21.5376 784.956 20.7028 784.563 20.2049L783.778 20.8244C784.097 21.2289 784.465 21.8652 784.497 22.6612L785.496 22.6206ZM784.632 20.7054C785.091 19.5939 785.294 17.7579 783.694 16.3392L783.031 17.0873C784.191 18.1163 784.076 19.4326 783.708 20.3239L784.632 20.7054ZM783.694 16.3391C782.534 15.3109 780.651 14.9139 778.233 15.027L778.28 16.0259C780.618 15.9165 782.169 16.323 783.031 17.0874L783.694 16.3391ZM778.234 15.0269C776.521 15.103 775.09 15.4126 775.023 15.4271L775.234 16.4046C775.281 16.3944 776.648 16.0983 778.279 16.026L778.234 15.0269ZM775.128 15.4159H775.122V16.4159H775.128V15.4159ZM775.036 15.4233C774.709 15.4805 774.365 15.5499 774.018 15.6249L774.229 16.6024C774.569 16.5291 774.899 16.4625 775.208 16.4084L775.036 15.4233ZM774.623 16.0816C774.603 15.7836 774.649 14.8746 775.392 12.683L774.445 12.3619C773.687 14.5959 773.593 15.6525 773.625 16.1457L774.623 16.0816ZM775.392 12.6826C776.3 9.998 776.308 7.7758 775.154 6.2279L774.352 6.8256C775.207 7.9727 775.318 9.7806 774.445 12.3623L775.392 12.6826ZM775.154 6.2278C773.949 4.6125 772.048 4.5 771.517 4.5V5.5C771.977 5.5 773.446 5.6101 774.352 6.8256L775.154 6.2278ZM771.517 4.5C770.902 4.5 770.325 4.749 769.915 5.2127L770.664 5.8752C770.877 5.6343 771.177 5.5 771.517 5.5V4.5ZM769.915 5.2125C769.46 5.7264 769.287 6.4177 769.227 7.0114C769.165 7.6163 769.212 8.196 769.259 8.5572L770.251 8.4274C770.209 8.1087 770.171 7.6129 770.222 7.113C770.274 6.6018 770.413 6.1588 770.664 5.8753L769.915 5.2125ZM769.288 8.3133C768.874 9.3938 768.084 11.2639 767.153 13.044C766.687 13.9341 766.191 14.7939 765.692 15.5183C765.189 16.2502 764.705 16.8116 764.273 17.135L764.872 17.9356C765.436 17.5142 765.993 16.8463 766.516 16.085C767.045 15.316 767.562 14.4184 768.039 13.5075C768.991 11.6856 769.797 9.779 770.222 8.6714L769.288 8.3133ZM764.301 17.1157C764.215 17.1715 764.149 17.2377 764.123 17.2633L764.82 17.9804C764.828 17.9723 764.834 17.9667 764.839 17.9616C764.844 17.9567 764.848 17.9537 764.85 17.9517C764.854 17.9477 764.852 17.9502 764.845 17.9549L764.301 17.1157ZM764.113 17.2727C763.481 17.9209 763.057 18.6197 762.772 19.2266L763.677 19.6517C763.927 19.1211 764.292 18.5219 764.829 17.971L764.113 17.2727ZM763.458 18.9968C763.012 18.7617 762.506 18.6301 761.966 18.6301V19.6301C762.341 19.6301 762.687 19.7209 762.992 19.8814L763.458 18.9968ZM761.966 18.6301H758.087V19.6301H761.966V18.6301ZM758.087 18.6301C756.361 18.6301 754.942 19.9973 754.942 21.7014H755.942C755.942 20.5745 756.888 19.6301 758.087 19.6301V18.6301ZM754.942 21.7014V31.7457H755.942V21.7014H754.942ZM754.942 31.7457C754.942 33.4575 756.369 34.8171 758.087 34.8171V33.8171C756.893 33.8171 755.942 32.8772 755.942 31.7457H754.942ZM758.087 34.8171H761.966V33.8171H758.087V34.8171ZM761.966 34.8171C762.635 34.8171 763.261 34.6124 763.775 34.2596L763.209 33.435C762.858 33.6756 762.429 33.8171 761.966 33.8171V34.8171ZM763.434 34.344L764.929 34.5171L765.044 33.5237L763.549 33.3506L763.434 34.344ZM764.919 34.5159C765.16 34.5484 769.258 35.0526 773.472 34.9715L773.453 33.9717C769.311 34.0514 765.27 33.5542 765.053 33.5249L764.919 34.5159ZM773.426 34.9703C774.191 35.0265 774.916 35.0581 775.592 35.0581V34.0581C774.946 34.0581 774.247 34.0279 773.499 33.9729L773.426 34.9703ZM775.592 35.0581C776.754 35.0581 777.782 34.97 778.652 34.7879L778.447 33.8091C777.663 33.9732 776.708 34.0581 775.592 34.0581V35.0581ZM778.65 34.7882C780.671 34.371 782.159 33.5142 782.932 32.1605L782.064 31.6647C781.488 32.6722 780.319 33.4225 778.448 33.8089L778.65 34.7882ZM782.932 32.1605C783.52 31.13 783.518 30.1106 783.425 29.4733L782.435 29.6172C782.508 30.1172 782.506 30.8904 782.064 31.6648L782.932 32.1605ZM783.26 29.9207C784.662 28.6885 784.924 27.2987 784.873 26.3116L783.874 26.3629C783.913 27.1065 783.729 28.1768 782.6 29.1698L783.26 29.9207ZM784.873 26.3119C784.844 25.7504 784.716 25.2719 784.58 24.9159L783.646 25.2738C783.751 25.5482 783.852 25.9228 783.874 26.3626L784.873 26.3119Z" fill="black"/>
<path d="M847.093 68.1049C846.393 68.1049 845.763 67.9849 845.203 67.7449C844.643 67.4949 844.203 67.1449 843.883 66.6949C843.563 66.2449 843.403 65.7199 843.403 65.1199H845.233C845.273 65.5699 845.448 65.9399 845.758 66.2299C846.078 66.5199 846.523 66.6649 847.093 66.6649C847.683 66.6649 848.143 66.5249 848.473 66.2449C848.803 65.9549 848.968 65.5849 848.968 65.1349C848.968 64.7849 848.863 64.4999 848.653 64.2799C848.453 64.0599 848.198 63.8899 847.888 63.7699C847.588 63.6499 847.168 63.5199 846.628 63.3799C845.948 63.1999 845.393 63.0199 844.963 62.8399C844.543 62.6499 844.183 62.3599 843.883 61.9699C843.583 61.5799 843.433 61.0599 843.433 60.4099C843.433 59.8099 843.583 59.2849 843.883 58.8349C844.183 58.3849 844.603 58.0399 845.143 57.7999C845.683 57.5599 846.308 57.4399 847.018 57.4399C848.028 57.4399 848.853 57.6949 849.493 58.2049C850.143 58.7049 850.503 59.3949 850.573 60.2749H848.683C848.653 59.8949 848.473 59.5699 848.143 59.2999C847.813 59.0299 847.378 58.8949 846.838 58.8949C846.348 58.8949 845.948 59.0199 845.638 59.2699C845.328 59.5199 845.173 59.8799 845.173 60.3499C845.173 60.6699 845.268 60.9349 845.458 61.1449C845.658 61.3449 845.908 61.5049 846.208 61.6249C846.508 61.7449 846.918 61.8749 847.438 62.0149C848.128 62.2049 848.688 62.3949 849.118 62.5849C849.558 62.7749 849.928 63.0699 850.228 63.4699C850.538 63.8599 850.693 64.3849 850.693 65.0449C850.693 65.5749 850.548 66.0749 850.258 66.5449C849.978 67.0149 849.563 67.3949 849.013 67.6849C848.473 67.9649 847.833 68.1049 847.093 68.1049Z" fill="black"/>
<path d="M854.18 60.9499C854.47 60.5699 854.865 60.2499 855.365 59.9899C855.865 59.7299 856.43 59.5999 857.06 59.5999C857.78 59.5999 858.435 59.7799 859.025 60.1399C859.625 60.4899 860.095 60.9849 860.435 61.6249C860.775 62.2649 860.945 62.9999 860.945 63.8299C860.945 64.6599 860.775 65.4049 860.435 66.0649C860.095 66.7149 859.625 67.2249 859.025 67.5949C858.435 67.9549 857.78 68.1349 857.06 68.1349C856.43 68.1349 855.87 68.0099 855.38 67.7599C854.89 67.4999 854.49 67.1799 854.18 66.7999V71.9299H852.47V59.7349H854.18V60.9499ZM859.205 63.8299C859.205 63.2599 859.085 62.7699 858.845 62.3599C858.615 61.9399 858.305 61.6249 857.915 61.4149C857.535 61.1949 857.125 61.0849 856.685 61.0849C856.255 61.0849 855.845 61.1949 855.455 61.4149C855.075 61.6349 854.765 61.9549 854.525 62.3749C854.295 62.7949 854.18 63.2899 854.18 63.8599C854.18 64.4299 854.295 64.9299 854.525 65.3599C854.765 65.7799 855.075 66.0999 855.455 66.3199C855.845 66.5399 856.255 66.6499 856.685 66.6499C857.125 66.6499 857.535 66.5399 857.915 66.3199C858.305 66.0899 858.615 65.7599 858.845 65.3299C859.085 64.8999 859.205 64.3999 859.205 63.8299Z" fill="black"/>
<path d="M865.981 68.1349C865.201 68.1349 864.496 67.9599 863.866 67.6099C863.236 67.2499 862.741 66.7499 862.381 66.1099C862.021 65.4599 861.841 64.7099 861.841 63.8599C861.841 63.0199 862.026 62.2749 862.396 61.6249C862.766 60.9749 863.271 60.4749 863.911 60.1249C864.551 59.7749 865.266 59.5999 866.056 59.5999C866.846 59.5999 867.561 59.7749 868.201 60.1249C868.841 60.4749 869.346 60.9749 869.716 61.6249C870.086 62.2749 870.271 63.0199 870.271 63.8599C870.271 64.6999 870.081 65.4449 869.701 66.0949C869.321 66.7449 868.801 67.2499 868.141 67.6099C867.491 67.9599 866.771 68.1349 865.981 68.1349ZM865.981 66.6499C866.421 66.6499 866.831 66.5449 867.211 66.3349C867.601 66.1249 867.916 65.8099 868.156 65.3899C868.396 64.9699 868.516 64.4599 868.516 63.8599C868.516 63.2599 868.401 62.7549 868.171 62.3449C867.941 61.9249 867.636 61.6099 867.256 61.3999C866.876 61.1899 866.466 61.0849 866.026 61.0849C865.586 61.0849 865.176 61.1899 864.796 61.3999C864.426 61.6099 864.131 61.9249 863.911 62.3449C863.691 62.7549 863.581 63.2599 863.581 63.8599C863.581 64.7499 863.806 65.4399 864.256 65.9299C864.716 66.4099 865.291 66.6499 865.981 66.6499Z" fill="black"/>
<path d="M873.432 60.9349C873.682 60.5149 874.012 60.1899 874.422 59.9599C874.842 59.7199 875.337 59.5999 875.907 59.5999V61.3699H875.472C874.802 61.3699 874.292 61.5399 873.942 61.8799C873.602 62.2199 873.432 62.8099 873.432 63.6499V67.9999H871.722V59.7349H873.432V60.9349Z" fill="black"/>
<path d="M879.234 61.1299V65.7049C879.234 66.0149 879.304 66.2399 879.444 66.3799C879.594 66.5099 879.844 66.5749 880.194 66.5749H881.244V67.9999H879.894C879.124 67.9999 878.534 67.8199 878.124 67.4599C877.714 67.0999 877.509 66.5149 877.509 65.7049V61.1299H876.534V59.7349H877.509V57.6799H879.234V59.7349H881.244V61.1299H879.234Z" fill="black"/>
<path d="M885.58 68.1349C884.93 68.1349 884.345 68.0199 883.825 67.7899C883.315 67.5499 882.91 67.2299 882.61 66.8299C882.31 66.4199 882.15 65.9649 882.13 65.4649H883.9C883.93 65.8149 884.095 66.1099 884.395 66.3499C884.705 66.5799 885.09 66.6949 885.55 66.6949C886.03 66.6949 886.4 66.6049 886.66 66.4249C886.93 66.2349 887.065 65.9949 887.065 65.7049C887.065 65.3949 886.915 65.1649 886.615 65.0149C886.325 64.8649 885.86 64.6999 885.22 64.5199C884.6 64.3499 884.095 64.1849 883.705 64.0249C883.315 63.8649 882.975 63.6199 882.685 63.2899C882.405 62.9599 882.265 62.5249 882.265 61.9849C882.265 61.5449 882.395 61.1449 882.655 60.7849C882.915 60.4149 883.285 60.1249 883.765 59.9149C884.255 59.7049 884.815 59.5999 885.445 59.5999C886.385 59.5999 887.14 59.8399 887.71 60.3199C888.29 60.7899 888.6 61.4349 888.64 62.2549H886.93C886.9 61.8849 886.75 61.5899 886.48 61.3699C886.21 61.1499 885.845 61.0399 885.385 61.0399C884.935 61.0399 884.59 61.1249 884.35 61.2949C884.11 61.4649 883.99 61.6899 883.99 61.9699C883.99 62.1899 884.07 62.3749 884.23 62.5249C884.39 62.6749 884.585 62.7949 884.815 62.8849C885.045 62.9649 885.385 63.0699 885.835 63.1999C886.435 63.3599 886.925 63.5249 887.305 63.6949C887.695 63.8549 888.03 64.0949 888.31 64.4149C888.59 64.7349 888.735 65.1599 888.745 65.6899C888.745 66.1599 888.615 66.5799 888.355 66.9499C888.095 67.3199 887.725 67.6099 887.245 67.8199C886.775 68.0299 886.22 68.1349 885.58 68.1349Z" fill="black"/>
<path d="M867.457 34.0858C876.041 34.0858 883 27.127 883 18.5429C883 9.95879 876.041 3 867.457 3C858.873 3 851.914 9.95879 851.914 18.5429C851.914 27.127 858.873 34.0858 867.457 34.0858Z" fill="#FA955C"/>
<path d="M865.514 4.94287C856.408 4.94287 849 12.3512 849 21.4572C849 30.5631 856.408 37.9714 865.514 37.9714C874.62 37.9714 882.029 30.5631 882.029 21.4572C882.029 12.3512 874.62 4.94287 865.514 4.94287ZM865.514 36.8705C857.015 36.8705 850.101 29.956 850.101 21.4572C850.101 12.9584 857.015 6.04377 865.514 6.04377C874.013 6.04377 880.928 12.9584 880.928 21.4572C880.928 29.956 874.013 36.8705 865.514 36.8705Z" fill="black"/>
<path d="M880.585 24.0518C878.069 22.8968 875.798 18.6364 875.061 13.6913C874.824 12.1001 874.751 10.5338 874.845 9.03627C874.863 8.74687 874.652 8.49357 874.374 8.47117C874.095 8.44997 873.855 8.66546 873.837 8.95496C873.739 10.5292 873.815 12.1727 874.064 13.84C874.864 19.2088 877.325 23.6989 880.187 25.0129C880.278 25.0542 880.373 25.0661 880.463 25.0527C880.629 25.0279 880.779 24.9173 880.85 24.7454C880.959 24.4801 880.841 24.169 880.585 24.0518Z" fill="black"/>
<path d="M861.414 5.57478C861.302 5.53018 861.178 5.52248 861.06 5.55548C853.96 7.54058 849 14.0796 849 21.4571C849 30.5631 856.408 37.9714 865.514 37.9714C868.23 37.9714 870.925 37.296 873.308 36.0178C873.453 35.9402 873.556 35.8014 873.588 35.6407L873.765 34.755L873.776 34.6829C874.044 32.9984 874.322 31.2573 874.322 29.439C874.322 18.2721 869.135 8.68168 861.414 5.57478ZM872.689 34.5095L872.56 35.1679C870.393 36.2826 867.963 36.8705 865.514 36.8705C857.015 36.8705 850.101 29.9559 850.101 21.4571C850.101 14.634 854.646 8.57928 861.177 6.66688C868.388 9.68248 873.221 18.8016 873.221 29.439C873.221 31.1703 872.951 32.868 872.689 34.5095Z" fill="black"/>
<path d="M880.928 16.7308C864.812 16.6025 855.308 22.0038 850.17 26.5766C849.943 26.7786 849.923 27.1265 850.125 27.3538C850.233 27.476 850.384 27.5383 850.536 27.5383C850.666 27.5383 850.797 27.492 850.901 27.399C855.895 22.955 865.163 17.7012 880.917 17.8317C880.919 17.8317 880.921 17.8317 880.922 17.8317C881.224 17.8317 881.47 17.5884 881.473 17.2862C881.476 16.9823 881.231 16.7335 880.928 16.7308Z" fill="black"/>
<path d="M853.884 11.4335C853.728 11.4335 853.574 11.4268 853.419 11.419C853.137 11.4139 852.9 11.6262 852.886 11.9122C852.873 12.1977 853.09 12.4407 853.371 12.4542C853.541 12.4625 853.712 12.4697 853.884 12.4697C860.628 12.4697 866.114 19.0931 866.114 27.2345C866.114 30.8599 865.248 34.0688 863.61 36.514C863.452 36.7508 863.512 37.073 863.745 37.2341C863.833 37.2947 863.932 37.3237 864.031 37.3237C864.194 37.3237 864.354 37.2444 864.453 37.0973C866.206 34.4791 867.133 31.0686 867.133 27.2344C867.133 18.5217 861.189 11.4335 853.884 11.4335Z" fill="black"/>
<path d="M945.156 57.575L941.241 68H939.261L935.331 57.575H937.161L940.251 66.245L943.356 57.575H945.156Z" fill="black"/>
<path d="M953.921 63.6651C953.921 63.9751 953.901 64.2551 953.861 64.5051H947.546C947.596 65.1651 947.841 65.6951 948.281 66.0951C948.721 66.4951 949.261 66.6951 949.901 66.6951C950.821 66.6951 951.471 66.3101 951.851 65.5401H953.696C953.446 66.3001 952.991 66.9251 952.331 67.4151C951.681 67.8951 950.871 68.1351 949.901 68.1351C949.111 68.1351 948.401 67.9601 947.771 67.6101C947.151 67.2501 946.661 66.7501 946.301 66.1101C945.951 65.4601 945.776 64.7101 945.776 63.8601C945.776 63.0101 945.946 62.2651 946.286 61.6251C946.636 60.9751 947.121 60.4751 947.741 60.1251C948.371 59.7751 949.091 59.6001 949.901 59.6001C950.681 59.6001 951.376 59.7701 951.986 60.1101C952.596 60.4501 953.071 60.9301 953.411 61.5501C953.751 62.1601 953.921 62.8651 953.921 63.6651ZM952.136 63.1251C952.126 62.4951 951.901 61.9901 951.461 61.6101C951.021 61.2301 950.476 61.0401 949.826 61.0401C949.236 61.0401 948.731 61.2301 948.311 61.6101C947.891 61.9801 947.641 62.4851 947.561 63.1251H952.136Z" fill="black"/>
<path d="M959.638 59.5999C960.268 59.5999 960.828 59.7349 961.318 60.0049C961.818 60.2749 962.208 60.6749 962.488 61.2049C962.778 61.7349 962.923 62.3749 962.923 63.1249V67.9999H961.228V63.3799C961.228 62.6399 961.043 62.0749 960.673 61.6849C960.303 61.2849 959.798 61.0849 959.158 61.0849C958.518 61.0849 958.008 61.2849 957.628 61.6849C957.258 62.0749 957.073 62.6399 957.073 63.3799V67.9999H955.363V56.8999H957.073V60.6949C957.363 60.3449 957.728 60.0749 958.168 59.8849C958.618 59.6949 959.108 59.5999 959.638 59.5999Z" fill="black"/>
<path d="M965.735 58.64C965.425 58.64 965.165 58.535 964.955 58.325C964.745 58.115 964.64 57.855 964.64 57.545C964.64 57.235 964.745 56.975 964.955 56.765C965.165 56.555 965.425 56.45 965.735 56.45C966.035 56.45 966.29 56.555 966.5 56.765C966.71 56.975 966.815 57.235 966.815 57.545C966.815 57.855 966.71 58.115 966.5 58.325C966.29 58.535 966.035 58.64 965.735 58.64ZM966.575 59.735V68H964.865V59.735H966.575Z" fill="black"/>
<path d="M968.01 63.8601C968.01 63.0101 968.18 62.2651 968.52 61.6251C968.87 60.9751 969.35 60.4751 969.96 60.1251C970.57 59.7751 971.27 59.6001 972.06 59.6001C973.06 59.6001 973.885 59.8401 974.535 60.3201C975.195 60.7901 975.64 61.4651 975.87 62.3451H974.025C973.875 61.9351 973.635 61.6151 973.305 61.3851C972.975 61.1551 972.56 61.0401 972.06 61.0401C971.36 61.0401 970.8 61.2901 970.38 61.7901C969.97 62.2801 969.765 62.9701 969.765 63.8601C969.765 64.7501 969.97 65.4451 970.38 65.9451C970.8 66.4451 971.36 66.6951 972.06 66.6951C973.05 66.6951 973.705 66.2601 974.025 65.3901H975.87C975.63 66.2301 975.18 66.9001 974.52 67.4001C973.86 67.8901 973.04 68.1351 972.06 68.1351C971.27 68.1351 970.57 67.9601 969.96 67.6101C969.35 67.2501 968.87 66.7501 968.52 66.1101C968.18 65.4601 968.01 64.7101 968.01 63.8601Z" fill="black"/>
<path d="M979.044 56.8999V67.9999H977.334V56.8999H979.044Z" fill="black"/>
<path d="M988.624 63.6651C988.624 63.9751 988.604 64.2551 988.564 64.5051H982.249C982.299 65.1651 982.544 65.6951 982.984 66.0951C983.424 66.4951 983.964 66.6951 984.604 66.6951C985.524 66.6951 986.174 66.3101 986.554 65.5401H988.399C988.149 66.3001 987.694 66.9251 987.034 67.4151C986.384 67.8951 985.574 68.1351 984.604 68.1351C983.814 68.1351 983.104 67.9601 982.474 67.6101C981.854 67.2501 981.364 66.7501 981.004 66.1101C980.654 65.4601 980.479 64.7101 980.479 63.8601C980.479 63.0101 980.649 62.2651 980.989 61.6251C981.339 60.9751 981.824 60.4751 982.444 60.1251C983.074 59.7751 983.794 59.6001 984.604 59.6001C985.384 59.6001 986.079 59.7701 986.689 60.1101C987.299 60.4501 987.774 60.9301 988.114 61.5501C988.454 62.1601 988.624 62.8651 988.624 63.6651ZM986.839 63.1251C986.829 62.4951 986.604 61.9901 986.164 61.6101C985.724 61.2301 985.179 61.0401 984.529 61.0401C983.939 61.0401 983.434 61.2301 983.014 61.6101C982.594 61.9801 982.344 62.4851 982.264 63.1251H986.839Z" fill="black"/>
<path d="M993.067 68.1351C992.417 68.1351 991.832 68.0201 991.312 67.7901C990.802 67.5501 990.397 67.2301 990.097 66.8301C989.797 66.4201 989.637 65.9651 989.617 65.4651H991.387C991.417 65.8151 991.582 66.1101 991.882 66.3501C992.192 66.5801 992.577 66.6951 993.037 66.6951C993.517 66.6951 993.887 66.6051 994.147 66.4251C994.417 66.2351 994.552 65.9951 994.552 65.7051C994.552 65.3951 994.402 65.1651 994.102 65.0151C993.812 64.8651 993.347 64.7001 992.707 64.5201C992.087 64.3501 991.582 64.1851 991.192 64.0251C990.802 63.8651 990.462 63.6201 990.172 63.2901C989.892 62.9601 989.752 62.5251 989.752 61.9851C989.752 61.5451 989.882 61.1451 990.142 60.7851C990.402 60.4151 990.772 60.1251 991.252 59.9151C991.742 59.7051 992.302 59.6001 992.932 59.6001C993.872 59.6001 994.627 59.8401 995.197 60.3201C995.777 60.7901 996.087 61.4351 996.127 62.2551H994.417C994.387 61.8851 994.237 61.5901 993.967 61.3701C993.697 61.1501 993.332 61.0401 992.872 61.0401C992.422 61.0401 992.077 61.1251 991.837 61.2951C991.597 61.4651 991.477 61.6901 991.477 61.9701C991.477 62.1901 991.557 62.3751 991.717 62.5251C991.877 62.6751 992.072 62.7951 992.302 62.8851C992.532 62.9651 992.872 63.0701 993.322 63.2001C993.922 63.3601 994.412 63.5251 994.792 63.6951C995.182 63.8551 995.517 64.0951 995.797 64.4151C996.077 64.7351 996.222 65.1601 996.232 65.6901C996.232 66.1601 996.102 66.5801 995.842 66.9501C995.582 67.3201 995.212 67.6101 994.732 67.8201C994.262 68.0301 993.707 68.1351 993.067 68.1351Z" fill="black"/>
<path d="M980.663 17.712L984.335 19.3888C985.787 20.0539 986.724 21.5152 986.714 23.1171V26.1616C986.714 28.4192 984.916 30.2834 982.658 30.2834H981.534H971.464H955.726H945.656H945.056C942.799 30.2834 941 28.4192 941 26.1616V23.4918C941 21.6558 942.227 20.0352 943.998 19.548L950.977 17.637L955.164 12.1569C956.138 10.8829 957.656 10.1429 959.258 10.1429H973.066C974.836 10.1335 976.485 11.0422 977.421 12.541L980.663 17.712Z" fill="#F58684"/>
<path d="M987.117 25.5188H987.126V24.5188H987.117V25.5188ZM982.525 16.8347L982.604 16.9617L982.741 17.024L986.412 18.7005C986.412 18.7006 986.412 18.7006 986.413 18.7007C987.686 19.2843 988.508 20.5669 988.5 21.9714V21.9743V25.0188C988.5 27.0108 986.915 28.6406 984.944 28.6406H983.82H973.749H958.012H947.941H947.342C945.371 28.6406 943.786 27.0108 943.786 25.0188V22.349C943.786 20.7367 944.864 19.3147 946.415 18.8875C946.416 18.8874 946.416 18.8874 946.416 18.8873L953.394 16.9765L953.557 16.9319L953.66 16.7978L957.847 11.3178V11.3177C958.725 10.1691 960.095 9.50007 961.543 9.50007H975.351H975.354C976.951 9.49157 978.438 10.3114 979.283 11.6632V11.6637L982.525 16.8347Z" stroke="black"/>
<path d="M954.022 16.8479H977.022" stroke="black" stroke-linecap="round" stroke-linejoin="round"/>
<path d="M965.543 16.8478V11.5869" stroke="black" stroke-linecap="round" stroke-linejoin="round"/>
<path d="M978.714 32.5C980.963 32.5 982.785 30.6772 982.785 28.4286C982.785 26.18 980.963 24.3572 978.714 24.3572C976.465 24.3572 974.643 26.18 974.643 28.4286C974.643 30.6772 976.465 32.5 978.714 32.5Z" fill="white" stroke="black"/>
<path d="M953.571 32.5C955.82 32.5 957.642 30.6772 957.642 28.4286C957.642 26.18 955.82 24.3572 953.571 24.3572C951.322 24.3572 949.5 26.18 949.5 28.4286C949.5 30.6772 951.322 32.5 953.571 32.5Z" fill="white" stroke="black"/>
<path d="M7.06821 65.8698H2.70321L1.95321 67.9998H0.168213L3.90321 57.5598H5.88321L9.61821 67.9998H7.81821L7.06821 65.8698ZM6.58821 64.4748L4.89321 59.6298L3.18321 64.4748H6.58821Z" fill="black"/>
<path d="M10.4321 63.8299C10.4321 62.9999 10.6021 62.2649 10.9421 61.6249C11.2921 60.9849 11.7621 60.4899 12.3521 60.1399C12.9521 59.7799 13.6171 59.5999 14.3471 59.5999C14.8871 59.5999 15.4171 59.7199 15.9371 59.9599C16.4671 60.1899 16.8871 60.4999 17.1971 60.8899V56.8999H18.9221V67.9999H17.1971V66.7549C16.9171 67.1549 16.5271 67.4849 16.0271 67.7449C15.5371 68.0049 14.9721 68.1349 14.3321 68.1349C13.6121 68.1349 12.9521 67.9549 12.3521 67.5949C11.7621 67.2249 11.2921 66.7149 10.9421 66.0649C10.6021 65.4049 10.4321 64.6599 10.4321 63.8299ZM17.1971 63.8599C17.1971 63.2899 17.0771 62.7949 16.8371 62.3749C16.6071 61.9549 16.3021 61.6349 15.9221 61.4149C15.5421 61.1949 15.1321 61.0849 14.6921 61.0849C14.2521 61.0849 13.8421 61.1949 13.4621 61.4149C13.0821 61.6249 12.7721 61.9399 12.5321 62.3599C12.3021 62.7699 12.1871 63.2599 12.1871 63.8299C12.1871 64.3999 12.3021 64.8999 12.5321 65.3299C12.7721 65.7599 13.0821 66.0899 13.4621 66.3199C13.8521 66.5399 14.2621 66.6499 14.6921 66.6499C15.1321 66.6499 15.5421 66.5399 15.9221 66.3199C16.3021 66.0999 16.6071 65.7799 16.8371 65.3599C17.0771 64.9299 17.1971 64.4299 17.1971 63.8599Z" fill="black"/>
<path d="M24.1231 66.4699L26.4631 59.7349H28.2781L25.1281 67.9999H23.0881L19.9531 59.7349H21.7831L24.1231 66.4699Z" fill="black"/>
<path d="M36.9057 63.6649C36.9057 63.9749 36.8857 64.2549 36.8457 64.5049H30.5307C30.5807 65.1649 30.8257 65.6949 31.2657 66.0949C31.7057 66.4949 32.2457 66.6949 32.8857 66.6949C33.8057 66.6949 34.4557 66.3099 34.8357 65.5399H36.6807C36.4307 66.2999 35.9757 66.9249 35.3157 67.4149C34.6657 67.8949 33.8557 68.1349 32.8857 68.1349C32.0957 68.1349 31.3857 67.9599 30.7557 67.6099C30.1357 67.2499 29.6457 66.7499 29.2857 66.1099C28.9357 65.4599 28.7607 64.7099 28.7607 63.8599C28.7607 63.0099 28.9307 62.2649 29.2707 61.6249C29.6207 60.9749 30.1057 60.4749 30.7257 60.1249C31.3557 59.7749 32.0757 59.5999 32.8857 59.5999C33.6657 59.5999 34.3607 59.7699 34.9707 60.1099C35.5807 60.4499 36.0557 60.9299 36.3957 61.5499C36.7357 62.1599 36.9057 62.8649 36.9057 63.6649ZM35.1207 63.1249C35.1107 62.4949 34.8857 61.9899 34.4457 61.6099C34.0057 61.2299 33.4607 61.0399 32.8107 61.0399C32.2207 61.0399 31.7157 61.2299 31.2957 61.6099C30.8757 61.9799 30.6257 62.4849 30.5457 63.1249H35.1207Z" fill="black"/>
<path d="M42.5186 59.5999C43.1686 59.5999 43.7486 59.7349 44.2586 60.0049C44.7786 60.2749 45.1836 60.6749 45.4736 61.2049C45.7636 61.7349 45.9086 62.3749 45.9086 63.1249V67.9999H44.2136V63.3799C44.2136 62.6399 44.0286 62.0749 43.6586 61.6849C43.2886 61.2849 42.7836 61.0849 42.1436 61.0849C41.5036 61.0849 40.9936 61.2849 40.6136 61.6849C40.2436 62.0749 40.0586 62.6399 40.0586 63.3799V67.9999H38.3486V59.7349H40.0586V60.6799C40.3386 60.3399 40.6936 60.0749 41.1236 59.8849C41.5636 59.6949 42.0286 59.5999 42.5186 59.5999Z" fill="black"/>
<path d="M49.8448 61.1299V65.7049C49.8448 66.0149 49.9148 66.2399 50.0548 66.3799C50.2048 66.5099 50.4548 66.5749 50.8048 66.5749H51.8548V67.9999H50.5048C49.7348 67.9999 49.1448 67.8199 48.7348 67.4599C48.3248 67.0999 48.1198 66.5149 48.1198 65.7049V61.1299H47.1448V59.7349H48.1198V57.6799H49.8448V59.7349H51.8548V61.1299H49.8448Z" fill="black"/>
<path d="M60.676 59.7349V67.9999H58.966V67.0249C58.696 67.3649 58.341 67.6349 57.901 67.8349C57.471 68.0249 57.011 68.1199 56.521 68.1199C55.871 68.1199 55.286 67.9849 54.766 67.7149C54.256 67.4449 53.851 67.0449 53.551 66.5149C53.261 65.9849 53.116 65.3449 53.116 64.5949V59.7349H54.811V64.3399C54.811 65.0799 54.996 65.6499 55.366 66.0499C55.736 66.4399 56.241 66.6349 56.881 66.6349C57.521 66.6349 58.026 66.4399 58.396 66.0499C58.776 65.6499 58.966 65.0799 58.966 64.3399V59.7349H60.676Z" fill="black"/>
<path d="M64.4021 60.9349C64.6521 60.5149 64.9821 60.1899 65.3921 59.9599C65.8121 59.7199 66.3071 59.5999 66.8771 59.5999V61.3699H66.4421C65.7721 61.3699 65.2621 61.5399 64.9121 61.8799C64.5721 62.2199 64.4021 62.8099 64.4021 63.6499V67.9999H62.6921V59.7349H64.4021V60.9349Z" fill="black"/>
<path d="M75.7839 63.6649C75.7839 63.9749 75.7639 64.2549 75.7239 64.5049H69.4089C69.4589 65.1649 69.7039 65.6949 70.1439 66.0949C70.5839 66.4949 71.1239 66.6949 71.7639 66.6949C72.6839 66.6949 73.3339 66.3099 73.7139 65.5399H75.5589C75.3089 66.2999 74.8539 66.9249 74.1939 67.4149C73.5439 67.8949 72.7339 68.1349 71.7639 68.1349C70.9739 68.1349 70.2639 67.9599 69.6339 67.6099C69.0139 67.2499 68.5239 66.7499 68.1639 66.1099C67.8139 65.4599 67.6389 64.7099 67.6389 63.8599C67.6389 63.0099 67.8089 62.2649 68.1489 61.6249C68.4989 60.9749 68.9839 60.4749 69.6039 60.1249C70.2339 59.7749 70.9539 59.5999 71.7639 59.5999C72.5439 59.5999 73.2389 59.7699 73.8489 60.1099C74.4589 60.4499 74.9339 60.9299 75.2739 61.5499C75.6139 62.1599 75.7839 62.8649 75.7839 63.6649ZM73.9989 63.1249C73.9889 62.4949 73.7639 61.9899 73.3239 61.6099C72.8839 61.2299 72.3389 61.0399 71.6889 61.0399C71.0989 61.0399 70.5939 61.2299 70.1739 61.6099C69.7539 61.9799 69.5039 62.4849 69.4239 63.1249H73.9989Z" fill="black"/>
<path d="M39.4577 37.0001C48.0418 37.0001 55.0006 30.0413 55.0006 21.4572C55.0006 12.8731 48.0418 5.91431 39.4577 5.91431C30.8736 5.91431 23.9148 12.8731 23.9148 21.4572C23.9148 30.0413 30.8736 37.0001 39.4577 37.0001Z" fill="#9CE8C8"/>
<path d="M37.5148 35.3626C46.2676 35.3626 53.3631 28.2671 53.3631 19.5143C53.3631 10.7615 46.2676 3.66602 37.5148 3.66602C28.762 3.66602 21.6665 10.7615 21.6665 19.5143C21.6665 28.2671 28.762 35.3626 37.5148 35.3626Z" stroke="black"/>
<path d="M30.2285 26.7726L34.5938 16.595L44.7714 12.2297L40.1826 22.1838L30.2285 26.7726Z" stroke="black"/>
<path d="M34.5562 16.2056L40.3399 21.9894" stroke="black"/>
</svg>
