<svg width="855" height="86" viewBox="0 0 855 86" fill="none" xmlns="http://www.w3.org/2000/svg">
<path d="M15.5101 76.9881C16.0607 77.0908 16.5134 77.3661 16.8681 77.8141C17.2227 78.2621 17.4001 78.7755 17.4001 79.3541C17.4001 79.8768 17.2694 80.3388 17.0081 80.7401C16.7561 81.1321 16.3874 81.4401 15.9021 81.6641C15.4167 81.8881 14.8427 82.0001 14.1801 82.0001H9.96606V72.2281H13.9981C14.6607 72.2281 15.2301 72.3355 15.7061 72.5501C16.1914 72.7648 16.5554 73.0635 16.7981 73.4461C17.0501 73.8288 17.1761 74.2628 17.1761 74.7481C17.1761 75.3175 17.0221 75.7935 16.7141 76.1761C16.4154 76.5588 16.0141 76.8295 15.5101 76.9881ZM11.9261 76.2601H13.7181C14.1847 76.2601 14.5441 76.1575 14.7961 75.9521C15.0481 75.7375 15.1741 75.4341 15.1741 75.0421C15.1741 74.6501 15.0481 74.3468 14.7961 74.1321C14.5441 73.9175 14.1847 73.8101 13.7181 73.8101H11.9261V76.2601ZM13.9001 80.4041C14.3761 80.4041 14.7447 80.2921 15.0061 80.0681C15.2767 79.8441 15.4121 79.5268 15.4121 79.1161C15.4121 78.6961 15.2721 78.3695 14.9921 78.1361C14.7121 77.8935 14.3341 77.7721 13.8581 77.7721H11.9261V80.4041H13.9001Z" fill="black"/>
<path d="M22.4062 82.1261C21.6595 82.1261 20.9875 81.9628 20.3902 81.6361C19.7928 81.3001 19.3215 80.8288 18.9762 80.2221C18.6402 79.6155 18.4722 78.9155 18.4722 78.1221C18.4722 77.3288 18.6448 76.6288 18.9902 76.0221C19.3448 75.4155 19.8255 74.9488 20.4322 74.6221C21.0388 74.2861 21.7155 74.1181 22.4622 74.1181C23.2088 74.1181 23.8855 74.2861 24.4922 74.6221C25.0988 74.9488 25.5748 75.4155 25.9202 76.0221C26.2748 76.6288 26.4522 77.3288 26.4522 78.1221C26.4522 78.9155 26.2702 79.6155 25.9062 80.2221C25.5515 80.8288 25.0662 81.3001 24.4502 81.6361C23.8435 81.9628 23.1622 82.1261 22.4062 82.1261ZM22.4062 80.4181C22.7608 80.4181 23.0922 80.3341 23.4002 80.1661C23.7175 79.9888 23.9695 79.7275 24.1562 79.3821C24.3428 79.0368 24.4362 78.6168 24.4362 78.1221C24.4362 77.3848 24.2402 76.8201 23.8482 76.4281C23.4655 76.0268 22.9942 75.8261 22.4342 75.8261C21.8742 75.8261 21.4028 76.0268 21.0202 76.4281C20.6468 76.8201 20.4602 77.3848 20.4602 78.1221C20.4602 78.8595 20.6422 79.4288 21.0062 79.8301C21.3795 80.2221 21.8462 80.4181 22.4062 80.4181Z" fill="black"/>
<path d="M31.3339 82.1261C30.5872 82.1261 29.9152 81.9628 29.3179 81.6361C28.7206 81.3001 28.2492 80.8288 27.9039 80.2221C27.5679 79.6155 27.3999 78.9155 27.3999 78.1221C27.3999 77.3288 27.5726 76.6288 27.9179 76.0221C28.2726 75.4155 28.7532 74.9488 29.3599 74.6221C29.9666 74.2861 30.6432 74.1181 31.3899 74.1181C32.1366 74.1181 32.8132 74.2861 33.4199 74.6221C34.0266 74.9488 34.5026 75.4155 34.8479 76.0221C35.2026 76.6288 35.3799 77.3288 35.3799 78.1221C35.3799 78.9155 35.1979 79.6155 34.8339 80.2221C34.4792 80.8288 33.9939 81.3001 33.3779 81.6361C32.7712 81.9628 32.0899 82.1261 31.3339 82.1261ZM31.3339 80.4181C31.6886 80.4181 32.0199 80.3341 32.3279 80.1661C32.6452 79.9888 32.8972 79.7275 33.0839 79.3821C33.2706 79.0368 33.3639 78.6168 33.3639 78.1221C33.3639 77.3848 33.1679 76.8201 32.7759 76.4281C32.3932 76.0268 31.9219 75.8261 31.3619 75.8261C30.8019 75.8261 30.3306 76.0268 29.9479 76.4281C29.5746 76.8201 29.3879 77.3848 29.3879 78.1221C29.3879 78.8595 29.5699 79.4288 29.9339 79.8301C30.3072 80.2221 30.7739 80.4181 31.3339 80.4181Z" fill="black"/>
<path d="M41.4096 82.0001L38.7776 78.6961V82.0001H36.8176V71.6401H38.7776V77.5341L41.3816 74.2441H43.9296L40.5136 78.1361L43.9576 82.0001H41.4096Z" fill="black"/>
<path d="M47.9614 82.1261C47.3267 82.1261 46.7574 82.0141 46.2534 81.7901C45.7494 81.5568 45.3481 81.2441 45.0494 80.8521C44.7601 80.4601 44.6014 80.0261 44.5734 79.5501H46.5474C46.5847 79.8488 46.7294 80.0961 46.9814 80.2921C47.2427 80.4881 47.5647 80.5861 47.9474 80.5861C48.3207 80.5861 48.6101 80.5115 48.8154 80.3621C49.0301 80.2128 49.1374 80.0215 49.1374 79.7881C49.1374 79.5361 49.0067 79.3495 48.7454 79.2281C48.4934 79.0975 48.0874 78.9575 47.5274 78.8081C46.9487 78.6681 46.4727 78.5235 46.0994 78.3741C45.7354 78.2248 45.4181 77.9961 45.1474 77.6881C44.8861 77.3801 44.7554 76.9648 44.7554 76.4421C44.7554 76.0128 44.8767 75.6208 45.1194 75.2661C45.3714 74.9115 45.7261 74.6315 46.1834 74.4261C46.6501 74.2208 47.1961 74.1181 47.8214 74.1181C48.7454 74.1181 49.4827 74.3515 50.0334 74.8181C50.5841 75.2755 50.8874 75.8961 50.9434 76.6801H49.0674C49.0394 76.3721 48.9087 76.1295 48.6754 75.9521C48.4514 75.7655 48.1481 75.6721 47.7654 75.6721C47.4107 75.6721 47.1354 75.7375 46.9394 75.8681C46.7527 75.9988 46.6594 76.1808 46.6594 76.4141C46.6594 76.6755 46.7901 76.8761 47.0514 77.0161C47.3127 77.1468 47.7187 77.2821 48.2694 77.4221C48.8294 77.5621 49.2914 77.7068 49.6554 77.8561C50.0194 78.0055 50.3321 78.2388 50.5934 78.5561C50.8641 78.8641 51.0041 79.2748 51.0134 79.7881C51.0134 80.2361 50.8874 80.6375 50.6354 80.9921C50.3927 81.3468 50.0381 81.6268 49.5714 81.8321C49.1141 82.0281 48.5774 82.1261 47.9614 82.1261Z" fill="black"/>
<circle cx="30" cy="30" r="30" fill="white"/>
<path d="M20 20.25C20 18.0409 21.7909 16.25 24 16.25H39C39.5523 16.25 40 16.6977 40 17.25V44.7237C40 45.276 39.5523 45.7237 39 45.7237H24C21.7909 45.7237 20 43.9328 20 41.7237V20.25Z" stroke="#34BB81" stroke-width="1.5"/>
<path d="M40 38.3555H23C21.3431 38.3555 20 39.6986 20 41.3555V41.5132" stroke="#34BB81" stroke-width="1.5"/>
<line x1="40" y1="40.9604" x2="30.5263" y2="40.9604" stroke="#34BB81" stroke-linejoin="round"/>
<line x1="40" y1="43.0664" x2="32.6316" y2="43.0664" stroke="#34BB81" stroke-linejoin="round"/>
<path d="M101.926 73.8099V76.2599H105.216V77.8139H101.926V80.4039H105.636V81.9999H99.9661V72.2139H105.636V73.8099H101.926Z" fill="black"/>
<path d="M109.377 71.6399V81.9999H107.417V71.6399H109.377Z" fill="black"/>
<path d="M118.524 77.9539C118.524 78.2339 118.505 78.4859 118.468 78.7099H112.798C112.844 79.2699 113.04 79.7086 113.386 80.0259C113.731 80.3433 114.156 80.5019 114.66 80.5019C115.388 80.5019 115.906 80.1893 116.214 79.5639H118.328C118.104 80.3106 117.674 80.9266 117.04 81.4119C116.405 81.8879 115.626 82.1259 114.702 82.1259C113.955 82.1259 113.283 81.9626 112.686 81.6359C112.098 81.2999 111.636 80.8286 111.3 80.2219C110.973 79.6153 110.81 78.9153 110.81 78.1219C110.81 77.3193 110.973 76.6146 111.3 76.0079C111.626 75.4013 112.084 74.9346 112.672 74.6079C113.26 74.2813 113.936 74.1179 114.702 74.1179C115.439 74.1179 116.097 74.2766 116.676 74.5939C117.264 74.9113 117.716 75.3639 118.034 75.9519C118.36 76.5306 118.524 77.1979 118.524 77.9539ZM116.494 77.3939C116.484 76.8899 116.302 76.4886 115.948 76.1899C115.593 75.8819 115.159 75.7279 114.646 75.7279C114.16 75.7279 113.75 75.8773 113.414 76.1759C113.087 76.4653 112.886 76.8713 112.812 77.3939H116.494Z" fill="black"/>
<path d="M119.45 78.1219C119.45 77.3193 119.614 76.6193 119.94 76.0219C120.267 75.4153 120.72 74.9486 121.298 74.6219C121.877 74.2859 122.54 74.1179 123.286 74.1179C124.248 74.1179 125.041 74.3606 125.666 74.8459C126.301 75.3219 126.726 75.9939 126.94 76.8619H124.826C124.714 76.5259 124.523 76.2646 124.252 76.0779C123.991 75.8819 123.664 75.7839 123.272 75.7839C122.712 75.7839 122.269 75.9893 121.942 76.3999C121.616 76.8013 121.452 77.3753 121.452 78.1219C121.452 78.8593 121.616 79.4333 121.942 79.8439C122.269 80.2453 122.712 80.4459 123.272 80.4459C124.066 80.4459 124.584 80.0913 124.826 79.3819H126.94C126.726 80.2219 126.301 80.8893 125.666 81.3839C125.032 81.8786 124.238 82.1259 123.286 82.1259C122.54 82.1259 121.877 81.9626 121.298 81.6359C120.72 81.2999 120.267 80.8333 119.94 80.2359C119.614 79.6293 119.45 78.9246 119.45 78.1219Z" fill="black"/>
<path d="M130.658 75.8539V79.6059C130.658 79.8673 130.719 80.0586 130.84 80.1799C130.971 80.2919 131.186 80.3479 131.484 80.3479H132.394V81.9999H131.162C129.51 81.9999 128.684 81.1973 128.684 79.5919V75.8539H127.76V74.2439H128.684V72.3259H130.658V74.2439H132.394V75.8539H130.658Z" fill="black"/>
<path d="M135.764 75.4479C136.016 75.0373 136.343 74.7153 136.744 74.4819C137.155 74.2486 137.621 74.1319 138.144 74.1319V76.1899H137.626C137.01 76.1899 136.543 76.3346 136.226 76.6239C135.918 76.9133 135.764 77.4173 135.764 78.1359V81.9999H133.804V74.2439H135.764V75.4479Z" fill="black"/>
<path d="M142.908 82.1259C142.161 82.1259 141.489 81.9626 140.892 81.6359C140.295 81.2999 139.823 80.8286 139.478 80.2219C139.142 79.6153 138.974 78.9153 138.974 78.1219C138.974 77.3286 139.147 76.6286 139.492 76.0219C139.847 75.4153 140.327 74.9486 140.934 74.6219C141.541 74.2859 142.217 74.1179 142.964 74.1179C143.711 74.1179 144.387 74.2859 144.994 74.6219C145.601 74.9486 146.077 75.4153 146.422 76.0219C146.777 76.6286 146.954 77.3286 146.954 78.1219C146.954 78.9153 146.772 79.6153 146.408 80.2219C146.053 80.8286 145.568 81.2999 144.952 81.6359C144.345 81.9626 143.664 82.1259 142.908 82.1259ZM142.908 80.4179C143.263 80.4179 143.594 80.3339 143.902 80.1659C144.219 79.9886 144.471 79.7273 144.658 79.3819C144.845 79.0366 144.938 78.6166 144.938 78.1219C144.938 77.3846 144.742 76.8199 144.35 76.4279C143.967 76.0266 143.496 75.8259 142.936 75.8259C142.376 75.8259 141.905 76.0266 141.522 76.4279C141.149 76.8199 140.962 77.3846 140.962 78.1219C140.962 78.8593 141.144 79.4286 141.508 79.8299C141.881 80.2219 142.348 80.4179 142.908 80.4179Z" fill="black"/>
<path d="M152.69 74.1319C153.614 74.1319 154.361 74.4259 154.93 75.0139C155.499 75.5926 155.784 76.4046 155.784 77.4499V81.9999H153.824V77.7159C153.824 77.0999 153.67 76.6286 153.362 76.3019C153.054 75.9659 152.634 75.7979 152.102 75.7979C151.561 75.7979 151.131 75.9659 150.814 76.3019C150.506 76.6286 150.352 77.0999 150.352 77.7159V81.9999H148.392V74.2439H150.352V75.2099C150.613 74.8739 150.945 74.6126 151.346 74.4259C151.757 74.2299 152.205 74.1319 152.69 74.1319Z" fill="black"/>
<path d="M158.642 73.3199C158.296 73.3199 158.007 73.2126 157.774 72.9979C157.55 72.7739 157.438 72.4986 157.438 72.1719C157.438 71.8453 157.55 71.5746 157.774 71.3599C158.007 71.1359 158.296 71.0239 158.642 71.0239C158.987 71.0239 159.272 71.1359 159.496 71.3599C159.729 71.5746 159.846 71.8453 159.846 72.1719C159.846 72.4986 159.729 72.7739 159.496 72.9979C159.272 73.2126 158.987 73.3199 158.642 73.3199ZM159.608 74.2439V81.9999H157.648V74.2439H159.608Z" fill="black"/>
<path d="M161.04 78.1219C161.04 77.3193 161.204 76.6193 161.53 76.0219C161.857 75.4153 162.31 74.9486 162.888 74.6219C163.467 74.2859 164.13 74.1179 164.876 74.1179C165.838 74.1179 166.631 74.3606 167.256 74.8459C167.891 75.3219 168.316 75.9939 168.53 76.8619H166.416C166.304 76.5259 166.113 76.2646 165.842 76.0779C165.581 75.8819 165.254 75.7839 164.862 75.7839C164.302 75.7839 163.859 75.9893 163.532 76.3999C163.206 76.8013 163.042 77.3753 163.042 78.1219C163.042 78.8593 163.206 79.4333 163.532 79.8439C163.859 80.2453 164.302 80.4459 164.862 80.4459C165.656 80.4459 166.174 80.0913 166.416 79.3819H168.53C168.316 80.2219 167.891 80.8893 167.256 81.3839C166.622 81.8786 165.828 82.1259 164.876 82.1259C164.13 82.1259 163.467 81.9626 162.888 81.6359C162.31 81.2999 161.857 80.8333 161.53 80.2359C161.204 79.6293 161.04 78.9246 161.04 78.1219Z" fill="black"/>
<path d="M172.934 82.1259C172.299 82.1259 171.73 82.0139 171.226 81.7899C170.722 81.5566 170.321 81.2439 170.022 80.8519C169.733 80.4599 169.574 80.0259 169.546 79.5499H171.52C171.557 79.8486 171.702 80.0959 171.954 80.2919C172.215 80.4879 172.537 80.5859 172.92 80.5859C173.293 80.5859 173.583 80.5113 173.788 80.3619C174.003 80.2126 174.11 80.0213 174.11 79.7879C174.11 79.5359 173.979 79.3493 173.718 79.2279C173.466 79.0973 173.06 78.9573 172.5 78.8079C171.921 78.6679 171.445 78.5233 171.072 78.3739C170.708 78.2246 170.391 77.9959 170.12 77.6879C169.859 77.3799 169.728 76.9646 169.728 76.4419C169.728 76.0126 169.849 75.6206 170.092 75.2659C170.344 74.9113 170.699 74.6313 171.156 74.4259C171.623 74.2206 172.169 74.1179 172.794 74.1179C173.718 74.1179 174.455 74.3513 175.006 74.8179C175.557 75.2753 175.86 75.8959 175.916 76.6799H174.04C174.012 76.3719 173.881 76.1293 173.648 75.9519C173.424 75.7653 173.121 75.6719 172.738 75.6719C172.383 75.6719 172.108 75.7373 171.912 75.8679C171.725 75.9986 171.632 76.1806 171.632 76.4139C171.632 76.6753 171.763 76.8759 172.024 77.0159C172.285 77.1466 172.691 77.2819 173.242 77.4219C173.802 77.5619 174.264 77.7066 174.628 77.8559C174.992 78.0053 175.305 78.2386 175.566 78.5559C175.837 78.8639 175.977 79.2746 175.986 79.7879C175.986 80.2359 175.86 80.6373 175.608 80.9919C175.365 81.3466 175.011 81.6266 174.544 81.8319C174.087 82.0279 173.55 82.1259 172.934 82.1259Z" fill="black"/>
<circle cx="138" cy="30" r="30" fill="white"/>
<g clip-path="url(#clip0)">
<path d="M145.539 22.0765H143.226V15.8166C143.226 15.3656 142.86 15 142.409 15C141.958 15 141.593 15.3656 141.593 15.8166V22.0765H134.815V15.8166C134.815 15.3656 134.449 15 133.999 15C133.548 15 133.182 15.3656 133.182 15.8166V22.0765H130.46C129.35 22.0765 128.446 22.9802 128.446 24.091V25.996C128.446 27.0239 129.22 27.8737 130.215 27.9951L131.295 34.9843C131.621 37.0969 133.348 38.6535 135.455 38.78V40.47C135.455 41.4855 136.207 42.3282 137.183 42.4704V46.6834C137.183 47.1344 137.549 47.4999 138 47.4999C138.451 47.4999 138.816 47.1344 138.816 46.6834V42.4704C139.793 42.3282 140.545 41.4855 140.545 40.47V38.78C142.652 38.6535 144.379 37.0969 144.704 34.9847L145.784 27.9951C146.78 27.8737 147.554 27.0239 147.554 25.996V24.0909C147.554 22.9802 146.65 22.0765 145.539 22.0765ZM138.912 40.47C138.912 40.6844 138.738 40.8587 138.524 40.8587H137.476C137.262 40.8587 137.088 40.6843 137.088 40.47V38.7895H138.912V40.47ZM145.921 25.9961C145.921 26.2064 145.75 26.3775 145.539 26.3775H144.165C143.714 26.3775 143.348 26.743 143.348 27.194C143.348 27.6331 143.695 27.9902 144.13 28.0088L143.09 34.7358C142.874 36.1383 141.687 37.1564 140.267 37.1564H139.729H136.271H135.732C134.313 37.1564 133.126 36.1384 132.909 34.7354L131.87 28.0106H139.354C139.805 28.0106 140.17 27.645 140.17 27.194C140.17 26.743 139.805 26.3775 139.354 26.3775H130.46C130.25 26.3775 130.079 26.2064 130.079 25.9961V24.091C130.079 23.8807 130.25 23.7096 130.46 23.7096H145.539C145.75 23.7096 145.921 23.8807 145.921 24.091V25.9961V25.9961Z" fill="#027AFF"/>
<path d="M141.913 26.3774H141.783H141.618C141.167 26.3774 140.802 26.743 140.802 27.194C140.802 27.645 141.167 28.0106 141.618 28.0106H141.783H141.913C142.364 28.0106 142.729 27.645 142.729 27.194C142.729 26.743 142.364 26.3774 141.913 26.3774Z" fill="#027AFF"/>
<path d="M140.613 29.7803H135.55C135.099 29.7803 134.734 30.1458 134.734 30.5968C134.734 31.0478 135.099 31.4134 135.55 31.4134H140.613C141.064 31.4134 141.43 31.0478 141.43 30.5968C141.43 30.1459 141.064 29.7803 140.613 29.7803Z" fill="#027AFF"/>
<path d="M139.729 33.0195H136.435C135.984 33.0195 135.619 33.3851 135.619 33.8361C135.619 34.2871 135.984 34.6527 136.435 34.6527H139.729C140.179 34.6527 140.545 34.2871 140.545 33.8361C140.545 33.3851 140.179 33.0195 139.729 33.0195Z" fill="#027AFF"/>
</g>
<path d="M233 72.2279V73.8099H228.926V76.3159H232.048V77.8699H228.926V81.9999H226.966V72.2279H233Z" fill="black"/>
<path d="M233.886 78.0939C233.886 77.3099 234.04 76.6146 234.348 76.0079C234.665 75.4013 235.09 74.9346 235.622 74.6079C236.163 74.2813 236.765 74.1179 237.428 74.1179C238.007 74.1179 238.511 74.2346 238.94 74.4679C239.379 74.7013 239.729 74.9953 239.99 75.3499V74.2439H241.964V81.9999H239.99V80.8659C239.738 81.2299 239.388 81.5333 238.94 81.7759C238.501 82.0093 237.993 82.1259 237.414 82.1259C236.761 82.1259 236.163 81.9579 235.622 81.6219C235.09 81.2859 234.665 80.8146 234.348 80.2079C234.04 79.5919 233.886 78.8873 233.886 78.0939ZM239.99 78.1219C239.99 77.6459 239.897 77.2399 239.71 76.9039C239.523 76.5586 239.271 76.2973 238.954 76.1199C238.637 75.9333 238.296 75.8399 237.932 75.8399C237.568 75.8399 237.232 75.9286 236.924 76.1059C236.616 76.2833 236.364 76.5446 236.168 76.8899C235.981 77.2259 235.888 77.6273 235.888 78.0939C235.888 78.5606 235.981 78.9713 236.168 79.3259C236.364 79.6713 236.616 79.9373 236.924 80.1239C237.241 80.3106 237.577 80.4039 237.932 80.4039C238.296 80.4039 238.637 80.3153 238.954 80.1379C239.271 79.9513 239.523 79.6899 239.71 79.3539C239.897 79.0086 239.99 78.5979 239.99 78.1219Z" fill="black"/>
<path d="M246.846 82.1259C246.212 82.1259 245.642 82.0139 245.138 81.7899C244.634 81.5566 244.233 81.2439 243.934 80.8519C243.645 80.4599 243.486 80.0259 243.458 79.5499H245.432C245.47 79.8486 245.614 80.0959 245.866 80.2919C246.128 80.4879 246.45 80.5859 246.832 80.5859C247.206 80.5859 247.495 80.5113 247.7 80.3619C247.915 80.2126 248.022 80.0213 248.022 79.7879C248.022 79.5359 247.892 79.3493 247.63 79.2279C247.378 79.0973 246.972 78.9573 246.412 78.8079C245.834 78.6679 245.358 78.5233 244.984 78.3739C244.62 78.2246 244.303 77.9959 244.032 77.6879C243.771 77.3799 243.64 76.9646 243.64 76.4419C243.64 76.0126 243.762 75.6206 244.004 75.2659C244.256 74.9113 244.611 74.6313 245.068 74.4259C245.535 74.2206 246.081 74.1179 246.706 74.1179C247.63 74.1179 248.368 74.3513 248.918 74.8179C249.469 75.2753 249.772 75.8959 249.828 76.6799H247.952C247.924 76.3719 247.794 76.1293 247.56 75.9519C247.336 75.7653 247.033 75.6719 246.65 75.6719C246.296 75.6719 246.02 75.7373 245.824 75.8679C245.638 75.9986 245.544 76.1806 245.544 76.4139C245.544 76.6753 245.675 76.8759 245.936 77.0159C246.198 77.1466 246.604 77.2819 247.154 77.4219C247.714 77.5619 248.176 77.7066 248.54 77.8559C248.904 78.0053 249.217 78.2386 249.478 78.5559C249.749 78.8639 249.889 79.2746 249.898 79.7879C249.898 80.2359 249.772 80.6373 249.52 80.9919C249.278 81.3466 248.923 81.6266 248.456 81.8319C247.999 82.0279 247.462 82.1259 246.846 82.1259Z" fill="black"/>
<path d="M255.875 74.1319C256.463 74.1319 256.986 74.2626 257.443 74.5239C257.9 74.7759 258.255 75.1539 258.507 75.6579C258.768 76.1526 258.899 76.7499 258.899 77.4499V81.9999H256.939V77.7159C256.939 77.0999 256.785 76.6286 256.477 76.3019C256.169 75.9659 255.749 75.7979 255.217 75.7979C254.676 75.7979 254.246 75.9659 253.929 76.3019C253.621 76.6286 253.467 77.0999 253.467 77.7159V81.9999H251.507V71.6399H253.467V75.2099C253.719 74.8739 254.055 74.6126 254.475 74.4259C254.895 74.2299 255.362 74.1319 255.875 74.1319Z" fill="black"/>
<path d="M261.757 73.3199C261.412 73.3199 261.122 73.2126 260.889 72.9979C260.665 72.7739 260.553 72.4986 260.553 72.1719C260.553 71.8453 260.665 71.5746 260.889 71.3599C261.122 71.1359 261.412 71.0239 261.757 71.0239C262.102 71.0239 262.387 71.1359 262.611 71.3599C262.844 71.5746 262.961 71.8453 262.961 72.1719C262.961 72.4986 262.844 72.7739 262.611 72.9979C262.387 73.2126 262.102 73.3199 261.757 73.3199ZM262.723 74.2439V81.9999H260.763V74.2439H262.723Z" fill="black"/>
<path d="M268.103 82.1259C267.357 82.1259 266.685 81.9626 266.087 81.6359C265.49 81.2999 265.019 80.8286 264.673 80.2219C264.337 79.6153 264.169 78.9153 264.169 78.1219C264.169 77.3286 264.342 76.6286 264.687 76.0219C265.042 75.4153 265.523 74.9486 266.129 74.6219C266.736 74.2859 267.413 74.1179 268.159 74.1179C268.906 74.1179 269.583 74.2859 270.189 74.6219C270.796 74.9486 271.272 75.4153 271.617 76.0219C271.972 76.6286 272.149 77.3286 272.149 78.1219C272.149 78.9153 271.967 79.6153 271.603 80.2219C271.249 80.8286 270.763 81.2999 270.147 81.6359C269.541 81.9626 268.859 82.1259 268.103 82.1259ZM268.103 80.4179C268.458 80.4179 268.789 80.3339 269.097 80.1659C269.415 79.9886 269.667 79.7273 269.853 79.3819C270.04 79.0366 270.133 78.6166 270.133 78.1219C270.133 77.3846 269.937 76.8199 269.545 76.4279C269.163 76.0266 268.691 75.8259 268.131 75.8259C267.571 75.8259 267.1 76.0266 266.717 76.4279C266.344 76.8199 266.157 77.3846 266.157 78.1219C266.157 78.8593 266.339 79.4286 266.703 79.8299C267.077 80.2219 267.543 80.4179 268.103 80.4179Z" fill="black"/>
<path d="M277.885 74.1319C278.809 74.1319 279.556 74.4259 280.125 75.0139C280.694 75.5926 280.979 76.4046 280.979 77.4499V81.9999H279.019V77.7159C279.019 77.0999 278.865 76.6286 278.557 76.3019C278.249 75.9659 277.829 75.7979 277.297 75.7979C276.756 75.7979 276.326 75.9659 276.009 76.3019C275.701 76.6286 275.547 77.0999 275.547 77.7159V81.9999H273.587V74.2439H275.547V75.2099C275.808 74.8739 276.14 74.6126 276.541 74.4259C276.952 74.2299 277.4 74.1319 277.885 74.1319Z" fill="black"/>
<path d="M285.811 82.1259C285.176 82.1259 284.607 82.0139 284.103 81.7899C283.599 81.5566 283.198 81.2439 282.899 80.8519C282.61 80.4599 282.451 80.0259 282.423 79.5499H284.397C284.434 79.8486 284.579 80.0959 284.831 80.2919C285.092 80.4879 285.414 80.5859 285.797 80.5859C286.17 80.5859 286.46 80.5113 286.665 80.3619C286.88 80.2126 286.987 80.0213 286.987 79.7879C286.987 79.5359 286.856 79.3493 286.595 79.2279C286.343 79.0973 285.937 78.9573 285.377 78.8079C284.798 78.6679 284.322 78.5233 283.949 78.3739C283.585 78.2246 283.268 77.9959 282.997 77.6879C282.736 77.3799 282.605 76.9646 282.605 76.4419C282.605 76.0126 282.726 75.6206 282.969 75.2659C283.221 74.9113 283.576 74.6313 284.033 74.4259C284.5 74.2206 285.046 74.1179 285.671 74.1179C286.595 74.1179 287.332 74.3513 287.883 74.8179C288.434 75.2753 288.737 75.8959 288.793 76.6799H286.917C286.889 76.3719 286.758 76.1293 286.525 75.9519C286.301 75.7653 285.998 75.6719 285.615 75.6719C285.26 75.6719 284.985 75.7373 284.789 75.8679C284.602 75.9986 284.509 76.1806 284.509 76.4139C284.509 76.6753 284.64 76.8759 284.901 77.0159C285.162 77.1466 285.568 77.2819 286.119 77.4219C286.679 77.5619 287.141 77.7066 287.505 77.8559C287.869 78.0053 288.182 78.2386 288.443 78.5559C288.714 78.8639 288.854 79.2746 288.863 79.7879C288.863 80.2359 288.737 80.6373 288.485 80.9919C288.242 81.3466 287.888 81.6266 287.421 81.8319C286.964 82.0279 286.427 82.1259 285.811 82.1259Z" fill="black"/>
<circle cx="258" cy="30" r="30" fill="white"/>
<path d="M257.132 18.8462C256.892 18.9012 256.494 19.038 256.241 19.1616C255.617 19.4633 254.753 20.3201 254.451 20.9234C253.697 22.4519 253.999 24.3373 255.192 25.5298C255.589 25.9273 256.22 26.318 256.741 26.4895L257.18 26.6402V27.5448V28.4566L255.761 28.8198C253.41 29.4163 250.4 30.2938 248.467 30.9381C244.608 32.2338 242.352 33.3238 241.406 34.352C240.721 35.106 240.385 36.1481 240.536 37.0803C240.707 38.1703 241.667 39.1231 242.839 39.3699C243.353 39.4796 272.651 39.4796 273.165 39.3699C274.344 39.1231 275.325 38.1428 275.469 37.0599C275.654 35.7095 275.016 34.4756 273.673 33.5913C272 32.4809 268.449 31.1099 263.931 29.8209C260.929 28.9709 260.984 28.9777 260.6 29.3684C260.326 29.6427 260.319 30.0952 260.593 30.3966C260.758 30.5816 260.956 30.6502 262.286 31.0134C266.379 32.1377 269.628 33.262 271.609 34.256C273.344 35.1195 273.906 35.7024 273.906 36.6278C273.906 36.9706 273.83 37.1349 273.543 37.4435C273.111 37.896 274.153 37.8685 258.002 37.8685C241.852 37.8685 242.894 37.896 242.462 37.4435C242.174 37.1349 242.098 36.9703 242.098 36.6278C242.098 35.716 242.674 35.1127 244.34 34.2767C246.767 33.0563 251.935 31.377 257.145 30.1223C257.789 29.9648 258.386 29.7934 258.468 29.7316C258.783 29.5327 258.824 29.2931 258.824 27.5173C258.824 25.7352 258.79 25.5362 258.461 25.2759C258.345 25.187 258.132 25.1252 257.83 25.0977C257.241 25.0427 256.72 24.803 256.322 24.3984C255.02 23.1027 255.63 20.8887 257.419 20.4223C257.926 20.2919 258.077 20.2919 258.584 20.4223C259.126 20.5662 259.585 20.8748 259.894 21.2859C260.161 21.6559 260.401 22.3141 260.401 22.698C260.401 23.4587 261.271 23.7948 261.772 23.2259C261.943 23.0269 261.977 22.9312 261.977 22.6294C261.977 22.1426 261.813 21.4848 261.552 20.943C261.265 20.333 260.408 19.4758 259.777 19.1676C258.935 18.7573 258.037 18.6476 257.132 18.8462Z" fill="#A709F2"/>
<path d="M349.77 75.1681C349.546 74.7574 349.238 74.4447 348.846 74.2301C348.454 74.0154 347.997 73.9081 347.474 73.9081C346.895 73.9081 346.382 74.0387 345.934 74.3001C345.486 74.5614 345.136 74.9347 344.884 75.4201C344.632 75.9054 344.506 76.4654 344.506 77.1001C344.506 77.7534 344.632 78.3227 344.884 78.8081C345.145 79.2934 345.505 79.6667 345.962 79.9281C346.419 80.1894 346.951 80.3201 347.558 80.3201C348.305 80.3201 348.916 80.1241 349.392 79.7321C349.868 79.3307 350.181 78.7754 350.33 78.0661H346.97V76.5681H352.262V78.2761C352.131 78.9574 351.851 79.5874 351.422 80.166C350.993 80.7447 350.437 81.2114 349.756 81.5661C349.084 81.9114 348.328 82.0841 347.488 82.0841C346.545 82.0841 345.691 81.8741 344.926 81.4541C344.17 81.0247 343.573 80.4321 343.134 79.6761C342.705 78.9201 342.49 78.0614 342.49 77.1001C342.49 76.1387 342.705 75.2801 343.134 74.5241C343.573 73.7587 344.17 73.1661 344.926 72.7461C345.691 72.3167 346.541 72.1021 347.474 72.1021C348.575 72.1021 349.532 72.3727 350.344 72.9141C351.156 73.4461 351.716 74.1974 352.024 75.1681H349.77Z" fill="black"/>
<path d="M353.208 78.0941C353.208 77.3101 353.362 76.6147 353.67 76.0081C353.987 75.4014 354.412 74.9347 354.944 74.6081C355.485 74.2814 356.087 74.1181 356.75 74.1181C357.329 74.1181 357.833 74.2347 358.262 74.4681C358.701 74.7014 359.051 74.9954 359.312 75.3501V74.2441H361.286V82.0001H359.312V80.8661C359.06 81.2301 358.71 81.5334 358.262 81.7761C357.823 82.0094 357.315 82.1261 356.736 82.1261C356.083 82.1261 355.485 81.9581 354.944 81.6221C354.412 81.2861 353.987 80.8147 353.67 80.2081C353.362 79.5921 353.208 78.8874 353.208 78.0941ZM359.312 78.1221C359.312 77.6461 359.219 77.2401 359.032 76.9041C358.845 76.5587 358.593 76.2974 358.276 76.1201C357.959 75.9334 357.618 75.8401 357.254 75.8401C356.89 75.8401 356.554 75.9287 356.246 76.1061C355.938 76.2834 355.686 76.5447 355.49 76.8901C355.303 77.2261 355.21 77.6274 355.21 78.0941C355.21 78.5607 355.303 78.9714 355.49 79.3261C355.686 79.6714 355.938 79.9374 356.246 80.1241C356.563 80.3107 356.899 80.4041 357.254 80.4041C357.618 80.4041 357.959 80.3154 358.276 80.1381C358.593 79.9514 358.845 79.6901 359.032 79.3541C359.219 79.0087 359.312 78.5981 359.312 78.1221Z" fill="black"/>
<path d="M372.832 74.1321C373.784 74.1321 374.55 74.4261 375.128 75.0141C375.716 75.5927 376.01 76.4047 376.01 77.4501V82.0001H374.05V77.7161C374.05 77.1094 373.896 76.6474 373.588 76.3301C373.28 76.0034 372.86 75.8401 372.328 75.8401C371.796 75.8401 371.372 76.0034 371.054 76.3301C370.746 76.6474 370.592 77.1094 370.592 77.7161V82.0001H368.632V77.7161C368.632 77.1094 368.478 76.6474 368.17 76.3301C367.862 76.0034 367.442 75.8401 366.91 75.8401C366.369 75.8401 365.94 76.0034 365.622 76.3301C365.314 76.6474 365.16 77.1094 365.16 77.7161V82.0001H363.2V74.2441H365.16V75.1821C365.412 74.8554 365.734 74.5987 366.126 74.4121C366.528 74.2254 366.966 74.1321 367.442 74.1321C368.049 74.1321 368.59 74.2627 369.066 74.5241C369.542 74.7761 369.911 75.1401 370.172 75.6161C370.424 75.1681 370.788 74.8087 371.264 74.5381C371.75 74.2674 372.272 74.1321 372.832 74.1321Z" fill="black"/>
<path d="M385.08 77.9541C385.08 78.2341 385.062 78.4861 385.024 78.7101H379.354C379.401 79.2701 379.597 79.7087 379.942 80.0261C380.288 80.3434 380.712 80.5021 381.216 80.5021C381.944 80.5021 382.462 80.1894 382.77 79.5641H384.884C384.66 80.3107 384.231 80.9267 383.596 81.4121C382.962 81.8881 382.182 82.1261 381.258 82.1261C380.512 82.1261 379.84 81.9627 379.242 81.6361C378.654 81.3001 378.192 80.8287 377.856 80.2221C377.53 79.6154 377.366 78.9154 377.366 78.1221C377.366 77.3194 377.53 76.6147 377.856 76.0081C378.183 75.4014 378.64 74.9347 379.228 74.6081C379.816 74.2814 380.493 74.1181 381.258 74.1181C381.996 74.1181 382.654 74.2767 383.232 74.5941C383.82 74.9114 384.273 75.3641 384.59 75.9521C384.917 76.5307 385.08 77.1981 385.08 77.9541ZM383.05 77.3941C383.041 76.8901 382.859 76.4887 382.504 76.1901C382.15 75.8821 381.716 75.7281 381.202 75.7281C380.717 75.7281 380.306 75.8774 379.97 76.1761C379.644 76.4654 379.443 76.8714 379.368 77.3941H383.05Z" fill="black"/>
<path d="M389.479 82.1261C388.844 82.1261 388.275 82.0141 387.771 81.7901C387.267 81.5567 386.866 81.2441 386.567 80.8521C386.278 80.4601 386.119 80.0261 386.091 79.5501H388.065C388.102 79.8487 388.247 80.0961 388.499 80.2921C388.76 80.4881 389.082 80.5861 389.465 80.5861C389.838 80.5861 390.128 80.5114 390.333 80.3621C390.548 80.2127 390.655 80.0214 390.655 79.7881C390.655 79.5361 390.524 79.3494 390.263 79.2281C390.011 79.0974 389.605 78.9574 389.045 78.8081C388.466 78.6681 387.99 78.5234 387.617 78.3741C387.253 78.2247 386.936 77.9961 386.665 77.6881C386.404 77.3801 386.273 76.9647 386.273 76.4421C386.273 76.0127 386.394 75.6207 386.637 75.2661C386.889 74.9114 387.244 74.6314 387.701 74.4261C388.168 74.2207 388.714 74.1181 389.339 74.1181C390.263 74.1181 391 74.3514 391.551 74.8181C392.102 75.2754 392.405 75.8961 392.461 76.6801H390.585C390.557 76.3721 390.426 76.1294 390.193 75.9521C389.969 75.7654 389.666 75.6721 389.283 75.6721C388.928 75.6721 388.653 75.7374 388.457 75.8681C388.27 75.9987 388.177 76.1807 388.177 76.4141C388.177 76.6754 388.308 76.8761 388.569 77.0161C388.83 77.1467 389.236 77.2821 389.787 77.4221C390.347 77.5621 390.809 77.7067 391.173 77.8561C391.537 78.0054 391.85 78.2387 392.111 78.5561C392.382 78.8641 392.522 79.2747 392.531 79.7881C392.531 80.2361 392.405 80.6374 392.153 80.9921C391.91 81.3467 391.556 81.6267 391.089 81.8321C390.632 82.0281 390.095 82.1261 389.479 82.1261Z" fill="black"/>
<circle cx="368" cy="30" r="30" fill="white"/>
<path d="M359.812 21.25C358.165 21.25 356.636 22.114 355.791 23.5242L355.736 23.6158L355.703 23.7183C355.703 23.7183 355.033 25.7753 354.362 28.2264C353.691 30.6776 353 33.4456 353 35.2578C353 37.8359 355.109 39.9453 357.687 39.9453C359.961 39.9453 361.866 38.3113 362.283 36.1513L362.258 36.2612C362.376 35.8905 362.481 35.4611 362.576 35.0527C362.678 34.6179 363.051 34.3202 363.492 34.3202H372.508C372.951 34.3202 373.322 34.6166 373.424 35.0527C373.519 35.4611 373.624 35.8905 373.742 36.2612L373.717 36.1513C374.134 38.3136 376.041 39.9453 378.312 39.9453C380.891 39.9453 383 37.8359 383 35.2578C383 33.4456 382.309 30.6776 381.638 28.2264C380.967 25.7753 380.297 23.7183 380.297 23.7183L380.264 23.6158L380.209 23.5242C379.364 22.114 377.835 21.25 376.188 21.25H359.812ZM359.812 23.125H376.188C377.163 23.125 378.053 23.6448 378.565 24.469C378.613 24.6178 379.197 26.4155 379.829 28.7245C380.486 31.1268 381.125 33.9836 381.125 35.2578C381.125 36.8234 379.878 38.0703 378.312 38.0703C376.935 38.0703 375.805 37.0913 375.555 35.7961L375.544 35.7412L375.529 35.6899C375.442 35.4165 375.339 35.0169 375.247 34.6279V34.6242C374.951 33.3595 373.815 32.4452 372.508 32.4452H363.492C362.185 32.4452 361.049 33.3601 360.753 34.6279C360.661 35.0169 360.558 35.4165 360.471 35.6899L360.456 35.7412L360.445 35.7961C360.195 37.0899 359.066 38.0703 357.687 38.0703C356.122 38.0703 354.875 36.8234 354.875 35.2578C354.875 33.9836 355.514 31.1268 356.171 28.7245C356.803 26.4155 357.387 24.6178 357.435 24.469C357.947 23.6448 358.837 23.125 359.812 23.125ZM360.5 24.9451V26.8201H358.625V28.6952H360.5V30.5702H362.375V28.6952H364.25V26.8201H362.375V24.9451H360.5ZM374.562 24.9451C374.314 24.9451 374.075 25.0439 373.9 25.2197C373.724 25.3955 373.625 25.634 373.625 25.8826C373.625 26.1313 373.724 26.3697 373.9 26.5455C374.075 26.7214 374.314 26.8201 374.562 26.8201C374.811 26.8201 375.05 26.7214 375.225 26.5455C375.401 26.3697 375.5 26.1313 375.5 25.8826C375.5 25.634 375.401 25.3955 375.225 25.2197C375.05 25.0439 374.811 24.9451 374.562 24.9451ZM372.687 26.8201C372.439 26.8201 372.2 26.9189 372.025 27.0947C371.849 27.2706 371.75 27.509 371.75 27.7577C371.75 28.0063 371.849 28.2448 372.025 28.4206C372.2 28.5964 372.439 28.6952 372.687 28.6952C372.936 28.6952 373.175 28.5964 373.35 28.4206C373.526 28.2448 373.625 28.0063 373.625 27.7577C373.625 27.509 373.526 27.2706 373.35 27.0947C373.175 26.9189 372.936 26.8201 372.687 26.8201ZM376.437 26.8201C376.189 26.8201 375.95 26.9189 375.775 27.0947C375.599 27.2706 375.5 27.509 375.5 27.7577C375.5 28.0063 375.599 28.2448 375.775 28.4206C375.95 28.5964 376.189 28.6952 376.437 28.6952C376.686 28.6952 376.925 28.5964 377.1 28.4206C377.276 28.2448 377.375 28.0063 377.375 27.7577C377.375 27.509 377.276 27.2706 377.1 27.0947C376.925 26.9189 376.686 26.8201 376.437 26.8201ZM374.562 28.6952C374.314 28.6952 374.075 28.7939 373.9 28.9698C373.724 29.1456 373.625 29.384 373.625 29.6327C373.625 29.8813 373.724 30.1198 373.9 30.2956C374.075 30.4714 374.314 30.5702 374.562 30.5702C374.811 30.5702 375.05 30.4714 375.225 30.2956C375.401 30.1198 375.5 29.8813 375.5 29.6327C375.5 29.384 375.401 29.1456 375.225 28.9698C375.05 28.7939 374.811 28.6952 374.562 28.6952Z" fill="#F45374"/>
<path d="M459.072 72.228V82H457.112V77.842H452.926V82H450.966V72.228H452.926V76.246H457.112V72.228H459.072Z" fill="black"/>
<path d="M464.445 82.126C463.699 82.126 463.027 81.9627 462.429 81.636C461.832 81.3 461.361 80.8287 461.015 80.222C460.679 79.6154 460.511 78.9154 460.511 78.122C460.511 77.3287 460.684 76.6287 461.029 76.022C461.384 75.4154 461.865 74.9487 462.471 74.622C463.078 74.286 463.755 74.118 464.501 74.118C465.248 74.118 465.925 74.286 466.531 74.622C467.138 74.9487 467.614 75.4154 467.959 76.022C468.314 76.6287 468.491 77.3287 468.491 78.122C468.491 78.9154 468.309 79.6154 467.945 80.222C467.591 80.8287 467.105 81.3 466.489 81.636C465.883 81.9627 465.201 82.126 464.445 82.126ZM464.445 80.418C464.8 80.418 465.131 80.334 465.439 80.166C465.757 79.9887 466.009 79.7274 466.195 79.382C466.382 79.0367 466.475 78.6167 466.475 78.122C466.475 77.3847 466.279 76.82 465.887 76.428C465.505 76.0267 465.033 75.826 464.473 75.826C463.913 75.826 463.442 76.0267 463.059 76.428C462.686 76.82 462.499 77.3847 462.499 78.122C462.499 78.8594 462.681 79.4287 463.045 79.83C463.419 80.222 463.885 80.418 464.445 80.418Z" fill="black"/>
<path d="M479.561 74.132C480.513 74.132 481.278 74.426 481.857 75.014C482.445 75.5927 482.739 76.4047 482.739 77.45V82H480.779V77.716C480.779 77.1094 480.625 76.6474 480.317 76.33C480.009 76.0034 479.589 75.84 479.057 75.84C478.525 75.84 478.1 76.0034 477.783 76.33C477.475 76.6474 477.321 77.1094 477.321 77.716V82H475.361V77.716C475.361 77.1094 475.207 76.6474 474.899 76.33C474.591 76.0034 474.171 75.84 473.639 75.84C473.098 75.84 472.668 76.0034 472.351 76.33C472.043 76.6474 471.889 77.1094 471.889 77.716V82H469.929V74.244H471.889V75.182C472.141 74.8554 472.463 74.5987 472.855 74.412C473.256 74.2254 473.695 74.132 474.171 74.132C474.778 74.132 475.319 74.2627 475.795 74.524C476.271 74.776 476.64 75.14 476.901 75.616C477.153 75.168 477.517 74.8087 477.993 74.538C478.478 74.2674 479.001 74.132 479.561 74.132Z" fill="black"/>
<path d="M491.809 77.954C491.809 78.234 491.79 78.486 491.753 78.71H486.083C486.13 79.27 486.326 79.7087 486.671 80.026C487.016 80.3434 487.441 80.502 487.945 80.502C488.673 80.502 489.191 80.1894 489.499 79.564H491.613C491.389 80.3107 490.96 80.9267 490.325 81.412C489.69 81.888 488.911 82.126 487.987 82.126C487.24 82.126 486.568 81.9627 485.971 81.636C485.383 81.3 484.921 80.8287 484.585 80.222C484.258 79.6154 484.095 78.9154 484.095 78.122C484.095 77.3194 484.258 76.6147 484.585 76.008C484.912 75.4014 485.369 74.9347 485.957 74.608C486.545 74.2814 487.222 74.118 487.987 74.118C488.724 74.118 489.382 74.2767 489.961 74.594C490.549 74.9114 491.002 75.364 491.319 75.952C491.646 76.5307 491.809 77.198 491.809 77.954ZM489.779 77.394C489.77 76.89 489.588 76.4887 489.233 76.19C488.878 75.882 488.444 75.728 487.931 75.728C487.446 75.728 487.035 75.8774 486.699 76.176C486.372 76.4654 486.172 76.8714 486.097 77.394H489.779Z" fill="black"/>
<circle cx="472" cy="30" r="30" fill="white"/>
<path d="M461.609 24.2466H460.516V25.2842H461.609V24.2466Z" fill="#19B1E0"/>
<path fill-rule="evenodd" clip-rule="evenodd" d="M460.266 23.9966H461.859V25.5342H460.266V23.9966ZM460.766 24.4966V25.0342H461.359V24.4966H460.766Z" fill="#19B1E0"/>
<path d="M482.938 24.2466H481.844V25.2842H482.938V24.2466Z" fill="#19B1E0"/>
<path fill-rule="evenodd" clip-rule="evenodd" d="M481.594 23.9966H483.188V25.5342H481.594V23.9966ZM482.094 24.4966V25.0342H482.688V24.4966H482.094Z" fill="#19B1E0"/>
<path d="M476.922 24.2466H475.828V25.2842H476.922V24.2466Z" fill="#19B1E0"/>
<path fill-rule="evenodd" clip-rule="evenodd" d="M475.578 23.9966H477.172V25.5342H475.578V23.9966ZM476.078 24.4966V25.0342H476.672V24.4966H476.078Z" fill="#19B1E0"/>
<path d="M468.172 24.2466H467.078V25.2842H468.172V24.2466Z" fill="#19B1E0"/>
<path fill-rule="evenodd" clip-rule="evenodd" d="M466.828 23.9966H468.422V25.5342H466.828V23.9966ZM467.328 24.4966V25.0342H467.922V24.4966H467.328Z" fill="#19B1E0"/>
<path d="M487.847 33.8392C488.818 33.4193 489.5 32.4519 489.5 31.3281C489.5 30.2091 488.824 29.2455 487.859 28.8227V22.2915C487.859 20.3387 486.271 18.75 484.318 18.75H474.995C473.735 18.75 472.628 19.4113 472 20.4044C471.372 19.4114 470.265 18.75 469.005 18.75H459.682C457.729 18.75 456.141 20.3387 456.141 22.2915V28.8227C455.176 29.2455 454.5 30.2091 454.5 31.3281C454.5 32.4519 455.182 33.4192 456.153 33.8392C455.174 34.3356 454.5 35.352 454.5 36.5234C454.5 38.1819 455.849 39.5312 457.508 39.5312H457.781V42.2656H458.875V39.5312H485.125V42.2656H486.219V39.5312H486.492C488.151 39.5312 489.5 38.1819 489.5 36.5234C489.5 35.352 488.826 34.3356 487.847 33.8392ZM488.406 31.3281C488.406 32.2327 487.67 32.9686 486.766 32.9686C485.861 32.9686 485.125 32.2326 485.125 31.3281C485.125 30.4235 485.861 29.6875 486.766 29.6875C487.67 29.6875 488.406 30.4235 488.406 31.3281ZM485.127 33.5156H484.894C484.917 33.4701 484.938 33.4236 484.957 33.3762C485.012 33.4247 485.068 33.4715 485.127 33.5156ZM472.547 31.6148V22.2915C472.547 20.9417 473.645 19.8437 474.995 19.8437H484.318C485.668 19.8437 486.766 20.9417 486.766 22.2915V28.5937C485.976 28.5937 485.264 28.9303 484.765 29.467C484.418 28.9572 483.834 28.6218 483.172 28.6218H478.328C477.267 28.6218 476.403 29.4852 476.403 30.5464V32.6566C476.403 32.9652 476.477 33.2569 476.606 33.5156H472.547V31.6148ZM484.059 31.7163V32.6566C484.059 33.0706 483.774 33.4182 483.39 33.5155H478.11C477.726 33.4182 477.441 33.0706 477.441 32.6566V30.5464C477.441 30.0573 477.839 29.6594 478.328 29.6594H483.172C483.661 29.6594 484.059 30.0573 484.059 30.5464V30.9398C484.041 31.0668 484.031 31.1963 484.031 31.3281C484.031 31.4599 484.041 31.5894 484.059 31.7163ZM457.234 22.2915C457.234 20.9417 458.332 19.8437 459.682 19.8437H469.005C470.355 19.8437 471.453 20.9417 471.453 22.2915V31.6148V33.5156H458.873C459.538 33.0163 459.969 32.2216 459.969 31.3281C459.969 29.8203 458.742 28.5937 457.234 28.5937V22.2915ZM455.594 31.3281C455.594 30.4235 456.33 29.6875 457.234 29.6875C458.139 29.6875 458.875 30.4235 458.875 31.3281C458.875 32.2327 458.139 32.9686 457.234 32.9686C456.33 32.9687 455.594 32.2327 455.594 31.3281ZM486.492 38.4374H457.508C456.452 38.4374 455.594 37.5788 455.594 36.5234C455.594 35.468 456.452 34.6094 457.508 34.6094H486.492C487.547 34.6094 488.406 35.468 488.406 36.5234C488.406 37.5788 487.548 38.4374 486.492 38.4374Z" fill="#19B1E0"/>
<path fill-rule="evenodd" clip-rule="evenodd" d="M455.891 22.2915C455.891 20.2007 457.591 18.5 459.682 18.5H469.005C470.223 18.5 471.306 19.077 472 19.9698C472.694 19.0769 473.777 18.5 474.995 18.5H484.318C486.409 18.5 488.109 20.2007 488.109 22.2915V28.6643C489.081 29.1564 489.75 30.1647 489.75 31.3281C489.75 32.3906 489.192 33.3241 488.355 33.8528C489.197 34.4417 489.75 35.4185 489.75 36.5234C489.75 38.32 488.289 39.7812 486.492 39.7812H486.469V42.5156H484.875V39.7812H459.125V42.5156H457.531V39.7812H457.508C455.711 39.7812 454.25 38.32 454.25 36.5234C454.25 35.4185 454.803 34.4417 455.645 33.8528C454.808 33.3241 454.25 32.3906 454.25 31.3281C454.25 30.1647 454.919 29.1564 455.891 28.6644V22.2915ZM459.682 19C457.867 19 456.391 20.4768 456.391 22.2915V28.9861L456.241 29.0517C455.364 29.4363 454.75 30.3123 454.75 31.3281C454.75 32.3483 455.369 33.2277 456.252 33.6097L456.742 33.8212L456.266 34.0622C455.367 34.5179 454.75 35.4503 454.75 36.5234C454.75 38.0438 455.987 39.2812 457.508 39.2812H458.031V42.0156H458.625V39.2812H485.375V42.0156H485.969V39.2812H486.492C488.013 39.2812 489.25 38.0438 489.25 36.5234C489.25 35.4503 488.633 34.5179 487.734 34.0622L487.258 33.8212L487.748 33.6097C488.631 33.2278 489.25 32.3483 489.25 31.3281C489.25 30.3123 488.636 29.4363 487.759 29.0516L487.609 28.9861V22.2915C487.609 20.4768 486.133 19 484.318 19H474.995C473.825 19 472.796 19.614 472.211 20.538L472 20.8721L471.789 20.538C471.204 19.614 470.175 19 469.005 19H459.682ZM459.682 20.0937C458.47 20.0937 457.484 21.0798 457.484 22.2915V28.354C459.014 28.4814 460.219 29.7664 460.219 31.3281C460.219 32.0672 459.949 32.7441 459.503 33.2656H471.203V22.2915C471.203 21.0798 470.217 20.0937 469.005 20.0937H459.682ZM456.984 22.2915C456.984 20.8037 458.194 19.5937 459.682 19.5937H469.005C470.493 19.5937 471.703 20.8037 471.703 22.2915V33.7656H458.124L458.723 33.3157C459.328 32.8614 459.719 32.1393 459.719 31.3281C459.719 29.9584 458.604 28.8437 457.234 28.8437H456.984V22.2915ZM474.995 20.0937C473.783 20.0937 472.797 21.0798 472.797 22.2914V33.2656H476.24C476.184 33.0723 476.153 32.8679 476.153 32.6566V30.5464C476.153 29.3471 477.128 28.3718 478.328 28.3718H483.172C483.814 28.3718 484.392 28.6514 484.79 29.0941C485.257 28.6797 485.856 28.4092 486.516 28.3541V22.2915C486.516 21.0798 485.529 20.0937 484.318 20.0937H474.995ZM472.297 22.2915C472.297 20.8037 473.507 19.5937 474.995 19.5937H484.318C485.806 19.5937 487.016 20.8037 487.016 22.2915V28.8437H486.766C486.049 28.8437 485.402 29.1491 484.948 29.6373L484.734 29.8667L484.558 29.6075C484.256 29.1631 483.747 28.8718 483.172 28.8718H478.328C477.405 28.8718 476.653 29.6233 476.653 30.5464V32.6566C476.653 32.9251 476.717 33.1785 476.83 33.4036L477.011 33.7656H472.297V22.2915C472.297 22.2915 472.297 22.2915 472.297 22.2915ZM478.328 29.9094C477.977 29.9094 477.691 30.1954 477.691 30.5464V32.6566C477.691 32.9428 477.882 33.1863 478.144 33.2655H483.356C483.618 33.1863 483.809 32.9428 483.809 32.6566V31.7337C483.791 31.6016 483.781 31.4662 483.781 31.3281C483.781 31.1899 483.791 31.0546 483.809 30.9224V30.5464C483.809 30.1954 483.523 29.9094 483.172 29.9094H478.328ZM477.191 30.5464C477.191 29.9193 477.7 29.4094 478.328 29.4094H483.172C483.799 29.4094 484.309 29.9193 484.309 30.5464V30.9576L484.307 30.9752C484.29 31.0912 484.281 31.2089 484.281 31.3281C484.281 31.4473 484.29 31.565 484.307 31.6809L484.309 31.6985V32.6566C484.309 33.1884 483.943 33.6333 483.451 33.7579L483.421 33.7655H478.079L478.049 33.7579C477.557 33.6333 477.191 33.1884 477.191 32.6566V30.5464ZM457.234 29.9375C456.468 29.9375 455.844 30.5616 455.844 31.3281C455.844 32.0946 456.468 32.7187 457.234 32.7186C458.001 32.7186 458.625 32.0946 458.625 31.3281C458.625 30.5615 458.001 29.9375 457.234 29.9375ZM455.344 31.3281C455.344 30.2854 456.192 29.4375 457.234 29.4375C458.277 29.4375 459.125 30.2854 459.125 31.3281C459.125 32.3708 458.277 33.2186 457.234 33.2186M486.766 29.9375C485.999 29.9375 485.375 30.5615 485.375 31.3281C485.375 32.0946 485.999 32.7186 486.766 32.7186C487.532 32.7186 488.156 32.0946 488.156 31.3281C488.156 30.5616 487.532 29.9375 486.766 29.9375ZM484.875 31.3281C484.875 30.2854 485.723 29.4375 486.766 29.4375C487.808 29.4375 488.656 30.2854 488.656 31.3281C488.656 32.3708 487.808 33.2186 486.766 33.2186C485.723 33.2186 484.875 32.3707 484.875 31.3281ZM455.344 31.3281C455.344 32.3708 456.192 33.2187 457.234 33.2186ZM484.858 32.9549L485.122 33.1889C485.173 33.2339 485.225 33.2763 485.277 33.3157L485.876 33.7656H484.488L484.67 33.4034C484.69 33.3641 484.708 33.3238 484.725 33.2823L484.858 32.9549ZM457.508 34.8594C456.59 34.8594 455.844 35.6061 455.844 36.5234C455.844 37.4407 456.59 38.1874 457.508 38.1874H486.492C487.409 38.1874 488.156 37.4407 488.156 36.5234C488.156 35.6061 487.409 34.8594 486.492 34.8594H457.508ZM455.344 36.5234C455.344 35.3299 456.314 34.3594 457.508 34.3594H486.492C487.686 34.3594 488.656 35.3299 488.656 36.5234C488.656 37.7168 487.686 38.6874 486.492 38.6874H457.508C456.314 38.6874 455.344 37.7168 455.344 36.5234Z" fill="#19B1E0"/>
<path d="M553.62 72.2279V81.9999H551.66V75.6439L549.042 81.9999H547.558L544.926 75.6439V81.9999H542.966V72.2279H545.192L548.3 79.4939L551.408 72.2279H553.62Z" fill="black"/>
<path d="M559.002 82.1259C558.255 82.1259 557.583 81.9626 556.986 81.6359C556.389 81.2999 555.917 80.8286 555.572 80.2219C555.236 79.6153 555.068 78.9153 555.068 78.1219C555.068 77.3286 555.241 76.6286 555.586 76.0219C555.941 75.4153 556.421 74.9486 557.028 74.6219C557.635 74.2859 558.311 74.1179 559.058 74.1179C559.805 74.1179 560.481 74.2859 561.088 74.6219C561.695 74.9486 562.171 75.4153 562.516 76.0219C562.871 76.6286 563.048 77.3286 563.048 78.1219C563.048 78.9153 562.866 79.6153 562.502 80.2219C562.147 80.8286 561.662 81.2999 561.046 81.6359C560.439 81.9626 559.758 82.1259 559.002 82.1259ZM559.002 80.4179C559.357 80.4179 559.688 80.3339 559.996 80.1659C560.313 79.9886 560.565 79.7273 560.752 79.3819C560.939 79.0366 561.032 78.6166 561.032 78.1219C561.032 77.3846 560.836 76.8199 560.444 76.4279C560.061 76.0266 559.59 75.8259 559.03 75.8259C558.47 75.8259 557.999 76.0266 557.616 76.4279C557.243 76.8199 557.056 77.3846 557.056 78.1219C557.056 78.8593 557.238 79.4286 557.602 79.8299C557.975 80.2219 558.442 80.4179 559.002 80.4179Z" fill="black"/>
<path d="M567.72 80.1939L569.68 74.2439H571.766L568.896 81.9999H566.516L563.66 74.2439H565.76L567.72 80.1939Z" fill="black"/>
<path d="M573.86 73.3199C573.515 73.3199 573.226 73.2126 572.992 72.9979C572.768 72.7739 572.656 72.4986 572.656 72.1719C572.656 71.8453 572.768 71.5746 572.992 71.3599C573.226 71.1359 573.515 71.0239 573.86 71.0239C574.206 71.0239 574.49 71.1359 574.714 71.3599C574.948 71.5746 575.064 71.8453 575.064 72.1719C575.064 72.4986 574.948 72.7739 574.714 72.9979C574.49 73.2126 574.206 73.3199 573.86 73.3199ZM574.826 74.2439V81.9999H572.866V74.2439H574.826Z" fill="black"/>
<path d="M583.973 77.9539C583.973 78.2339 583.954 78.4859 583.917 78.7099H578.247C578.294 79.2699 578.49 79.7086 578.835 80.0259C579.18 80.3433 579.605 80.5019 580.109 80.5019C580.837 80.5019 581.355 80.1893 581.663 79.5639H583.777C583.553 80.3106 583.124 80.9266 582.489 81.4119C581.854 81.8879 581.075 82.1259 580.151 82.1259C579.404 82.1259 578.732 81.9626 578.135 81.6359C577.547 81.2999 577.085 80.8286 576.749 80.2219C576.422 79.6153 576.259 78.9153 576.259 78.1219C576.259 77.3193 576.422 76.6146 576.749 76.0079C577.076 75.4013 577.533 74.9346 578.121 74.6079C578.709 74.2813 579.386 74.1179 580.151 74.1179C580.888 74.1179 581.546 74.2766 582.125 74.5939C582.713 74.9113 583.166 75.3639 583.483 75.9519C583.81 76.5306 583.973 77.1979 583.973 77.9539ZM581.943 77.3939C581.934 76.8899 581.752 76.4886 581.397 76.1899C581.042 75.8819 580.608 75.7279 580.095 75.7279C579.61 75.7279 579.199 75.8773 578.863 76.1759C578.536 76.4653 578.336 76.8713 578.261 77.3939H581.943Z" fill="black"/>
<path d="M588.372 82.1259C587.737 82.1259 587.168 82.0139 586.664 81.7899C586.16 81.5566 585.758 81.2439 585.46 80.8519C585.17 80.4599 585.012 80.0259 584.984 79.5499H586.958C586.995 79.8486 587.14 80.0959 587.392 80.2919C587.653 80.4879 587.975 80.5859 588.358 80.5859C588.731 80.5859 589.02 80.5113 589.226 80.3619C589.44 80.2126 589.548 80.0213 589.548 79.7879C589.548 79.5359 589.417 79.3493 589.156 79.2279C588.904 79.0973 588.498 78.9573 587.938 78.8079C587.359 78.6679 586.883 78.5233 586.51 78.3739C586.146 78.2246 585.828 77.9959 585.558 77.6879C585.296 77.3799 585.166 76.9646 585.166 76.4419C585.166 76.0126 585.287 75.6206 585.53 75.2659C585.782 74.9113 586.136 74.6313 586.594 74.4259C587.06 74.2206 587.606 74.1179 588.232 74.1179C589.156 74.1179 589.893 74.3513 590.444 74.8179C590.994 75.2753 591.298 75.8959 591.354 76.6799H589.478C589.45 76.3719 589.319 76.1293 589.086 75.9519C588.862 75.7653 588.558 75.6719 588.176 75.6719C587.821 75.6719 587.546 75.7373 587.35 75.8679C587.163 75.9986 587.07 76.1806 587.07 76.4139C587.07 76.6753 587.2 76.8759 587.462 77.0159C587.723 77.1466 588.129 77.2819 588.68 77.4219C589.24 77.5619 589.702 77.7066 590.066 77.8559C590.43 78.0053 590.742 78.2386 591.004 78.5559C591.274 78.8639 591.414 79.2746 591.424 79.7879C591.424 80.2359 591.298 80.6373 591.046 80.9919C590.803 81.3466 590.448 81.6266 589.982 81.8319C589.524 82.0279 588.988 82.1259 588.372 82.1259Z" fill="black"/>
<path d="M603.886 81.9999L602.822 80.9499C601.917 81.7619 600.811 82.1679 599.504 82.1679C598.786 82.1679 598.151 82.0466 597.6 81.8039C597.059 81.5519 596.639 81.2019 596.34 80.7539C596.042 80.2966 595.892 79.7693 595.892 79.1719C595.892 78.5279 596.074 77.9493 596.438 77.4359C596.802 76.9226 597.339 76.5073 598.048 76.1899C597.796 75.8819 597.614 75.5879 597.502 75.3079C597.39 75.0186 597.334 74.7106 597.334 74.3839C597.334 73.9359 597.451 73.5346 597.684 73.1799C597.918 72.8159 598.249 72.5313 598.678 72.3259C599.117 72.1206 599.626 72.0179 600.204 72.0179C600.792 72.0179 601.296 72.1299 601.716 72.3539C602.136 72.5779 602.449 72.8766 602.654 73.2499C602.86 73.6233 602.948 74.0386 602.92 74.4959H601.016C601.026 74.1879 600.951 73.9546 600.792 73.7959C600.634 73.6279 600.419 73.5439 600.148 73.5439C599.887 73.5439 599.668 73.6233 599.49 73.7819C599.322 73.9313 599.238 74.1273 599.238 74.3699C599.238 74.6033 599.308 74.8366 599.448 75.0699C599.588 75.2939 599.817 75.5739 600.134 75.9099L602.598 78.3459C602.617 78.3273 602.631 78.3086 602.64 78.2899C602.65 78.2713 602.659 78.2526 602.668 78.2339L603.466 76.9039H605.51L604.53 78.6259C604.344 78.9899 604.143 79.3353 603.928 79.6619L606.294 81.9999H603.886ZM599.56 80.5439C600.326 80.5439 601.002 80.2733 601.59 79.7319L599.182 77.3519C598.277 77.7533 597.824 78.3226 597.824 79.0599C597.824 79.4799 597.983 79.8346 598.3 80.1239C598.618 80.4039 599.038 80.5439 599.56 80.5439Z" fill="black"/>
<path d="M617.251 72.2279V73.8099H614.647V81.9999H612.687V73.8099H610.083V72.2279H617.251Z" fill="black"/>
<path d="M627.459 72.2279L623.875 81.9999H621.495L617.911 72.2279H620.011L622.699 79.9979L625.373 72.2279H627.459Z" fill="black"/>
<circle cx="585" cy="30" r="30" fill="white"/>
<path d="M597.583 16.25H572.417C571.778 16.25 571.25 16.7776 571.25 17.4173V42.5827C571.25 43.2224 571.778 43.75 572.417 43.75H597.639C598.279 43.75 598.75 43.2842 598.75 42.5827V17.4173C598.75 16.7776 598.223 16.25 597.583 16.25ZM588.474 41.4714H581.582V39.3107H588.474V41.4714ZM573.585 36.976V23.0801H596.472V36.976H573.585ZM581.582 18.5847H588.474V20.7454H581.582V18.5847ZM596.472 20.7454H590.809V18.5847H596.472V20.7454ZM579.248 18.5847V20.7454H573.585V18.5847H579.248ZM573.585 39.3107H579.248V41.4714H573.585V39.3107ZM590.809 41.4714V39.3107H596.472V41.4714H590.809Z" fill="#FAAB00" stroke="white" stroke-width="0.5"/>
<path d="M589.002 29.0964L583.165 25.1846C582.402 24.6851 581.414 25.2575 581.414 26.1162V33.9399C581.414 34.8435 582.402 35.3655 583.165 34.8716L589.002 30.9597C589.524 30.6791 589.849 29.7138 589.002 29.0964ZM583.687 31.7791V28.277L586.313 30.0281L583.687 31.7791Z" fill="#FAAB00" stroke="white"/>
<path d="M675.092 75.2521C675.092 75.7748 674.966 76.2648 674.714 76.7221C674.471 77.1795 674.084 77.5481 673.552 77.8281C673.029 78.1081 672.367 78.2481 671.564 78.2481H669.926V82.0001H667.966V72.2281H671.564C672.32 72.2281 672.964 72.3588 673.496 72.6201C674.028 72.8815 674.425 73.2408 674.686 73.6981C674.957 74.1555 675.092 74.6735 675.092 75.2521ZM671.48 76.6661C672.021 76.6661 672.423 76.5448 672.684 76.3021C672.945 76.0501 673.076 75.7001 673.076 75.2521C673.076 74.3001 672.544 73.8241 671.48 73.8241H669.926V76.6661H671.48Z" fill="black"/>
<path d="M679.928 82.1261C679.181 82.1261 678.509 81.9628 677.912 81.6361C677.314 81.3001 676.843 80.8288 676.498 80.2221C676.162 79.6155 675.994 78.9155 675.994 78.1221C675.994 77.3288 676.166 76.6288 676.512 76.0221C676.866 75.4155 677.347 74.9488 677.954 74.6221C678.56 74.2861 679.237 74.1181 679.984 74.1181C680.73 74.1181 681.407 74.2861 682.014 74.6221C682.62 74.9488 683.096 75.4155 683.442 76.0221C683.796 76.6288 683.974 77.3288 683.974 78.1221C683.974 78.9155 683.792 79.6155 683.428 80.2221C683.073 80.8288 682.588 81.3001 681.972 81.6361C681.365 81.9628 680.684 82.1261 679.928 82.1261ZM679.928 80.4181C680.282 80.4181 680.614 80.3341 680.922 80.1661C681.239 79.9888 681.491 79.7275 681.678 79.3821C681.864 79.0368 681.958 78.6168 681.958 78.1221C681.958 77.3848 681.762 76.8201 681.37 76.4281C680.987 76.0268 680.516 75.8261 679.956 75.8261C679.396 75.8261 678.924 76.0268 678.542 76.4281C678.168 76.8201 677.982 77.3848 677.982 78.1221C677.982 78.8595 678.164 79.4288 678.528 79.8301C678.901 80.2221 679.368 80.4181 679.928 80.4181Z" fill="black"/>
<path d="M687.371 75.3641C687.623 75.0095 687.969 74.7155 688.407 74.4821C688.855 74.2395 689.364 74.1181 689.933 74.1181C690.596 74.1181 691.193 74.2815 691.725 74.6081C692.267 74.9348 692.691 75.4015 692.999 76.0081C693.317 76.6055 693.475 77.3008 693.475 78.0941C693.475 78.8875 693.317 79.5921 692.999 80.2081C692.691 80.8148 692.267 81.2861 691.725 81.6221C691.193 81.9581 690.596 82.1261 689.933 82.1261C689.364 82.1261 688.86 82.0095 688.421 81.7761C687.992 81.5428 687.642 81.2488 687.371 80.8941V85.6961H685.411V74.2441H687.371V75.3641ZM691.473 78.0941C691.473 77.6275 691.375 77.2261 691.179 76.8901C690.993 76.5448 690.741 76.2835 690.423 76.1061C690.115 75.9288 689.779 75.8401 689.415 75.8401C689.061 75.8401 688.725 75.9335 688.407 76.1201C688.099 76.2975 687.847 76.5588 687.651 76.9041C687.465 77.2495 687.371 77.6555 687.371 78.1221C687.371 78.5888 687.465 78.9948 687.651 79.3401C687.847 79.6855 688.099 79.9515 688.407 80.1381C688.725 80.3155 689.061 80.4041 689.415 80.4041C689.779 80.4041 690.115 80.3108 690.423 80.1241C690.741 79.9375 690.993 79.6715 691.179 79.3261C691.375 78.9808 691.473 78.5701 691.473 78.0941Z" fill="black"/>
<path d="M702.222 74.2441V82.0001H700.248V81.0201C699.996 81.3561 699.664 81.6221 699.254 81.8181C698.852 82.0048 698.414 82.0981 697.938 82.0981C697.331 82.0981 696.794 81.9721 696.328 81.7201C695.861 81.4588 695.492 81.0808 695.222 80.5861C694.96 80.0821 694.83 79.4848 694.83 78.7941V74.2441H696.79V78.5141C696.79 79.1301 696.944 79.6061 697.252 79.9421C697.56 80.2688 697.98 80.4321 698.512 80.4321C699.053 80.4321 699.478 80.2688 699.786 79.9421C700.094 79.6061 700.248 79.1301 700.248 78.5141V74.2441H702.222Z" fill="black"/>
<path d="M706.115 71.6401V82.0001H704.155V71.6401H706.115Z" fill="black"/>
<path d="M707.548 78.0941C707.548 77.3101 707.702 76.6148 708.01 76.0081C708.327 75.4015 708.752 74.9348 709.284 74.6081C709.825 74.2815 710.427 74.1181 711.09 74.1181C711.669 74.1181 712.173 74.2348 712.602 74.4681C713.041 74.7015 713.391 74.9955 713.652 75.3501V74.2441H715.626V82.0001H713.652V80.8661C713.4 81.2301 713.05 81.5335 712.602 81.7761C712.163 82.0095 711.655 82.1261 711.076 82.1261C710.423 82.1261 709.825 81.9581 709.284 81.6221C708.752 81.2861 708.327 80.8148 708.01 80.2081C707.702 79.5921 707.548 78.8875 707.548 78.0941ZM713.652 78.1221C713.652 77.6461 713.559 77.2401 713.372 76.9041C713.185 76.5588 712.933 76.2975 712.616 76.1201C712.299 75.9335 711.958 75.8401 711.594 75.8401C711.23 75.8401 710.894 75.9288 710.586 76.1061C710.278 76.2835 710.026 76.5448 709.83 76.8901C709.643 77.2261 709.55 77.6275 709.55 78.0941C709.55 78.5608 709.643 78.9715 709.83 79.3261C710.026 79.6715 710.278 79.9375 710.586 80.1241C710.903 80.3108 711.239 80.4041 711.594 80.4041C711.958 80.4041 712.299 80.3155 712.616 80.1381C712.933 79.9515 713.185 79.6901 713.372 79.3541C713.559 79.0088 713.652 78.5981 713.652 78.1221Z" fill="black"/>
<path d="M719.5 75.4481C719.752 75.0375 720.079 74.7155 720.48 74.4821C720.891 74.2488 721.357 74.1321 721.88 74.1321V76.1901H721.362C720.746 76.1901 720.279 76.3348 719.962 76.6241C719.654 76.9135 719.5 77.4175 719.5 78.1361V82.0001H717.54V74.2441H719.5V75.4481Z" fill="black"/>
<circle cx="695" cy="30" r="30" fill="white"/>
<path d="M702.103 24.2917L701.187 23.5484L700.76 24.6492C700.752 24.6702 699.932 26.7427 698.673 26.3651C698.395 26.2815 698.208 26.1203 698.085 25.8575C697.773 25.188 697.906 23.9761 698.424 22.77C699.141 21.1024 698.827 19.3549 697.516 17.7165C696.595 16.564 695.487 15.8664 695.44 15.8372L694.099 15L694.128 16.5814C694.129 16.6097 694.158 19.4193 692.078 20.4495C690.803 21.0808 689.891 22.1248 689.508 23.3892C689.151 24.5722 689.301 25.8656 689.92 26.9377C690.174 27.3766 690.251 27.7488 690.149 28.044C690.003 28.4659 689.533 28.683 689.392 28.7395C687.905 29.3368 686.931 27.3428 686.892 27.2605L686.213 25.8125L685.382 27.1784C684.314 28.9324 683.75 30.9509 683.75 33.0157C683.75 39.1732 688.724 44.1902 694.865 44.2629C694.91 44.2641 694.955 44.2646 695 44.2646H695H695C701.203 44.2646 706.25 39.2183 706.25 33.0157C706.25 29.6192 704.738 26.4394 702.103 24.2917V24.2917ZM691.482 39.0307L691.481 39.0201C691.473 38.3372 691.603 37.605 691.869 36.8356L693.984 37.4536L694.005 36.3316C694.038 34.6131 695.007 33.5582 695.781 32.9875C695.98 33.8519 696.29 34.6226 696.717 35.3216C697.205 36.1174 697.667 36.792 698.093 37.4017C698.367 37.7942 698.522 38.3868 698.519 39.0275V39.0316C698.519 39.971 698.153 40.8544 697.488 41.5191C696.824 42.1831 695.94 42.5488 695 42.5488C695 42.5488 695 42.5488 695 42.5488C693.06 42.5486 691.482 40.9711 691.482 39.0307V39.0307ZM699.722 41.295C700.057 40.5979 700.235 39.8294 700.235 39.0334C700.239 38.0335 699.978 37.1055 699.5 36.4195C699.025 35.7394 698.619 35.1399 698.181 34.4254C697.692 33.6274 697.399 32.687 697.283 31.5505L697.17 30.4395L696.126 30.835C696.028 30.8721 695.143 31.2209 694.237 32.0434C693.275 32.9157 692.654 33.9943 692.408 35.2055L690.875 34.7572L690.572 35.4477C690.024 36.6976 689.753 37.9048 689.766 39.036C689.766 39.8456 689.952 40.6128 690.283 41.2975C687.408 39.654 685.466 36.5574 685.466 33.0156C685.466 31.7272 685.725 30.4604 686.222 29.2891C686.298 29.3735 686.379 29.4576 686.465 29.5405C687.516 30.552 688.783 30.833 690.031 30.3318C690.874 29.9933 691.508 29.3636 691.771 28.6042C691.957 28.0635 692.046 27.1866 691.406 26.0793C691.017 25.4063 690.927 24.6273 691.151 23.8857C691.394 23.0799 691.994 22.4056 692.839 21.9871C694.618 21.1062 695.345 19.4526 695.641 18.1981C695.828 18.3822 696.021 18.5907 696.201 18.8199C697.083 19.9376 697.3 21.0387 696.847 22.0926C696.123 23.7782 696.005 25.4569 696.53 26.5834C696.861 27.2911 697.431 27.7839 698.18 28.0086C699.358 28.3619 700.509 27.9507 701.423 26.8508C701.566 26.6787 701.692 26.5034 701.802 26.3349C703.55 28.1106 704.534 30.4926 704.534 33.0156C704.534 36.5555 702.594 39.6507 699.722 41.295V41.295Z" fill="#FF630B"/>
<path d="M764.62 72.2279V81.9999H762.66V75.6439L760.042 81.9999H758.558L755.926 75.6439V81.9999H753.966V72.2279H756.192L759.3 79.4939L762.408 72.2279H764.62Z" fill="black"/>
<path d="M767.552 73.3199C767.207 73.3199 766.917 73.2126 766.684 72.9979C766.46 72.7739 766.348 72.4986 766.348 72.1719C766.348 71.8453 766.46 71.5746 766.684 71.3599C766.917 71.1359 767.207 71.0239 767.552 71.0239C767.897 71.0239 768.182 71.1359 768.406 71.3599C768.639 71.5746 768.756 71.8453 768.756 72.1719C768.756 72.4986 768.639 72.7739 768.406 72.9979C768.182 73.2126 767.897 73.3199 767.552 73.3199ZM768.518 74.2439V81.9999H766.558V74.2439H768.518Z" fill="black"/>
<path d="M773.422 82.1259C772.788 82.1259 772.218 82.0139 771.714 81.7899C771.21 81.5566 770.809 81.2439 770.51 80.8519C770.221 80.4599 770.062 80.0259 770.034 79.5499H772.008C772.046 79.8486 772.19 80.0959 772.442 80.2919C772.704 80.4879 773.026 80.5859 773.408 80.5859C773.782 80.5859 774.071 80.5113 774.276 80.3619C774.491 80.2126 774.598 80.0213 774.598 79.7879C774.598 79.5359 774.468 79.3493 774.206 79.2279C773.954 79.0973 773.548 78.9573 772.988 78.8079C772.41 78.6679 771.934 78.5233 771.56 78.3739C771.196 78.2246 770.879 77.9959 770.608 77.6879C770.347 77.3799 770.216 76.9646 770.216 76.4419C770.216 76.0126 770.338 75.6206 770.58 75.2659C770.832 74.9113 771.187 74.6313 771.644 74.4259C772.111 74.2206 772.657 74.1179 773.282 74.1179C774.206 74.1179 774.944 74.3513 775.494 74.8179C776.045 75.2753 776.348 75.8959 776.404 76.6799H774.528C774.5 76.3719 774.37 76.1293 774.136 75.9519C773.912 75.7653 773.609 75.6719 773.226 75.6719C772.872 75.6719 772.596 75.7373 772.4 75.8679C772.214 75.9986 772.12 76.1806 772.12 76.4139C772.12 76.6753 772.251 76.8759 772.512 77.0159C772.774 77.1466 773.18 77.2819 773.73 77.4219C774.29 77.5619 774.752 77.7066 775.116 77.8559C775.48 78.0053 775.793 78.2386 776.054 78.5559C776.325 78.8639 776.465 79.2746 776.474 79.7879C776.474 80.2359 776.348 80.6373 776.096 80.9919C775.854 81.3466 775.499 81.6266 775.032 81.8319C774.575 82.0279 774.038 82.1259 773.422 82.1259Z" fill="black"/>
<path d="M777.579 78.1219C777.579 77.3193 777.743 76.6193 778.069 76.0219C778.396 75.4153 778.849 74.9486 779.427 74.6219C780.006 74.2859 780.669 74.1179 781.415 74.1179C782.377 74.1179 783.17 74.3606 783.795 74.8459C784.43 75.3219 784.855 75.9939 785.069 76.8619H782.955C782.843 76.5259 782.652 76.2646 782.381 76.0779C782.12 75.8819 781.793 75.7839 781.401 75.7839C780.841 75.7839 780.398 75.9893 780.071 76.3999C779.745 76.8013 779.581 77.3753 779.581 78.1219C779.581 78.8593 779.745 79.4333 780.071 79.8439C780.398 80.2453 780.841 80.4459 781.401 80.4459C782.195 80.4459 782.713 80.0913 782.955 79.3819H785.069C784.855 80.2219 784.43 80.8893 783.795 81.3839C783.161 81.8786 782.367 82.1259 781.415 82.1259C780.669 82.1259 780.006 81.9626 779.427 81.6359C778.849 81.2999 778.396 80.8333 778.069 80.2359C777.743 79.6293 777.579 78.9246 777.579 78.1219Z" fill="black"/>
<path d="M793.715 77.9539C793.715 78.2339 793.696 78.4859 793.659 78.7099H787.989C788.036 79.2699 788.232 79.7086 788.577 80.0259C788.922 80.3433 789.347 80.5019 789.851 80.5019C790.579 80.5019 791.097 80.1893 791.405 79.5639H793.519C793.295 80.3106 792.866 80.9266 792.231 81.4119C791.596 81.8879 790.817 82.1259 789.893 82.1259C789.146 82.1259 788.474 81.9626 787.877 81.6359C787.289 81.2999 786.827 80.8286 786.491 80.2219C786.164 79.6153 786.001 78.9153 786.001 78.1219C786.001 77.3193 786.164 76.6146 786.491 76.0079C786.818 75.4013 787.275 74.9346 787.863 74.6079C788.451 74.2813 789.128 74.1179 789.893 74.1179C790.63 74.1179 791.288 74.2766 791.867 74.5939C792.455 74.9113 792.908 75.3639 793.225 75.9519C793.552 76.5306 793.715 77.1979 793.715 77.9539ZM791.685 77.3939C791.676 76.8899 791.494 76.4886 791.139 76.1899C790.784 75.8819 790.35 75.7279 789.837 75.7279C789.352 75.7279 788.941 75.8773 788.605 76.1759C788.278 76.4653 788.078 76.8713 788.003 77.3939H791.685Z" fill="black"/>
<path d="M797.106 71.6399V81.9999H795.146V71.6399H797.106Z" fill="black"/>
<path d="M801.002 71.6399V81.9999H799.042V71.6399H801.002Z" fill="black"/>
<path d="M802.435 78.0939C802.435 77.3099 802.589 76.6146 802.897 76.0079C803.214 75.4013 803.639 74.9346 804.171 74.6079C804.712 74.2813 805.314 74.1179 805.977 74.1179C806.555 74.1179 807.059 74.2346 807.489 74.4679C807.927 74.7013 808.277 74.9953 808.539 75.3499V74.2439H810.513V81.9999H808.539V80.8659C808.287 81.2299 807.937 81.5333 807.489 81.7759C807.05 82.0093 806.541 82.1259 805.963 82.1259C805.309 82.1259 804.712 81.9579 804.171 81.6219C803.639 81.2859 803.214 80.8146 802.897 80.2079C802.589 79.5919 802.435 78.8873 802.435 78.0939ZM808.539 78.1219C808.539 77.6459 808.445 77.2399 808.259 76.9039C808.072 76.5586 807.82 76.2973 807.503 76.1199C807.185 75.9333 806.845 75.8399 806.481 75.8399C806.117 75.8399 805.781 75.9286 805.473 76.1059C805.165 76.2833 804.913 76.5446 804.717 76.8899C804.53 77.2259 804.437 77.6273 804.437 78.0939C804.437 78.5606 804.53 78.9713 804.717 79.3259C804.913 79.6713 805.165 79.9373 805.473 80.1239C805.79 80.3106 806.126 80.4039 806.481 80.4039C806.845 80.4039 807.185 80.3153 807.503 80.1379C807.82 79.9513 808.072 79.6899 808.259 79.3539C808.445 79.0086 808.539 78.5979 808.539 78.1219Z" fill="black"/>
<path d="M816.725 74.1319C817.649 74.1319 818.396 74.4259 818.965 75.0139C819.534 75.5926 819.819 76.4046 819.819 77.4499V81.9999H817.859V77.7159C817.859 77.0999 817.705 76.6286 817.397 76.3019C817.089 75.9659 816.669 75.7979 816.137 75.7979C815.596 75.7979 815.166 75.9659 814.849 76.3019C814.541 76.6286 814.387 77.0999 814.387 77.7159V81.9999H812.427V74.2439H814.387V75.2099C814.648 74.8739 814.98 74.6126 815.381 74.4259C815.792 74.2299 816.24 74.1319 816.725 74.1319Z" fill="black"/>
<path d="M828.893 77.9539C828.893 78.2339 828.874 78.4859 828.837 78.7099H823.167C823.214 79.2699 823.41 79.7086 823.755 80.0259C824.1 80.3433 824.525 80.5019 825.029 80.5019C825.757 80.5019 826.275 80.1893 826.583 79.5639H828.697C828.473 80.3106 828.044 80.9266 827.409 81.4119C826.774 81.8879 825.995 82.1259 825.071 82.1259C824.324 82.1259 823.652 81.9626 823.055 81.6359C822.467 81.2999 822.005 80.8286 821.669 80.2219C821.342 79.6153 821.179 78.9153 821.179 78.1219C821.179 77.3193 821.342 76.6146 821.669 76.0079C821.996 75.4013 822.453 74.9346 823.041 74.6079C823.629 74.2813 824.306 74.1179 825.071 74.1179C825.808 74.1179 826.466 74.2766 827.045 74.5939C827.633 74.9113 828.086 75.3639 828.403 75.9519C828.73 76.5306 828.893 77.1979 828.893 77.9539ZM826.863 77.3939C826.854 76.8899 826.672 76.4886 826.317 76.1899C825.962 75.8819 825.528 75.7279 825.015 75.7279C824.53 75.7279 824.119 75.8773 823.783 76.1759C823.456 76.4653 823.256 76.8713 823.181 77.3939H826.863Z" fill="black"/>
<path d="M833.767 82.1259C833.021 82.1259 832.349 81.9626 831.751 81.6359C831.154 81.2999 830.683 80.8286 830.337 80.2219C830.001 79.6153 829.833 78.9153 829.833 78.1219C829.833 77.3286 830.006 76.6286 830.351 76.0219C830.706 75.4153 831.187 74.9486 831.793 74.6219C832.4 74.2859 833.077 74.1179 833.823 74.1179C834.57 74.1179 835.247 74.2859 835.853 74.6219C836.46 74.9486 836.936 75.4153 837.281 76.0219C837.636 76.6286 837.813 77.3286 837.813 78.1219C837.813 78.9153 837.631 79.6153 837.267 80.2219C836.913 80.8286 836.427 81.2999 835.811 81.6359C835.205 81.9626 834.523 82.1259 833.767 82.1259ZM833.767 80.4179C834.122 80.4179 834.453 80.3339 834.761 80.1659C835.079 79.9886 835.331 79.7273 835.517 79.3819C835.704 79.0366 835.797 78.6166 835.797 78.1219C835.797 77.3846 835.601 76.8199 835.209 76.4279C834.827 76.0266 834.355 75.8259 833.795 75.8259C833.235 75.8259 832.764 76.0266 832.381 76.4279C832.008 76.8199 831.821 77.3846 831.821 78.1219C831.821 78.8593 832.003 79.4286 832.367 79.8299C832.741 80.2219 833.207 80.4179 833.767 80.4179Z" fill="black"/>
<path d="M846.573 74.2439V81.9999H844.599V81.0199C844.347 81.3559 844.016 81.6219 843.605 81.8179C843.204 82.0046 842.765 82.0979 842.289 82.0979C841.683 82.0979 841.146 81.9719 840.679 81.7199C840.213 81.4586 839.844 81.0806 839.573 80.5859C839.312 80.0819 839.181 79.4846 839.181 78.7939V74.2439H841.141V78.5139C841.141 79.1299 841.295 79.6059 841.603 79.9419C841.911 80.2686 842.331 80.4319 842.863 80.4319C843.405 80.4319 843.829 80.2686 844.137 79.9419C844.445 79.6059 844.599 79.1299 844.599 78.5139V74.2439H846.573Z" fill="black"/>
<path d="M851.475 82.1259C850.84 82.1259 850.271 82.0139 849.767 81.7899C849.263 81.5566 848.862 81.2439 848.563 80.8519C848.274 80.4599 848.115 80.0259 848.087 79.5499H850.061C850.098 79.8486 850.243 80.0959 850.495 80.2919C850.756 80.4879 851.078 80.5859 851.461 80.5859C851.834 80.5859 852.124 80.5113 852.329 80.3619C852.544 80.2126 852.651 80.0213 852.651 79.7879C852.651 79.5359 852.52 79.3493 852.259 79.2279C852.007 79.0973 851.601 78.9573 851.041 78.8079C850.462 78.6679 849.986 78.5233 849.613 78.3739C849.249 78.2246 848.932 77.9959 848.661 77.6879C848.4 77.3799 848.269 76.9646 848.269 76.4419C848.269 76.0126 848.39 75.6206 848.633 75.2659C848.885 74.9113 849.24 74.6313 849.697 74.4259C850.164 74.2206 850.71 74.1179 851.335 74.1179C852.259 74.1179 852.996 74.3513 853.547 74.8179C854.098 75.2753 854.401 75.8959 854.457 76.6799H852.581C852.553 76.3719 852.422 76.1293 852.189 75.9519C851.965 75.7653 851.662 75.6719 851.279 75.6719C850.924 75.6719 850.649 75.7373 850.453 75.8679C850.266 75.9986 850.173 76.1806 850.173 76.4139C850.173 76.6753 850.304 76.8759 850.565 77.0159C850.826 77.1466 851.232 77.2819 851.783 77.4219C852.343 77.5619 852.805 77.7066 853.169 77.8559C853.533 78.0053 853.846 78.2386 854.107 78.5559C854.378 78.8639 854.518 79.2746 854.527 79.7879C854.527 80.2359 854.401 80.6373 854.149 80.9919C853.906 81.3466 853.552 81.6266 853.085 81.8319C852.628 82.0279 852.091 82.1259 851.475 82.1259Z" fill="black"/>
<circle cx="805" cy="30" r="30" fill="white"/>
<path fill-rule="evenodd" clip-rule="evenodd" d="M796.875 17.5043L796.188 19.3623C795.875 20.2079 795.208 20.8746 794.362 21.1875L792.504 21.875L794.362 22.5625C795.208 22.8754 795.875 23.5421 796.188 24.3877L796.875 26.2457L797.563 24.3877C797.876 23.5421 798.542 22.8754 799.388 22.5625L801.246 21.875L799.388 21.1875C798.542 20.8746 797.876 20.2079 797.563 19.3623L796.875 17.5043ZM798.135 15.877C797.702 14.7077 796.048 14.7077 795.615 15.877L794.55 18.7563C794.414 19.124 794.124 19.4138 793.756 19.5499L790.877 20.6153C789.708 21.048 789.708 22.702 790.877 23.1347L793.756 24.2001C794.124 24.3362 794.414 24.626 794.55 24.9937L795.615 27.873C796.048 29.0423 797.702 29.0423 798.135 27.873L799.2 24.9937C799.336 24.626 799.626 24.3362 799.994 24.2001L802.873 23.1347C804.042 22.702 804.042 21.048 802.873 20.6153L799.994 19.5499C799.626 19.4138 799.336 19.124 799.2 18.7563L798.135 15.877Z" fill="#E830D5"/>
<path fill-rule="evenodd" clip-rule="evenodd" d="M808.125 25.069L806.117 30.4949C805.796 31.3623 805.112 32.0462 804.245 32.3672L798.819 34.375L804.245 36.3828C805.112 36.7038 805.796 37.3877 806.117 38.2551L808.125 43.681L810.133 38.2551C810.454 37.3877 811.138 36.7038 812.005 36.3828L817.431 34.375L812.005 32.3672C811.138 32.0462 810.454 31.3623 810.133 30.4949L808.125 25.069ZM809.417 23.3997C808.973 22.2001 807.277 22.2001 806.833 23.3997L804.437 29.8733C804.298 30.2504 804.001 30.5478 803.623 30.6873L797.15 33.0828C795.95 33.5267 795.95 35.2233 797.15 35.6672L803.623 38.0627C804.001 38.2022 804.298 38.4996 804.437 38.8767L806.833 45.3503C807.277 46.5499 808.973 46.5499 809.417 45.3503L811.813 38.8767C811.952 38.4996 812.25 38.2022 812.627 38.0627L819.1 35.6672C820.3 35.2233 820.3 33.5267 819.1 33.0828L812.627 30.6873C812.25 30.5478 811.952 30.2504 811.813 29.8733L809.417 23.3997Z" fill="#E830D5"/>
<defs>
<clipPath id="clip0">
<rect width="32.5" height="32.5" fill="white" transform="translate(121.75 15)"/>
</clipPath>
</defs>
</svg>
