<svg width="508" height="115" viewBox="0 0 508 115" fill="none" xmlns="http://www.w3.org/2000/svg">
<g filter="url(#filter0_d_1199_3738)">
<path d="M25 30C25 27.2386 27.2386 25 30 25L478 25.0001C480.761 25.0001 483 27.2387 483 30.0001L483 85.0001C483 87.7615 480.761 90.0001 478 90.0001L30 90C27.2386 90 25 87.7614 25 85L25 30Z" fill="white"/>
</g>
<path d="M81.432 63H83.288C85.112 63 86.008 62.088 86.008 60.152V51.8H84.568V60.072C84.568 61.144 84.152 61.64 83.128 61.64H81.432V63ZM91.8558 63.16C93.9838 63.16 95.6478 61.48 95.6478 59C95.6478 56.52 93.9838 54.84 91.8558 54.84C89.7278 54.84 88.0798 56.52 88.0798 59C88.0798 61.48 89.7278 63.16 91.8558 63.16ZM91.7918 62.008C90.4478 62.008 89.4398 60.904 89.4398 59C89.4398 57.096 90.4478 55.992 91.7918 55.992H91.9358C93.2798 55.992 94.2878 57.096 94.2878 59C94.2878 60.904 93.2798 62.008 91.9358 62.008H91.7918ZM97.6226 63H98.9826V58.68C98.9826 57.096 99.9426 55.992 101.271 55.992H101.399C102.583 55.992 103.111 56.728 103.111 58.008V63H104.471V57.688C104.471 55.928 103.383 54.84 101.623 54.84C100.327 54.84 99.4466 55.416 98.9826 56.2V55H97.6226V63ZM112.905 61.24V57.88C112.905 56.248 111.833 54.84 109.721 54.84C107.945 54.84 106.633 55.832 106.537 57.288H107.897C107.993 56.424 108.761 55.992 109.657 55.992H109.769C110.873 55.992 111.545 56.68 111.545 57.88V58.152L109.241 58.344C107.961 58.44 106.377 58.984 106.377 60.792C106.377 62.152 107.497 63.16 108.985 63.16C110.297 63.16 111.305 62.44 111.625 61.72C111.625 61.912 111.641 62.616 111.705 63H112.985C112.905 62.44 112.905 61.72 112.905 61.24ZM109.273 62.008H109.129C108.329 62.008 107.737 61.464 107.737 60.728C107.737 59.944 108.441 59.464 109.449 59.384L111.545 59.224V60.12C111.545 61.16 110.297 62.008 109.273 62.008ZM117.681 63H119.553V61.8H118.001C117.521 61.8 117.361 61.64 117.361 61.16V56.168H119.313V55H117.361V52.408H116.001V55H114.209V56.168H116.001V61.352C116.001 62.44 116.593 63 117.681 63ZM121.185 63H122.545V58.568C122.545 56.936 123.649 55.992 124.817 55.992H124.961C126.145 55.992 126.673 56.728 126.673 57.992V63H128.033V57.672C128.033 55.992 127.025 54.84 125.201 54.84C123.905 54.84 123.041 55.4 122.545 56.2V51.8H121.185V63ZM136.468 61.24V57.88C136.468 56.248 135.396 54.84 133.284 54.84C131.508 54.84 130.196 55.832 130.1 57.288H131.46C131.556 56.424 132.324 55.992 133.22 55.992H133.332C134.436 55.992 135.108 56.68 135.108 57.88V58.152L132.804 58.344C131.524 58.44 129.94 58.984 129.94 60.792C129.94 62.152 131.06 63.16 132.548 63.16C133.86 63.16 134.868 62.44 135.188 61.72C135.188 61.912 135.204 62.616 135.268 63H136.548C136.468 62.44 136.468 61.72 136.468 61.24ZM132.836 62.008H132.692C131.892 62.008 131.299 61.464 131.299 60.728C131.299 59.944 132.004 59.464 133.012 59.384L135.108 59.224V60.12C135.108 61.16 133.86 62.008 132.836 62.008ZM138.857 63H140.217V58.68C140.217 57.096 141.177 55.992 142.505 55.992H142.633C143.817 55.992 144.345 56.728 144.345 58.008V63H145.705V57.688C145.705 55.928 144.617 54.84 142.857 54.84C141.561 54.84 140.681 55.416 140.217 56.2V55H138.857V63ZM159.645 63H161.453L156.861 56.36L161.373 51.8H159.485L153.709 57.576V51.8H152.269V63H153.709V59.544L155.821 57.416L159.645 63ZM162.858 53.56H164.378V51.928H162.858V53.56ZM160.266 65.848H162.666C163.754 65.848 164.298 65.352 164.298 64.248V55H162.938V64.008C162.938 64.488 162.778 64.648 162.298 64.648H160.266V65.848ZM169.964 63.16C171.612 63.16 172.956 62.264 173.26 60.664H171.9C171.692 61.576 170.956 62.008 170.076 62.008H169.948C168.86 62.008 167.692 61.16 167.628 59.192H173.276V58.392C173.276 56.312 171.98 54.84 169.932 54.84C168.06 54.84 166.268 56.2 166.268 58.984C166.268 61.768 167.98 63.16 169.964 63.16ZM167.692 58.088C167.964 56.504 168.972 55.992 169.868 55.992H169.996C171.036 55.992 171.852 56.696 171.916 58.088H167.692ZM175.295 63H176.655V51.8H175.295V63ZM179.107 63H180.467V51.8H179.107V63Z" fill="#0085FF"/>
<circle cx="54.5" cy="57.5" r="17.5" fill="#EFE9F5"/>
<path fill-rule="evenodd" clip-rule="evenodd" d="M54.5 65C59.7467 65 64 61.6421 64 57.5C64 53.3579 59.7467 50 54.5 50C49.2533 50 45 53.3579 45 57.5C45 59.5685 46.0606 61.4413 47.776 62.7982L47.5808 65.9917L51.1409 64.5177C52.1852 64.8294 53.3174 65 54.5 65Z" fill="#967DB6"/>
<rect x="345" y="45" width="24" height="24" rx="3" fill="#F6F7F9"/>
<circle cx="354.5" cy="54.5" r="3" stroke="black"/>
<path d="M360 63.5C360 60.4624 357.538 58 354.5 58C351.462 58 349 60.4624 349 63.5" stroke="black" stroke-linecap="round"/>
<path d="M360 56H365" stroke="black" stroke-linecap="round"/>
<path d="M363.303 53.75L365.607 56.0533L363.303 58.3566" stroke="black" stroke-linecap="round" stroke-linejoin="round"/>
<rect x="379" y="45" width="24" height="24" rx="3" fill="#DDEDFF"/>
<mask id="path-11-outside-1_1199_3738" maskUnits="userSpaceOnUse" x="382" y="52" width="18" height="11" fill="black">
<rect fill="white" x="382" y="52" width="18" height="11"/>
<path d="M398 57.2C398 57.2 394.866 61.4 391 61.4C387.134 61.4 384 57.2 384 57.2C384 57.2 387.134 53 391 53C394.866 53 398 57.2 398 57.2Z"/>
</mask>
<path d="M398 57.2L398.801 57.798L399.248 57.2L398.801 56.602L398 57.2ZM384 57.2L383.199 56.602L382.752 57.2L383.199 57.798L384 57.2ZM398 57.2C397.199 56.602 397.199 56.6017 397.199 56.6015C397.199 56.6015 397.199 56.6013 397.199 56.6012C397.199 56.601 397.199 56.6009 397.199 56.6009C397.199 56.6007 397.199 56.6009 397.199 56.6013C397.198 56.602 397.197 56.6038 397.195 56.6064C397.191 56.6118 397.184 56.621 397.174 56.6337C397.154 56.6591 397.123 56.6986 397.081 56.7501C396.998 56.8534 396.871 57.0045 396.706 57.1874C396.376 57.5547 395.899 58.0435 395.312 58.5301C394.109 59.5267 392.585 60.4 391 60.4V62.4C393.281 62.4 395.257 61.1733 396.588 60.0699C397.268 59.5065 397.815 58.9453 398.193 58.5251C398.383 58.3143 398.531 58.1373 398.634 58.0108C398.685 57.9475 398.725 57.8968 398.754 57.8607C398.768 57.8426 398.779 57.8282 398.787 57.8177C398.791 57.8124 398.794 57.8081 398.796 57.8048C398.798 57.8032 398.799 57.8018 398.799 57.8007C398.8 57.8001 398.8 57.7996 398.801 57.7992C398.801 57.7989 398.801 57.7987 398.801 57.7986C398.801 57.7983 398.801 57.798 398 57.2ZM391 60.4C389.415 60.4 387.891 59.5267 386.688 58.5301C386.101 58.0435 385.624 57.5547 385.294 57.1874C385.129 57.0045 385.002 56.8534 384.919 56.7501C384.877 56.6986 384.846 56.6591 384.826 56.6337C384.816 56.621 384.809 56.6118 384.805 56.6064C384.803 56.6038 384.802 56.602 384.801 56.6013C384.801 56.6009 384.801 56.6007 384.801 56.6009C384.801 56.6009 384.801 56.601 384.801 56.6012C384.801 56.6013 384.801 56.6015 384.801 56.6015C384.801 56.6017 384.801 56.602 384 57.2C383.199 57.798 383.199 57.7983 383.199 57.7986C383.199 57.7987 383.199 57.7989 383.199 57.7992C383.2 57.7996 383.2 57.8001 383.201 57.8007C383.201 57.8018 383.202 57.8032 383.204 57.8048C383.206 57.8081 383.209 57.8124 383.213 57.8177C383.221 57.8282 383.232 57.8426 383.246 57.8607C383.275 57.8968 383.315 57.9475 383.366 58.0108C383.469 58.1373 383.617 58.3143 383.807 58.5251C384.185 58.9453 384.732 59.5065 385.412 60.0699C386.743 61.1733 388.719 62.4 391 62.4V60.4ZM384 57.2C384.801 57.798 384.801 57.7983 384.801 57.7985C384.801 57.7985 384.801 57.7987 384.801 57.7988C384.801 57.799 384.801 57.7991 384.801 57.7991C384.801 57.7993 384.801 57.7991 384.801 57.7987C384.802 57.798 384.803 57.7962 384.805 57.7936C384.809 57.7882 384.816 57.779 384.826 57.7663C384.846 57.7409 384.877 57.7014 384.919 57.6499C385.002 57.5466 385.129 57.3955 385.294 57.2126C385.624 56.8453 386.101 56.3565 386.688 55.8699C387.891 54.8733 389.415 54 391 54V52C388.719 52 386.743 53.2267 385.412 54.3301C384.732 54.8935 384.185 55.4547 383.807 55.8749C383.617 56.0857 383.469 56.2627 383.366 56.3892C383.315 56.4525 383.275 56.5032 383.246 56.5393C383.232 56.5574 383.221 56.5718 383.213 56.5823C383.209 56.5876 383.206 56.5919 383.204 56.5952C383.202 56.5968 383.201 56.5982 383.201 56.5993C383.2 56.5999 383.2 56.6004 383.199 56.6008C383.199 56.6011 383.199 56.6013 383.199 56.6014C383.199 56.6017 383.199 56.602 384 57.2ZM391 54C392.585 54 394.109 54.8733 395.312 55.8699C395.899 56.3565 396.376 56.8453 396.706 57.2126C396.871 57.3955 396.998 57.5466 397.081 57.6499C397.123 57.7014 397.154 57.7409 397.174 57.7663C397.184 57.779 397.191 57.7882 397.195 57.7936C397.197 57.7962 397.198 57.798 397.199 57.7987C397.199 57.7991 397.199 57.7993 397.199 57.7991C397.199 57.7991 397.199 57.799 397.199 57.7988C397.199 57.7987 397.199 57.7985 397.199 57.7985C397.199 57.7983 397.199 57.798 398 57.2C398.801 56.602 398.801 56.6017 398.801 56.6014C398.801 56.6013 398.801 56.6011 398.801 56.6008C398.8 56.6004 398.8 56.5999 398.799 56.5993C398.799 56.5982 398.798 56.5968 398.796 56.5952C398.794 56.5919 398.791 56.5876 398.787 56.5823C398.779 56.5718 398.768 56.5574 398.754 56.5393C398.725 56.5032 398.685 56.4525 398.634 56.3892C398.531 56.2627 398.383 56.0857 398.193 55.8749C397.815 55.4547 397.268 54.8935 396.588 54.3301C395.257 53.2267 393.281 52 391 52V54Z" fill="#121212" mask="url(#path-11-outside-1_1199_3738)"/>
<circle cx="391" cy="57.1998" r="1.9" stroke="#121212"/>
<rect x="413" y="45" width="24" height="24" rx="3" fill="#F6F7F9"/>
<mask id="path-15-inside-2_1199_3738" fill="white">
<path fill-rule="evenodd" clip-rule="evenodd" d="M426.912 50.4121C426.661 49.5945 425.9 49.0001 425 49.0001C424.1 49.0001 423.339 49.5945 423.088 50.4122C421.275 51.1812 420 53.0108 420 55.1454H420C420 55.1454 420 55.6575 419.5 58.7303C419 61.8031 418 62.3152 418 62.3152H420H423.12C423.042 62.5288 423 62.7595 423 63.0001C423 64.1047 423.895 65.0001 425 65.0001C426.105 65.0001 427 64.1047 427 63.0001C427 62.7595 426.958 62.5288 426.88 62.3152H430H432C432 62.3152 431 61.8031 430.5 58.7303C430 55.6575 430 55.1454 430 55.1454C430 53.0108 428.725 51.1812 426.912 50.4121Z"/>
</mask>
<path d="M426.912 50.4121L425.956 50.7057C426.043 50.9879 426.25 51.2174 426.522 51.3327L426.912 50.4121ZM423.088 50.4122L423.478 51.3327C423.75 51.2174 423.957 50.9879 424.044 50.7057L423.088 50.4122ZM420 55.1454V56.1454C420.552 56.1454 421 55.6977 421 55.1454L420 55.1454ZM420 55.1454V54.1454C419.448 54.1454 419 54.5931 419 55.1454L420 55.1454ZM419.5 58.7303L420.487 58.8909L420.487 58.8909L419.5 58.7303ZM418 62.3152L417.544 61.4251C417.133 61.6357 416.92 62.1005 417.028 62.5496C417.136 62.9987 417.538 63.3152 418 63.3152V62.3152ZM423.12 62.3152L424.06 62.6576C424.172 62.351 424.127 62.0092 423.94 61.7418C423.753 61.4744 423.447 61.3152 423.12 61.3152V62.3152ZM426.88 62.3152V61.3152C426.553 61.3152 426.247 61.4744 426.06 61.7418C425.873 62.0092 425.828 62.351 425.94 62.6576L426.88 62.3152ZM432 62.3152V63.3152C432.462 63.3152 432.864 62.9987 432.972 62.5496C433.08 62.1005 432.867 61.6357 432.456 61.4251L432 62.3152ZM430.5 58.7303L431.487 58.5697L431.487 58.5697L430.5 58.7303ZM430 55.1454L431 55.1454L431 55.1454L430 55.1454ZM425 50.0001C425.448 50.0001 425.83 50.2961 425.956 50.7057L427.868 50.1186C427.492 48.8929 426.351 48.0001 425 48.0001V50.0001ZM424.044 50.7057C424.17 50.2961 424.552 50.0001 425 50.0001V48.0001C423.649 48.0001 422.508 48.8929 422.132 50.1186L424.044 50.7057ZM421 55.1454C421 53.4152 422.032 51.9462 423.478 51.3327L422.697 49.4916C420.518 50.4162 419 52.6063 419 55.1454L421 55.1454ZM420 54.1454H420V56.1454H420V54.1454ZM420 55.1454C419 55.1454 419 55.1449 419 55.1444C419 55.1443 419 55.1438 419 55.1435C419 55.1429 419 55.1423 419 55.1417C419 55.1406 419 55.1394 419 55.1384C419 55.1362 419 55.1343 419 55.1326C419 55.1292 419 55.1265 419 55.1248C419 55.1213 419 55.1211 419 55.1246C419 55.132 418.999 55.153 418.995 55.1923C418.989 55.2714 418.975 55.4175 418.945 55.6644C418.885 56.1585 418.762 57.0406 418.513 58.5697L420.487 58.8909C420.738 57.3472 420.865 56.4368 420.93 55.9067C420.963 55.6414 420.98 55.4675 420.989 55.3545C420.994 55.2978 420.996 55.2548 420.998 55.2222C420.999 55.2057 420.999 55.1915 421 55.179C421 55.1727 421 55.1669 421 55.1613C421 55.1585 421 55.1558 421 55.1532C421 55.1518 421 55.1505 421 55.1492C421 55.1486 421 55.1479 421 55.1473C421 55.147 421 55.1465 421 55.1463C421 55.1459 421 55.1454 420 55.1454ZM418.513 58.5697C418.278 60.0146 417.937 60.7798 417.709 61.1541C417.595 61.34 417.51 61.4297 417.477 61.4605C417.46 61.4762 417.456 61.478 417.467 61.4704C417.472 61.4666 417.481 61.4606 417.494 61.4529C417.5 61.449 417.508 61.4447 417.516 61.4401C417.52 61.4377 417.525 61.4353 417.529 61.4328C417.532 61.4316 417.534 61.4303 417.537 61.429C417.538 61.4284 417.539 61.4277 417.54 61.4271C417.541 61.4268 417.542 61.4263 417.542 61.4261C417.543 61.4256 417.544 61.4251 418 62.3152C418.456 63.2053 418.457 63.2048 418.458 63.2042C418.458 63.2041 418.459 63.2036 418.46 63.2032C418.461 63.2025 418.462 63.2019 418.464 63.2011C418.466 63.1997 418.469 63.1983 418.472 63.1968C418.478 63.1938 418.484 63.1906 418.49 63.1872C418.502 63.1804 418.515 63.1728 418.529 63.1645C418.556 63.1477 418.587 63.1277 418.621 63.104C418.688 63.0563 418.766 62.9942 418.851 62.9138C419.022 62.7526 419.217 62.5221 419.416 62.1959C419.813 61.546 420.222 60.5187 420.487 58.8909L418.513 58.5697ZM418 63.3152H420V61.3152H418V63.3152ZM420 63.3152H423.12V61.3152H420V63.3152ZM424 63.0001C424 62.878 424.021 62.7632 424.06 62.6576L422.181 61.9727C422.064 62.2945 422 62.641 422 63.0001H424ZM425 64.0001C424.448 64.0001 424 63.5524 424 63.0001H422C422 64.657 423.343 66.0001 425 66.0001V64.0001ZM426 63.0001C426 63.5524 425.552 64.0001 425 64.0001V66.0001C426.657 66.0001 428 64.657 428 63.0001H426ZM425.94 62.6576C425.979 62.7632 426 62.878 426 63.0001H428C428 62.641 427.936 62.2945 427.819 61.9727L425.94 62.6576ZM426.88 63.3152H430V61.3152H426.88V63.3152ZM432 61.3152H430V63.3152H432V61.3152ZM429.513 58.8909C429.778 60.5187 430.187 61.546 430.584 62.1959C430.783 62.5221 430.978 62.7526 431.149 62.9138C431.234 62.9942 431.312 63.0563 431.379 63.104C431.413 63.1277 431.444 63.1477 431.471 63.1645C431.485 63.1728 431.498 63.1804 431.51 63.1872C431.516 63.1906 431.522 63.1938 431.528 63.1968C431.531 63.1983 431.534 63.1997 431.536 63.2011C431.538 63.2019 431.539 63.2025 431.54 63.2032C431.541 63.2036 431.542 63.2041 431.542 63.2043C431.543 63.2048 431.544 63.2053 432 62.3152C432.456 61.4251 432.457 61.4256 432.458 61.4261C432.458 61.4263 432.459 61.4268 432.46 61.4271C432.461 61.4277 432.462 61.4284 432.463 61.429C432.466 61.4303 432.468 61.4316 432.471 61.4328C432.475 61.4353 432.48 61.4377 432.484 61.4401C432.492 61.4447 432.5 61.449 432.506 61.4529C432.519 61.4606 432.528 61.4666 432.533 61.4704C432.544 61.478 432.54 61.4762 432.523 61.4605C432.49 61.4297 432.405 61.34 432.291 61.1541C432.063 60.7798 431.722 60.0146 431.487 58.5697L429.513 58.8909ZM430 55.1454C429 55.1454 429 55.1459 429 55.1463C429 55.1465 429 55.147 429 55.1473C429 55.1479 429 55.1486 429 55.1492C429 55.1505 429 55.1518 429 55.1532C429 55.1558 429 55.1585 429 55.1613C429 55.1669 429 55.1727 429 55.179C429.001 55.1915 429.001 55.2057 429.002 55.2222C429.004 55.2548 429.006 55.2978 429.011 55.3545C429.02 55.4675 429.037 55.6414 429.07 55.9067C429.135 56.4368 429.262 57.3472 429.513 58.8909L431.487 58.5697C431.238 57.0406 431.115 56.1585 431.055 55.6644C431.025 55.4175 431.011 55.2714 431.005 55.1923C431.001 55.153 431 55.132 431 55.1246C431 55.1211 431 55.1213 431 55.1248C431 55.1265 431 55.1292 431 55.1326C431 55.1343 431 55.1362 431 55.1384C431 55.1394 431 55.1406 431 55.1417C431 55.1423 431 55.1429 431 55.1435C431 55.1438 431 55.1443 431 55.1444C431 55.1449 431 55.1454 430 55.1454ZM426.522 51.3327C427.968 51.9462 429 53.4152 429 55.1454L431 55.1454C431 52.6063 429.482 50.4162 427.303 49.4916L426.522 51.3327Z" fill="#121212" mask="url(#path-15-inside-2_1199_3738)"/>
<rect x="447" y="45" width="24" height="24" rx="3" fill="#F6F7F9"/>
<circle cx="459" cy="57" r="7" stroke="black"/>
<path d="M462 54.5L458 60L455.5 57.5" stroke="black" stroke-linecap="round" stroke-linejoin="round"/>
<g filter="url(#filter1_d_1199_3738)">
<path fill-rule="evenodd" clip-rule="evenodd" d="M398.027 75.0881C398.028 75.0861 398.03 75.0831 398.031 75.0811L398.053 75.1631L398.027 75.0881ZM399.522 80.5601C399.522 80.4561 399.555 80.3551 399.614 80.2701L400.462 79.0761C400.816 78.5771 401.004 77.9881 401.004 77.3731V72.4971C401.004 70.4221 400.783 70.0801 400.028 70.0161V71.4971C400.028 71.7741 399.805 71.9971 399.528 71.9971C399.252 71.9971 399.028 71.7741 399.028 71.4971V69.5721C398.97 69.3961 398.74 68.9191 397.97 68.9291V71.4971C397.97 71.7741 397.746 71.9971 397.47 71.9971C397.193 71.9971 396.97 71.7741 396.97 71.4971V68.5941C396.876 68.4281 396.599 68.0421 396.085 67.9971V71.4971C396.085 71.7741 395.861 71.9971 395.585 71.9971C395.308 71.9971 395.085 71.7741 395.085 71.4971V68.0731C395.084 68.0611 395.078 68.0511 395.078 68.0391V65.9971C395.078 65.4391 394.691 65.0111 394.178 65.0001C393.631 65.0121 393.114 65.4871 393.114 65.9971V73.1541C393.114 73.3661 392.981 73.5541 392.782 73.6251C392.586 73.6971 392.361 73.6341 392.227 73.4721L390.7 71.6101C390.524 71.4341 390.26 71.3191 389.988 71.3191H389.987C389.715 71.3191 389.451 71.4341 389.243 71.6441C388.915 71.9771 388.927 72.5351 389.269 72.8881L390.649 74.8641C391.268 75.7531 391.766 76.7241 392.128 77.7481C392.457 78.7521 393.227 80.2211 393.846 80.2211C394.121 80.2211 394.345 80.4441 394.346 80.7201L394.347 81.4971H399.522V80.8311V80.5601Z" fill="white"/>
<mask id="mask0_1199_3738" style="mask-type:alpha" maskUnits="userSpaceOnUse" x="401" y="71" width="2" height="2">
<path fill-rule="evenodd" clip-rule="evenodd" d="M402.085 71.8821V72.8821H401.983V71.8821H402.085V71.8821Z" fill="white"/>
</mask>
<g mask="url(#mask0_1199_3738)">
<path fill-rule="evenodd" clip-rule="evenodd" d="M401.983 71.8821C401.988 71.9951 401.992 72.1091 401.994 72.2311C401.992 72.1111 401.989 71.9921 401.983 71.8821" fill="white"/>
</g>
<mask id="mask1_1199_3738" style="mask-type:alpha" maskUnits="userSpaceOnUse" x="392" y="83" width="2" height="2">
<path fill-rule="evenodd" clip-rule="evenodd" d="M393.341 84.4976H392.341V83.8363H393.341V84.4976Z" fill="white"/>
</mask>
<g mask="url(#mask1_1199_3738)">
<path fill-rule="evenodd" clip-rule="evenodd" d="M392.341 83.8363C392.503 84.0753 392.732 84.2663 393.001 84.3793C392.732 84.2663 392.503 84.0753 392.341 83.8363" fill="white"/>
</g>
<mask id="mask2_1199_3738" style="mask-type:alpha" maskUnits="userSpaceOnUse" x="401" y="81" width="2" height="2">
<path fill-rule="evenodd" clip-rule="evenodd" d="M402.085 81.6155V82.6155H401.168V81.6155H402.085V81.6155Z" fill="white"/>
</mask>
<g mask="url(#mask2_1199_3738)">
<path fill-rule="evenodd" clip-rule="evenodd" d="M401.168 81.6155C401.347 81.6915 401.509 81.8015 401.645 81.9365C401.509 81.8015 401.347 81.6915 401.168 81.6155" fill="white"/>
</g>
<path fill-rule="evenodd" clip-rule="evenodd" d="M393.001 81.6155C392.732 81.7295 392.503 81.9195 392.341 82.1585C392.503 81.9195 392.732 81.7295 393.001 81.6155" fill="white"/>
<path fill-rule="evenodd" clip-rule="evenodd" d="M400.584 82.4977H400H393.848H393.584C393.308 82.4977 393.084 82.7217 393.084 82.9977C393.084 83.2737 393.308 83.4977 393.584 83.4977H400.584C400.86 83.4977 401.084 83.2737 401.084 82.9977C401.084 82.7217 400.86 82.4977 400.584 82.4977" fill="white"/>
<mask id="mask3_1199_3738" style="mask-type:alpha" maskUnits="userSpaceOnUse" x="401" y="84" width="2" height="1">
<path fill-rule="evenodd" clip-rule="evenodd" d="M402.085 84.0583V84.4976H401.168V84.0583H402.085V84.0583Z" fill="white"/>
</mask>
<g mask="url(#mask3_1199_3738)">
<path fill-rule="evenodd" clip-rule="evenodd" d="M401.645 84.0583C401.509 84.1943 401.348 84.3043 401.168 84.3793C401.348 84.3043 401.509 84.1943 401.645 84.0583" fill="white"/>
</g>
<mask id="mask4_1199_3738" style="mask-type:alpha" maskUnits="userSpaceOnUse" x="388" y="63" width="15" height="22">
<path fill-rule="evenodd" clip-rule="evenodd" d="M395.042 84.4976H388V63.9996H395.042H402.085V84.4976H395.042V84.4976Z" fill="white"/>
</mask>
<g mask="url(#mask4_1199_3738)">
<path fill-rule="evenodd" clip-rule="evenodd" d="M400.584 83.4976H393.584C393.308 83.4976 393.084 83.2736 393.084 82.9976C393.084 82.7216 393.308 82.4976 393.584 82.4976H393.848H400H400.584C400.86 82.4976 401.084 82.7216 401.084 82.9976C401.084 83.2736 400.86 83.4976 400.584 83.4976V83.4976ZM394.347 81.4976L394.345 80.7196C394.344 80.4436 394.12 80.2206 393.845 80.2206C393.227 80.2206 392.456 78.7516 392.127 77.7486C391.765 76.7236 391.268 75.7526 390.648 74.8646L389.269 72.8886C388.926 72.5356 388.914 71.9766 389.242 71.6446C389.45 71.4346 389.714 71.3186 389.986 71.3186H389.987C390.259 71.3186 390.523 71.4346 390.699 71.6106L392.227 73.4716C392.36 73.6346 392.585 73.6976 392.781 73.6246C392.98 73.5536 393.113 73.3656 393.113 73.1546V65.9976C393.113 65.4866 393.63 65.0116 394.177 64.9996C394.69 65.0106 395.077 65.4396 395.077 65.9976V68.0396C395.077 68.0516 395.083 68.0616 395.084 68.0726V71.4976C395.084 71.7736 395.308 71.9976 395.584 71.9976C395.86 71.9976 396.084 71.7736 396.084 71.4976V67.9966C396.598 68.0426 396.875 68.4276 396.969 68.5946V71.4976C396.969 71.7736 397.192 71.9976 397.469 71.9976C397.745 71.9976 397.969 71.7736 397.969 71.4976V68.9286C398.739 68.9196 398.969 69.3966 399.027 69.5716V71.4976C399.027 71.7736 399.251 71.9976 399.527 71.9976C399.804 71.9976 400.027 71.7736 400.027 71.4976V70.0166C400.782 70.0806 401.003 70.4226 401.003 72.4976V77.3726C401.003 77.9886 400.815 78.5776 400.461 79.0766L399.613 80.2706C399.554 80.3556 399.522 80.4566 399.522 80.5596V80.8306V81.4976H394.347ZM401.645 81.9366C401.509 81.8016 401.347 81.6916 401.168 81.6156C400.989 81.5396 400.791 81.4976 400.584 81.4976H400.522V80.8306V80.7196L401.277 79.6556C401.752 78.9856 402.003 78.1966 402.003 77.3726V72.4976C402.003 72.3986 401.996 72.3246 401.994 72.2316C401.992 72.1096 401.988 71.9956 401.983 71.8816C401.884 69.5416 401.209 69.0766 399.874 69.0086C399.593 68.4556 398.935 67.8326 397.735 67.9376C397.502 67.5976 397.031 67.1396 396.287 67.0306C396.225 67.0026 396.157 66.9856 396.084 66.9856H396.077V65.9976C396.077 64.8986 395.252 64.0216 394.177 63.9996C393.059 64.0226 392.113 64.9376 392.113 65.9976V71.7586L391.441 70.9416C391.046 70.5396 390.529 70.3186 389.987 70.3186H389.986C389.445 70.3186 388.928 70.5396 388.531 70.9416C387.823 71.6586 387.832 72.8436 388.499 73.5216L389.828 75.4346C390.396 76.2506 390.852 77.1416 391.18 78.0706C391.333 78.5376 392.089 80.6596 393.346 81.1286L393.347 81.5216C393.226 81.5406 393.109 81.5696 393 81.6156C392.731 81.7296 392.502 81.9196 392.34 82.1586C392.178 82.3986 392.084 82.6866 392.084 82.9976C392.084 83.3086 392.178 83.5966 392.34 83.8366C392.502 84.0756 392.731 84.2656 393 84.3796C393.18 84.4556 393.377 84.4976 393.584 84.4976H400.584C400.791 84.4976 400.989 84.4556 401.168 84.3796C401.347 84.3036 401.509 84.1936 401.645 84.0586C401.916 83.7866 402.084 83.4116 402.084 82.9976C402.084 82.5836 401.916 82.2086 401.645 81.9366V81.9366Z" fill="black"/>
</g>
</g>
<rect x="254" y="6" width="149" height="33" rx="4" fill="#595959"/>
<path opacity="0.7" d="M272.218 26H273.534L269.628 16.2H268.032L264.098 26H265.386L266.408 23.424H271.196L272.218 26ZM266.856 22.276L268.802 17.362L270.748 22.276H266.856ZM277.28 26.14C278.232 26.14 279.226 25.65 279.604 24.978V26H280.794V16.2H279.604V20.022C279.226 19.35 278.33 18.86 277.378 18.86C275.6 18.86 274.228 20.218 274.228 22.5C274.228 24.782 275.502 26.14 277.28 26.14ZM277.434 25.132C276.23 25.132 275.432 24.124 275.432 22.5C275.432 20.876 276.23 19.868 277.434 19.868H277.532C278.708 19.868 279.604 20.876 279.604 22.5C279.604 24.124 278.708 25.132 277.532 25.132H277.434ZM285.565 26.14C286.517 26.14 287.511 25.65 287.889 24.978V26H289.079V16.2H287.889V20.022C287.511 19.35 286.615 18.86 285.663 18.86C283.885 18.86 282.513 20.218 282.513 22.5C282.513 24.782 283.787 26.14 285.565 26.14ZM285.719 25.132C284.515 25.132 283.717 24.124 283.717 22.5C283.717 20.876 284.515 19.868 285.719 19.868H285.817C286.993 19.868 287.889 20.876 287.889 22.5C287.889 24.124 286.993 25.132 285.817 25.132H285.719ZM296.602 26H298.24V24.95H296.882C296.462 24.95 296.322 24.81 296.322 24.39V20.022H298.03V19H296.322V16.732H295.132V19H293.564V20.022H295.132V24.558C295.132 25.51 295.65 26 296.602 26ZM302.456 26.14C304.318 26.14 305.774 24.67 305.774 22.5C305.774 20.33 304.318 18.86 302.456 18.86C300.594 18.86 299.152 20.33 299.152 22.5C299.152 24.67 300.594 26.14 302.456 26.14ZM302.4 25.132C301.224 25.132 300.342 24.166 300.342 22.5C300.342 20.834 301.224 19.868 302.4 19.868H302.526C303.702 19.868 304.584 20.834 304.584 22.5C304.584 24.166 303.702 25.132 302.526 25.132H302.4ZM319.417 16.2L316.365 24.88L313.271 16.2H311.157V26H312.417V17.292L315.539 26H317.177L320.243 17.264V26H321.503V16.2H319.417ZM330.055 19H328.823L326.611 24.32L324.357 19H323.083L326.037 25.86V26.882C326.037 27.302 325.897 27.442 325.477 27.442H323.503V28.492H325.757C326.709 28.492 327.171 28.044 327.171 27.106V25.818L330.055 19ZM344.548 16.2L342.602 24.74L340.572 16.2H338.864L336.806 24.712L334.804 16.2H333.502L335.896 26H337.646L339.676 17.614L341.706 26H343.456L345.85 16.2H344.548ZM352.224 24.46V21.52C352.224 20.092 351.286 18.86 349.438 18.86C347.884 18.86 346.736 19.728 346.652 21.002H347.842C347.926 20.246 348.598 19.868 349.382 19.868H349.48C350.446 19.868 351.034 20.47 351.034 21.52V21.758L349.018 21.926C347.898 22.01 346.512 22.486 346.512 24.068C346.512 25.258 347.492 26.14 348.794 26.14C349.942 26.14 350.824 25.51 351.104 24.88C351.104 25.048 351.118 25.664 351.174 26H352.294C352.224 25.51 352.224 24.88 352.224 24.46ZM349.046 25.132H348.92C348.22 25.132 347.702 24.656 347.702 24.012C347.702 23.326 348.318 22.906 349.2 22.836L351.034 22.696V23.48C351.034 24.39 349.942 25.132 349.046 25.132ZM356.403 26H358.041V24.95H356.683C356.263 24.95 356.123 24.81 356.123 24.39V20.022H357.831V19H356.123V16.732H354.933V19H353.365V20.022H354.933V24.558C354.933 25.51 355.451 26 356.403 26ZM362.271 26.14C363.839 26.14 364.917 25.202 365.099 23.718H363.909C363.769 24.53 363.181 25.132 362.341 25.132H362.215C360.815 25.132 360.157 23.9 360.157 22.5C360.157 21.1 360.815 19.868 362.215 19.868H362.341C363.181 19.868 363.769 20.456 363.909 21.282H365.099C364.959 19.784 363.839 18.86 362.271 18.86C360.143 18.86 358.967 20.442 358.967 22.5C358.967 24.558 360.143 26.14 362.271 26.14ZM366.783 26H367.973V22.122C367.973 20.694 368.939 19.868 369.961 19.868H370.087C371.123 19.868 371.585 20.512 371.585 21.618V26H372.775V21.338C372.775 19.868 371.893 18.86 370.297 18.86C369.163 18.86 368.407 19.35 367.973 20.05V16.2H366.783V26ZM374.863 26H376.053V16.2H374.863V26ZM378.129 17.74H379.459V16.312H378.129V17.74ZM378.199 26H379.389V19H378.199V26ZM383.831 26.14C385.427 26.14 386.533 25.328 386.533 24.04C386.533 22.808 385.679 22.276 384.643 22.066L383.537 21.828C382.781 21.674 382.459 21.394 382.459 20.862C382.459 20.33 382.977 19.868 383.817 19.868H383.943C384.867 19.868 385.329 20.47 385.413 21.142H386.603C386.575 19.882 385.679 18.86 383.873 18.86C382.501 18.86 381.269 19.602 381.269 20.988C381.269 22.178 382.165 22.724 383.271 22.948L384.293 23.158C385.077 23.312 385.343 23.634 385.343 24.11C385.343 24.74 384.755 25.132 383.943 25.132H383.817C382.949 25.132 382.263 24.74 382.179 23.858H380.989C381.017 25.174 381.997 26.14 383.831 26.14ZM390.418 26H392.056V24.95H390.698C390.278 24.95 390.138 24.81 390.138 24.39V20.022H391.846V19H390.138V16.732H388.948V19H387.38V20.022H388.948V24.558C388.948 25.51 389.466 26 390.418 26Z" fill="white"/>
<defs>
<filter id="filter0_d_1199_3738" x="0" y="0" width="508" height="115" filterUnits="userSpaceOnUse" color-interpolation-filters="sRGB">
<feFlood flood-opacity="0" result="BackgroundImageFix"/>
<feColorMatrix in="SourceAlpha" type="matrix" values="0 0 0 0 0 0 0 0 0 0 0 0 0 0 0 0 0 0 127 0" result="hardAlpha"/>
<feOffset/>
<feGaussianBlur stdDeviation="12.5"/>
<feComposite in2="hardAlpha" operator="out"/>
<feColorMatrix type="matrix" values="0 0 0 0 0 0 0 0 0 0 0 0 0 0 0 0 0 0 0.1 0"/>
<feBlend mode="normal" in2="BackgroundImageFix" result="effect1_dropShadow_1199_3738"/>
<feBlend mode="normal" in="SourceGraphic" in2="effect1_dropShadow_1199_3738" result="shape"/>
</filter>
<filter id="filter1_d_1199_3738" x="385" y="61.9996" width="20.0845" height="26.498" filterUnits="userSpaceOnUse" color-interpolation-filters="sRGB">
<feFlood flood-opacity="0" result="BackgroundImageFix"/>
<feColorMatrix in="SourceAlpha" type="matrix" values="0 0 0 0 0 0 0 0 0 0 0 0 0 0 0 0 0 0 127 0" result="hardAlpha"/>
<feOffset dy="1"/>
<feGaussianBlur stdDeviation="1.5"/>
<feColorMatrix type="matrix" values="0 0 0 0 0 0 0 0 0 0 0 0 0 0 0 0 0 0 0.2 0"/>
<feBlend mode="normal" in2="BackgroundImageFix" result="effect1_dropShadow_1199_3738"/>
<feBlend mode="normal" in="SourceGraphic" in2="effect1_dropShadow_1199_3738" result="shape"/>
</filter>
</defs>
</svg>
