<svg width="508" height="178" viewBox="0 0 508 178" fill="none" xmlns="http://www.w3.org/2000/svg">
<g filter="url(#filter0_d_1199_3659)">
<path d="M25 30C25 27.2386 27.2386 25 30 25L478 25.0001C480.761 25.0001 483 27.2387 483 30.0001L483 85.0001C483 87.7615 480.761 90.0001 478 90.0001L30 90C27.2386 90 25 87.7614 25 85L25 30Z" fill="white"/>
</g>
<path d="M81.432 63H83.288C85.112 63 86.008 62.088 86.008 60.152V51.8H84.568V60.072C84.568 61.144 84.152 61.64 83.128 61.64H81.432V63ZM91.8558 63.16C93.9838 63.16 95.6478 61.48 95.6478 59C95.6478 56.52 93.9838 54.84 91.8558 54.84C89.7278 54.84 88.0798 56.52 88.0798 59C88.0798 61.48 89.7278 63.16 91.8558 63.16ZM91.7918 62.008C90.4478 62.008 89.4398 60.904 89.4398 59C89.4398 57.096 90.4478 55.992 91.7918 55.992H91.9358C93.2798 55.992 94.2878 57.096 94.2878 59C94.2878 60.904 93.2798 62.008 91.9358 62.008H91.7918ZM97.6226 63H98.9826V58.68C98.9826 57.096 99.9426 55.992 101.271 55.992H101.399C102.583 55.992 103.111 56.728 103.111 58.008V63H104.471V57.688C104.471 55.928 103.383 54.84 101.623 54.84C100.327 54.84 99.4466 55.416 98.9826 56.2V55H97.6226V63ZM112.905 61.24V57.88C112.905 56.248 111.833 54.84 109.721 54.84C107.945 54.84 106.633 55.832 106.537 57.288H107.897C107.993 56.424 108.761 55.992 109.657 55.992H109.769C110.873 55.992 111.545 56.68 111.545 57.88V58.152L109.241 58.344C107.961 58.44 106.377 58.984 106.377 60.792C106.377 62.152 107.497 63.16 108.985 63.16C110.297 63.16 111.305 62.44 111.625 61.72C111.625 61.912 111.641 62.616 111.705 63H112.985C112.905 62.44 112.905 61.72 112.905 61.24ZM109.273 62.008H109.129C108.329 62.008 107.737 61.464 107.737 60.728C107.737 59.944 108.441 59.464 109.449 59.384L111.545 59.224V60.12C111.545 61.16 110.297 62.008 109.273 62.008ZM117.681 63H119.553V61.8H118.001C117.521 61.8 117.361 61.64 117.361 61.16V56.168H119.313V55H117.361V52.408H116.001V55H114.209V56.168H116.001V61.352C116.001 62.44 116.593 63 117.681 63ZM121.185 63H122.545V58.568C122.545 56.936 123.649 55.992 124.817 55.992H124.961C126.145 55.992 126.673 56.728 126.673 57.992V63H128.033V57.672C128.033 55.992 127.025 54.84 125.201 54.84C123.905 54.84 123.041 55.4 122.545 56.2V51.8H121.185V63ZM136.468 61.24V57.88C136.468 56.248 135.396 54.84 133.284 54.84C131.508 54.84 130.196 55.832 130.1 57.288H131.46C131.556 56.424 132.324 55.992 133.22 55.992H133.332C134.436 55.992 135.108 56.68 135.108 57.88V58.152L132.804 58.344C131.524 58.44 129.94 58.984 129.94 60.792C129.94 62.152 131.06 63.16 132.548 63.16C133.86 63.16 134.868 62.44 135.188 61.72C135.188 61.912 135.204 62.616 135.268 63H136.548C136.468 62.44 136.468 61.72 136.468 61.24ZM132.836 62.008H132.692C131.892 62.008 131.299 61.464 131.299 60.728C131.299 59.944 132.004 59.464 133.012 59.384L135.108 59.224V60.12C135.108 61.16 133.86 62.008 132.836 62.008ZM138.857 63H140.217V58.68C140.217 57.096 141.177 55.992 142.505 55.992H142.633C143.817 55.992 144.345 56.728 144.345 58.008V63H145.705V57.688C145.705 55.928 144.617 54.84 142.857 54.84C141.561 54.84 140.681 55.416 140.217 56.2V55H138.857V63ZM159.645 63H161.453L156.861 56.36L161.373 51.8H159.485L153.709 57.576V51.8H152.269V63H153.709V59.544L155.821 57.416L159.645 63ZM162.858 53.56H164.378V51.928H162.858V53.56ZM160.266 65.848H162.666C163.754 65.848 164.298 65.352 164.298 64.248V55H162.938V64.008C162.938 64.488 162.778 64.648 162.298 64.648H160.266V65.848ZM169.964 63.16C171.612 63.16 172.956 62.264 173.26 60.664H171.9C171.692 61.576 170.956 62.008 170.076 62.008H169.948C168.86 62.008 167.692 61.16 167.628 59.192H173.276V58.392C173.276 56.312 171.98 54.84 169.932 54.84C168.06 54.84 166.268 56.2 166.268 58.984C166.268 61.768 167.98 63.16 169.964 63.16ZM167.692 58.088C167.964 56.504 168.972 55.992 169.868 55.992H169.996C171.036 55.992 171.852 56.696 171.916 58.088H167.692ZM175.295 63H176.655V51.8H175.295V63ZM179.107 63H180.467V51.8H179.107V63Z" fill="#0085FF"/>
<circle cx="54.5" cy="57.5" r="17.5" fill="#EFE9F5"/>
<path fill-rule="evenodd" clip-rule="evenodd" d="M54.5 65C59.7467 65 64 61.6421 64 57.5C64 53.3579 59.7467 50 54.5 50C49.2533 50 45 53.3579 45 57.5C45 59.5685 46.0606 61.4413 47.776 62.7982L47.5808 65.9917L51.1409 64.5177C52.1852 64.8294 53.3174 65 54.5 65Z" fill="#967DB6"/>
<rect x="345" y="45" width="24" height="24" rx="3" fill="#41648B"/>
<circle cx="354.5" cy="54.5" r="3" stroke="white"/>
<path d="M360 63.5C360 60.4624 357.538 58 354.5 58C351.462 58 349 60.4624 349 63.5" stroke="white" stroke-linecap="round"/>
<path d="M360 56H365" stroke="white" stroke-linecap="round"/>
<path d="M363.303 53.75L365.607 56.0533L363.303 58.3566" stroke="white" stroke-linecap="round" stroke-linejoin="round"/>
<rect x="379" y="45" width="24" height="24" rx="3" fill="#F6F7F9"/>
<mask id="path-11-outside-1_1199_3659" maskUnits="userSpaceOnUse" x="382" y="52" width="18" height="11" fill="black">
<rect fill="white" x="382" y="52" width="18" height="11"/>
<path d="M398 57.2C398 57.2 394.866 61.4 391 61.4C387.134 61.4 384 57.2 384 57.2C384 57.2 387.134 53 391 53C394.866 53 398 57.2 398 57.2Z"/>
</mask>
<path d="M398 57.2L398.801 57.798L399.248 57.2L398.801 56.602L398 57.2ZM384 57.2L383.199 56.602L382.752 57.2L383.199 57.798L384 57.2ZM398 57.2C397.199 56.602 397.199 56.6017 397.199 56.6015C397.199 56.6015 397.199 56.6013 397.199 56.6012C397.199 56.601 397.199 56.6009 397.199 56.6009C397.199 56.6007 397.199 56.6009 397.199 56.6013C397.198 56.602 397.197 56.6038 397.195 56.6064C397.191 56.6118 397.184 56.621 397.174 56.6337C397.154 56.6591 397.123 56.6986 397.081 56.7501C396.998 56.8534 396.871 57.0045 396.706 57.1874C396.376 57.5547 395.899 58.0435 395.312 58.5301C394.109 59.5267 392.585 60.4 391 60.4V62.4C393.281 62.4 395.257 61.1733 396.588 60.0699C397.268 59.5065 397.815 58.9453 398.193 58.5251C398.383 58.3143 398.531 58.1373 398.634 58.0108C398.685 57.9475 398.725 57.8968 398.754 57.8607C398.768 57.8426 398.779 57.8282 398.787 57.8177C398.791 57.8124 398.794 57.8081 398.796 57.8048C398.798 57.8032 398.799 57.8018 398.799 57.8007C398.8 57.8001 398.8 57.7996 398.801 57.7992C398.801 57.7989 398.801 57.7987 398.801 57.7986C398.801 57.7983 398.801 57.798 398 57.2ZM391 60.4C389.415 60.4 387.891 59.5267 386.688 58.5301C386.101 58.0435 385.624 57.5547 385.294 57.1874C385.129 57.0045 385.002 56.8534 384.919 56.7501C384.877 56.6986 384.846 56.6591 384.826 56.6337C384.816 56.621 384.809 56.6118 384.805 56.6064C384.803 56.6038 384.802 56.602 384.801 56.6013C384.801 56.6009 384.801 56.6007 384.801 56.6009C384.801 56.6009 384.801 56.601 384.801 56.6012C384.801 56.6013 384.801 56.6015 384.801 56.6015C384.801 56.6017 384.801 56.602 384 57.2C383.199 57.798 383.199 57.7983 383.199 57.7986C383.199 57.7987 383.199 57.7989 383.199 57.7992C383.2 57.7996 383.2 57.8001 383.201 57.8007C383.201 57.8018 383.202 57.8032 383.204 57.8048C383.206 57.8081 383.209 57.8124 383.213 57.8177C383.221 57.8282 383.232 57.8426 383.246 57.8607C383.275 57.8968 383.315 57.9475 383.366 58.0108C383.469 58.1373 383.617 58.3143 383.807 58.5251C384.185 58.9453 384.732 59.5065 385.412 60.0699C386.743 61.1733 388.719 62.4 391 62.4V60.4ZM384 57.2C384.801 57.798 384.801 57.7983 384.801 57.7985C384.801 57.7985 384.801 57.7987 384.801 57.7988C384.801 57.799 384.801 57.7991 384.801 57.7991C384.801 57.7993 384.801 57.7991 384.801 57.7987C384.802 57.798 384.803 57.7962 384.805 57.7936C384.809 57.7882 384.816 57.779 384.826 57.7663C384.846 57.7409 384.877 57.7014 384.919 57.6499C385.002 57.5466 385.129 57.3955 385.294 57.2126C385.624 56.8453 386.101 56.3565 386.688 55.8699C387.891 54.8733 389.415 54 391 54V52C388.719 52 386.743 53.2267 385.412 54.3301C384.732 54.8935 384.185 55.4547 383.807 55.8749C383.617 56.0857 383.469 56.2627 383.366 56.3892C383.315 56.4525 383.275 56.5032 383.246 56.5393C383.232 56.5574 383.221 56.5718 383.213 56.5823C383.209 56.5876 383.206 56.5919 383.204 56.5952C383.202 56.5968 383.201 56.5982 383.201 56.5993C383.2 56.5999 383.2 56.6004 383.199 56.6008C383.199 56.6011 383.199 56.6013 383.199 56.6014C383.199 56.6017 383.199 56.602 384 57.2ZM391 54C392.585 54 394.109 54.8733 395.312 55.8699C395.899 56.3565 396.376 56.8453 396.706 57.2126C396.871 57.3955 396.998 57.5466 397.081 57.6499C397.123 57.7014 397.154 57.7409 397.174 57.7663C397.184 57.779 397.191 57.7882 397.195 57.7936C397.197 57.7962 397.198 57.798 397.199 57.7987C397.199 57.7991 397.199 57.7993 397.199 57.7991C397.199 57.7991 397.199 57.799 397.199 57.7988C397.199 57.7987 397.199 57.7985 397.199 57.7985C397.199 57.7983 397.199 57.798 398 57.2C398.801 56.602 398.801 56.6017 398.801 56.6014C398.801 56.6013 398.801 56.6011 398.801 56.6008C398.8 56.6004 398.8 56.5999 398.799 56.5993C398.799 56.5982 398.798 56.5968 398.796 56.5952C398.794 56.5919 398.791 56.5876 398.787 56.5823C398.779 56.5718 398.768 56.5574 398.754 56.5393C398.725 56.5032 398.685 56.4525 398.634 56.3892C398.531 56.2627 398.383 56.0857 398.193 55.8749C397.815 55.4547 397.268 54.8935 396.588 54.3301C395.257 53.2267 393.281 52 391 52V54Z" fill="#121212" mask="url(#path-11-outside-1_1199_3659)"/>
<circle cx="391" cy="57.1998" r="1.9" stroke="#121212"/>
<rect x="413" y="45" width="24" height="24" rx="3" fill="#F6F7F9"/>
<mask id="path-15-inside-2_1199_3659" fill="white">
<path fill-rule="evenodd" clip-rule="evenodd" d="M426.912 50.4121C426.661 49.5945 425.9 49.0001 425 49.0001C424.1 49.0001 423.339 49.5945 423.088 50.4122C421.275 51.1812 420 53.0108 420 55.1454H420C420 55.1454 420 55.6575 419.5 58.7303C419 61.8031 418 62.3152 418 62.3152H420H423.12C423.042 62.5288 423 62.7595 423 63.0001C423 64.1047 423.895 65.0001 425 65.0001C426.105 65.0001 427 64.1047 427 63.0001C427 62.7595 426.958 62.5288 426.88 62.3152H430H432C432 62.3152 431 61.8031 430.5 58.7303C430 55.6575 430 55.1454 430 55.1454C430 53.0108 428.725 51.1812 426.912 50.4121Z"/>
</mask>
<path d="M426.912 50.4121L425.956 50.7057C426.043 50.9879 426.25 51.2174 426.522 51.3327L426.912 50.4121ZM423.088 50.4122L423.478 51.3327C423.75 51.2174 423.957 50.9879 424.044 50.7057L423.088 50.4122ZM420 55.1454V56.1454C420.552 56.1454 421 55.6977 421 55.1454L420 55.1454ZM420 55.1454V54.1454C419.448 54.1454 419 54.5931 419 55.1454L420 55.1454ZM419.5 58.7303L420.487 58.8909L420.487 58.8909L419.5 58.7303ZM418 62.3152L417.544 61.4251C417.133 61.6357 416.92 62.1005 417.028 62.5496C417.136 62.9987 417.538 63.3152 418 63.3152V62.3152ZM423.12 62.3152L424.06 62.6576C424.172 62.351 424.127 62.0092 423.94 61.7418C423.753 61.4744 423.447 61.3152 423.12 61.3152V62.3152ZM426.88 62.3152V61.3152C426.553 61.3152 426.247 61.4744 426.06 61.7418C425.873 62.0092 425.828 62.351 425.94 62.6576L426.88 62.3152ZM432 62.3152V63.3152C432.462 63.3152 432.864 62.9987 432.972 62.5496C433.08 62.1005 432.867 61.6357 432.456 61.4251L432 62.3152ZM430.5 58.7303L431.487 58.5697L431.487 58.5697L430.5 58.7303ZM430 55.1454L431 55.1454L431 55.1454L430 55.1454ZM425 50.0001C425.448 50.0001 425.83 50.2961 425.956 50.7057L427.868 50.1186C427.492 48.8929 426.351 48.0001 425 48.0001V50.0001ZM424.044 50.7057C424.17 50.2961 424.552 50.0001 425 50.0001V48.0001C423.649 48.0001 422.508 48.8929 422.132 50.1186L424.044 50.7057ZM421 55.1454C421 53.4152 422.032 51.9462 423.478 51.3327L422.697 49.4916C420.518 50.4162 419 52.6063 419 55.1454L421 55.1454ZM420 54.1454H420V56.1454H420V54.1454ZM420 55.1454C419 55.1454 419 55.1449 419 55.1444C419 55.1443 419 55.1438 419 55.1435C419 55.1429 419 55.1423 419 55.1417C419 55.1406 419 55.1394 419 55.1384C419 55.1362 419 55.1343 419 55.1326C419 55.1292 419 55.1265 419 55.1248C419 55.1213 419 55.1211 419 55.1246C419 55.132 418.999 55.153 418.995 55.1923C418.989 55.2714 418.975 55.4175 418.945 55.6644C418.885 56.1585 418.762 57.0406 418.513 58.5697L420.487 58.8909C420.738 57.3472 420.865 56.4368 420.93 55.9067C420.963 55.6414 420.98 55.4675 420.989 55.3545C420.994 55.2978 420.996 55.2548 420.998 55.2222C420.999 55.2057 420.999 55.1915 421 55.179C421 55.1727 421 55.1669 421 55.1613C421 55.1585 421 55.1558 421 55.1532C421 55.1518 421 55.1505 421 55.1492C421 55.1486 421 55.1479 421 55.1473C421 55.147 421 55.1465 421 55.1463C421 55.1459 421 55.1454 420 55.1454ZM418.513 58.5697C418.278 60.0146 417.937 60.7798 417.709 61.1541C417.595 61.34 417.51 61.4297 417.477 61.4605C417.46 61.4762 417.456 61.478 417.467 61.4704C417.472 61.4666 417.481 61.4606 417.494 61.4529C417.5 61.449 417.508 61.4447 417.516 61.4401C417.52 61.4377 417.525 61.4353 417.529 61.4328C417.532 61.4316 417.534 61.4303 417.537 61.429C417.538 61.4284 417.539 61.4277 417.54 61.4271C417.541 61.4268 417.542 61.4263 417.542 61.4261C417.543 61.4256 417.544 61.4251 418 62.3152C418.456 63.2053 418.457 63.2048 418.458 63.2042C418.458 63.2041 418.459 63.2036 418.46 63.2032C418.461 63.2025 418.462 63.2019 418.464 63.2011C418.466 63.1997 418.469 63.1983 418.472 63.1968C418.478 63.1938 418.484 63.1906 418.49 63.1872C418.502 63.1804 418.515 63.1728 418.529 63.1645C418.556 63.1477 418.587 63.1277 418.621 63.104C418.688 63.0563 418.766 62.9942 418.851 62.9138C419.022 62.7526 419.217 62.5221 419.416 62.1959C419.813 61.546 420.222 60.5187 420.487 58.8909L418.513 58.5697ZM418 63.3152H420V61.3152H418V63.3152ZM420 63.3152H423.12V61.3152H420V63.3152ZM424 63.0001C424 62.878 424.021 62.7632 424.06 62.6576L422.181 61.9727C422.064 62.2945 422 62.641 422 63.0001H424ZM425 64.0001C424.448 64.0001 424 63.5524 424 63.0001H422C422 64.657 423.343 66.0001 425 66.0001V64.0001ZM426 63.0001C426 63.5524 425.552 64.0001 425 64.0001V66.0001C426.657 66.0001 428 64.657 428 63.0001H426ZM425.94 62.6576C425.979 62.7632 426 62.878 426 63.0001H428C428 62.641 427.936 62.2945 427.819 61.9727L425.94 62.6576ZM426.88 63.3152H430V61.3152H426.88V63.3152ZM432 61.3152H430V63.3152H432V61.3152ZM429.513 58.8909C429.778 60.5187 430.187 61.546 430.584 62.1959C430.783 62.5221 430.978 62.7526 431.149 62.9138C431.234 62.9942 431.312 63.0563 431.379 63.104C431.413 63.1277 431.444 63.1477 431.471 63.1645C431.485 63.1728 431.498 63.1804 431.51 63.1872C431.516 63.1906 431.522 63.1938 431.528 63.1968C431.531 63.1983 431.534 63.1997 431.536 63.2011C431.538 63.2019 431.539 63.2025 431.54 63.2032C431.541 63.2036 431.542 63.2041 431.542 63.2043C431.543 63.2048 431.544 63.2053 432 62.3152C432.456 61.4251 432.457 61.4256 432.458 61.4261C432.458 61.4263 432.459 61.4268 432.46 61.4271C432.461 61.4277 432.462 61.4284 432.463 61.429C432.466 61.4303 432.468 61.4316 432.471 61.4328C432.475 61.4353 432.48 61.4377 432.484 61.4401C432.492 61.4447 432.5 61.449 432.506 61.4529C432.519 61.4606 432.528 61.4666 432.533 61.4704C432.544 61.478 432.54 61.4762 432.523 61.4605C432.49 61.4297 432.405 61.34 432.291 61.1541C432.063 60.7798 431.722 60.0146 431.487 58.5697L429.513 58.8909ZM430 55.1454C429 55.1454 429 55.1459 429 55.1463C429 55.1465 429 55.147 429 55.1473C429 55.1479 429 55.1486 429 55.1492C429 55.1505 429 55.1518 429 55.1532C429 55.1558 429 55.1585 429 55.1613C429 55.1669 429 55.1727 429 55.179C429.001 55.1915 429.001 55.2057 429.002 55.2222C429.004 55.2548 429.006 55.2978 429.011 55.3545C429.02 55.4675 429.037 55.6414 429.07 55.9067C429.135 56.4368 429.262 57.3472 429.513 58.8909L431.487 58.5697C431.238 57.0406 431.115 56.1585 431.055 55.6644C431.025 55.4175 431.011 55.2714 431.005 55.1923C431.001 55.153 431 55.132 431 55.1246C431 55.1211 431 55.1213 431 55.1248C431 55.1265 431 55.1292 431 55.1326C431 55.1343 431 55.1362 431 55.1384C431 55.1394 431 55.1406 431 55.1417C431 55.1423 431 55.1429 431 55.1435C431 55.1438 431 55.1443 431 55.1444C431 55.1449 431 55.1454 430 55.1454ZM426.522 51.3327C427.968 51.9462 429 53.4152 429 55.1454L431 55.1454C431 52.6063 429.482 50.4162 427.303 49.4916L426.522 51.3327Z" fill="#121212" mask="url(#path-15-inside-2_1199_3659)"/>
<rect x="447" y="45" width="24" height="24" rx="3" fill="#F6F7F9"/>
<circle cx="459" cy="57" r="7" stroke="black"/>
<path d="M462 54.5L458 60L455.5 57.5" stroke="black" stroke-linecap="round" stroke-linejoin="round"/>
<g filter="url(#filter1_d_1199_3659)">
<path d="M144 76C144 74.3431 145.343 73 147 73H366C367.657 73 369 74.3431 369 76V116H144V76Z" fill="#F3F3F3"/>
<path d="M157.378 98H159.002C160.598 98 161.382 97.202 161.382 95.508V88.2H160.122V95.438C160.122 96.376 159.758 96.81 158.862 96.81H157.378V98ZM166.499 98.14C168.361 98.14 169.817 96.67 169.817 94.5C169.817 92.33 168.361 90.86 166.499 90.86C164.637 90.86 163.195 92.33 163.195 94.5C163.195 96.67 164.637 98.14 166.499 98.14ZM166.443 97.132C165.267 97.132 164.385 96.166 164.385 94.5C164.385 92.834 165.267 91.868 166.443 91.868H166.569C167.745 91.868 168.627 92.834 168.627 94.5C168.627 96.166 167.745 97.132 166.569 97.132H166.443ZM171.545 98H172.735V94.122C172.735 92.694 173.701 91.868 174.723 91.868H174.849C175.885 91.868 176.347 92.512 176.347 93.618V98H177.537V93.338C177.537 91.868 176.655 90.86 175.059 90.86C173.925 90.86 173.169 91.35 172.735 92.05V88.2H171.545V98ZM179.625 98H180.815V94.22C180.815 92.834 181.655 91.868 182.817 91.868H182.929C183.965 91.868 184.427 92.512 184.427 93.632V98H185.617V93.352C185.617 91.812 184.665 90.86 183.125 90.86C181.991 90.86 181.221 91.364 180.815 92.05V91H179.625V98ZM191.36 98H194.818C197.52 98 199.326 96.194 199.326 93.114C199.326 90.034 197.52 88.2 194.818 88.2H191.36V98ZM192.62 96.852V89.348H194.678C196.834 89.348 198.066 90.664 198.066 93.1C198.066 95.536 196.834 96.852 194.678 96.852H192.62ZM203.987 98.14C205.849 98.14 207.305 96.67 207.305 94.5C207.305 92.33 205.849 90.86 203.987 90.86C202.125 90.86 200.683 92.33 200.683 94.5C200.683 96.67 202.125 98.14 203.987 98.14ZM203.931 97.132C202.755 97.132 201.873 96.166 201.873 94.5C201.873 92.834 202.755 91.868 203.931 91.868H204.057C205.233 91.868 206.115 92.834 206.115 94.5C206.115 96.166 205.233 97.132 204.057 97.132H203.931ZM211.847 98.14C213.289 98.14 214.465 97.356 214.731 95.956H213.541C213.359 96.754 212.715 97.132 211.945 97.132H211.833C210.881 97.132 209.859 96.39 209.803 94.668H214.745V93.968C214.745 92.148 213.611 90.86 211.819 90.86C210.181 90.86 208.613 92.05 208.613 94.486C208.613 96.922 210.111 98.14 211.847 98.14ZM209.859 93.702C210.097 92.316 210.979 91.868 211.763 91.868H211.875C212.785 91.868 213.499 92.484 213.555 93.702H209.859ZM223.499 100.03V98.966C221.399 98.56 220.811 95.914 220.811 93.1C220.811 90.286 221.399 87.64 223.499 87.234V86.17C220.643 86.464 219.593 89.628 219.593 93.1C219.593 96.572 220.615 99.806 223.499 100.03ZM226.236 88.2L223.702 90.664V92.162L225.97 89.978V98H227.174V88.2H226.236ZM230.632 96.852L233.572 94.038C234.608 93.044 235.588 92.106 235.588 90.678C235.588 89.054 234.23 88.06 232.508 88.06C230.66 88.06 229.302 89.264 229.288 91.098H230.548C230.548 89.964 231.318 89.152 232.452 89.152H232.592C233.586 89.152 234.356 89.796 234.356 90.72C234.356 91.798 233.558 92.428 232.62 93.352L229.19 96.684V98H235.728V96.852H230.632ZM236.729 86.17V87.234C238.829 87.64 239.417 90.286 239.417 93.1C239.417 95.914 238.829 98.56 236.729 98.966V100.03C239.571 99.736 240.635 96.572 240.635 93.1C240.635 89.628 239.599 86.394 236.729 86.17Z" fill="#121212"/>
<path d="M154 116H359" stroke="#121212" stroke-opacity="0.08"/>
<path d="M144 116H369V156C369 157.657 367.657 159 366 159H147C145.343 159 144 157.657 144 156V116Z" fill="white"/>
<path d="M158.288 141H165.33V139.852H159.548V131.2H158.288V141ZM166.58 132.74H167.91V131.312H166.58V132.74ZM166.65 141H167.84V134H166.65V141ZM169.986 141H171.176V137.22C171.176 135.834 172.016 134.868 173.178 134.868H173.29C174.326 134.868 174.788 135.512 174.788 136.632V141H175.978V136.352C175.978 134.812 175.026 133.86 173.486 133.86C172.352 133.86 171.582 134.364 171.176 135.05V134H169.986V141ZM180.39 141.14C181.58 141.14 182.364 140.496 182.658 139.67V141H183.848V134H182.658V137.78C182.658 139.25 181.748 140.132 180.81 140.132H180.684C179.676 140.132 179.186 139.53 179.186 138.34V134H177.996V138.62C177.996 140.09 178.822 141.14 180.39 141.14ZM188.306 141.14C189.902 141.14 191.008 140.328 191.008 139.04C191.008 137.808 190.154 137.276 189.118 137.066L188.012 136.828C187.256 136.674 186.934 136.394 186.934 135.862C186.934 135.33 187.452 134.868 188.292 134.868H188.418C189.342 134.868 189.804 135.47 189.888 136.142H191.078C191.05 134.882 190.154 133.86 188.348 133.86C186.976 133.86 185.744 134.602 185.744 135.988C185.744 137.178 186.64 137.724 187.746 137.948L188.768 138.158C189.552 138.312 189.818 138.634 189.818 139.11C189.818 139.74 189.23 140.132 188.418 140.132H188.292C187.424 140.132 186.738 139.74 186.654 138.858H185.464C185.492 140.174 186.472 141.14 188.306 141.14ZM200.464 141.14C202.032 141.14 203.054 140.412 203.446 139.838V141H204.58V137.15C204.58 136.436 204.202 136.058 203.488 136.058H200.576V137.192H203.446V137.528C203.446 138.956 202.312 139.992 200.646 139.992H200.506C198.49 139.992 197.118 138.578 197.118 136.1C197.118 133.622 198.49 132.208 200.492 132.208H200.632C202.13 132.208 203.082 133.006 203.25 134.392H204.51C204.356 132.474 202.984 131.06 200.562 131.06C197.636 131.06 195.858 133.16 195.858 136.1C195.858 139.04 197.636 141.14 200.464 141.14ZM206.517 141H207.707V137.5C207.707 135.988 208.491 135.064 209.779 135.064H210.339V133.93H209.709C208.785 133.93 207.931 134.49 207.637 135.554V134H206.517V141ZM216.841 139.46V136.52C216.841 135.092 215.903 133.86 214.055 133.86C212.501 133.86 211.353 134.728 211.269 136.002H212.459C212.543 135.246 213.215 134.868 213.999 134.868H214.097C215.063 134.868 215.651 135.47 215.651 136.52V136.758L213.635 136.926C212.515 137.01 211.129 137.486 211.129 139.068C211.129 140.258 212.109 141.14 213.411 141.14C214.559 141.14 215.441 140.51 215.721 139.88C215.721 140.048 215.735 140.664 215.791 141H216.911C216.841 140.51 216.841 139.88 216.841 139.46ZM213.663 140.132H213.537C212.837 140.132 212.319 139.656 212.319 139.012C212.319 138.326 212.935 137.906 213.817 137.836L215.651 137.696V138.48C215.651 139.39 214.559 140.132 213.663 140.132ZM218.932 141H220.122V137.22C220.122 135.834 220.962 134.868 222.124 134.868H222.236C223.272 134.868 223.734 135.512 223.734 136.632V141H224.924V136.352C224.924 134.812 223.972 133.86 222.432 133.86C221.298 133.86 220.528 134.364 220.122 135.05V134H218.932V141ZM232.304 139.46V136.52C232.304 135.092 231.366 133.86 229.518 133.86C227.964 133.86 226.816 134.728 226.732 136.002H227.922C228.006 135.246 228.678 134.868 229.462 134.868H229.56C230.526 134.868 231.114 135.47 231.114 136.52V136.758L229.098 136.926C227.978 137.01 226.592 137.486 226.592 139.068C226.592 140.258 227.572 141.14 228.874 141.14C230.022 141.14 230.904 140.51 231.184 139.88C231.184 140.048 231.198 140.664 231.254 141H232.374C232.304 140.51 232.304 139.88 232.304 139.46ZM229.126 140.132H229C228.3 140.132 227.782 139.656 227.782 139.012C227.782 138.326 228.398 137.906 229.28 137.836L231.114 137.696V138.48C231.114 139.39 230.022 140.132 229.126 140.132ZM236.483 141H238.121V139.95H236.763C236.343 139.95 236.203 139.81 236.203 139.39V135.022H237.911V134H236.203V131.732H235.013V134H233.445V135.022H235.013V139.558C235.013 140.51 235.531 141 236.483 141ZM246.536 143.03V141.966C244.436 141.56 243.848 138.914 243.848 136.1C243.848 133.286 244.436 130.64 246.536 130.234V129.17C243.68 129.464 242.63 132.628 242.63 136.1C242.63 139.572 243.652 142.806 246.536 143.03ZM249.273 131.2L246.739 133.664V135.162L249.007 132.978V141H250.211V131.2H249.273ZM256.133 141.14C258.527 141.14 259.927 139.39 259.927 136.1C259.927 132.81 258.527 131.06 256.133 131.06C253.739 131.06 252.325 132.81 252.325 136.1C252.325 139.39 253.739 141.14 256.133 141.14ZM256.063 140.048C254.971 140.048 253.557 139.194 253.557 136.1C253.557 133.006 254.971 132.152 256.063 132.152H256.203C257.295 132.152 258.695 133.006 258.695 136.1C258.695 139.194 257.295 140.048 256.203 140.048H256.063ZM260.491 129.17V130.234C262.591 130.64 263.179 133.286 263.179 136.1C263.179 138.914 262.591 141.56 260.491 141.966V143.03C263.333 142.736 264.397 139.572 264.397 136.1C264.397 132.628 263.361 129.394 260.491 129.17Z" fill="#121212"/>
</g>
<g filter="url(#filter2_d_1199_3659)">
<path fill-rule="evenodd" clip-rule="evenodd" d="M270.027 116.088C270.028 116.086 270.03 116.083 270.031 116.081L270.053 116.163L270.027 116.088ZM271.522 121.56C271.522 121.456 271.555 121.355 271.614 121.27L272.462 120.076C272.816 119.577 273.004 118.988 273.004 118.373V113.497C273.004 111.422 272.783 111.08 272.028 111.016V112.497C272.028 112.774 271.805 112.997 271.528 112.997C271.252 112.997 271.028 112.774 271.028 112.497V110.572C270.97 110.396 270.74 109.919 269.97 109.929V112.497C269.97 112.774 269.746 112.997 269.47 112.997C269.193 112.997 268.97 112.774 268.97 112.497V109.594C268.876 109.428 268.599 109.042 268.085 108.997V112.497C268.085 112.774 267.861 112.997 267.585 112.997C267.308 112.997 267.085 112.774 267.085 112.497V109.073C267.084 109.061 267.078 109.051 267.078 109.039V106.997C267.078 106.439 266.691 106.011 266.178 106C265.631 106.012 265.114 106.487 265.114 106.997V114.154C265.114 114.366 264.981 114.554 264.782 114.625C264.586 114.697 264.361 114.634 264.227 114.472L262.7 112.61C262.524 112.434 262.26 112.319 261.988 112.319H261.987C261.715 112.319 261.451 112.434 261.243 112.644C260.915 112.977 260.927 113.535 261.269 113.888L262.649 115.864C263.268 116.753 263.766 117.724 264.128 118.748C264.457 119.752 265.227 121.221 265.846 121.221C266.121 121.221 266.345 121.444 266.346 121.72L266.347 122.497H271.522V121.831V121.56Z" fill="white"/>
<mask id="mask0_1199_3659" style="mask-type:alpha" maskUnits="userSpaceOnUse" x="273" y="112" width="2" height="2">
<path fill-rule="evenodd" clip-rule="evenodd" d="M274.085 112.882V113.882H273.983V112.882H274.085V112.882Z" fill="white"/>
</mask>
<g mask="url(#mask0_1199_3659)">
<path fill-rule="evenodd" clip-rule="evenodd" d="M273.983 112.882C273.988 112.995 273.992 113.109 273.994 113.231C273.992 113.111 273.989 112.992 273.983 112.882" fill="white"/>
</g>
<mask id="mask1_1199_3659" style="mask-type:alpha" maskUnits="userSpaceOnUse" x="264" y="124" width="2" height="2">
<path fill-rule="evenodd" clip-rule="evenodd" d="M265.341 125.498H264.341V124.836H265.341V125.498Z" fill="white"/>
</mask>
<g mask="url(#mask1_1199_3659)">
<path fill-rule="evenodd" clip-rule="evenodd" d="M264.341 124.836C264.503 125.075 264.732 125.266 265.001 125.379C264.732 125.266 264.503 125.075 264.341 124.836" fill="white"/>
</g>
<mask id="mask2_1199_3659" style="mask-type:alpha" maskUnits="userSpaceOnUse" x="273" y="122" width="2" height="2">
<path fill-rule="evenodd" clip-rule="evenodd" d="M274.085 122.615V123.615H273.168V122.615H274.085V122.615Z" fill="white"/>
</mask>
<g mask="url(#mask2_1199_3659)">
<path fill-rule="evenodd" clip-rule="evenodd" d="M273.168 122.615C273.347 122.691 273.509 122.801 273.645 122.936C273.509 122.801 273.347 122.691 273.168 122.615" fill="white"/>
</g>
<path fill-rule="evenodd" clip-rule="evenodd" d="M265.001 122.615C264.732 122.729 264.503 122.919 264.341 123.158C264.503 122.919 264.732 122.729 265.001 122.615" fill="white"/>
<path fill-rule="evenodd" clip-rule="evenodd" d="M272.584 123.498H272H265.848H265.584C265.308 123.498 265.084 123.722 265.084 123.998C265.084 124.274 265.308 124.498 265.584 124.498H272.584C272.86 124.498 273.084 124.274 273.084 123.998C273.084 123.722 272.86 123.498 272.584 123.498" fill="white"/>
<mask id="mask3_1199_3659" style="mask-type:alpha" maskUnits="userSpaceOnUse" x="273" y="125" width="2" height="1">
<path fill-rule="evenodd" clip-rule="evenodd" d="M274.085 125.058V125.498H273.168V125.058H274.085V125.058Z" fill="white"/>
</mask>
<g mask="url(#mask3_1199_3659)">
<path fill-rule="evenodd" clip-rule="evenodd" d="M273.645 125.058C273.509 125.194 273.348 125.304 273.168 125.379C273.348 125.304 273.509 125.194 273.645 125.058" fill="white"/>
</g>
<mask id="mask4_1199_3659" style="mask-type:alpha" maskUnits="userSpaceOnUse" x="260" y="104" width="15" height="22">
<path fill-rule="evenodd" clip-rule="evenodd" d="M267.042 125.498H260V105H267.042H274.085V125.498H267.042V125.498Z" fill="white"/>
</mask>
<g mask="url(#mask4_1199_3659)">
<path fill-rule="evenodd" clip-rule="evenodd" d="M272.584 124.498H265.584C265.308 124.498 265.084 124.274 265.084 123.998C265.084 123.722 265.308 123.498 265.584 123.498H265.848H272H272.584C272.86 123.498 273.084 123.722 273.084 123.998C273.084 124.274 272.86 124.498 272.584 124.498V124.498ZM266.347 122.498L266.345 121.72C266.344 121.444 266.12 121.221 265.845 121.221C265.227 121.221 264.456 119.752 264.127 118.749C263.765 117.724 263.268 116.753 262.648 115.865L261.269 113.889C260.926 113.536 260.914 112.977 261.242 112.645C261.45 112.435 261.714 112.319 261.986 112.319H261.987C262.259 112.319 262.523 112.435 262.699 112.611L264.227 114.472C264.36 114.635 264.585 114.698 264.781 114.625C264.98 114.554 265.113 114.366 265.113 114.155V106.998C265.113 106.487 265.63 106.012 266.177 106C266.69 106.011 267.077 106.44 267.077 106.998V109.04C267.077 109.052 267.083 109.062 267.084 109.073V112.498C267.084 112.774 267.308 112.998 267.584 112.998C267.86 112.998 268.084 112.774 268.084 112.498V108.997C268.598 109.043 268.875 109.428 268.969 109.595V112.498C268.969 112.774 269.192 112.998 269.469 112.998C269.745 112.998 269.969 112.774 269.969 112.498V109.929C270.739 109.92 270.969 110.397 271.027 110.572V112.498C271.027 112.774 271.251 112.998 271.527 112.998C271.804 112.998 272.027 112.774 272.027 112.498V111.017C272.782 111.081 273.003 111.423 273.003 113.498V118.373C273.003 118.989 272.815 119.578 272.461 120.077L271.613 121.271C271.554 121.356 271.522 121.457 271.522 121.56V121.831V122.498H266.347ZM273.645 122.937C273.509 122.802 273.347 122.692 273.168 122.616C272.989 122.54 272.791 122.498 272.584 122.498H272.522V121.831V121.72L273.277 120.656C273.752 119.986 274.003 119.197 274.003 118.373V113.498C274.003 113.399 273.996 113.325 273.994 113.232C273.992 113.11 273.988 112.996 273.983 112.882C273.884 110.542 273.209 110.077 271.874 110.009C271.593 109.456 270.935 108.833 269.735 108.938C269.502 108.598 269.031 108.14 268.287 108.031C268.225 108.003 268.157 107.986 268.084 107.986H268.077V106.998C268.077 105.899 267.252 105.022 266.177 105C265.059 105.023 264.113 105.938 264.113 106.998V112.759L263.441 111.942C263.046 111.54 262.529 111.319 261.987 111.319H261.986C261.445 111.319 260.928 111.54 260.531 111.942C259.823 112.659 259.832 113.844 260.499 114.522L261.828 116.435C262.396 117.251 262.852 118.142 263.18 119.071C263.333 119.538 264.089 121.66 265.346 122.129L265.347 122.522C265.226 122.541 265.109 122.57 265 122.616C264.731 122.73 264.502 122.92 264.34 123.159C264.178 123.399 264.084 123.687 264.084 123.998C264.084 124.309 264.178 124.597 264.34 124.837C264.502 125.076 264.731 125.266 265 125.38C265.18 125.456 265.377 125.498 265.584 125.498H272.584C272.791 125.498 272.989 125.456 273.168 125.38C273.347 125.304 273.509 125.194 273.645 125.059C273.916 124.787 274.084 124.412 274.084 123.998C274.084 123.584 273.916 123.209 273.645 122.937V122.937Z" fill="black"/>
</g>
</g>
<defs>
<filter id="filter0_d_1199_3659" x="0" y="0" width="508" height="115" filterUnits="userSpaceOnUse" color-interpolation-filters="sRGB">
<feFlood flood-opacity="0" result="BackgroundImageFix"/>
<feColorMatrix in="SourceAlpha" type="matrix" values="0 0 0 0 0 0 0 0 0 0 0 0 0 0 0 0 0 0 127 0" result="hardAlpha"/>
<feOffset/>
<feGaussianBlur stdDeviation="12.5"/>
<feComposite in2="hardAlpha" operator="out"/>
<feColorMatrix type="matrix" values="0 0 0 0 0 0 0 0 0 0 0 0 0 0 0 0 0 0 0.1 0"/>
<feBlend mode="normal" in2="BackgroundImageFix" result="effect1_dropShadow_1199_3659"/>
<feBlend mode="normal" in="SourceGraphic" in2="effect1_dropShadow_1199_3659" result="shape"/>
</filter>
<filter id="filter1_d_1199_3659" x="129" y="62" width="255" height="116" filterUnits="userSpaceOnUse" color-interpolation-filters="sRGB">
<feFlood flood-opacity="0" result="BackgroundImageFix"/>
<feColorMatrix in="SourceAlpha" type="matrix" values="0 0 0 0 0 0 0 0 0 0 0 0 0 0 0 0 0 0 127 0" result="hardAlpha"/>
<feOffset dy="4"/>
<feGaussianBlur stdDeviation="7.5"/>
<feComposite in2="hardAlpha" operator="out"/>
<feColorMatrix type="matrix" values="0 0 0 0 0 0 0 0 0 0 0 0 0 0 0 0 0 0 0.1 0"/>
<feBlend mode="normal" in2="BackgroundImageFix" result="effect1_dropShadow_1199_3659"/>
<feBlend mode="normal" in="SourceGraphic" in2="effect1_dropShadow_1199_3659" result="shape"/>
</filter>
<filter id="filter2_d_1199_3659" x="257" y="103" width="20.0845" height="26.498" filterUnits="userSpaceOnUse" color-interpolation-filters="sRGB">
<feFlood flood-opacity="0" result="BackgroundImageFix"/>
<feColorMatrix in="SourceAlpha" type="matrix" values="0 0 0 0 0 0 0 0 0 0 0 0 0 0 0 0 0 0 127 0" result="hardAlpha"/>
<feOffset dy="1"/>
<feGaussianBlur stdDeviation="1.5"/>
<feColorMatrix type="matrix" values="0 0 0 0 0 0 0 0 0 0 0 0 0 0 0 0 0 0 0.2 0"/>
<feBlend mode="normal" in2="BackgroundImageFix" result="effect1_dropShadow_1199_3659"/>
<feBlend mode="normal" in="SourceGraphic" in2="effect1_dropShadow_1199_3659" result="shape"/>
</filter>
</defs>
</svg>
